G04 #@! TF.GenerationSoftware,KiCad,Pcbnew,(2017-12-14 revision b47a06e)-master*
G04 #@! TF.CreationDate,2018-01-03T11:33:46-08:00*
G04 #@! TF.ProjectId,Elephant-3,456C657068616E742D332E6B69636164,1*
G04 #@! TF.SameCoordinates,Original*
G04 #@! TF.FileFunction,Legend,Bot*
G04 #@! TF.FilePolarity,Positive*
%FSLAX46Y46*%
G04 Gerber Fmt 4.6, Leading zero omitted, Abs format (unit mm)*
G04 Created by KiCad (PCBNEW (2017-12-14 revision b47a06e)-master) date Wednesday, January 03, 2018 'AMt' 11:33:46 AM*
%MOMM*%
%LPD*%
G01*
G04 APERTURE LIST*
%ADD10C,0.300000*%
G04 APERTURE END LIST*
D10*
X184444285Y-85768571D02*
X184444285Y-84268571D01*
X184087142Y-84268571D01*
X183872857Y-84340000D01*
X183730000Y-84482857D01*
X183658571Y-84625714D01*
X183587142Y-84911428D01*
X183587142Y-85125714D01*
X183658571Y-85411428D01*
X183730000Y-85554285D01*
X183872857Y-85697142D01*
X184087142Y-85768571D01*
X184444285Y-85768571D01*
X182372857Y-85697142D02*
X182515714Y-85768571D01*
X182801428Y-85768571D01*
X182944285Y-85697142D01*
X183015714Y-85554285D01*
X183015714Y-84982857D01*
X182944285Y-84840000D01*
X182801428Y-84768571D01*
X182515714Y-84768571D01*
X182372857Y-84840000D01*
X182301428Y-84982857D01*
X182301428Y-85125714D01*
X183015714Y-85268571D01*
X181730000Y-85697142D02*
X181587142Y-85768571D01*
X181301428Y-85768571D01*
X181158571Y-85697142D01*
X181087142Y-85554285D01*
X181087142Y-85482857D01*
X181158571Y-85340000D01*
X181301428Y-85268571D01*
X181515714Y-85268571D01*
X181658571Y-85197142D01*
X181730000Y-85054285D01*
X181730000Y-84982857D01*
X181658571Y-84840000D01*
X181515714Y-84768571D01*
X181301428Y-84768571D01*
X181158571Y-84840000D01*
X180444285Y-85768571D02*
X180444285Y-84768571D01*
X180444285Y-84268571D02*
X180515714Y-84340000D01*
X180444285Y-84411428D01*
X180372857Y-84340000D01*
X180444285Y-84268571D01*
X180444285Y-84411428D01*
X179087142Y-84768571D02*
X179087142Y-85982857D01*
X179158571Y-86125714D01*
X179230000Y-86197142D01*
X179372857Y-86268571D01*
X179587142Y-86268571D01*
X179730000Y-86197142D01*
X179087142Y-85697142D02*
X179230000Y-85768571D01*
X179515714Y-85768571D01*
X179658571Y-85697142D01*
X179730000Y-85625714D01*
X179801428Y-85482857D01*
X179801428Y-85054285D01*
X179730000Y-84911428D01*
X179658571Y-84840000D01*
X179515714Y-84768571D01*
X179230000Y-84768571D01*
X179087142Y-84840000D01*
X178372857Y-84768571D02*
X178372857Y-85768571D01*
X178372857Y-84911428D02*
X178301428Y-84840000D01*
X178158571Y-84768571D01*
X177944285Y-84768571D01*
X177801428Y-84840000D01*
X177730000Y-84982857D01*
X177730000Y-85768571D01*
X176444285Y-85697142D02*
X176587142Y-85768571D01*
X176872857Y-85768571D01*
X177015714Y-85697142D01*
X177087142Y-85554285D01*
X177087142Y-84982857D01*
X177015714Y-84840000D01*
X176872857Y-84768571D01*
X176587142Y-84768571D01*
X176444285Y-84840000D01*
X176372857Y-84982857D01*
X176372857Y-85125714D01*
X177087142Y-85268571D01*
X175087142Y-85768571D02*
X175087142Y-84268571D01*
X175087142Y-85697142D02*
X175230000Y-85768571D01*
X175515714Y-85768571D01*
X175658571Y-85697142D01*
X175730000Y-85625714D01*
X175801428Y-85482857D01*
X175801428Y-85054285D01*
X175730000Y-84911428D01*
X175658571Y-84840000D01*
X175515714Y-84768571D01*
X175230000Y-84768571D01*
X175087142Y-84840000D01*
X173230000Y-85768571D02*
X173230000Y-84268571D01*
X173230000Y-84840000D02*
X173087142Y-84768571D01*
X172801428Y-84768571D01*
X172658571Y-84840000D01*
X172587142Y-84911428D01*
X172515714Y-85054285D01*
X172515714Y-85482857D01*
X172587142Y-85625714D01*
X172658571Y-85697142D01*
X172801428Y-85768571D01*
X173087142Y-85768571D01*
X173230000Y-85697142D01*
X172015714Y-84768571D02*
X171658571Y-85768571D01*
X171301428Y-84768571D02*
X171658571Y-85768571D01*
X171801428Y-86125714D01*
X171872857Y-86197142D01*
X172015714Y-86268571D01*
X168730000Y-85625714D02*
X168801428Y-85697142D01*
X169015714Y-85768571D01*
X169158571Y-85768571D01*
X169372857Y-85697142D01*
X169515714Y-85554285D01*
X169587142Y-85411428D01*
X169658571Y-85125714D01*
X169658571Y-84911428D01*
X169587142Y-84625714D01*
X169515714Y-84482857D01*
X169372857Y-84340000D01*
X169158571Y-84268571D01*
X169015714Y-84268571D01*
X168801428Y-84340000D01*
X168730000Y-84411428D01*
X167872857Y-85768571D02*
X168015714Y-85697142D01*
X168087142Y-85625714D01*
X168158571Y-85482857D01*
X168158571Y-85054285D01*
X168087142Y-84911428D01*
X168015714Y-84840000D01*
X167872857Y-84768571D01*
X167658571Y-84768571D01*
X167515714Y-84840000D01*
X167444285Y-84911428D01*
X167372857Y-85054285D01*
X167372857Y-85482857D01*
X167444285Y-85625714D01*
X167515714Y-85697142D01*
X167658571Y-85768571D01*
X167872857Y-85768571D01*
X166730000Y-85768571D02*
X166730000Y-84768571D01*
X166730000Y-85054285D02*
X166658571Y-84911428D01*
X166587142Y-84840000D01*
X166444285Y-84768571D01*
X166301428Y-84768571D01*
X165944285Y-84768571D02*
X165658571Y-85768571D01*
X165372857Y-85054285D01*
X165087142Y-85768571D01*
X164801428Y-84768571D01*
X164230000Y-85768571D02*
X164230000Y-84768571D01*
X164230000Y-84268571D02*
X164301428Y-84340000D01*
X164230000Y-84411428D01*
X164158571Y-84340000D01*
X164230000Y-84268571D01*
X164230000Y-84411428D01*
X163515714Y-84768571D02*
X163515714Y-85768571D01*
X163515714Y-84911428D02*
X163444285Y-84840000D01*
X163301428Y-84768571D01*
X163087142Y-84768571D01*
X162944285Y-84840000D01*
X162872857Y-84982857D01*
X162872857Y-85768571D01*
X161015714Y-85768571D02*
X161015714Y-84268571D01*
X161015714Y-84982857D02*
X160158571Y-84982857D01*
X160158571Y-85768571D02*
X160158571Y-84268571D01*
X158801428Y-85768571D02*
X158801428Y-84982857D01*
X158872857Y-84840000D01*
X159015714Y-84768571D01*
X159301428Y-84768571D01*
X159444285Y-84840000D01*
X158801428Y-85697142D02*
X158944285Y-85768571D01*
X159301428Y-85768571D01*
X159444285Y-85697142D01*
X159515714Y-85554285D01*
X159515714Y-85411428D01*
X159444285Y-85268571D01*
X159301428Y-85197142D01*
X158944285Y-85197142D01*
X158801428Y-85125714D01*
X158087142Y-84768571D02*
X158087142Y-85768571D01*
X158087142Y-84911428D02*
X158015714Y-84840000D01*
X157872857Y-84768571D01*
X157658571Y-84768571D01*
X157515714Y-84840000D01*
X157444285Y-84982857D01*
X157444285Y-85768571D01*
X156801428Y-85697142D02*
X156658571Y-85768571D01*
X156372857Y-85768571D01*
X156230000Y-85697142D01*
X156158571Y-85554285D01*
X156158571Y-85482857D01*
X156230000Y-85340000D01*
X156372857Y-85268571D01*
X156587142Y-85268571D01*
X156730000Y-85197142D01*
X156801428Y-85054285D01*
X156801428Y-84982857D01*
X156730000Y-84840000D01*
X156587142Y-84768571D01*
X156372857Y-84768571D01*
X156230000Y-84840000D01*
X154944285Y-85697142D02*
X155087142Y-85768571D01*
X155372857Y-85768571D01*
X155515714Y-85697142D01*
X155587142Y-85554285D01*
X155587142Y-84982857D01*
X155515714Y-84840000D01*
X155372857Y-84768571D01*
X155087142Y-84768571D01*
X154944285Y-84840000D01*
X154872857Y-84982857D01*
X154872857Y-85125714D01*
X155587142Y-85268571D01*
X154230000Y-84768571D02*
X154230000Y-85768571D01*
X154230000Y-84911428D02*
X154158571Y-84840000D01*
X154015714Y-84768571D01*
X153801428Y-84768571D01*
X153658571Y-84840000D01*
X153587142Y-84982857D01*
X153587142Y-85768571D01*
X149444285Y-84268571D02*
X149444285Y-85482857D01*
X149372857Y-85625714D01*
X149301428Y-85697142D01*
X149158571Y-85768571D01*
X148872857Y-85768571D01*
X148730000Y-85697142D01*
X148658571Y-85625714D01*
X148587142Y-85482857D01*
X148587142Y-84268571D01*
X148015714Y-84268571D02*
X147658571Y-85768571D01*
X147372857Y-84697142D01*
X147087142Y-85768571D01*
X146730000Y-84268571D01*
X145087142Y-85340000D02*
X144372857Y-85340000D01*
X145230000Y-85768571D02*
X144730000Y-84268571D01*
X144230000Y-85768571D01*
X143730000Y-85768571D02*
X143730000Y-84268571D01*
X143158571Y-84268571D01*
X143015714Y-84340000D01*
X142944285Y-84411428D01*
X142872857Y-84554285D01*
X142872857Y-84768571D01*
X142944285Y-84911428D01*
X143015714Y-84982857D01*
X143158571Y-85054285D01*
X143730000Y-85054285D01*
X141515714Y-85768571D02*
X142230000Y-85768571D01*
X142230000Y-84268571D01*
X138944285Y-84268571D02*
X138444285Y-85768571D01*
X137944285Y-84268571D01*
X136872857Y-85697142D02*
X137015714Y-85768571D01*
X137301428Y-85768571D01*
X137444285Y-85697142D01*
X137515714Y-85554285D01*
X137515714Y-84982857D01*
X137444285Y-84840000D01*
X137301428Y-84768571D01*
X137015714Y-84768571D01*
X136872857Y-84840000D01*
X136801428Y-84982857D01*
X136801428Y-85125714D01*
X137515714Y-85268571D01*
X136158571Y-85768571D02*
X136158571Y-84768571D01*
X136158571Y-85054285D02*
X136087142Y-84911428D01*
X136015714Y-84840000D01*
X135872857Y-84768571D01*
X135730000Y-84768571D01*
X135230000Y-85625714D02*
X135158571Y-85697142D01*
X135230000Y-85768571D01*
X135301428Y-85697142D01*
X135230000Y-85625714D01*
X135230000Y-85768571D01*
X132587142Y-85768571D02*
X133444285Y-85768571D01*
X133015714Y-85768571D02*
X133015714Y-84268571D01*
X133158571Y-84482857D01*
X133301428Y-84625714D01*
X133444285Y-84697142D01*
X131944285Y-85625714D02*
X131872857Y-85697142D01*
X131944285Y-85768571D01*
X132015714Y-85697142D01*
X131944285Y-85625714D01*
X131944285Y-85768571D01*
X130944285Y-84268571D02*
X130801428Y-84268571D01*
X130658571Y-84340000D01*
X130587142Y-84411428D01*
X130515714Y-84554285D01*
X130444285Y-84840000D01*
X130444285Y-85197142D01*
X130515714Y-85482857D01*
X130587142Y-85625714D01*
X130658571Y-85697142D01*
X130801428Y-85768571D01*
X130944285Y-85768571D01*
X131087142Y-85697142D01*
X131158571Y-85625714D01*
X131230000Y-85482857D01*
X131301428Y-85197142D01*
X131301428Y-84840000D01*
X131230000Y-84554285D01*
X131158571Y-84411428D01*
X131087142Y-84340000D01*
X130944285Y-84268571D01*
M02*
