G04 #@! TF.GenerationSoftware,KiCad,Pcbnew,(2017-12-14 revision b47a06e)-master*
G04 #@! TF.CreationDate,2017-12-30T01:35:11-08:00*
G04 #@! TF.ProjectId,Elephant-3,456C657068616E742D332E6B69636164,1*
G04 #@! TF.SameCoordinates,Original*
G04 #@! TF.FileFunction,Copper,L1,Top,Signal*
G04 #@! TF.FilePolarity,Positive*
%FSLAX46Y46*%
G04 Gerber Fmt 4.6, Leading zero omitted, Abs format (unit mm)*
G04 Created by KiCad (PCBNEW (2017-12-14 revision b47a06e)-master) date Saturday, December 30, 2017 'AMt' 01:35:11 AM*
%MOMM*%
%LPD*%
G01*
G04 APERTURE LIST*
%ADD10R,3.800000X2.000000*%
%ADD11R,1.500000X2.000000*%
%ADD12R,1.000000X2.570000*%
%ADD13R,1.000000X3.800000*%
%ADD14R,1.000000X3.470000*%
%ADD15R,2.570000X1.000000*%
%ADD16R,3.800000X1.000000*%
%ADD17R,3.470000X1.000000*%
%ADD18R,1.000000X1.000000*%
%ADD19R,0.600000X1.550000*%
%ADD20R,0.500000X0.600000*%
%ADD21R,1.800000X2.500000*%
%ADD22R,0.600000X0.400000*%
%ADD23R,2.500000X1.800000*%
%ADD24C,2.400000*%
%ADD25R,1.800000X1.800000*%
%ADD26O,1.800000X1.800000*%
%ADD27R,1.700000X1.700000*%
%ADD28O,1.700000X1.700000*%
%ADD29C,5.000000*%
%ADD30R,1.200000X0.700000*%
%ADD31R,1.200000X1.000000*%
%ADD32R,0.800000X1.000000*%
%ADD33R,2.800000X1.000000*%
%ADD34R,1.900000X1.300000*%
%ADD35R,2.500000X4.500000*%
%ADD36O,2.500000X4.500000*%
%ADD37R,0.600000X1.500000*%
%ADD38R,0.750000X0.800000*%
%ADD39R,3.500000X1.600000*%
%ADD40R,3.000000X1.600000*%
%ADD41R,0.600000X0.500000*%
%ADD42R,2.600000X1.600000*%
%ADD43R,0.800000X0.750000*%
%ADD44R,1.000000X3.150000*%
%ADD45R,1.200000X1.200000*%
%ADD46R,0.700000X1.300000*%
%ADD47R,0.400000X0.600000*%
%ADD48R,1.700000X0.900000*%
%ADD49R,0.900000X1.700000*%
%ADD50R,1.550000X1.300000*%
%ADD51R,0.550000X1.600000*%
%ADD52R,1.600000X0.550000*%
%ADD53R,1.200000X1.400000*%
%ADD54R,3.050000X2.750000*%
%ADD55R,6.400000X5.800000*%
%ADD56R,2.200000X1.200000*%
%ADD57C,0.800000*%
%ADD58C,0.500000*%
%ADD59C,1.000000*%
%ADD60C,0.250000*%
%ADD61C,2.000000*%
%ADD62C,3.000000*%
%ADD63C,0.254000*%
G04 APERTURE END LIST*
D10*
X127000000Y-109195000D03*
D11*
X127000000Y-102895000D03*
X124700000Y-102895000D03*
X129300000Y-102895000D03*
D12*
X157785000Y-107105000D03*
X131775000Y-107105000D03*
D13*
X157785000Y-101720000D03*
X131775000Y-101720000D03*
D14*
X157785000Y-95885000D03*
X131775000Y-95885000D03*
D13*
X157785000Y-90050000D03*
X131775000Y-90050000D03*
D12*
X157785000Y-84665000D03*
X131775000Y-84665000D03*
D15*
X156000000Y-108890000D03*
X156000000Y-82880000D03*
D16*
X150615000Y-108890000D03*
X150615000Y-82880000D03*
D17*
X144780000Y-108890000D03*
X144780000Y-82880000D03*
D16*
X138945000Y-108890000D03*
X138945000Y-82880000D03*
D15*
X133560000Y-108890000D03*
X133560000Y-82880000D03*
D18*
X131775000Y-108890000D03*
X157785000Y-108890000D03*
X157785000Y-82880000D03*
X131775000Y-82880000D03*
D19*
X151765000Y-98900000D03*
X153035000Y-98900000D03*
X154305000Y-98900000D03*
X155575000Y-98900000D03*
X155575000Y-104300000D03*
X154305000Y-104300000D03*
X153035000Y-104300000D03*
X151765000Y-104300000D03*
D20*
X157226000Y-113199000D03*
X157226000Y-112099000D03*
D21*
X154432000Y-117062000D03*
X154432000Y-113062000D03*
D22*
X156972000Y-115512000D03*
X156972000Y-114612000D03*
D21*
X159512000Y-113062000D03*
X159512000Y-117062000D03*
D23*
X124492000Y-89281000D03*
X128492000Y-89281000D03*
D24*
X170815000Y-104970000D03*
X170815000Y-77470000D03*
D25*
X184150000Y-81915000D03*
D26*
X184150000Y-76835000D03*
D27*
X126365000Y-71120000D03*
D28*
X128905000Y-71120000D03*
D27*
X121285000Y-91440000D03*
D28*
X121285000Y-93980000D03*
X121285000Y-96520000D03*
D27*
X121285000Y-81280000D03*
D28*
X121285000Y-83820000D03*
X121285000Y-86360000D03*
D27*
X121285000Y-71120000D03*
D28*
X121285000Y-73660000D03*
X121285000Y-76200000D03*
D27*
X121285000Y-102870000D03*
D28*
X121285000Y-105410000D03*
D27*
X135255000Y-71120000D03*
D28*
X137795000Y-71120000D03*
D29*
X178435000Y-71755000D03*
X188595000Y-71755000D03*
X194945000Y-81915000D03*
X194945000Y-71755000D03*
X184785000Y-123825000D03*
X194945000Y-123825000D03*
D30*
X135728000Y-112762000D03*
X135728000Y-113712000D03*
X135728000Y-121412000D03*
X135728000Y-120312000D03*
X135728000Y-119212000D03*
X135728000Y-118112000D03*
X135728000Y-117012000D03*
X135728000Y-115912000D03*
X135728000Y-114812000D03*
D31*
X135728000Y-122962000D03*
X131428000Y-111812000D03*
D32*
X125228000Y-111812000D03*
D33*
X121078000Y-111812000D03*
D34*
X120628000Y-125312000D03*
D27*
X167005000Y-71120000D03*
D28*
X164465000Y-71120000D03*
D29*
X194945000Y-88265000D03*
X194945000Y-98425000D03*
D35*
X184150000Y-116586000D03*
D36*
X189600000Y-116586000D03*
X195050000Y-116586000D03*
D35*
X184150000Y-107315000D03*
D36*
X189600000Y-107315000D03*
X195050000Y-107315000D03*
D37*
X134239000Y-104808000D03*
X135509000Y-104808000D03*
X136779000Y-104808000D03*
X138049000Y-104808000D03*
X139319000Y-104808000D03*
X140589000Y-104808000D03*
X141859000Y-104808000D03*
X143129000Y-104808000D03*
X143129000Y-99408000D03*
X141859000Y-99408000D03*
X140589000Y-99408000D03*
X139319000Y-99408000D03*
X138049000Y-99408000D03*
X136779000Y-99408000D03*
X135509000Y-99408000D03*
X134239000Y-99408000D03*
D38*
X138811000Y-89547000D03*
X138811000Y-91047000D03*
X150749000Y-93484000D03*
X150749000Y-94984000D03*
D39*
X138209000Y-77851000D03*
X132809000Y-77851000D03*
D40*
X142326000Y-77851000D03*
X146726000Y-77851000D03*
D41*
X128355000Y-95885000D03*
X129455000Y-95885000D03*
D42*
X143913000Y-113411000D03*
X140313000Y-113411000D03*
D41*
X128355000Y-86995000D03*
X129455000Y-86995000D03*
D20*
X134620000Y-91906000D03*
X134620000Y-93006000D03*
X134620000Y-94954000D03*
X134620000Y-96054000D03*
D41*
X129455000Y-77597000D03*
X128355000Y-77597000D03*
D43*
X132981000Y-106299000D03*
X134481000Y-106299000D03*
D38*
X149225000Y-121920000D03*
X149225000Y-123420000D03*
D43*
X154317000Y-96901000D03*
X155817000Y-96901000D03*
D38*
X137414000Y-116598000D03*
X137414000Y-118098000D03*
D44*
X144780000Y-118760000D03*
X144780000Y-123810000D03*
X142240000Y-118760000D03*
X142240000Y-123810000D03*
X139700000Y-118760000D03*
X139700000Y-123810000D03*
D45*
X156167000Y-80518000D03*
X153967000Y-80518000D03*
D23*
X128492000Y-98171000D03*
X124492000Y-98171000D03*
X128492000Y-93091000D03*
X124492000Y-93091000D03*
X124492000Y-84201000D03*
X128492000Y-84201000D03*
D21*
X150495000Y-113030000D03*
X150495000Y-117030000D03*
D23*
X124492000Y-80391000D03*
X128492000Y-80391000D03*
X124492000Y-75311000D03*
X128492000Y-75311000D03*
D46*
X150307000Y-80518000D03*
X152207000Y-80518000D03*
D47*
X126942000Y-95631000D03*
X126042000Y-95631000D03*
X126042000Y-86741000D03*
X126942000Y-86741000D03*
D48*
X135255000Y-89715000D03*
X135255000Y-86815000D03*
X147574000Y-116258000D03*
X147574000Y-113358000D03*
D47*
X126757000Y-77851000D03*
X125857000Y-77851000D03*
D48*
X180213000Y-119433000D03*
X180213000Y-116533000D03*
D49*
X167460000Y-122682000D03*
X170360000Y-122682000D03*
D48*
X180213000Y-108659000D03*
X180213000Y-111559000D03*
D46*
X172278000Y-122682000D03*
X174178000Y-122682000D03*
D50*
X151595000Y-120559000D03*
X151595000Y-125059000D03*
X159555000Y-125059000D03*
X159555000Y-120559000D03*
D51*
X141980000Y-87190000D03*
X142780000Y-87190000D03*
X143580000Y-87190000D03*
X144380000Y-87190000D03*
X145180000Y-87190000D03*
X145980000Y-87190000D03*
X146780000Y-87190000D03*
X147580000Y-87190000D03*
D52*
X149030000Y-88640000D03*
X149030000Y-89440000D03*
X149030000Y-90240000D03*
X149030000Y-91040000D03*
X149030000Y-91840000D03*
X149030000Y-92640000D03*
X149030000Y-93440000D03*
X149030000Y-94240000D03*
D51*
X147580000Y-95690000D03*
X146780000Y-95690000D03*
X145980000Y-95690000D03*
X145180000Y-95690000D03*
X144380000Y-95690000D03*
X143580000Y-95690000D03*
X142780000Y-95690000D03*
X141980000Y-95690000D03*
D52*
X140530000Y-94240000D03*
X140530000Y-93440000D03*
X140530000Y-92640000D03*
X140530000Y-91840000D03*
X140530000Y-91040000D03*
X140530000Y-90240000D03*
X140530000Y-89440000D03*
X140530000Y-88640000D03*
D42*
X142726000Y-72136000D03*
X146326000Y-72136000D03*
D53*
X137960000Y-92880000D03*
X137960000Y-95080000D03*
X136360000Y-95080000D03*
X136360000Y-92880000D03*
D54*
X154984000Y-76963000D03*
X158334000Y-73913000D03*
X154984000Y-73913000D03*
X158334000Y-76963000D03*
D55*
X156659000Y-75438000D03*
D56*
X150359000Y-77718000D03*
X150359000Y-73158000D03*
D57*
X159004000Y-102108000D03*
X145415000Y-81788000D03*
X132842000Y-88900000D03*
X132842000Y-102362000D03*
X138684000Y-109892000D03*
X144399000Y-107823000D03*
X179832000Y-112649000D03*
X181737000Y-112014000D03*
X178689000Y-118872000D03*
X181610000Y-120015000D03*
X167513000Y-124206000D03*
X166370000Y-121793000D03*
X144526000Y-120904000D03*
X145923000Y-117348000D03*
X148971000Y-120777000D03*
X151765000Y-121793000D03*
X159258000Y-121793000D03*
X152146000Y-119253000D03*
X159258000Y-119126000D03*
X142875000Y-112014000D03*
X144999326Y-111982766D03*
X157480000Y-80518000D03*
X137033000Y-76454000D03*
X143383000Y-76454000D03*
X141097000Y-76454000D03*
X139319000Y-76454000D03*
X140970000Y-73406000D03*
X140843000Y-71686000D03*
X156083000Y-95885000D03*
X149860000Y-95758000D03*
X137414000Y-91440000D03*
X138430000Y-88519000D03*
X133731000Y-89916000D03*
X136779000Y-90043000D03*
X133731000Y-92964000D03*
X135255000Y-94107000D03*
X133731000Y-94996000D03*
X126619000Y-99314000D03*
X126746000Y-90297000D03*
X127762000Y-78740000D03*
X129286000Y-82042000D03*
X129032000Y-76811002D03*
X127381000Y-87884000D03*
X127127000Y-96647000D03*
X130556000Y-101092000D03*
X128143000Y-101092000D03*
X132842000Y-107442000D03*
X153924000Y-105918000D03*
X143256000Y-106299000D03*
X132207000Y-81534000D03*
X158369000Y-81661000D03*
X156849653Y-111120347D03*
X158115000Y-111125000D03*
X160401000Y-111125000D03*
X134366000Y-122428000D03*
X137414000Y-115443000D03*
X122301000Y-124968000D03*
X120650000Y-113030000D03*
X121285000Y-110617000D03*
X132080000Y-110744000D03*
X131318000Y-110109000D03*
X155448000Y-107569000D03*
X159131000Y-107569000D03*
X158877000Y-109855000D03*
X151003000Y-109982000D03*
X133858000Y-107696000D03*
X150749000Y-83947000D03*
X145161000Y-91567000D03*
X143764000Y-90170000D03*
X143764000Y-91567000D03*
X147320000Y-91059000D03*
X142367000Y-91567000D03*
X142240000Y-90170000D03*
X131762500Y-98742500D03*
X131762500Y-92964000D03*
X141922500Y-108902500D03*
X157797500Y-98679000D03*
X157797500Y-93027500D03*
X157797500Y-86995000D03*
X135890000Y-82867500D03*
X141922500Y-82867500D03*
X142694989Y-116204565D03*
X144145000Y-116205000D03*
X159004000Y-71374000D03*
X157226000Y-71374000D03*
X155448000Y-71374000D03*
X153670000Y-71374000D03*
X153670000Y-69850000D03*
X155448000Y-69850000D03*
X157226000Y-69850000D03*
X159004000Y-69850000D03*
X160528000Y-69850000D03*
X160528000Y-71374000D03*
X160528000Y-72898000D03*
X160528000Y-74422000D03*
X160528000Y-75946000D03*
X160528000Y-77470000D03*
X160528000Y-78994000D03*
X158750000Y-78994000D03*
X156972000Y-78994000D03*
X155194000Y-78994000D03*
X153416000Y-78994000D03*
X151666021Y-88534987D03*
X147629988Y-88590056D03*
X129196000Y-105537000D03*
X129540006Y-123190000D03*
X130990011Y-123232196D03*
X130646000Y-105550460D03*
X177533000Y-116459000D03*
X171797000Y-116332000D03*
X177533000Y-108585000D03*
X171797000Y-108585000D03*
X148531859Y-101160858D03*
X145076956Y-98069740D03*
X151640092Y-89535522D03*
X147629988Y-89590069D03*
X147706359Y-101986358D03*
X144369848Y-98776848D03*
D58*
X150816011Y-86629823D02*
X150816010Y-89327180D01*
X146726000Y-80171002D02*
X147447000Y-80892002D01*
X147447000Y-83260812D02*
X150816011Y-86629823D01*
X150660999Y-89482191D02*
X150660999Y-90170000D01*
X150816010Y-89327180D02*
X150660999Y-89482191D01*
X147447000Y-80892002D02*
X147447000Y-83260812D01*
X146726000Y-77851000D02*
X146726000Y-80171002D01*
X157785000Y-101720000D02*
X158616000Y-101720000D01*
X158616000Y-101720000D02*
X159004000Y-102108000D01*
X144780000Y-82880000D02*
X144780000Y-82423000D01*
X144780000Y-82423000D02*
X145415000Y-81788000D01*
X131775000Y-90050000D02*
X131775000Y-89967000D01*
X131775000Y-89967000D02*
X132842000Y-88900000D01*
X131775000Y-101720000D02*
X132200000Y-101720000D01*
X132200000Y-101720000D02*
X132842000Y-102362000D01*
X138945000Y-108890000D02*
X138945000Y-109631000D01*
X138945000Y-109631000D02*
X138684000Y-109892000D01*
X144780000Y-108890000D02*
X144780000Y-108204000D01*
X144780000Y-108204000D02*
X144399000Y-107823000D01*
X131775000Y-82880000D02*
X133560000Y-82880000D01*
X131775000Y-84665000D02*
X131775000Y-82880000D01*
X131775000Y-101720000D02*
X131775000Y-98755000D01*
X131775000Y-98755000D02*
X131762500Y-98742500D01*
X179832000Y-112649000D02*
X179705000Y-112522000D01*
X179705000Y-112522000D02*
X179705000Y-111887000D01*
X179705000Y-111887000D02*
X180033000Y-111559000D01*
X180033000Y-111559000D02*
X180213000Y-111559000D01*
X180213000Y-111559000D02*
X181282000Y-111559000D01*
X181282000Y-111559000D02*
X181737000Y-112014000D01*
X180213000Y-119433000D02*
X179250000Y-119433000D01*
X179250000Y-119433000D02*
X178689000Y-118872000D01*
X181610000Y-120015000D02*
X180901000Y-119433000D01*
X180901000Y-119433000D02*
X180213000Y-119433000D01*
X167460000Y-122682000D02*
X167460000Y-124153000D01*
X167460000Y-124153000D02*
X167513000Y-124206000D01*
X167460000Y-122682000D02*
X167259000Y-122682000D01*
X167259000Y-122682000D02*
X166370000Y-121793000D01*
X144780000Y-118760000D02*
X144780000Y-120650000D01*
X144780000Y-120650000D02*
X144526000Y-120904000D01*
X144780000Y-118760000D02*
X144780000Y-118491000D01*
X144780000Y-118491000D02*
X145923000Y-117348000D01*
X149225000Y-121920000D02*
X149225000Y-121031000D01*
X149225000Y-121031000D02*
X148971000Y-120777000D01*
X151595000Y-120559000D02*
X151595000Y-121623000D01*
X151595000Y-121623000D02*
X151765000Y-121793000D01*
X159555000Y-120559000D02*
X159555000Y-121496000D01*
X159555000Y-121496000D02*
X159258000Y-121793000D01*
X152146000Y-119253000D02*
X151595000Y-119931000D01*
X151595000Y-119931000D02*
X151595000Y-120559000D01*
X159555000Y-120559000D02*
X159555000Y-119409000D01*
X159555000Y-119409000D02*
X159272000Y-119126000D01*
X143913000Y-113411000D02*
X143913000Y-113052000D01*
X143913000Y-113052000D02*
X142875000Y-112014000D01*
X143913000Y-113411000D02*
X143913000Y-113069092D01*
X143913000Y-113069092D02*
X144999326Y-111982766D01*
X144780000Y-108890000D02*
X141935000Y-108890000D01*
X141935000Y-108890000D02*
X141922500Y-108902500D01*
X156167000Y-80518000D02*
X157480000Y-80518000D01*
X138209000Y-77851000D02*
X138209000Y-77630000D01*
X138209000Y-77630000D02*
X137033000Y-76454000D01*
X142326000Y-77851000D02*
X142326000Y-77511000D01*
X142326000Y-77511000D02*
X143383000Y-76454000D01*
X141097000Y-76454000D02*
X142113000Y-77851000D01*
X142113000Y-77851000D02*
X142326000Y-77851000D01*
X139319000Y-76454000D02*
X138209000Y-77564000D01*
X138209000Y-77564000D02*
X138209000Y-77851000D01*
X142726000Y-72136000D02*
X142240000Y-72136000D01*
X142240000Y-72136000D02*
X140970000Y-73406000D01*
X142726000Y-72136000D02*
X141293000Y-72136000D01*
X141293000Y-72136000D02*
X140843000Y-71686000D01*
X157797500Y-98679000D02*
X157797500Y-95897500D01*
X157797500Y-95897500D02*
X157785000Y-95885000D01*
X156000000Y-82880000D02*
X157785000Y-82880000D01*
X155817000Y-96901000D02*
X155817000Y-96151000D01*
X155817000Y-96151000D02*
X156083000Y-95885000D01*
X150749000Y-94984000D02*
X150634000Y-94984000D01*
X150634000Y-94984000D02*
X149860000Y-95758000D01*
X137960000Y-92880000D02*
X137960000Y-91986000D01*
X137960000Y-91986000D02*
X137414000Y-91440000D01*
X149030000Y-91040000D02*
X147339000Y-91040000D01*
X147339000Y-91040000D02*
X147320000Y-91059000D01*
X140530000Y-90240000D02*
X142170000Y-90240000D01*
X142170000Y-90240000D02*
X142240000Y-90170000D01*
X140530000Y-91840000D02*
X142094000Y-91840000D01*
X142094000Y-91840000D02*
X142367000Y-91567000D01*
X138811000Y-89547000D02*
X138811000Y-88900000D01*
X138811000Y-88900000D02*
X138430000Y-88519000D01*
X135255000Y-89715000D02*
X133932000Y-89715000D01*
X133932000Y-89715000D02*
X133731000Y-89916000D01*
X135255000Y-89715000D02*
X136451000Y-89715000D01*
X136451000Y-89715000D02*
X136779000Y-90043000D01*
X134620000Y-93006000D02*
X133773000Y-93006000D01*
X133773000Y-93006000D02*
X133731000Y-92964000D01*
X136360000Y-95080000D02*
X136228000Y-95080000D01*
X136228000Y-95080000D02*
X135255000Y-94107000D01*
X134620000Y-94954000D02*
X133773000Y-94954000D01*
X133773000Y-94954000D02*
X133731000Y-94996000D01*
X126619000Y-99314000D02*
X127889000Y-98171000D01*
X127889000Y-98171000D02*
X128492000Y-98171000D01*
X126746000Y-90297000D02*
X127762000Y-89281000D01*
X127762000Y-89281000D02*
X128492000Y-89281000D01*
X127762000Y-78740000D02*
X128492000Y-79597000D01*
X128492000Y-79597000D02*
X128492000Y-80391000D01*
X128492000Y-80391000D02*
X128492000Y-81248000D01*
X128492000Y-81248000D02*
X129286000Y-82042000D01*
X129455000Y-77597000D02*
X129455000Y-77234002D01*
X129455000Y-77234002D02*
X129032000Y-76811002D01*
X128492000Y-89281000D02*
X128492000Y-88995000D01*
X128492000Y-88995000D02*
X127381000Y-87884000D01*
X128492000Y-89281000D02*
X129455000Y-88318000D01*
X129455000Y-88318000D02*
X129455000Y-86995000D01*
X128492000Y-98171000D02*
X128492000Y-98012000D01*
X128492000Y-98012000D02*
X127127000Y-96647000D01*
X128492000Y-98171000D02*
X129455000Y-97208000D01*
X129455000Y-97208000D02*
X129455000Y-95885000D01*
X129300000Y-102895000D02*
X129300000Y-102348000D01*
X129300000Y-102348000D02*
X130556000Y-101092000D01*
X129300000Y-102895000D02*
X129300000Y-102249000D01*
X129300000Y-102249000D02*
X128143000Y-101092000D01*
X132981000Y-106299000D02*
X132981000Y-107303000D01*
X132981000Y-107303000D02*
X132842000Y-107442000D01*
X132981000Y-106299000D02*
X132581000Y-106299000D01*
X132581000Y-106299000D02*
X131775000Y-107105000D01*
X154305000Y-104300000D02*
X154305000Y-105537000D01*
X154305000Y-105537000D02*
X153924000Y-105918000D01*
X143129000Y-104808000D02*
X143129000Y-106172000D01*
X143129000Y-106172000D02*
X143256000Y-106299000D01*
X131775000Y-82880000D02*
X131775000Y-81966000D01*
X131775000Y-81966000D02*
X132207000Y-81534000D01*
X157785000Y-82880000D02*
X157785000Y-82245000D01*
X157785000Y-82245000D02*
X158369000Y-81661000D01*
X157226000Y-112099000D02*
X157226000Y-111496694D01*
X157226000Y-111496694D02*
X156849653Y-111120347D01*
X159004000Y-112014000D02*
X158514999Y-111524999D01*
X158514999Y-111524999D02*
X158115000Y-111125000D01*
X159512000Y-112014000D02*
X159004000Y-112014000D01*
X159512000Y-113062000D02*
X159512000Y-112014000D01*
X159512000Y-112014000D02*
X160401000Y-111125000D01*
X135728000Y-122962000D02*
X134900000Y-122962000D01*
X134900000Y-122962000D02*
X134366000Y-122428000D01*
X136728000Y-115912000D02*
X136945000Y-115912000D01*
X136945000Y-115912000D02*
X137414000Y-115443000D01*
X135728000Y-115912000D02*
X136728000Y-115912000D01*
X136728000Y-115912000D02*
X137414000Y-116598000D01*
X120628000Y-125312000D02*
X121957000Y-125312000D01*
X121957000Y-125312000D02*
X122301000Y-124968000D01*
X121078000Y-111812000D02*
X121078000Y-112602000D01*
X121078000Y-112602000D02*
X120650000Y-113030000D01*
X121078000Y-111812000D02*
X121078000Y-110824000D01*
X121078000Y-110824000D02*
X121285000Y-110617000D01*
X131428000Y-111812000D02*
X131428000Y-111396000D01*
X131428000Y-111396000D02*
X132080000Y-110744000D01*
X131775000Y-108890000D02*
X131775000Y-109652000D01*
X131775000Y-109652000D02*
X131318000Y-110109000D01*
X156000000Y-108890000D02*
X156000000Y-108121000D01*
X156000000Y-108121000D02*
X155448000Y-107569000D01*
X157785000Y-107105000D02*
X158667000Y-107105000D01*
X158667000Y-107105000D02*
X159131000Y-107569000D01*
X157785000Y-108890000D02*
X157912000Y-108890000D01*
X157912000Y-108890000D02*
X158877000Y-109855000D01*
X150615000Y-108890000D02*
X150615000Y-109594000D01*
X150615000Y-109594000D02*
X151003000Y-109982000D01*
X133560000Y-108890000D02*
X133560000Y-107994000D01*
X133560000Y-107994000D02*
X133858000Y-107696000D01*
X150615000Y-82880000D02*
X150615000Y-83813000D01*
X150615000Y-83813000D02*
X150749000Y-83947000D01*
X130242000Y-78592810D02*
X130242000Y-76711000D01*
X146026000Y-77851000D02*
X144726000Y-79151000D01*
X128842000Y-75311000D02*
X128492000Y-75311000D01*
X130242000Y-76711000D02*
X128842000Y-75311000D01*
X130800190Y-79151000D02*
X130242000Y-78592810D01*
X146726000Y-77851000D02*
X146026000Y-77851000D01*
X144726000Y-79151000D02*
X130800190Y-79151000D01*
X145034000Y-102183812D02*
X152400000Y-94817812D01*
X150495000Y-112680000D02*
X147895011Y-110080011D01*
X152400000Y-94817812D02*
X152400000Y-91909001D01*
X147895011Y-110080011D02*
X147895011Y-107890011D01*
X145034000Y-105029000D02*
X145034000Y-102183812D01*
X150495000Y-113030000D02*
X150495000Y-112680000D01*
X147895011Y-107890011D02*
X145034000Y-105029000D01*
X152400000Y-91909001D02*
X150660999Y-90170000D01*
X139700000Y-117685000D02*
X141180435Y-116204565D01*
X139700000Y-118760000D02*
X139700000Y-117685000D01*
X142129304Y-116204565D02*
X142694989Y-116204565D01*
X141180435Y-116204565D02*
X142129304Y-116204565D01*
X150660999Y-90170000D02*
X150660999Y-93109001D01*
X144145000Y-116205000D02*
X145677000Y-116205000D01*
X145677000Y-116205000D02*
X147574000Y-114308000D01*
X147574000Y-114308000D02*
X147574000Y-113358000D01*
X150660999Y-93109001D02*
X150330000Y-93440000D01*
X150330000Y-93440000D02*
X149030000Y-93440000D01*
X140530000Y-92640000D02*
X141830000Y-92640000D01*
X141830000Y-92640000D02*
X142662000Y-93472000D01*
X142662000Y-93472000D02*
X148011003Y-93472000D01*
X148011003Y-93472000D02*
X148043003Y-93440000D01*
X148043003Y-93440000D02*
X149030000Y-93440000D01*
X139700000Y-119395000D02*
X139700000Y-118320000D01*
X138811000Y-91047000D02*
X138811000Y-91440000D01*
X138811000Y-91440000D02*
X139279999Y-91908999D01*
X139279999Y-91908999D02*
X139279999Y-92475001D01*
X139279999Y-92475001D02*
X139444998Y-92640000D01*
X139444998Y-92640000D02*
X140530000Y-92640000D01*
X138811000Y-91047000D02*
X140523000Y-91047000D01*
X140523000Y-91047000D02*
X140530000Y-91040000D01*
X150307000Y-80518000D02*
X150307000Y-77770000D01*
X150307000Y-77770000D02*
X150359000Y-77718000D01*
X150359000Y-77718000D02*
X146859000Y-77718000D01*
X146859000Y-77718000D02*
X146726000Y-77851000D01*
X150495000Y-113030000D02*
X154400000Y-113030000D01*
X154400000Y-113030000D02*
X154432000Y-113062000D01*
X147574000Y-113358000D02*
X150167000Y-113358000D01*
X150167000Y-113358000D02*
X150495000Y-113030000D01*
X119253000Y-94488000D02*
X119253000Y-97028000D01*
X119253000Y-97028000D02*
X119253000Y-103378000D01*
X124700000Y-102895000D02*
X124700000Y-102645000D01*
X124700000Y-102645000D02*
X119253000Y-97198000D01*
X119253000Y-97198000D02*
X119253000Y-97028000D01*
X119253000Y-103378000D02*
X121285000Y-105410000D01*
X124841000Y-73152000D02*
X125983000Y-73152000D01*
X125983000Y-73152000D02*
X128142000Y-75311000D01*
X128142000Y-75311000D02*
X128492000Y-75311000D01*
X123444000Y-71755000D02*
X124841000Y-73152000D01*
X123444000Y-70231000D02*
X123444000Y-71755000D01*
X119253000Y-78232000D02*
X119253000Y-70104000D01*
X119253000Y-70104000D02*
X120015000Y-69342000D01*
X120015000Y-69342000D02*
X122555000Y-69342000D01*
X122555000Y-69342000D02*
X123444000Y-70231000D01*
X119253000Y-82550000D02*
X119253000Y-79883000D01*
X122682000Y-80166998D02*
X122682000Y-81788000D01*
X123695000Y-82801000D02*
X126742000Y-82801000D01*
X126742000Y-82801000D02*
X128142000Y-84201000D01*
X119253000Y-79883000D02*
X122398002Y-79883000D01*
X122398002Y-79883000D02*
X122682000Y-80166998D01*
X122682000Y-81788000D02*
X123695000Y-82801000D01*
X128142000Y-84201000D02*
X128492000Y-84201000D01*
X128492000Y-93091000D02*
X128142000Y-93091000D01*
X128142000Y-93091000D02*
X126237000Y-91186000D01*
X126237000Y-91186000D02*
X123541002Y-91186000D01*
X123541002Y-91186000D02*
X122271002Y-89916000D01*
X122271002Y-89916000D02*
X119253000Y-89916000D01*
X119253000Y-88773000D02*
X119253000Y-89916000D01*
X119253000Y-89916000D02*
X119253000Y-94488000D01*
X119253000Y-88773000D02*
X119253000Y-82550000D01*
X119253000Y-82550000D02*
X119253000Y-78232000D01*
X119253000Y-94488000D02*
X121285000Y-96520000D01*
X121285000Y-86360000D02*
X119253000Y-88392000D01*
X119253000Y-88392000D02*
X119253000Y-88773000D01*
X120435001Y-77049999D02*
X121285000Y-76200000D01*
X119253000Y-78232000D02*
X120435001Y-77049999D01*
D59*
X138945000Y-82880000D02*
X133560000Y-82880000D01*
X131775000Y-101720000D02*
X131775000Y-95885000D01*
X131775000Y-90050000D02*
X131775000Y-95885000D01*
X144780000Y-82880000D02*
X138945000Y-82880000D01*
X157785000Y-90050000D02*
X157785000Y-84665000D01*
X157785000Y-90050000D02*
X157785000Y-95885000D01*
X157785000Y-101720000D02*
X157785000Y-95885000D01*
X138945000Y-108890000D02*
X144780000Y-108890000D01*
D60*
X149030000Y-91040000D02*
X142875000Y-91040000D01*
X142875000Y-91040000D02*
X142380000Y-91040000D01*
X142075000Y-91840000D02*
X142875000Y-91040000D01*
D58*
X132809000Y-77851000D02*
X133759000Y-77851000D01*
X149859000Y-73158000D02*
X150359000Y-73158000D01*
X133759000Y-77851000D02*
X137352000Y-74258000D01*
X137352000Y-74258000D02*
X148759000Y-74258000D01*
X148759000Y-74258000D02*
X149859000Y-73158000D01*
X128905000Y-71120000D02*
X132809000Y-75024000D01*
X132809000Y-75024000D02*
X132809000Y-77851000D01*
D60*
X150413988Y-107614988D02*
X146304000Y-103505000D01*
X157226000Y-113149000D02*
X156650999Y-112573999D01*
X146304000Y-103505000D02*
X146304000Y-102363411D01*
X152961401Y-107614988D02*
X150413988Y-107614988D01*
X152066020Y-88934986D02*
X151666021Y-88534987D01*
X146304000Y-102363411D02*
X153485010Y-95182401D01*
X153866011Y-108519598D02*
X152961401Y-107614988D01*
X153485010Y-90353976D02*
X152066020Y-88934986D01*
X157226000Y-113199000D02*
X157226000Y-113149000D01*
X153485010Y-95182401D02*
X153485010Y-90353976D01*
X153866011Y-109162011D02*
X153866011Y-108519598D01*
X156650999Y-111946999D02*
X153866011Y-109162011D01*
X156650999Y-112573999D02*
X156650999Y-111946999D01*
X147064303Y-88590056D02*
X147629988Y-88590056D01*
X145530056Y-88590056D02*
X147064303Y-88590056D01*
X145180000Y-87190000D02*
X145180000Y-88240000D01*
X145180000Y-88240000D02*
X145530056Y-88590056D01*
X156972000Y-114612000D02*
X156972000Y-113453000D01*
X156972000Y-113453000D02*
X157226000Y-113199000D01*
X128405000Y-95885000D02*
X128355000Y-95885000D01*
X136838818Y-85090000D02*
X136065796Y-85863022D01*
X130080001Y-94209999D02*
X128405000Y-95885000D01*
X130080001Y-87724999D02*
X130080001Y-94209999D01*
X130486989Y-87318011D02*
X130080001Y-87724999D01*
X132837900Y-87318011D02*
X130486989Y-87318011D01*
X136065796Y-85863022D02*
X134292889Y-85863022D01*
X147580000Y-86329998D02*
X146340002Y-85090000D01*
X147580000Y-87190000D02*
X147580000Y-86329998D01*
X134292889Y-85863022D02*
X132837900Y-87318011D01*
X146340002Y-85090000D02*
X136838818Y-85090000D01*
X126942000Y-95631000D02*
X128101000Y-95631000D01*
X128101000Y-95631000D02*
X128355000Y-95885000D01*
X128980001Y-86419999D02*
X130015001Y-86419999D01*
X128405000Y-86995000D02*
X128980001Y-86419999D01*
X149030000Y-86979998D02*
X149030000Y-88115000D01*
X146689991Y-84639989D02*
X149030000Y-86979998D01*
X135879396Y-85413011D02*
X136652418Y-84639989D01*
X132651500Y-86868000D02*
X134106489Y-85413011D01*
X149030000Y-88115000D02*
X149030000Y-88640000D01*
X130015001Y-86419999D02*
X130463002Y-86868000D01*
X130463002Y-86868000D02*
X132651500Y-86868000D01*
X136652418Y-84639989D02*
X146689991Y-84639989D01*
X128355000Y-86995000D02*
X128405000Y-86995000D01*
X134106489Y-85413011D02*
X135879396Y-85413011D01*
X126942000Y-86741000D02*
X128101000Y-86741000D01*
X128101000Y-86741000D02*
X128355000Y-86995000D01*
X136360000Y-92880000D02*
X135594000Y-92880000D01*
X135594000Y-92880000D02*
X134620000Y-91906000D01*
X140530000Y-93440000D02*
X139480000Y-93440000D01*
X139480000Y-93440000D02*
X139014999Y-93905001D01*
X139014999Y-93905001D02*
X136435001Y-93905001D01*
X136435001Y-93905001D02*
X136360000Y-93830000D01*
X136360000Y-93830000D02*
X136360000Y-92880000D01*
X137960000Y-95080000D02*
X140215000Y-95080000D01*
X140215000Y-95080000D02*
X140530000Y-94765000D01*
X140530000Y-94765000D02*
X140530000Y-94240000D01*
X134620000Y-96054000D02*
X135120000Y-96054000D01*
X135120000Y-96054000D02*
X135171001Y-96105001D01*
X135171001Y-96105001D02*
X137884999Y-96105001D01*
X137884999Y-96105001D02*
X137960000Y-96030000D01*
X137960000Y-96030000D02*
X137960000Y-95080000D01*
D58*
X129196000Y-105537000D02*
X127000000Y-103341000D01*
X127000000Y-103341000D02*
X127000000Y-102895000D01*
X129140007Y-122790001D02*
X129540006Y-123190000D01*
X127000000Y-120649994D02*
X129140007Y-122790001D01*
X127000000Y-109195000D02*
X127000000Y-120649994D01*
X131390010Y-123632195D02*
X130990011Y-123232196D01*
X136375003Y-124224999D02*
X131982814Y-124224999D01*
X137414000Y-118098000D02*
X137414000Y-123186002D01*
X131982814Y-124224999D02*
X131390010Y-123632195D01*
X137414000Y-123186002D02*
X136375003Y-124224999D01*
X138149001Y-117448001D02*
X138299989Y-117297013D01*
X138299989Y-117297013D02*
X138299989Y-116724011D01*
X138299989Y-116724011D02*
X140313000Y-114711000D01*
X140313000Y-114711000D02*
X140313000Y-113411000D01*
X137414000Y-118098000D02*
X137414000Y-117448001D01*
X138149001Y-117448001D02*
X138239001Y-117358001D01*
X137414000Y-117448001D02*
X138149001Y-117448001D01*
X134239000Y-104808000D02*
X131388460Y-104808000D01*
X131388460Y-104808000D02*
X130646000Y-105550460D01*
X134481000Y-106299000D02*
X134481000Y-105050000D01*
X134481000Y-105050000D02*
X134239000Y-104808000D01*
X140313000Y-113411000D02*
X140208000Y-113411000D01*
X135728000Y-118112000D02*
X137400000Y-118112000D01*
X137400000Y-118112000D02*
X137414000Y-118098000D01*
X127000000Y-102895000D02*
X127000000Y-109195000D01*
X174178000Y-122682000D02*
X174178000Y-121532000D01*
X175132999Y-120577001D02*
X175132999Y-119253001D01*
X174178000Y-121532000D02*
X175132999Y-120577001D01*
D61*
X174625000Y-81280000D02*
X175132999Y-81787999D01*
X175132999Y-81787999D02*
X175132999Y-119253001D01*
X175132999Y-119253001D02*
X179704998Y-123825000D01*
X179704998Y-123825000D02*
X181249467Y-123825000D01*
X181249467Y-123825000D02*
X184785000Y-123825000D01*
X174625000Y-81280000D02*
X175260000Y-81915000D01*
X175260000Y-81915000D02*
X184150000Y-81915000D01*
X170815000Y-77470000D02*
X174625000Y-81280000D01*
X184785000Y-123825000D02*
X184825001Y-123865001D01*
D60*
X130810000Y-104013000D02*
X129921000Y-104902000D01*
X141097000Y-122292998D02*
X142169998Y-121220000D01*
X142240000Y-121220000D02*
X142240000Y-119395000D01*
X130265007Y-122841999D02*
X130265007Y-124353009D01*
X131641998Y-125730000D02*
X140970000Y-125730000D01*
X130265007Y-124353009D02*
X131641998Y-125730000D01*
X129921000Y-104902000D02*
X129921000Y-122497992D01*
X129921000Y-122497992D02*
X130265007Y-122841999D01*
X141442000Y-102235000D02*
X138986998Y-102235000D01*
X136134001Y-105781001D02*
X136134001Y-103797999D01*
X133096000Y-104013000D02*
X130810000Y-104013000D01*
X140970000Y-125730000D02*
X141097000Y-125603000D01*
X142169998Y-121220000D02*
X142240000Y-121220000D01*
X137339001Y-105883001D02*
X136236001Y-105883001D01*
X136069001Y-103732999D02*
X133376001Y-103732999D01*
X137423999Y-105798003D02*
X137339001Y-105883001D01*
X137423999Y-103797999D02*
X137423999Y-105798003D01*
X141097000Y-125603000D02*
X141097000Y-122292998D01*
X136236001Y-105883001D02*
X136134001Y-105781001D01*
X136134001Y-103797999D02*
X136069001Y-103732999D01*
X138986998Y-102235000D02*
X137423999Y-103797999D01*
X133376001Y-103732999D02*
X133096000Y-104013000D01*
X142573412Y-102235000D02*
X141442000Y-102235000D01*
X141442000Y-102235000D02*
X139319000Y-104358000D01*
X139319000Y-104358000D02*
X139319000Y-104808000D01*
X146780000Y-95690000D02*
X146780000Y-98028412D01*
X146780000Y-98028412D02*
X142573412Y-102235000D01*
X147320000Y-108609998D02*
X144399000Y-105688998D01*
X147320000Y-110686004D02*
X147320000Y-108609998D01*
X142240000Y-121985000D02*
X143419999Y-120805001D01*
X145538001Y-114471001D02*
X145538001Y-112468003D01*
X142240000Y-123810000D02*
X142240000Y-121985000D01*
X145538001Y-112468003D02*
X147320000Y-110686004D01*
X144399000Y-105688998D02*
X144399000Y-101818000D01*
X143419999Y-120805001D02*
X143419999Y-115660001D01*
X144543999Y-114536001D02*
X145473001Y-114536001D01*
X143419999Y-115660001D02*
X144543999Y-114536001D01*
X145473001Y-114536001D02*
X145538001Y-114471001D01*
X144399000Y-101818000D02*
X148935000Y-97282000D01*
X142240000Y-124445000D02*
X142240000Y-123370000D01*
X141859000Y-104358000D02*
X148935000Y-97282000D01*
X148935000Y-97282000D02*
X149030000Y-97187000D01*
X141859000Y-105258000D02*
X141859000Y-104808000D01*
X141859000Y-104808000D02*
X141859000Y-104358000D01*
X149030000Y-97187000D02*
X149030000Y-94765000D01*
X149030000Y-94765000D02*
X149030000Y-94240000D01*
X137033000Y-110617000D02*
X140204002Y-110617000D01*
X140204002Y-110617000D02*
X141938001Y-112350999D01*
X141938001Y-112350999D02*
X141938001Y-114471001D01*
X137033000Y-110617000D02*
X136711400Y-110295400D01*
X136711400Y-110295400D02*
X136711400Y-108138598D01*
X137084988Y-107765010D02*
X139266992Y-107765010D01*
X136711400Y-108138598D02*
X137084988Y-107765010D01*
X139266992Y-107765010D02*
X141214001Y-105818001D01*
X141214001Y-105818001D02*
X141214001Y-103817997D01*
X140839002Y-115570000D02*
X141938001Y-114471001D01*
X138874999Y-121794999D02*
X138874999Y-117030001D01*
X139700000Y-122620000D02*
X138874999Y-121794999D01*
X138874999Y-117030001D02*
X140335000Y-115570000D01*
X140335000Y-115570000D02*
X140839002Y-115570000D01*
X135728000Y-114812000D02*
X136578000Y-114812000D01*
X136578000Y-114812000D02*
X137033000Y-114357000D01*
X137033000Y-114357000D02*
X137033000Y-110617000D01*
X141214001Y-103817997D02*
X142161998Y-102870000D01*
X142161998Y-102870000D02*
X142710590Y-102870000D01*
X142710590Y-102870000D02*
X147580000Y-98000590D01*
X147580000Y-98000590D02*
X147580000Y-95690000D01*
D58*
X159512000Y-117062000D02*
X165140000Y-117062000D01*
X165140000Y-117062000D02*
X170360000Y-122282000D01*
X170360000Y-122282000D02*
X170360000Y-122682000D01*
X166624000Y-78994000D02*
X166624000Y-74481081D01*
X166624000Y-74481081D02*
X164465000Y-72322081D01*
X170360000Y-122282000D02*
X172847000Y-119795000D01*
X172847000Y-119795000D02*
X172847000Y-85217000D01*
X172847000Y-85217000D02*
X166624000Y-78994000D01*
X164465000Y-72322081D02*
X164465000Y-71120000D01*
X159512000Y-117062000D02*
X158522000Y-117062000D01*
X154432000Y-117062000D02*
X155422000Y-117062000D01*
X158522000Y-117062000D02*
X156972000Y-115512000D01*
X155422000Y-117062000D02*
X156972000Y-115512000D01*
X170360000Y-122682000D02*
X172278000Y-122682000D01*
D60*
X152207000Y-80518000D02*
X153967000Y-80518000D01*
X121285000Y-93980000D02*
X123603000Y-93980000D01*
X123603000Y-93980000D02*
X124492000Y-93091000D01*
X124492000Y-93091000D02*
X124492000Y-94241000D01*
X125882000Y-95631000D02*
X126042000Y-95631000D01*
X124492000Y-94241000D02*
X125882000Y-95631000D01*
X124492000Y-98171000D02*
X124492000Y-97021000D01*
X124492000Y-97021000D02*
X125882000Y-95631000D01*
X121285000Y-83820000D02*
X124111000Y-83820000D01*
X124111000Y-83820000D02*
X124492000Y-84201000D01*
X124492000Y-84201000D02*
X124492000Y-85351000D01*
X124492000Y-85351000D02*
X125882000Y-86741000D01*
X125882000Y-86741000D02*
X126042000Y-86741000D01*
X124492000Y-89281000D02*
X124492000Y-88131000D01*
X124492000Y-88131000D02*
X125882000Y-86741000D01*
X121285000Y-73660000D02*
X123991000Y-73660000D01*
X123991000Y-73660000D02*
X124492000Y-74161000D01*
X124492000Y-74161000D02*
X124492000Y-75311000D01*
X124492000Y-80391000D02*
X124492000Y-78835000D01*
X124492000Y-78835000D02*
X125407000Y-77920000D01*
X125407000Y-77920000D02*
X125407000Y-77851000D01*
X124492000Y-75311000D02*
X124492000Y-76740000D01*
X125407000Y-77655000D02*
X125407000Y-77851000D01*
X124492000Y-76740000D02*
X125407000Y-77655000D01*
X125407000Y-77851000D02*
X125857000Y-77851000D01*
D61*
X178435000Y-71755000D02*
X179070000Y-71755000D01*
X179070000Y-71755000D02*
X184150000Y-76835000D01*
D60*
X122385000Y-102870000D02*
X121285000Y-102870000D01*
X125710001Y-104220001D02*
X123735001Y-104220001D01*
X127080000Y-100330000D02*
X125775001Y-101634999D01*
X125775001Y-104155001D02*
X125710001Y-104220001D01*
X133145001Y-87824999D02*
X131014999Y-87824999D01*
X130810000Y-88029998D02*
X130810000Y-94116410D01*
X130175000Y-99223002D02*
X129068002Y-100330000D01*
X135255000Y-86815000D02*
X134155000Y-86815000D01*
X131014999Y-87824999D02*
X130810000Y-88029998D01*
X125775001Y-101634999D02*
X125775001Y-104155001D01*
X134155000Y-86815000D02*
X133145001Y-87824999D01*
X130810000Y-94116410D02*
X130175000Y-94751410D01*
X129068002Y-100330000D02*
X127080000Y-100330000D01*
X130175000Y-94751410D02*
X130175000Y-99223002D01*
X123735001Y-104220001D02*
X122385000Y-102870000D01*
X141455000Y-87190000D02*
X141080000Y-86815000D01*
X141080000Y-86815000D02*
X135255000Y-86815000D01*
X141927000Y-87190000D02*
X141980000Y-87190000D01*
X141455000Y-87190000D02*
X141980000Y-87190000D01*
X141980000Y-86665000D02*
X141980000Y-87190000D01*
D58*
X137795000Y-71120000D02*
X138997081Y-71120000D01*
X138997081Y-71120000D02*
X139281081Y-70836000D01*
X139281081Y-70836000D02*
X144526000Y-70836000D01*
X145826000Y-72136000D02*
X146326000Y-72136000D01*
X144526000Y-70836000D02*
X145826000Y-72136000D01*
X154317000Y-96901000D02*
X154317000Y-98888000D01*
X154317000Y-98888000D02*
X154305000Y-98900000D01*
X154317000Y-87458000D02*
X154317000Y-96901000D01*
X146326000Y-72136000D02*
X148126000Y-72136000D01*
X148126000Y-72136000D02*
X148154001Y-72107999D01*
X154264999Y-84797999D02*
X154317000Y-84850000D01*
X148154001Y-72107999D02*
X151819001Y-72107999D01*
X151819001Y-72107999D02*
X151909001Y-72197999D01*
X154264999Y-83319997D02*
X154264999Y-84797999D01*
X151909001Y-72197999D02*
X151909001Y-79005997D01*
X151909001Y-79005997D02*
X151257000Y-79657998D01*
X151257000Y-79657998D02*
X151257000Y-81929999D01*
X151257000Y-81929999D02*
X152875001Y-81929999D01*
X152875001Y-81929999D02*
X154264999Y-83319997D01*
X154317000Y-84850000D02*
X154317000Y-85725000D01*
X154317000Y-85725000D02*
X154317000Y-87458000D01*
X154317000Y-87458000D02*
X154305000Y-87470000D01*
D62*
X194945000Y-81915000D02*
X194945000Y-88265000D01*
D61*
X189600000Y-116586000D02*
X189600000Y-118480000D01*
X189600000Y-118480000D02*
X194945000Y-123825000D01*
D60*
X135890000Y-110202824D02*
X135890000Y-111064998D01*
X134802999Y-116522001D02*
X135292998Y-117012000D01*
X140589000Y-105258000D02*
X138532000Y-107315000D01*
X140589000Y-104808000D02*
X140589000Y-105258000D01*
X138532000Y-107315000D02*
X136525000Y-107315000D01*
X136525000Y-107315000D02*
X136070023Y-107769977D01*
X136070023Y-107769977D02*
X136070023Y-110022801D01*
X136070023Y-110022801D02*
X135890000Y-110202824D01*
X135890000Y-111064998D02*
X134802999Y-112151999D01*
X134802999Y-112151999D02*
X134802999Y-116522001D01*
X135292998Y-117012000D02*
X135728000Y-117012000D01*
X138049000Y-106164587D02*
X137348598Y-106864989D01*
X137348598Y-106864989D02*
X136338600Y-106864989D01*
X138049000Y-104808000D02*
X138049000Y-106164587D01*
X134352988Y-118686988D02*
X134878000Y-119212000D01*
X135620012Y-107583577D02*
X135620012Y-109836401D01*
X134352988Y-111103425D02*
X134352988Y-118686988D01*
X135620012Y-109836401D02*
X134352988Y-111103425D01*
X136338600Y-106864989D02*
X135620012Y-107583577D01*
X134878000Y-119212000D02*
X135728000Y-119212000D01*
X135509000Y-104808000D02*
X135509000Y-107058178D01*
X135170001Y-109650001D02*
X133902977Y-110917025D01*
X134878000Y-120312000D02*
X135728000Y-120312000D01*
X135170001Y-107397177D02*
X135170001Y-109650001D01*
X133902977Y-110917025D02*
X133902977Y-119336977D01*
X135509000Y-107058178D02*
X135170001Y-107397177D01*
X133902977Y-119336977D02*
X134878000Y-120312000D01*
X135509000Y-104808000D02*
X135509000Y-104358000D01*
D62*
X189600000Y-107315000D02*
X189600000Y-100234467D01*
X189600000Y-100234467D02*
X191409467Y-98425000D01*
X191409467Y-98425000D02*
X194945000Y-98425000D01*
D60*
X153035000Y-98900000D02*
X153035000Y-99695000D01*
X158750000Y-105410000D02*
X169672000Y-116332000D01*
X156200001Y-102860001D02*
X156200001Y-104765001D01*
X153035000Y-99695000D02*
X156200001Y-102860001D01*
X156200001Y-104765001D02*
X156845000Y-105410000D01*
X156845000Y-105410000D02*
X158750000Y-105410000D01*
X169672000Y-116332000D02*
X171231315Y-116332000D01*
X171231315Y-116332000D02*
X171797000Y-116332000D01*
X177533000Y-116459000D02*
X180139000Y-116459000D01*
X180139000Y-116459000D02*
X180213000Y-116533000D01*
X180520000Y-116586000D02*
X184150000Y-116586000D01*
X155575000Y-98900000D02*
X155575000Y-99925000D01*
X155575000Y-99925000D02*
X156845000Y-101195000D01*
X156845000Y-104140000D02*
X157480000Y-104775000D01*
X167987000Y-104775000D02*
X171397001Y-108185001D01*
X157480000Y-104775000D02*
X167987000Y-104775000D01*
X156845000Y-101195000D02*
X156845000Y-104140000D01*
X171397001Y-108185001D02*
X171797000Y-108585000D01*
X177533000Y-108585000D02*
X180139000Y-108585000D01*
X180139000Y-108585000D02*
X180213000Y-108659000D01*
X180520000Y-108839000D02*
X182626000Y-108839000D01*
X182626000Y-108839000D02*
X184150000Y-107315000D01*
X148531859Y-101160858D02*
X152910858Y-101160858D01*
X152910858Y-101160858D02*
X155575000Y-103825000D01*
X155575000Y-103825000D02*
X155575000Y-104300000D01*
X143580000Y-95690000D02*
X143580000Y-96740000D01*
X143580000Y-96740000D02*
X144909740Y-98069740D01*
X144909740Y-98069740D02*
X145076956Y-98069740D01*
X132535001Y-86275001D02*
X133847002Y-84963000D01*
X133847002Y-84963000D02*
X134175500Y-84963000D01*
X128355000Y-77597000D02*
X128405000Y-77597000D01*
X147160999Y-83787999D02*
X150241000Y-86868000D01*
X130002001Y-79165999D02*
X130683000Y-79846998D01*
X129973999Y-79165999D02*
X130002001Y-79165999D01*
X150241000Y-86868000D02*
X150241000Y-89089002D01*
X128405000Y-77597000D02*
X129973999Y-79165999D01*
X130683000Y-85943002D02*
X131014999Y-86275001D01*
X130683000Y-79846998D02*
X130683000Y-85943002D01*
X131014999Y-86275001D02*
X132535001Y-86275001D01*
X134175500Y-84963000D02*
X134239000Y-84899500D01*
X134239000Y-84899500D02*
X135756496Y-84899500D01*
X135756496Y-84899500D02*
X136867997Y-83787999D01*
X136867997Y-83787999D02*
X147160999Y-83787999D01*
X150241000Y-89089002D02*
X149890002Y-89440000D01*
X149890002Y-89440000D02*
X149030000Y-89440000D01*
X126757000Y-77851000D02*
X128101000Y-77851000D01*
X128101000Y-77851000D02*
X128355000Y-77597000D01*
X150495000Y-117030000D02*
X150368000Y-117157000D01*
X150368000Y-117157000D02*
X150368000Y-122902000D01*
X150368000Y-122902000D02*
X149850000Y-123420000D01*
X149850000Y-123420000D02*
X149225000Y-123420000D01*
X153034999Y-94996001D02*
X153034999Y-90930429D01*
X153034999Y-90930429D02*
X152040091Y-89935521D01*
X145796000Y-102235000D02*
X153034999Y-94996001D01*
X145796000Y-103760411D02*
X145796000Y-102235000D01*
X152775001Y-108064999D02*
X150100588Y-108064999D01*
X153416000Y-108705998D02*
X152775001Y-108064999D01*
X153416000Y-109348410D02*
X153416000Y-108705998D01*
X152040091Y-89935521D02*
X151640092Y-89535522D01*
X152537999Y-114637001D02*
X155592001Y-114637001D01*
X155592001Y-114637001D02*
X155657001Y-114572001D01*
X150495000Y-117030000D02*
X150495000Y-116680000D01*
X150100588Y-108064999D02*
X145796000Y-103760411D01*
X155657001Y-111589411D02*
X153416000Y-109348410D01*
X155657001Y-114572001D02*
X155657001Y-111589411D01*
X150495000Y-116680000D02*
X152537999Y-114637001D01*
X144780000Y-123810000D02*
X148835000Y-123810000D01*
X148835000Y-123810000D02*
X149225000Y-123420000D01*
X145730069Y-89590069D02*
X147064303Y-89590069D01*
X144380000Y-88240000D02*
X145730069Y-89590069D01*
X147064303Y-89590069D02*
X147629988Y-89590069D01*
X144380000Y-87190000D02*
X144380000Y-88240000D01*
X147574000Y-116258000D02*
X149723000Y-116258000D01*
X149723000Y-116258000D02*
X150495000Y-117030000D01*
X151595000Y-125059000D02*
X159555000Y-125059000D01*
X151595000Y-125059000D02*
X150839000Y-125059000D01*
X149225000Y-123445000D02*
X149225000Y-123420000D01*
X150839000Y-125059000D02*
X149225000Y-123445000D01*
X145980000Y-95690000D02*
X145980000Y-98192002D01*
X145980000Y-98192002D02*
X142572002Y-101600000D01*
X136779000Y-103251000D02*
X136779000Y-104808000D01*
X142572002Y-101600000D02*
X138430000Y-101600000D01*
X138430000Y-101600000D02*
X136779000Y-103251000D01*
X147706359Y-101986358D02*
X151196358Y-101986358D01*
X151196358Y-101986358D02*
X153035000Y-103825000D01*
X153035000Y-103825000D02*
X153035000Y-104300000D01*
X141980000Y-95690000D02*
X141980000Y-96740000D01*
X141980000Y-96740000D02*
X144016848Y-98776848D01*
X144016848Y-98776848D02*
X144369848Y-98776848D01*
D63*
G36*
X129161000Y-110363000D02*
X123317000Y-110363000D01*
X123317000Y-106807000D01*
X129161000Y-106807000D01*
X129161000Y-110363000D01*
X129161000Y-110363000D01*
G37*
X129161000Y-110363000D02*
X123317000Y-110363000D01*
X123317000Y-106807000D01*
X129161000Y-106807000D01*
X129161000Y-110363000D01*
G36*
X161163000Y-79248000D02*
X153162000Y-79248000D01*
X153162000Y-69290000D01*
X161163000Y-69290000D01*
X161163000Y-79248000D01*
X161163000Y-79248000D01*
G37*
X161163000Y-79248000D02*
X153162000Y-79248000D01*
X153162000Y-69290000D01*
X161163000Y-69290000D01*
X161163000Y-79248000D01*
G36*
X143305000Y-88637440D02*
X143749080Y-88637440D01*
X143842599Y-88777401D01*
X145192668Y-90127470D01*
X145439230Y-90292217D01*
X145730069Y-90350069D01*
X146926227Y-90350069D01*
X147042942Y-90466988D01*
X147423211Y-90624889D01*
X147600652Y-90625044D01*
X147595000Y-90638690D01*
X147595000Y-90754250D01*
X147688888Y-90848138D01*
X147772191Y-90972809D01*
X147828000Y-91010100D01*
X147828000Y-91069900D01*
X147772191Y-91107191D01*
X147688888Y-91231862D01*
X147595000Y-91325750D01*
X147595000Y-91441310D01*
X147603217Y-91461148D01*
X147582560Y-91565000D01*
X147582560Y-92115000D01*
X147607424Y-92240000D01*
X147582560Y-92365000D01*
X147582560Y-92587000D01*
X143028579Y-92587000D01*
X142455790Y-92014210D01*
X142359692Y-91950000D01*
X142168675Y-91822367D01*
X142112484Y-91811190D01*
X141830000Y-91754999D01*
X141829995Y-91755000D01*
X141799709Y-91755000D01*
X141871112Y-91648138D01*
X141965000Y-91554250D01*
X141965000Y-91438690D01*
X141956783Y-91418852D01*
X141977440Y-91315000D01*
X141977440Y-90765000D01*
X141956783Y-90661148D01*
X141965000Y-90641310D01*
X141965000Y-90525750D01*
X141871112Y-90431862D01*
X141787809Y-90307191D01*
X141732000Y-90269900D01*
X141732000Y-90210100D01*
X141787809Y-90172809D01*
X141871112Y-90048138D01*
X141965000Y-89954250D01*
X141965000Y-89838690D01*
X141956783Y-89818852D01*
X141977440Y-89715000D01*
X141977440Y-89165000D01*
X141952576Y-89040000D01*
X141977440Y-88915000D01*
X141977440Y-88637440D01*
X142255000Y-88637440D01*
X142380000Y-88612576D01*
X142505000Y-88637440D01*
X143055000Y-88637440D01*
X143180000Y-88612576D01*
X143305000Y-88637440D01*
X143305000Y-88637440D01*
G37*
X143305000Y-88637440D02*
X143749080Y-88637440D01*
X143842599Y-88777401D01*
X145192668Y-90127470D01*
X145439230Y-90292217D01*
X145730069Y-90350069D01*
X146926227Y-90350069D01*
X147042942Y-90466988D01*
X147423211Y-90624889D01*
X147600652Y-90625044D01*
X147595000Y-90638690D01*
X147595000Y-90754250D01*
X147688888Y-90848138D01*
X147772191Y-90972809D01*
X147828000Y-91010100D01*
X147828000Y-91069900D01*
X147772191Y-91107191D01*
X147688888Y-91231862D01*
X147595000Y-91325750D01*
X147595000Y-91441310D01*
X147603217Y-91461148D01*
X147582560Y-91565000D01*
X147582560Y-92115000D01*
X147607424Y-92240000D01*
X147582560Y-92365000D01*
X147582560Y-92587000D01*
X143028579Y-92587000D01*
X142455790Y-92014210D01*
X142359692Y-91950000D01*
X142168675Y-91822367D01*
X142112484Y-91811190D01*
X141830000Y-91754999D01*
X141829995Y-91755000D01*
X141799709Y-91755000D01*
X141871112Y-91648138D01*
X141965000Y-91554250D01*
X141965000Y-91438690D01*
X141956783Y-91418852D01*
X141977440Y-91315000D01*
X141977440Y-90765000D01*
X141956783Y-90661148D01*
X141965000Y-90641310D01*
X141965000Y-90525750D01*
X141871112Y-90431862D01*
X141787809Y-90307191D01*
X141732000Y-90269900D01*
X141732000Y-90210100D01*
X141787809Y-90172809D01*
X141871112Y-90048138D01*
X141965000Y-89954250D01*
X141965000Y-89838690D01*
X141956783Y-89818852D01*
X141977440Y-89715000D01*
X141977440Y-89165000D01*
X141952576Y-89040000D01*
X141977440Y-88915000D01*
X141977440Y-88637440D01*
X142255000Y-88637440D01*
X142380000Y-88612576D01*
X142505000Y-88637440D01*
X143055000Y-88637440D01*
X143180000Y-88612576D01*
X143305000Y-88637440D01*
M02*
