M48
;DRILL file {KiCad (2017-12-14 revision b47a06e)-master} date Friday, December 29, 2017 'PMt' 11:23:33 PM
;FORMAT={-:-/ absolute / inch / decimal}
FMAT,2
INCH,TZ
T1C0.016
T2C0.039
T3C0.047
T4C0.059
T5C0.098
%
G90
G05
M72
T1
X4.75Y-4.45
X4.775Y-4.355
X4.815Y-4.92
X4.985Y-3.91
X4.99Y-3.555
X5.005Y-3.805
X5.015Y-3.46
X5.03Y-3.1
X5.045Y-3.98
X5.08Y-3.0241
X5.0865Y-4.155
X5.09Y-3.23
X5.1Y-4.85
X5.14Y-3.98
X5.1435Y-4.1555
X5.1571Y-4.8517
X5.17Y-4.335
X5.1875Y-3.66
X5.1875Y-3.8875
X5.2Y-4.36
X5.205Y-3.21
X5.23Y-4.23
X5.265Y-3.54
X5.265Y-3.66
X5.265Y-3.74
X5.27Y-4.24
X5.29Y-4.82
X5.325Y-3.705
X5.35Y-3.2625
X5.385Y-3.545
X5.395Y-3.01
X5.41Y-3.6
X5.41Y-4.545
X5.45Y-3.485
X5.485Y-3.01
X5.545Y-2.8223
X5.55Y-2.89
X5.555Y-3.01
X5.5875Y-3.2625
X5.5875Y-4.2875
X5.6Y-3.55
X5.605Y-3.605
X5.6179Y-4.575
X5.625Y-4.41
X5.64Y-4.185
X5.645Y-3.01
X5.66Y-3.55
X5.66Y-3.605
X5.675Y-4.575
X5.6839Y-3.8889
X5.69Y-4.76
X5.7086Y-4.4088
X5.7117Y-3.861
X5.715Y-3.605
X5.745Y-4.62
X5.8Y-3.585
X5.8122Y-3.4878
X5.8122Y-3.5272
X5.8152Y-4.0152
X5.8477Y-3.9827
X5.865Y-4.755
X5.9Y-3.77
X5.935Y-3.305
X5.945Y-4.33
X5.9701Y-3.525
X5.9711Y-3.4856
X5.975Y-4.795
X5.99Y-4.695
X6.04Y-3.11
X6.05Y-2.75
X6.05Y-2.81
X6.06Y-4.17
X6.11Y-3.11
X6.12Y-2.75
X6.12Y-2.81
X6.12Y-4.235
X6.145Y-3.775
X6.1752Y-4.3748
X6.18Y-3.11
X6.19Y-2.75
X6.19Y-2.81
X6.2Y-3.17
X6.2125Y-3.425
X6.2125Y-3.6625
X6.2125Y-3.885
X6.225Y-4.375
X6.235Y-3.215
X6.25Y-3.11
X6.255Y-4.325
X6.26Y-2.75
X6.26Y-2.81
X6.265Y-4.235
X6.27Y-4.69
X6.27Y-4.795
X6.315Y-4.375
X6.32Y-2.75
X6.32Y-2.81
X6.32Y-2.87
X6.32Y-2.93
X6.32Y-2.99
X6.32Y-3.05
X6.32Y-3.11
X6.55Y-4.795
X6.595Y-4.89
X6.7637Y-4.275
X6.7637Y-4.58
X6.9895Y-4.275
X6.9895Y-4.585
X7.035Y-4.68
X7.08Y-4.435
X7.15Y-4.725
X7.155Y-4.41
T2
X4.975Y-2.8
X5.075Y-2.8
X4.775Y-3.6
X4.775Y-3.7
X4.775Y-3.8
X4.775Y-2.8
X4.775Y-2.9
X7.25Y-3.025
X7.25Y-3.225
X4.775Y-3.
X4.775Y-3.2
X4.775Y-3.3
X4.775Y-3.4
X4.775Y-4.05
X4.775Y-4.15
X5.325Y-2.8
X5.425Y-2.8
X6.475Y-2.8
X6.575Y-2.8
T3
X6.725Y-3.05
X6.725Y-4.1327
T4
X7.25Y-4.225
X7.4646Y-4.225
X7.6791Y-4.225
X7.25Y-4.59
X7.4646Y-4.59
X7.6791Y-4.59
T5
X7.675Y-2.825
X7.675Y-3.225
X7.025Y-2.825
X7.425Y-2.825
X7.275Y-4.875
X7.675Y-4.875
X7.675Y-3.475
X7.675Y-3.875
T0
M30
