G04 #@! TF.GenerationSoftware,KiCad,Pcbnew,(2017-12-14 revision b47a06e)-master*
G04 #@! TF.CreationDate,2017-12-30T01:35:11-08:00*
G04 #@! TF.ProjectId,Elephant-3,456C657068616E742D332E6B69636164,1*
G04 #@! TF.SameCoordinates,Original*
G04 #@! TF.FileFunction,Paste,Top*
G04 #@! TF.FilePolarity,Positive*
%FSLAX46Y46*%
G04 Gerber Fmt 4.6, Leading zero omitted, Abs format (unit mm)*
G04 Created by KiCad (PCBNEW (2017-12-14 revision b47a06e)-master) date Saturday, December 30, 2017 'AMt' 01:35:11 AM*
%MOMM*%
%LPD*%
G01*
G04 APERTURE LIST*
%ADD10R,3.800000X2.000000*%
%ADD11R,1.500000X2.000000*%
%ADD12R,0.600000X1.550000*%
%ADD13R,0.500000X0.600000*%
%ADD14R,1.800000X2.500000*%
%ADD15R,0.600000X0.400000*%
%ADD16R,2.500000X1.800000*%
%ADD17R,1.200000X0.700000*%
%ADD18R,1.200000X1.000000*%
%ADD19R,0.800000X1.000000*%
%ADD20R,2.800000X1.000000*%
%ADD21R,1.900000X1.300000*%
%ADD22R,0.600000X1.500000*%
%ADD23R,0.750000X0.800000*%
%ADD24R,3.500000X1.600000*%
%ADD25R,3.000000X1.600000*%
%ADD26R,0.600000X0.500000*%
%ADD27R,2.600000X1.600000*%
%ADD28R,0.800000X0.750000*%
%ADD29R,1.000000X3.150000*%
%ADD30R,1.200000X1.200000*%
%ADD31R,0.700000X1.300000*%
%ADD32R,0.400000X0.600000*%
%ADD33R,1.700000X0.900000*%
%ADD34R,0.900000X1.700000*%
%ADD35R,1.550000X1.300000*%
%ADD36R,0.550000X1.600000*%
%ADD37R,1.600000X0.550000*%
%ADD38R,1.200000X1.400000*%
%ADD39R,3.050000X2.750000*%
%ADD40R,2.200000X1.200000*%
G04 APERTURE END LIST*
D10*
X127000000Y-109195000D03*
D11*
X127000000Y-102895000D03*
X124700000Y-102895000D03*
X129300000Y-102895000D03*
D12*
X151765000Y-98900000D03*
X153035000Y-98900000D03*
X154305000Y-98900000D03*
X155575000Y-98900000D03*
X155575000Y-104300000D03*
X154305000Y-104300000D03*
X153035000Y-104300000D03*
X151765000Y-104300000D03*
D13*
X157226000Y-113199000D03*
X157226000Y-112099000D03*
D14*
X154432000Y-117062000D03*
X154432000Y-113062000D03*
D15*
X156972000Y-115512000D03*
X156972000Y-114612000D03*
D14*
X159512000Y-113062000D03*
X159512000Y-117062000D03*
D16*
X124492000Y-89281000D03*
X128492000Y-89281000D03*
D17*
X135728000Y-112762000D03*
X135728000Y-113712000D03*
X135728000Y-121412000D03*
X135728000Y-120312000D03*
X135728000Y-119212000D03*
X135728000Y-118112000D03*
X135728000Y-117012000D03*
X135728000Y-115912000D03*
X135728000Y-114812000D03*
D18*
X135728000Y-122962000D03*
X131428000Y-111812000D03*
D19*
X125228000Y-111812000D03*
D20*
X121078000Y-111812000D03*
D21*
X120628000Y-125312000D03*
D22*
X134239000Y-104808000D03*
X135509000Y-104808000D03*
X136779000Y-104808000D03*
X138049000Y-104808000D03*
X139319000Y-104808000D03*
X140589000Y-104808000D03*
X141859000Y-104808000D03*
X143129000Y-104808000D03*
X143129000Y-99408000D03*
X141859000Y-99408000D03*
X140589000Y-99408000D03*
X139319000Y-99408000D03*
X138049000Y-99408000D03*
X136779000Y-99408000D03*
X135509000Y-99408000D03*
X134239000Y-99408000D03*
D23*
X138811000Y-89547000D03*
X138811000Y-91047000D03*
X150749000Y-93484000D03*
X150749000Y-94984000D03*
D24*
X138209000Y-77851000D03*
X132809000Y-77851000D03*
D25*
X142326000Y-77851000D03*
X146726000Y-77851000D03*
D26*
X128355000Y-95885000D03*
X129455000Y-95885000D03*
D27*
X143913000Y-113411000D03*
X140313000Y-113411000D03*
D26*
X128355000Y-86995000D03*
X129455000Y-86995000D03*
D13*
X134620000Y-91906000D03*
X134620000Y-93006000D03*
X134620000Y-94954000D03*
X134620000Y-96054000D03*
D26*
X129455000Y-77597000D03*
X128355000Y-77597000D03*
D28*
X132981000Y-106299000D03*
X134481000Y-106299000D03*
D23*
X149225000Y-121920000D03*
X149225000Y-123420000D03*
D28*
X154317000Y-96901000D03*
X155817000Y-96901000D03*
D23*
X137414000Y-116598000D03*
X137414000Y-118098000D03*
D29*
X144780000Y-118760000D03*
X144780000Y-123810000D03*
X142240000Y-118760000D03*
X142240000Y-123810000D03*
X139700000Y-118760000D03*
X139700000Y-123810000D03*
D30*
X156167000Y-80518000D03*
X153967000Y-80518000D03*
D16*
X128492000Y-98171000D03*
X124492000Y-98171000D03*
X128492000Y-93091000D03*
X124492000Y-93091000D03*
X124492000Y-84201000D03*
X128492000Y-84201000D03*
D14*
X150495000Y-113030000D03*
X150495000Y-117030000D03*
D16*
X124492000Y-80391000D03*
X128492000Y-80391000D03*
X124492000Y-75311000D03*
X128492000Y-75311000D03*
D31*
X150307000Y-80518000D03*
X152207000Y-80518000D03*
D32*
X126942000Y-95631000D03*
X126042000Y-95631000D03*
X126042000Y-86741000D03*
X126942000Y-86741000D03*
D33*
X135255000Y-89715000D03*
X135255000Y-86815000D03*
X147574000Y-116258000D03*
X147574000Y-113358000D03*
D32*
X126757000Y-77851000D03*
X125857000Y-77851000D03*
D33*
X180213000Y-119433000D03*
X180213000Y-116533000D03*
D34*
X167460000Y-122682000D03*
X170360000Y-122682000D03*
D33*
X180213000Y-108659000D03*
X180213000Y-111559000D03*
D31*
X172278000Y-122682000D03*
X174178000Y-122682000D03*
D35*
X151595000Y-120559000D03*
X151595000Y-125059000D03*
X159555000Y-125059000D03*
X159555000Y-120559000D03*
D36*
X141980000Y-87190000D03*
X142780000Y-87190000D03*
X143580000Y-87190000D03*
X144380000Y-87190000D03*
X145180000Y-87190000D03*
X145980000Y-87190000D03*
X146780000Y-87190000D03*
X147580000Y-87190000D03*
D37*
X149030000Y-88640000D03*
X149030000Y-89440000D03*
X149030000Y-90240000D03*
X149030000Y-91040000D03*
X149030000Y-91840000D03*
X149030000Y-92640000D03*
X149030000Y-93440000D03*
X149030000Y-94240000D03*
D36*
X147580000Y-95690000D03*
X146780000Y-95690000D03*
X145980000Y-95690000D03*
X145180000Y-95690000D03*
X144380000Y-95690000D03*
X143580000Y-95690000D03*
X142780000Y-95690000D03*
X141980000Y-95690000D03*
D37*
X140530000Y-94240000D03*
X140530000Y-93440000D03*
X140530000Y-92640000D03*
X140530000Y-91840000D03*
X140530000Y-91040000D03*
X140530000Y-90240000D03*
X140530000Y-89440000D03*
X140530000Y-88640000D03*
D27*
X142726000Y-72136000D03*
X146326000Y-72136000D03*
D38*
X137960000Y-92880000D03*
X137960000Y-95080000D03*
X136360000Y-95080000D03*
X136360000Y-92880000D03*
D39*
X154984000Y-76963000D03*
X158334000Y-73913000D03*
X154984000Y-73913000D03*
X158334000Y-76963000D03*
D40*
X150359000Y-77718000D03*
X150359000Y-73158000D03*
M02*
