M48
;DRILL file {KiCad (2017-12-14 revision b47a06e)-master} date Thursday, December 14, 2017 'PMt' 04:02:15 PM
;FORMAT={-:-/ absolute / inch / decimal}
FMAT,2
INCH,TZ
T1C0.016
T2C0.028
T3C0.031
T4C0.035
T5C0.039
T6C0.043
T7C0.047
T8C0.059
T9C0.098
%
G90
G05
M72
T1
X4.305Y-4.81
X4.37Y-4.465
X4.37Y-4.5
X4.37Y-4.9
X4.37Y-4.94
X4.485Y-4.38
X4.495Y-4.275
X4.81Y-4.165
X4.81Y-4.295
X4.81Y-4.345
X4.85Y-4.85
X4.885Y-4.225
X4.91Y-4.88
X4.925Y-4.565
X4.985Y-4.61
X5.175Y-3.475
X5.2315Y-3.4714
X5.2315Y-3.3925
X5.2315Y-3.4319
X5.2861Y-4.6764
X5.2875Y-4.55
X5.2985Y-3.405
X5.3463Y-3.4125
X5.388Y-3.4138
X5.6328Y-4.06
X5.6613Y-4.0237
X5.6937Y-3.9613
X5.7222Y-3.9892
X6.0998Y-3.6552
X6.1277Y-3.683
X6.2402Y-3.5798
X6.2702Y-3.6098
X6.565Y-3.645
X6.565Y-3.835
X6.6305Y-3.7256
X6.6305Y-3.765
X6.8195Y-3.765
X6.85Y-3.795
T2
X4.525Y-3.05
X4.825Y-3.05
X4.525Y-3.4
X4.825Y-3.4
X4.525Y-3.75
X4.825Y-3.75
X6.225Y-4.575
X6.225Y-4.875
T3
X6.5Y-4.35
X6.5Y-4.75
X5.75Y-2.825
X5.75Y-3.225
X5.44Y-4.6616
X5.44Y-4.76
X5.925Y-2.8
X5.925Y-3.1
X6.025Y-2.8
X5.Y-3.6516
X5.Y-3.75
X6.675Y-4.55
X7.075Y-4.55
X4.995Y-4.0516
X4.995Y-4.15
X5.Y-3.3016
X5.Y-3.4
X5.175Y-3.34
X5.175Y-3.74
X6.025Y-3.1
X6.125Y-2.8
X6.125Y-3.1
X6.225Y-2.8
X6.225Y-3.1
X5.3516Y-3.95
X5.45Y-3.95
X5.3516Y-4.1
X5.45Y-4.1
X5.55Y-3.35
X5.55Y-3.45
X4.4516Y-4.225
X5.55Y-3.55
X5.55Y-3.65
X5.55Y-3.75
X5.55Y-3.85
X5.55Y-3.95
X5.55Y-4.05
X5.55Y-4.15
X5.55Y-4.25
X5.55Y-4.35
X5.55Y-4.45
X5.55Y-4.55
X5.55Y-4.65
X5.85Y-3.35
X5.85Y-3.45
X5.85Y-3.55
X5.85Y-3.65
X5.85Y-3.75
X5.85Y-3.85
X5.85Y-3.95
X5.85Y-4.05
X5.85Y-4.15
X5.85Y-4.25
X5.85Y-4.35
X5.85Y-4.45
X5.85Y-4.55
X5.85Y-4.65
X6.1266Y-4.4
X6.225Y-4.4
X5.3266Y-3.65
X5.425Y-3.65
X4.55Y-4.225
X5.375Y-4.3
X5.375Y-4.4921
X5.Y-3.05
X5.Y-3.1484
X5.01Y-3.905
X5.0887Y-3.905
X6.0213Y-3.475
X6.1Y-3.475
X5.95Y-4.15
X6.0484Y-4.15
X5.2Y-2.9
X5.3969Y-2.9
X6.171Y-3.749
X6.171Y-4.149
X6.675Y-4.35
X5.325Y-3.35
X5.4234Y-3.35
X6.025Y-3.2
X6.025Y-3.2984
X7.075Y-4.35
T4
X5.98Y-3.745
X6.08Y-3.745
T5
X5.225Y-3.175
X5.325Y-3.175
X6.475Y-2.8
X6.575Y-2.8
X5.425Y-3.175
X4.35Y-3.2
X4.35Y-3.3
X4.55Y-2.8
X4.65Y-2.8
X4.35Y-3.4
X7.25Y-3.025
X4.35Y-3.6
X4.35Y-3.7
X4.35Y-3.8
X4.35Y-2.8
X4.35Y-2.9
X4.35Y-3.
X5.6Y-4.8
X5.6Y-4.9
X5.7Y-4.8
X5.7Y-4.9
X5.8Y-4.8
X5.8Y-4.9
X7.25Y-3.225
X4.35Y-4.05
X4.35Y-4.15
X4.9Y-2.8
X5.Y-2.8
T6
X4.475Y-3.65
X4.875Y-3.65
X4.475Y-3.5
X4.875Y-3.5
X4.475Y-2.95
X4.875Y-2.95
X6.125Y-4.525
X6.125Y-4.925
X4.475Y-3.3
X4.875Y-3.3
X4.875Y-3.85
X6.325Y-4.525
X6.325Y-4.925
X4.475Y-3.85
X5.6Y-2.825
X5.6Y-3.225
X4.475Y-3.15
X4.875Y-3.15
X4.9741Y-4.7428
X4.9741Y-4.92
X5.23Y-4.7428
X5.23Y-4.92
T7
X6.725Y-3.05
X6.725Y-4.1327
X6.5Y-4.875
X7.1Y-4.875
T8
X7.25Y-4.59
X7.4646Y-4.59
X7.6791Y-4.59
X7.25Y-4.225
X7.4646Y-4.225
X7.6791Y-4.225
T9
X7.025Y-2.825
X7.275Y-4.875
X7.675Y-4.875
X7.675Y-3.475
X7.675Y-3.875
X7.425Y-2.825
X7.675Y-2.825
X7.675Y-3.225
T0
M30
