G04 #@! TF.GenerationSoftware,KiCad,Pcbnew,(2017-12-14 revision b47a06e)-master*
G04 #@! TF.CreationDate,2017-12-14T16:02:14-08:00*
G04 #@! TF.ProjectId,Elephant-3,456C657068616E742D332E6B69636164,1*
G04 #@! TF.SameCoordinates,Original*
G04 #@! TF.FileFunction,Legend,Top*
G04 #@! TF.FilePolarity,Positive*
%FSLAX46Y46*%
G04 Gerber Fmt 4.6, Leading zero omitted, Abs format (unit mm)*
G04 Created by KiCad (PCBNEW (2017-12-14 revision b47a06e)-master) date Thursday, December 14, 2017 'PMt' 04:02:14 PM*
%MOMM*%
%LPD*%
G01*
G04 APERTURE LIST*
%ADD10C,0.120000*%
%ADD11C,0.150000*%
G04 APERTURE END LIST*
D10*
X151602000Y-96203000D02*
X151602000Y-96359000D01*
X151602000Y-93887000D02*
X151602000Y-94043000D01*
X154203130Y-96202837D02*
G75*
G02X152121039Y-96203000I-1041130J1079837D01*
G01*
X154203130Y-94043163D02*
G75*
G03X152121039Y-94043000I-1041130J-1079837D01*
G01*
X154834335Y-96201608D02*
G75*
G02X151602000Y-96358516I-1672335J1078608D01*
G01*
X154834335Y-94044392D02*
G75*
G03X151602000Y-93887484I-1672335J-1078608D01*
G01*
X180875000Y-107030000D02*
X160755000Y-107030000D01*
X180875000Y-75410000D02*
X160755000Y-75410000D01*
X160755000Y-75410000D02*
X160755000Y-107030000D01*
X180875000Y-75410000D02*
X180875000Y-107030000D01*
X139140000Y-101690000D02*
X135220000Y-101690000D01*
X139140000Y-98970000D02*
X135220000Y-98970000D01*
X139140000Y-101690000D02*
X139140000Y-101080000D01*
X139140000Y-99580000D02*
X139140000Y-98970000D01*
X135220000Y-101690000D02*
X135220000Y-101080000D01*
X135220000Y-99580000D02*
X135220000Y-98970000D01*
X150420000Y-104050000D02*
X154340000Y-104050000D01*
X150420000Y-106770000D02*
X154340000Y-106770000D01*
X150420000Y-104050000D02*
X150420000Y-104660000D01*
X150420000Y-106160000D02*
X150420000Y-106770000D01*
X154340000Y-104050000D02*
X154340000Y-104660000D01*
X154340000Y-106160000D02*
X154340000Y-106770000D01*
X138496851Y-72482555D02*
G75*
G03X130663918Y-72480000I-3916851J-1177445D01*
G01*
X138496851Y-74837445D02*
G75*
G02X130663918Y-74840000I-3916851J1177445D01*
G01*
X138496851Y-74837445D02*
G75*
G03X138496082Y-72480000I-3916851J1177445D01*
G01*
X134580000Y-69610000D02*
X134580000Y-77710000D01*
X134620000Y-69610000D02*
X134620000Y-77710000D01*
X134660000Y-69610000D02*
X134660000Y-77710000D01*
X134700000Y-69611000D02*
X134700000Y-77709000D01*
X134740000Y-69613000D02*
X134740000Y-77707000D01*
X134780000Y-69614000D02*
X134780000Y-77706000D01*
X134820000Y-69617000D02*
X134820000Y-77703000D01*
X134860000Y-69619000D02*
X134860000Y-77701000D01*
X134900000Y-69622000D02*
X134900000Y-77698000D01*
X134940000Y-69625000D02*
X134940000Y-77695000D01*
X134980000Y-69629000D02*
X134980000Y-77691000D01*
X135020000Y-69633000D02*
X135020000Y-77687000D01*
X135060000Y-69638000D02*
X135060000Y-77682000D01*
X135100000Y-69643000D02*
X135100000Y-77677000D01*
X135140000Y-69648000D02*
X135140000Y-77672000D01*
X135180000Y-69654000D02*
X135180000Y-77666000D01*
X135220000Y-69660000D02*
X135220000Y-77660000D01*
X135260000Y-69666000D02*
X135260000Y-77654000D01*
X135301000Y-69673000D02*
X135301000Y-77647000D01*
X135341000Y-69681000D02*
X135341000Y-77639000D01*
X135381000Y-69689000D02*
X135381000Y-77631000D01*
X135421000Y-69697000D02*
X135421000Y-77623000D01*
X135461000Y-69705000D02*
X135461000Y-77615000D01*
X135501000Y-69714000D02*
X135501000Y-77606000D01*
X135541000Y-69724000D02*
X135541000Y-77596000D01*
X135581000Y-69734000D02*
X135581000Y-77586000D01*
X135621000Y-69744000D02*
X135621000Y-77576000D01*
X135661000Y-69755000D02*
X135661000Y-77565000D01*
X135701000Y-69766000D02*
X135701000Y-77554000D01*
X135741000Y-69777000D02*
X135741000Y-77543000D01*
X135781000Y-69790000D02*
X135781000Y-77530000D01*
X135821000Y-69802000D02*
X135821000Y-77518000D01*
X135861000Y-69815000D02*
X135861000Y-77505000D01*
X135901000Y-69828000D02*
X135901000Y-77492000D01*
X135941000Y-69842000D02*
X135941000Y-77478000D01*
X135981000Y-69857000D02*
X135981000Y-77463000D01*
X136021000Y-69871000D02*
X136021000Y-77449000D01*
X136061000Y-69887000D02*
X136061000Y-77433000D01*
X136101000Y-69902000D02*
X136101000Y-72680000D01*
X136101000Y-74640000D02*
X136101000Y-77418000D01*
X136141000Y-69919000D02*
X136141000Y-72680000D01*
X136141000Y-74640000D02*
X136141000Y-77401000D01*
X136181000Y-69935000D02*
X136181000Y-72680000D01*
X136181000Y-74640000D02*
X136181000Y-77385000D01*
X136221000Y-69953000D02*
X136221000Y-72680000D01*
X136221000Y-74640000D02*
X136221000Y-77367000D01*
X136261000Y-69970000D02*
X136261000Y-72680000D01*
X136261000Y-74640000D02*
X136261000Y-77350000D01*
X136301000Y-69989000D02*
X136301000Y-72680000D01*
X136301000Y-74640000D02*
X136301000Y-77331000D01*
X136341000Y-70008000D02*
X136341000Y-72680000D01*
X136341000Y-74640000D02*
X136341000Y-77312000D01*
X136381000Y-70027000D02*
X136381000Y-72680000D01*
X136381000Y-74640000D02*
X136381000Y-77293000D01*
X136421000Y-70047000D02*
X136421000Y-72680000D01*
X136421000Y-74640000D02*
X136421000Y-77273000D01*
X136461000Y-70067000D02*
X136461000Y-72680000D01*
X136461000Y-74640000D02*
X136461000Y-77253000D01*
X136501000Y-70088000D02*
X136501000Y-72680000D01*
X136501000Y-74640000D02*
X136501000Y-77232000D01*
X136541000Y-70110000D02*
X136541000Y-72680000D01*
X136541000Y-74640000D02*
X136541000Y-77210000D01*
X136581000Y-70132000D02*
X136581000Y-72680000D01*
X136581000Y-74640000D02*
X136581000Y-77188000D01*
X136621000Y-70155000D02*
X136621000Y-72680000D01*
X136621000Y-74640000D02*
X136621000Y-77165000D01*
X136661000Y-70178000D02*
X136661000Y-72680000D01*
X136661000Y-74640000D02*
X136661000Y-77142000D01*
X136701000Y-70202000D02*
X136701000Y-72680000D01*
X136701000Y-74640000D02*
X136701000Y-77118000D01*
X136741000Y-70226000D02*
X136741000Y-72680000D01*
X136741000Y-74640000D02*
X136741000Y-77094000D01*
X136781000Y-70252000D02*
X136781000Y-72680000D01*
X136781000Y-74640000D02*
X136781000Y-77068000D01*
X136821000Y-70277000D02*
X136821000Y-72680000D01*
X136821000Y-74640000D02*
X136821000Y-77043000D01*
X136861000Y-70304000D02*
X136861000Y-72680000D01*
X136861000Y-74640000D02*
X136861000Y-77016000D01*
X136901000Y-70331000D02*
X136901000Y-72680000D01*
X136901000Y-74640000D02*
X136901000Y-76989000D01*
X136941000Y-70359000D02*
X136941000Y-72680000D01*
X136941000Y-74640000D02*
X136941000Y-76961000D01*
X136981000Y-70388000D02*
X136981000Y-72680000D01*
X136981000Y-74640000D02*
X136981000Y-76932000D01*
X137021000Y-70417000D02*
X137021000Y-72680000D01*
X137021000Y-74640000D02*
X137021000Y-76903000D01*
X137061000Y-70447000D02*
X137061000Y-72680000D01*
X137061000Y-74640000D02*
X137061000Y-76873000D01*
X137101000Y-70478000D02*
X137101000Y-72680000D01*
X137101000Y-74640000D02*
X137101000Y-76842000D01*
X137141000Y-70510000D02*
X137141000Y-72680000D01*
X137141000Y-74640000D02*
X137141000Y-76810000D01*
X137181000Y-70542000D02*
X137181000Y-72680000D01*
X137181000Y-74640000D02*
X137181000Y-76778000D01*
X137221000Y-70576000D02*
X137221000Y-72680000D01*
X137221000Y-74640000D02*
X137221000Y-76744000D01*
X137261000Y-70610000D02*
X137261000Y-72680000D01*
X137261000Y-74640000D02*
X137261000Y-76710000D01*
X137301000Y-70645000D02*
X137301000Y-72680000D01*
X137301000Y-74640000D02*
X137301000Y-76675000D01*
X137341000Y-70681000D02*
X137341000Y-72680000D01*
X137341000Y-74640000D02*
X137341000Y-76639000D01*
X137381000Y-70718000D02*
X137381000Y-72680000D01*
X137381000Y-74640000D02*
X137381000Y-76602000D01*
X137421000Y-70756000D02*
X137421000Y-72680000D01*
X137421000Y-74640000D02*
X137421000Y-76564000D01*
X137461000Y-70795000D02*
X137461000Y-72680000D01*
X137461000Y-74640000D02*
X137461000Y-76525000D01*
X137501000Y-70836000D02*
X137501000Y-72680000D01*
X137501000Y-74640000D02*
X137501000Y-76484000D01*
X137541000Y-70877000D02*
X137541000Y-72680000D01*
X137541000Y-74640000D02*
X137541000Y-76443000D01*
X137581000Y-70920000D02*
X137581000Y-72680000D01*
X137581000Y-74640000D02*
X137581000Y-76400000D01*
X137621000Y-70963000D02*
X137621000Y-72680000D01*
X137621000Y-74640000D02*
X137621000Y-76357000D01*
X137661000Y-71008000D02*
X137661000Y-72680000D01*
X137661000Y-74640000D02*
X137661000Y-76312000D01*
X137701000Y-71055000D02*
X137701000Y-72680000D01*
X137701000Y-74640000D02*
X137701000Y-76265000D01*
X137741000Y-71103000D02*
X137741000Y-72680000D01*
X137741000Y-74640000D02*
X137741000Y-76217000D01*
X137781000Y-71152000D02*
X137781000Y-72680000D01*
X137781000Y-74640000D02*
X137781000Y-76168000D01*
X137821000Y-71203000D02*
X137821000Y-72680000D01*
X137821000Y-74640000D02*
X137821000Y-76117000D01*
X137861000Y-71256000D02*
X137861000Y-72680000D01*
X137861000Y-74640000D02*
X137861000Y-76064000D01*
X137901000Y-71311000D02*
X137901000Y-72680000D01*
X137901000Y-74640000D02*
X137901000Y-76009000D01*
X137941000Y-71367000D02*
X137941000Y-72680000D01*
X137941000Y-74640000D02*
X137941000Y-75953000D01*
X137981000Y-71426000D02*
X137981000Y-72680000D01*
X137981000Y-74640000D02*
X137981000Y-75894000D01*
X138021000Y-71487000D02*
X138021000Y-72680000D01*
X138021000Y-74640000D02*
X138021000Y-75833000D01*
X138061000Y-71551000D02*
X138061000Y-75769000D01*
X138101000Y-71617000D02*
X138101000Y-75703000D01*
X138141000Y-71686000D02*
X138141000Y-75634000D01*
X138181000Y-71758000D02*
X138181000Y-75562000D01*
X138221000Y-71834000D02*
X138221000Y-75486000D01*
X138261000Y-71915000D02*
X138261000Y-75405000D01*
X138301000Y-72000000D02*
X138301000Y-75320000D01*
X138341000Y-72090000D02*
X138341000Y-75230000D01*
X138381000Y-72187000D02*
X138381000Y-75133000D01*
X138421000Y-72291000D02*
X138421000Y-75029000D01*
X138461000Y-72406000D02*
X138461000Y-74914000D01*
X138501000Y-72533000D02*
X138501000Y-74787000D01*
X138541000Y-72677000D02*
X138541000Y-74643000D01*
X138581000Y-72846000D02*
X138581000Y-74474000D01*
X138621000Y-73062000D02*
X138621000Y-74258000D01*
X138661000Y-73414000D02*
X138661000Y-73906000D01*
X129880000Y-73660000D02*
X131080000Y-73660000D01*
X130480000Y-73010000D02*
X130480000Y-74310000D01*
X158825000Y-113120000D02*
X154905000Y-113120000D01*
X158825000Y-110400000D02*
X154905000Y-110400000D01*
X158825000Y-113120000D02*
X158825000Y-112510000D01*
X158825000Y-111010000D02*
X158825000Y-110400000D01*
X154905000Y-113120000D02*
X154905000Y-112510000D01*
X154905000Y-111010000D02*
X154905000Y-110400000D01*
X134239278Y-93889723D02*
G75*
G03X138850580Y-93890000I2305722J1179723D01*
G01*
X134239278Y-91530277D02*
G75*
G02X138850580Y-91530000I2305722J-1179723D01*
G01*
X134239278Y-91530277D02*
G75*
G03X134239420Y-93890000I2305722J-1179723D01*
G01*
X136545000Y-95260000D02*
X136545000Y-90160000D01*
X136505000Y-95260000D02*
X136505000Y-90160000D01*
X136465000Y-95259000D02*
X136465000Y-90161000D01*
X136425000Y-95258000D02*
X136425000Y-90162000D01*
X136385000Y-95256000D02*
X136385000Y-90164000D01*
X136345000Y-95253000D02*
X136345000Y-90167000D01*
X136305000Y-95249000D02*
X136305000Y-90171000D01*
X136265000Y-95245000D02*
X136265000Y-93690000D01*
X136265000Y-91730000D02*
X136265000Y-90175000D01*
X136225000Y-95241000D02*
X136225000Y-93690000D01*
X136225000Y-91730000D02*
X136225000Y-90179000D01*
X136185000Y-95235000D02*
X136185000Y-93690000D01*
X136185000Y-91730000D02*
X136185000Y-90185000D01*
X136145000Y-95229000D02*
X136145000Y-93690000D01*
X136145000Y-91730000D02*
X136145000Y-90191000D01*
X136105000Y-95223000D02*
X136105000Y-93690000D01*
X136105000Y-91730000D02*
X136105000Y-90197000D01*
X136065000Y-95216000D02*
X136065000Y-93690000D01*
X136065000Y-91730000D02*
X136065000Y-90204000D01*
X136025000Y-95208000D02*
X136025000Y-93690000D01*
X136025000Y-91730000D02*
X136025000Y-90212000D01*
X135985000Y-95199000D02*
X135985000Y-93690000D01*
X135985000Y-91730000D02*
X135985000Y-90221000D01*
X135945000Y-95190000D02*
X135945000Y-93690000D01*
X135945000Y-91730000D02*
X135945000Y-90230000D01*
X135905000Y-95180000D02*
X135905000Y-93690000D01*
X135905000Y-91730000D02*
X135905000Y-90240000D01*
X135865000Y-95170000D02*
X135865000Y-93690000D01*
X135865000Y-91730000D02*
X135865000Y-90250000D01*
X135824000Y-95158000D02*
X135824000Y-93690000D01*
X135824000Y-91730000D02*
X135824000Y-90262000D01*
X135784000Y-95146000D02*
X135784000Y-93690000D01*
X135784000Y-91730000D02*
X135784000Y-90274000D01*
X135744000Y-95134000D02*
X135744000Y-93690000D01*
X135744000Y-91730000D02*
X135744000Y-90286000D01*
X135704000Y-95120000D02*
X135704000Y-93690000D01*
X135704000Y-91730000D02*
X135704000Y-90300000D01*
X135664000Y-95106000D02*
X135664000Y-93690000D01*
X135664000Y-91730000D02*
X135664000Y-90314000D01*
X135624000Y-95092000D02*
X135624000Y-93690000D01*
X135624000Y-91730000D02*
X135624000Y-90328000D01*
X135584000Y-95076000D02*
X135584000Y-93690000D01*
X135584000Y-91730000D02*
X135584000Y-90344000D01*
X135544000Y-95060000D02*
X135544000Y-93690000D01*
X135544000Y-91730000D02*
X135544000Y-90360000D01*
X135504000Y-95043000D02*
X135504000Y-93690000D01*
X135504000Y-91730000D02*
X135504000Y-90377000D01*
X135464000Y-95025000D02*
X135464000Y-93690000D01*
X135464000Y-91730000D02*
X135464000Y-90395000D01*
X135424000Y-95006000D02*
X135424000Y-93690000D01*
X135424000Y-91730000D02*
X135424000Y-90414000D01*
X135384000Y-94986000D02*
X135384000Y-93690000D01*
X135384000Y-91730000D02*
X135384000Y-90434000D01*
X135344000Y-94966000D02*
X135344000Y-93690000D01*
X135344000Y-91730000D02*
X135344000Y-90454000D01*
X135304000Y-94944000D02*
X135304000Y-93690000D01*
X135304000Y-91730000D02*
X135304000Y-90476000D01*
X135264000Y-94922000D02*
X135264000Y-93690000D01*
X135264000Y-91730000D02*
X135264000Y-90498000D01*
X135224000Y-94899000D02*
X135224000Y-93690000D01*
X135224000Y-91730000D02*
X135224000Y-90521000D01*
X135184000Y-94875000D02*
X135184000Y-93690000D01*
X135184000Y-91730000D02*
X135184000Y-90545000D01*
X135144000Y-94850000D02*
X135144000Y-93690000D01*
X135144000Y-91730000D02*
X135144000Y-90570000D01*
X135104000Y-94823000D02*
X135104000Y-93690000D01*
X135104000Y-91730000D02*
X135104000Y-90597000D01*
X135064000Y-94796000D02*
X135064000Y-93690000D01*
X135064000Y-91730000D02*
X135064000Y-90624000D01*
X135024000Y-94768000D02*
X135024000Y-93690000D01*
X135024000Y-91730000D02*
X135024000Y-90652000D01*
X134984000Y-94738000D02*
X134984000Y-93690000D01*
X134984000Y-91730000D02*
X134984000Y-90682000D01*
X134944000Y-94707000D02*
X134944000Y-93690000D01*
X134944000Y-91730000D02*
X134944000Y-90713000D01*
X134904000Y-94675000D02*
X134904000Y-93690000D01*
X134904000Y-91730000D02*
X134904000Y-90745000D01*
X134864000Y-94642000D02*
X134864000Y-93690000D01*
X134864000Y-91730000D02*
X134864000Y-90778000D01*
X134824000Y-94607000D02*
X134824000Y-93690000D01*
X134824000Y-91730000D02*
X134824000Y-90813000D01*
X134784000Y-94571000D02*
X134784000Y-93690000D01*
X134784000Y-91730000D02*
X134784000Y-90849000D01*
X134744000Y-94533000D02*
X134744000Y-93690000D01*
X134744000Y-91730000D02*
X134744000Y-90887000D01*
X134704000Y-94493000D02*
X134704000Y-93690000D01*
X134704000Y-91730000D02*
X134704000Y-90927000D01*
X134664000Y-94452000D02*
X134664000Y-93690000D01*
X134664000Y-91730000D02*
X134664000Y-90968000D01*
X134624000Y-94409000D02*
X134624000Y-93690000D01*
X134624000Y-91730000D02*
X134624000Y-91011000D01*
X134584000Y-94364000D02*
X134584000Y-93690000D01*
X134584000Y-91730000D02*
X134584000Y-91056000D01*
X134544000Y-94316000D02*
X134544000Y-93690000D01*
X134544000Y-91730000D02*
X134544000Y-91104000D01*
X134504000Y-94266000D02*
X134504000Y-93690000D01*
X134504000Y-91730000D02*
X134504000Y-91154000D01*
X134464000Y-94214000D02*
X134464000Y-93690000D01*
X134464000Y-91730000D02*
X134464000Y-91206000D01*
X134424000Y-94158000D02*
X134424000Y-93690000D01*
X134424000Y-91730000D02*
X134424000Y-91262000D01*
X134384000Y-94100000D02*
X134384000Y-93690000D01*
X134384000Y-91730000D02*
X134384000Y-91320000D01*
X134344000Y-94037000D02*
X134344000Y-93690000D01*
X134344000Y-91730000D02*
X134344000Y-91383000D01*
X134304000Y-93971000D02*
X134304000Y-91449000D01*
X134264000Y-93899000D02*
X134264000Y-91521000D01*
X134224000Y-93822000D02*
X134224000Y-91598000D01*
X134184000Y-93738000D02*
X134184000Y-91682000D01*
X134144000Y-93644000D02*
X134144000Y-91776000D01*
X134104000Y-93539000D02*
X134104000Y-91881000D01*
X134064000Y-93417000D02*
X134064000Y-92003000D01*
X134024000Y-93269000D02*
X134024000Y-92151000D01*
X133984000Y-93064000D02*
X133984000Y-92356000D01*
X139995000Y-92710000D02*
X138795000Y-92710000D01*
X139395000Y-93360000D02*
X139395000Y-92060000D01*
X125640000Y-95960000D02*
X125640000Y-92040000D01*
X128360000Y-95960000D02*
X128360000Y-92040000D01*
X125640000Y-95960000D02*
X126250000Y-95960000D01*
X127750000Y-95960000D02*
X128360000Y-95960000D01*
X125640000Y-92040000D02*
X126250000Y-92040000D01*
X127750000Y-92040000D02*
X128360000Y-92040000D01*
X125640000Y-87070000D02*
X125640000Y-83150000D01*
X128360000Y-87070000D02*
X128360000Y-83150000D01*
X125640000Y-87070000D02*
X126250000Y-87070000D01*
X127750000Y-87070000D02*
X128360000Y-87070000D01*
X125640000Y-83150000D02*
X126250000Y-83150000D01*
X127750000Y-83150000D02*
X128360000Y-83150000D01*
X139140000Y-105500000D02*
X135220000Y-105500000D01*
X139140000Y-102780000D02*
X135220000Y-102780000D01*
X139140000Y-105500000D02*
X139140000Y-104890000D01*
X139140000Y-103390000D02*
X139140000Y-102780000D01*
X135220000Y-105500000D02*
X135220000Y-104890000D01*
X135220000Y-103390000D02*
X135220000Y-102780000D01*
X136816000Y-121614000D02*
X136816000Y-117694000D01*
X139536000Y-121614000D02*
X139536000Y-117694000D01*
X136816000Y-121614000D02*
X137426000Y-121614000D01*
X138926000Y-121614000D02*
X139536000Y-121614000D01*
X136816000Y-117694000D02*
X137426000Y-117694000D01*
X138926000Y-117694000D02*
X139536000Y-117694000D01*
X125513000Y-106120000D02*
X125513000Y-102200000D01*
X128233000Y-106120000D02*
X128233000Y-102200000D01*
X125513000Y-106120000D02*
X126123000Y-106120000D01*
X127623000Y-106120000D02*
X128233000Y-106120000D01*
X125513000Y-102200000D02*
X126123000Y-102200000D01*
X127623000Y-102200000D02*
X128233000Y-102200000D01*
X134545000Y-83730000D02*
X138465000Y-83730000D01*
X134545000Y-86450000D02*
X138465000Y-86450000D01*
X134545000Y-83730000D02*
X134545000Y-84340000D01*
X134545000Y-85840000D02*
X134545000Y-86450000D01*
X138465000Y-83730000D02*
X138465000Y-84340000D01*
X138465000Y-85840000D02*
X138465000Y-86450000D01*
X154395000Y-80570000D02*
X154395000Y-84490000D01*
X151675000Y-80570000D02*
X151675000Y-84490000D01*
X154395000Y-80570000D02*
X153785000Y-80570000D01*
X152285000Y-80570000D02*
X151675000Y-80570000D01*
X154395000Y-84490000D02*
X153785000Y-84490000D01*
X152285000Y-84490000D02*
X151675000Y-84490000D01*
X148650000Y-125790000D02*
X148650000Y-120590000D01*
X143510000Y-125790000D02*
X148650000Y-125790000D01*
X140910000Y-120590000D02*
X148650000Y-120590000D01*
X143510000Y-125790000D02*
X143510000Y-123190000D01*
X143510000Y-123190000D02*
X140910000Y-123190000D01*
X140910000Y-123190000D02*
X140910000Y-120590000D01*
X142240000Y-125790000D02*
X140910000Y-125790000D01*
X140910000Y-125790000D02*
X140910000Y-124460000D01*
X159245000Y-122675000D02*
X162065000Y-122675000D01*
X162065000Y-122675000D02*
X162065000Y-117355000D01*
X162065000Y-117355000D02*
X159245000Y-117355000D01*
X159245000Y-117355000D02*
X159245000Y-122675000D01*
X160655000Y-123815000D02*
X160655000Y-122675000D01*
X160655000Y-116215000D02*
X160655000Y-117355000D01*
X159245000Y-121835000D02*
X162065000Y-121835000D01*
X156985000Y-117355000D02*
X154165000Y-117355000D01*
X154165000Y-117355000D02*
X154165000Y-122675000D01*
X154165000Y-122675000D02*
X156985000Y-122675000D01*
X156985000Y-122675000D02*
X156985000Y-117355000D01*
X155575000Y-116215000D02*
X155575000Y-117355000D01*
X155575000Y-123815000D02*
X155575000Y-122675000D01*
X156985000Y-118195000D02*
X154165000Y-118195000D01*
X116085000Y-91300000D02*
X116085000Y-94120000D01*
X116085000Y-94120000D02*
X121405000Y-94120000D01*
X121405000Y-94120000D02*
X121405000Y-91300000D01*
X121405000Y-91300000D02*
X116085000Y-91300000D01*
X114945000Y-92710000D02*
X116085000Y-92710000D01*
X122545000Y-92710000D02*
X121405000Y-92710000D01*
X116925000Y-91300000D02*
X116925000Y-94120000D01*
X121405000Y-99200000D02*
X121405000Y-96380000D01*
X121405000Y-96380000D02*
X116085000Y-96380000D01*
X116085000Y-96380000D02*
X116085000Y-99200000D01*
X116085000Y-99200000D02*
X121405000Y-99200000D01*
X122545000Y-97790000D02*
X121405000Y-97790000D01*
X114945000Y-97790000D02*
X116085000Y-97790000D01*
X120565000Y-99200000D02*
X120565000Y-96380000D01*
X116085000Y-82410000D02*
X116085000Y-85230000D01*
X116085000Y-85230000D02*
X121405000Y-85230000D01*
X121405000Y-85230000D02*
X121405000Y-82410000D01*
X121405000Y-82410000D02*
X116085000Y-82410000D01*
X114945000Y-83820000D02*
X116085000Y-83820000D01*
X122545000Y-83820000D02*
X121405000Y-83820000D01*
X116925000Y-82410000D02*
X116925000Y-85230000D01*
X121405000Y-90310000D02*
X121405000Y-87490000D01*
X121405000Y-87490000D02*
X116085000Y-87490000D01*
X116085000Y-87490000D02*
X116085000Y-90310000D01*
X116085000Y-90310000D02*
X121405000Y-90310000D01*
X122545000Y-88900000D02*
X121405000Y-88900000D01*
X114945000Y-88900000D02*
X116085000Y-88900000D01*
X120565000Y-90310000D02*
X120565000Y-87490000D01*
X140830000Y-79495000D02*
X143650000Y-79495000D01*
X143650000Y-79495000D02*
X143650000Y-74175000D01*
X143650000Y-74175000D02*
X140830000Y-74175000D01*
X140830000Y-74175000D02*
X140830000Y-79495000D01*
X142240000Y-80635000D02*
X142240000Y-79495000D01*
X142240000Y-73035000D02*
X142240000Y-74175000D01*
X140830000Y-78655000D02*
X143650000Y-78655000D01*
X116085000Y-73520000D02*
X116085000Y-76340000D01*
X116085000Y-76340000D02*
X121405000Y-76340000D01*
X121405000Y-76340000D02*
X121405000Y-73520000D01*
X121405000Y-73520000D02*
X116085000Y-73520000D01*
X114945000Y-74930000D02*
X116085000Y-74930000D01*
X122545000Y-74930000D02*
X121405000Y-74930000D01*
X116925000Y-73520000D02*
X116925000Y-76340000D01*
X121405000Y-81420000D02*
X121405000Y-78600000D01*
X121405000Y-78600000D02*
X116085000Y-78600000D01*
X116085000Y-78600000D02*
X116085000Y-81420000D01*
X116085000Y-81420000D02*
X121405000Y-81420000D01*
X122545000Y-80010000D02*
X121405000Y-80010000D01*
X114945000Y-80010000D02*
X116085000Y-80010000D01*
X120565000Y-81420000D02*
X120565000Y-78600000D01*
X181530000Y-84495000D02*
X181530000Y-74255000D01*
X186171000Y-84495000D02*
X186171000Y-74255000D01*
X181530000Y-84495000D02*
X186171000Y-84495000D01*
X181530000Y-74255000D02*
X186171000Y-74255000D01*
X183040000Y-84495000D02*
X183040000Y-74255000D01*
X181530000Y-81225000D02*
X183040000Y-81225000D01*
X181530000Y-77524000D02*
X183040000Y-77524000D01*
X119440000Y-72450000D02*
X119440000Y-69790000D01*
X116840000Y-72450000D02*
X119440000Y-72450000D01*
X116840000Y-69790000D02*
X119440000Y-69790000D01*
X116840000Y-72450000D02*
X116840000Y-69790000D01*
X115570000Y-72450000D02*
X114240000Y-72450000D01*
X114240000Y-72450000D02*
X114240000Y-71120000D01*
X109160000Y-97850000D02*
X111820000Y-97850000D01*
X109160000Y-92710000D02*
X109160000Y-97850000D01*
X111820000Y-92710000D02*
X111820000Y-97850000D01*
X109160000Y-92710000D02*
X111820000Y-92710000D01*
X109160000Y-91440000D02*
X109160000Y-90110000D01*
X109160000Y-90110000D02*
X110490000Y-90110000D01*
X109160000Y-87690000D02*
X111820000Y-87690000D01*
X109160000Y-82550000D02*
X109160000Y-87690000D01*
X111820000Y-82550000D02*
X111820000Y-87690000D01*
X109160000Y-82550000D02*
X111820000Y-82550000D01*
X109160000Y-81280000D02*
X109160000Y-79950000D01*
X109160000Y-79950000D02*
X110490000Y-79950000D01*
X109160000Y-77530000D02*
X111820000Y-77530000D01*
X109160000Y-72390000D02*
X109160000Y-77530000D01*
X111820000Y-72390000D02*
X111820000Y-77530000D01*
X109160000Y-72390000D02*
X111820000Y-72390000D01*
X109160000Y-71120000D02*
X109160000Y-69790000D01*
X109160000Y-69790000D02*
X110490000Y-69790000D01*
X109160000Y-106740000D02*
X111820000Y-106740000D01*
X109160000Y-104140000D02*
X109160000Y-106740000D01*
X111820000Y-104140000D02*
X111820000Y-106740000D01*
X109160000Y-104140000D02*
X111820000Y-104140000D01*
X109160000Y-102870000D02*
X109160000Y-101540000D01*
X109160000Y-101540000D02*
X110490000Y-101540000D01*
X128330000Y-72450000D02*
X128330000Y-69790000D01*
X125730000Y-72450000D02*
X128330000Y-72450000D01*
X125730000Y-69790000D02*
X128330000Y-69790000D01*
X125730000Y-72450000D02*
X125730000Y-69790000D01*
X124460000Y-72450000D02*
X123130000Y-72450000D01*
X123130000Y-72450000D02*
X123130000Y-71120000D01*
X119610000Y-126000000D02*
X119100000Y-125650000D01*
X122120000Y-125800000D02*
X122380000Y-125800000D01*
X121920000Y-126000000D02*
X122120000Y-125800000D01*
X112520000Y-126000000D02*
X112730000Y-125800000D01*
X112730000Y-125650000D02*
X112730000Y-125800000D01*
X112730000Y-125650000D02*
X119100000Y-125650000D01*
X109630000Y-121040000D02*
X109630000Y-122840000D01*
X109630000Y-115040000D02*
X109630000Y-119740000D01*
X110660000Y-126000000D02*
X110460000Y-125800000D01*
X110660000Y-126000000D02*
X112520000Y-126000000D01*
X121920000Y-126000000D02*
X119610000Y-126000000D01*
X109630000Y-109730000D02*
X109630000Y-113340000D01*
X110080000Y-109730000D02*
X109630000Y-109730000D01*
X123600000Y-109730000D02*
X123600000Y-123740000D01*
X121680000Y-109730000D02*
X123600000Y-109730000D01*
X163135000Y-69790000D02*
X163135000Y-72450000D01*
X165735000Y-69790000D02*
X163135000Y-69790000D01*
X165735000Y-72450000D02*
X163135000Y-72450000D01*
X165735000Y-69790000D02*
X165735000Y-72450000D01*
X167005000Y-69790000D02*
X168335000Y-69790000D01*
X168335000Y-69790000D02*
X168335000Y-71120000D01*
X181530000Y-114135000D02*
X197670000Y-114135000D01*
X181530000Y-119406000D02*
X197670000Y-119406000D01*
X181530000Y-114135000D02*
X181530000Y-119406000D01*
X197670000Y-114135000D02*
X197670000Y-119406000D01*
X187796000Y-114135000D02*
X187796000Y-119406000D01*
X191405000Y-114135000D02*
X191405000Y-119406000D01*
X181530000Y-104864000D02*
X197670000Y-104864000D01*
X181530000Y-110135000D02*
X197670000Y-110135000D01*
X181530000Y-104864000D02*
X181530000Y-110135000D01*
X197670000Y-104864000D02*
X197670000Y-110135000D01*
X187796000Y-104864000D02*
X187796000Y-110135000D01*
X191405000Y-104864000D02*
X191405000Y-110135000D01*
X158975000Y-118155000D02*
X157255000Y-118155000D01*
X157255000Y-118155000D02*
X157255000Y-121875000D01*
X157255000Y-121875000D02*
X158975000Y-121875000D01*
X158975000Y-121875000D02*
X158975000Y-118155000D01*
X158115000Y-117085000D02*
X158115000Y-118155000D01*
X158115000Y-122945000D02*
X158115000Y-121875000D01*
X155433400Y-103514600D02*
X158053400Y-103514600D01*
X158053400Y-103514600D02*
X158053400Y-97094600D01*
X158053400Y-97094600D02*
X155433400Y-97094600D01*
X155433400Y-97094600D02*
X155433400Y-103514600D01*
X156743400Y-104404600D02*
X156743400Y-103514600D01*
X156743400Y-96204600D02*
X156743400Y-97094600D01*
X120605000Y-96110000D02*
X120605000Y-94390000D01*
X120605000Y-94390000D02*
X116885000Y-94390000D01*
X116885000Y-94390000D02*
X116885000Y-96110000D01*
X116885000Y-96110000D02*
X120605000Y-96110000D01*
X121675000Y-95250000D02*
X120605000Y-95250000D01*
X115815000Y-95250000D02*
X116885000Y-95250000D01*
X120605000Y-87220000D02*
X120605000Y-85500000D01*
X120605000Y-85500000D02*
X116885000Y-85500000D01*
X116885000Y-85500000D02*
X116885000Y-87220000D01*
X116885000Y-87220000D02*
X120605000Y-87220000D01*
X121675000Y-86360000D02*
X120605000Y-86360000D01*
X115815000Y-86360000D02*
X116885000Y-86360000D01*
X130135000Y-93126000D02*
X132755000Y-93126000D01*
X132755000Y-93126000D02*
X132755000Y-86706000D01*
X132755000Y-86706000D02*
X130135000Y-86706000D01*
X130135000Y-86706000D02*
X130135000Y-93126000D01*
X131445000Y-94016000D02*
X131445000Y-93126000D01*
X131445000Y-85816000D02*
X131445000Y-86706000D01*
X144740000Y-80045000D02*
X147360000Y-80045000D01*
X147360000Y-80045000D02*
X147360000Y-73625000D01*
X147360000Y-73625000D02*
X144740000Y-73625000D01*
X144740000Y-73625000D02*
X144740000Y-80045000D01*
X146050000Y-80935000D02*
X146050000Y-80045000D01*
X146050000Y-72735000D02*
X146050000Y-73625000D01*
X120605000Y-78330000D02*
X120605000Y-76610000D01*
X120605000Y-76610000D02*
X116885000Y-76610000D01*
X116885000Y-76610000D02*
X116885000Y-78330000D01*
X116885000Y-78330000D02*
X120605000Y-78330000D01*
X121675000Y-77470000D02*
X120605000Y-77470000D01*
X115815000Y-77470000D02*
X116885000Y-77470000D01*
X177835000Y-116880000D02*
X177835000Y-114260000D01*
X177835000Y-114260000D02*
X171415000Y-114260000D01*
X171415000Y-114260000D02*
X171415000Y-116880000D01*
X171415000Y-116880000D02*
X177835000Y-116880000D01*
X178725000Y-115570000D02*
X177835000Y-115570000D01*
X170525000Y-115570000D02*
X171415000Y-115570000D01*
X163790000Y-118780000D02*
X166410000Y-118780000D01*
X166410000Y-118780000D02*
X166410000Y-112360000D01*
X166410000Y-112360000D02*
X163790000Y-112360000D01*
X163790000Y-112360000D02*
X163790000Y-118780000D01*
X165100000Y-119670000D02*
X165100000Y-118780000D01*
X165100000Y-111470000D02*
X165100000Y-112360000D01*
X177835000Y-111800000D02*
X177835000Y-109180000D01*
X177835000Y-109180000D02*
X171415000Y-109180000D01*
X171415000Y-109180000D02*
X171415000Y-111800000D01*
X171415000Y-111800000D02*
X177835000Y-111800000D01*
X178725000Y-110490000D02*
X177835000Y-110490000D01*
X170525000Y-110490000D02*
X171415000Y-110490000D01*
X177730000Y-125685000D02*
X177730000Y-121965000D01*
X177730000Y-121965000D02*
X167710000Y-121965000D01*
X167710000Y-121965000D02*
X167710000Y-125685000D01*
X167710000Y-125685000D02*
X177730000Y-125685000D01*
X178960000Y-123825000D02*
X177730000Y-123825000D01*
X166480000Y-123825000D02*
X167710000Y-123825000D01*
X131842000Y-119468000D02*
X127342000Y-119468000D01*
X133092000Y-123468000D02*
X133092000Y-121968000D01*
X127342000Y-125968000D02*
X131842000Y-125968000D01*
X126092000Y-121968000D02*
X126092000Y-123468000D01*
X130135000Y-78025000D02*
X140375000Y-78025000D01*
X130135000Y-82666000D02*
X140375000Y-82666000D01*
X130135000Y-78025000D02*
X130135000Y-82666000D01*
X140375000Y-78025000D02*
X140375000Y-82666000D01*
X130135000Y-79535000D02*
X140375000Y-79535000D01*
X133405000Y-78025000D02*
X133405000Y-79535000D01*
X137106000Y-78025000D02*
X137106000Y-79535000D01*
X145780000Y-83760000D02*
G75*
G02X143780000Y-83760000I-1000000J0D01*
G01*
X143780000Y-83760000D02*
X142530000Y-83760000D01*
X142530000Y-83760000D02*
X142530000Y-119440000D01*
X142530000Y-119440000D02*
X147030000Y-119440000D01*
X147030000Y-119440000D02*
X147030000Y-83760000D01*
X147030000Y-83760000D02*
X145780000Y-83760000D01*
X118994000Y-100095000D02*
X118994000Y-101355000D01*
X118994000Y-106915000D02*
X118994000Y-105655000D01*
X122754000Y-100095000D02*
X118994000Y-100095000D01*
X125004000Y-106915000D02*
X118994000Y-106915000D01*
X159445000Y-75930000D02*
G75*
G02X159445000Y-73930000I0J1000000D01*
G01*
X159445000Y-73930000D02*
X159445000Y-72680000D01*
X159445000Y-72680000D02*
X149165000Y-72680000D01*
X149165000Y-72680000D02*
X149165000Y-77180000D01*
X149165000Y-77180000D02*
X159445000Y-77180000D01*
X159445000Y-77180000D02*
X159445000Y-75930000D01*
D11*
X127211000Y-106431000D02*
X127211000Y-106456000D01*
X131361000Y-106431000D02*
X131361000Y-106536000D01*
X131361000Y-116581000D02*
X131361000Y-116476000D01*
X127211000Y-116581000D02*
X127211000Y-116476000D01*
X127211000Y-106431000D02*
X131361000Y-106431000D01*
X127211000Y-116581000D02*
X131361000Y-116581000D01*
X127211000Y-106456000D02*
X125836000Y-106456000D01*
D10*
X139050000Y-108460000D02*
X139050000Y-114860000D01*
X134000000Y-108460000D02*
X134000000Y-114860000D01*
X134000000Y-108460000D02*
G75*
G02X139050000Y-108460000I2525000J0D01*
G01*
X134000000Y-114860000D02*
G75*
G03X139050000Y-114860000I2525000J0D01*
G01*
X126250000Y-80680000D02*
X125640000Y-80680000D01*
X128360000Y-80680000D02*
X127750000Y-80680000D01*
X126250000Y-76760000D02*
X125640000Y-76760000D01*
X128360000Y-76760000D02*
X127750000Y-76760000D01*
X125640000Y-76760000D02*
X125640000Y-80680000D01*
X128360000Y-76760000D02*
X128360000Y-80680000D01*
X130559722Y-98007277D02*
G75*
G03X125948420Y-98007000I-2305722J-1179723D01*
G01*
X130559722Y-100366723D02*
G75*
G02X125948420Y-100367000I-2305722J1179723D01*
G01*
X130559722Y-100366723D02*
G75*
G03X130559580Y-98007000I-2305722J1179723D01*
G01*
X128254000Y-96637000D02*
X128254000Y-101737000D01*
X128294000Y-96637000D02*
X128294000Y-98207000D01*
X128294000Y-100167000D02*
X128294000Y-101737000D01*
X128334000Y-96638000D02*
X128334000Y-98207000D01*
X128334000Y-100167000D02*
X128334000Y-101736000D01*
X128374000Y-96639000D02*
X128374000Y-98207000D01*
X128374000Y-100167000D02*
X128374000Y-101735000D01*
X128414000Y-96641000D02*
X128414000Y-98207000D01*
X128414000Y-100167000D02*
X128414000Y-101733000D01*
X128454000Y-96644000D02*
X128454000Y-98207000D01*
X128454000Y-100167000D02*
X128454000Y-101730000D01*
X128494000Y-96648000D02*
X128494000Y-98207000D01*
X128494000Y-100167000D02*
X128494000Y-101726000D01*
X128534000Y-96652000D02*
X128534000Y-98207000D01*
X128534000Y-100167000D02*
X128534000Y-101722000D01*
X128574000Y-96656000D02*
X128574000Y-98207000D01*
X128574000Y-100167000D02*
X128574000Y-101718000D01*
X128614000Y-96662000D02*
X128614000Y-98207000D01*
X128614000Y-100167000D02*
X128614000Y-101712000D01*
X128654000Y-96668000D02*
X128654000Y-98207000D01*
X128654000Y-100167000D02*
X128654000Y-101706000D01*
X128694000Y-96674000D02*
X128694000Y-98207000D01*
X128694000Y-100167000D02*
X128694000Y-101700000D01*
X128734000Y-96681000D02*
X128734000Y-98207000D01*
X128734000Y-100167000D02*
X128734000Y-101693000D01*
X128774000Y-96689000D02*
X128774000Y-98207000D01*
X128774000Y-100167000D02*
X128774000Y-101685000D01*
X128814000Y-96698000D02*
X128814000Y-98207000D01*
X128814000Y-100167000D02*
X128814000Y-101676000D01*
X128854000Y-96707000D02*
X128854000Y-98207000D01*
X128854000Y-100167000D02*
X128854000Y-101667000D01*
X128894000Y-96717000D02*
X128894000Y-98207000D01*
X128894000Y-100167000D02*
X128894000Y-101657000D01*
X128934000Y-96727000D02*
X128934000Y-98207000D01*
X128934000Y-100167000D02*
X128934000Y-101647000D01*
X128975000Y-96739000D02*
X128975000Y-98207000D01*
X128975000Y-100167000D02*
X128975000Y-101635000D01*
X129015000Y-96751000D02*
X129015000Y-98207000D01*
X129015000Y-100167000D02*
X129015000Y-101623000D01*
X129055000Y-96763000D02*
X129055000Y-98207000D01*
X129055000Y-100167000D02*
X129055000Y-101611000D01*
X129095000Y-96777000D02*
X129095000Y-98207000D01*
X129095000Y-100167000D02*
X129095000Y-101597000D01*
X129135000Y-96791000D02*
X129135000Y-98207000D01*
X129135000Y-100167000D02*
X129135000Y-101583000D01*
X129175000Y-96805000D02*
X129175000Y-98207000D01*
X129175000Y-100167000D02*
X129175000Y-101569000D01*
X129215000Y-96821000D02*
X129215000Y-98207000D01*
X129215000Y-100167000D02*
X129215000Y-101553000D01*
X129255000Y-96837000D02*
X129255000Y-98207000D01*
X129255000Y-100167000D02*
X129255000Y-101537000D01*
X129295000Y-96854000D02*
X129295000Y-98207000D01*
X129295000Y-100167000D02*
X129295000Y-101520000D01*
X129335000Y-96872000D02*
X129335000Y-98207000D01*
X129335000Y-100167000D02*
X129335000Y-101502000D01*
X129375000Y-96891000D02*
X129375000Y-98207000D01*
X129375000Y-100167000D02*
X129375000Y-101483000D01*
X129415000Y-96911000D02*
X129415000Y-98207000D01*
X129415000Y-100167000D02*
X129415000Y-101463000D01*
X129455000Y-96931000D02*
X129455000Y-98207000D01*
X129455000Y-100167000D02*
X129455000Y-101443000D01*
X129495000Y-96953000D02*
X129495000Y-98207000D01*
X129495000Y-100167000D02*
X129495000Y-101421000D01*
X129535000Y-96975000D02*
X129535000Y-98207000D01*
X129535000Y-100167000D02*
X129535000Y-101399000D01*
X129575000Y-96998000D02*
X129575000Y-98207000D01*
X129575000Y-100167000D02*
X129575000Y-101376000D01*
X129615000Y-97022000D02*
X129615000Y-98207000D01*
X129615000Y-100167000D02*
X129615000Y-101352000D01*
X129655000Y-97047000D02*
X129655000Y-98207000D01*
X129655000Y-100167000D02*
X129655000Y-101327000D01*
X129695000Y-97074000D02*
X129695000Y-98207000D01*
X129695000Y-100167000D02*
X129695000Y-101300000D01*
X129735000Y-97101000D02*
X129735000Y-98207000D01*
X129735000Y-100167000D02*
X129735000Y-101273000D01*
X129775000Y-97129000D02*
X129775000Y-98207000D01*
X129775000Y-100167000D02*
X129775000Y-101245000D01*
X129815000Y-97159000D02*
X129815000Y-98207000D01*
X129815000Y-100167000D02*
X129815000Y-101215000D01*
X129855000Y-97190000D02*
X129855000Y-98207000D01*
X129855000Y-100167000D02*
X129855000Y-101184000D01*
X129895000Y-97222000D02*
X129895000Y-98207000D01*
X129895000Y-100167000D02*
X129895000Y-101152000D01*
X129935000Y-97255000D02*
X129935000Y-98207000D01*
X129935000Y-100167000D02*
X129935000Y-101119000D01*
X129975000Y-97290000D02*
X129975000Y-98207000D01*
X129975000Y-100167000D02*
X129975000Y-101084000D01*
X130015000Y-97326000D02*
X130015000Y-98207000D01*
X130015000Y-100167000D02*
X130015000Y-101048000D01*
X130055000Y-97364000D02*
X130055000Y-98207000D01*
X130055000Y-100167000D02*
X130055000Y-101010000D01*
X130095000Y-97404000D02*
X130095000Y-98207000D01*
X130095000Y-100167000D02*
X130095000Y-100970000D01*
X130135000Y-97445000D02*
X130135000Y-98207000D01*
X130135000Y-100167000D02*
X130135000Y-100929000D01*
X130175000Y-97488000D02*
X130175000Y-98207000D01*
X130175000Y-100167000D02*
X130175000Y-100886000D01*
X130215000Y-97533000D02*
X130215000Y-98207000D01*
X130215000Y-100167000D02*
X130215000Y-100841000D01*
X130255000Y-97581000D02*
X130255000Y-100793000D01*
X130295000Y-97631000D02*
X130295000Y-100743000D01*
X130335000Y-97683000D02*
X130335000Y-100691000D01*
X130375000Y-97739000D02*
X130375000Y-100635000D01*
X130415000Y-97797000D02*
X130415000Y-100577000D01*
X130455000Y-97860000D02*
X130455000Y-100514000D01*
X130495000Y-97926000D02*
X130495000Y-100448000D01*
X130535000Y-97998000D02*
X130535000Y-100376000D01*
X130575000Y-98075000D02*
X130575000Y-100299000D01*
X130615000Y-98159000D02*
X130615000Y-100215000D01*
X130655000Y-98253000D02*
X130655000Y-100121000D01*
X130695000Y-98358000D02*
X130695000Y-100016000D01*
X130735000Y-98480000D02*
X130735000Y-99894000D01*
X130775000Y-98628000D02*
X130775000Y-99746000D01*
X130815000Y-98833000D02*
X130815000Y-99541000D01*
X125054000Y-99187000D02*
X126254000Y-99187000D01*
X125654000Y-98537000D02*
X125654000Y-99837000D01*
X156540000Y-88915000D02*
X156540000Y-87615000D01*
X157140000Y-88265000D02*
X155940000Y-88265000D01*
X151379000Y-88619000D02*
X151379000Y-87911000D01*
X151419000Y-88824000D02*
X151419000Y-87706000D01*
X151459000Y-88972000D02*
X151459000Y-87558000D01*
X151499000Y-89094000D02*
X151499000Y-87436000D01*
X151539000Y-89199000D02*
X151539000Y-87331000D01*
X151579000Y-89293000D02*
X151579000Y-87237000D01*
X151619000Y-89377000D02*
X151619000Y-87153000D01*
X151659000Y-89454000D02*
X151659000Y-87076000D01*
X151699000Y-89526000D02*
X151699000Y-87004000D01*
X151739000Y-89592000D02*
X151739000Y-86938000D01*
X151779000Y-89655000D02*
X151779000Y-86875000D01*
X151819000Y-89713000D02*
X151819000Y-86817000D01*
X151859000Y-89769000D02*
X151859000Y-86761000D01*
X151899000Y-89821000D02*
X151899000Y-86709000D01*
X151939000Y-89871000D02*
X151939000Y-86659000D01*
X151979000Y-87285000D02*
X151979000Y-86611000D01*
X151979000Y-89919000D02*
X151979000Y-89245000D01*
X152019000Y-87285000D02*
X152019000Y-86566000D01*
X152019000Y-89964000D02*
X152019000Y-89245000D01*
X152059000Y-87285000D02*
X152059000Y-86523000D01*
X152059000Y-90007000D02*
X152059000Y-89245000D01*
X152099000Y-87285000D02*
X152099000Y-86482000D01*
X152099000Y-90048000D02*
X152099000Y-89245000D01*
X152139000Y-87285000D02*
X152139000Y-86442000D01*
X152139000Y-90088000D02*
X152139000Y-89245000D01*
X152179000Y-87285000D02*
X152179000Y-86404000D01*
X152179000Y-90126000D02*
X152179000Y-89245000D01*
X152219000Y-87285000D02*
X152219000Y-86368000D01*
X152219000Y-90162000D02*
X152219000Y-89245000D01*
X152259000Y-87285000D02*
X152259000Y-86333000D01*
X152259000Y-90197000D02*
X152259000Y-89245000D01*
X152299000Y-87285000D02*
X152299000Y-86300000D01*
X152299000Y-90230000D02*
X152299000Y-89245000D01*
X152339000Y-87285000D02*
X152339000Y-86268000D01*
X152339000Y-90262000D02*
X152339000Y-89245000D01*
X152379000Y-87285000D02*
X152379000Y-86237000D01*
X152379000Y-90293000D02*
X152379000Y-89245000D01*
X152419000Y-87285000D02*
X152419000Y-86207000D01*
X152419000Y-90323000D02*
X152419000Y-89245000D01*
X152459000Y-87285000D02*
X152459000Y-86179000D01*
X152459000Y-90351000D02*
X152459000Y-89245000D01*
X152499000Y-87285000D02*
X152499000Y-86152000D01*
X152499000Y-90378000D02*
X152499000Y-89245000D01*
X152539000Y-87285000D02*
X152539000Y-86125000D01*
X152539000Y-90405000D02*
X152539000Y-89245000D01*
X152579000Y-87285000D02*
X152579000Y-86100000D01*
X152579000Y-90430000D02*
X152579000Y-89245000D01*
X152619000Y-87285000D02*
X152619000Y-86076000D01*
X152619000Y-90454000D02*
X152619000Y-89245000D01*
X152659000Y-87285000D02*
X152659000Y-86053000D01*
X152659000Y-90477000D02*
X152659000Y-89245000D01*
X152699000Y-87285000D02*
X152699000Y-86031000D01*
X152699000Y-90499000D02*
X152699000Y-89245000D01*
X152739000Y-87285000D02*
X152739000Y-86009000D01*
X152739000Y-90521000D02*
X152739000Y-89245000D01*
X152779000Y-87285000D02*
X152779000Y-85989000D01*
X152779000Y-90541000D02*
X152779000Y-89245000D01*
X152819000Y-87285000D02*
X152819000Y-85969000D01*
X152819000Y-90561000D02*
X152819000Y-89245000D01*
X152859000Y-87285000D02*
X152859000Y-85950000D01*
X152859000Y-90580000D02*
X152859000Y-89245000D01*
X152899000Y-87285000D02*
X152899000Y-85932000D01*
X152899000Y-90598000D02*
X152899000Y-89245000D01*
X152939000Y-87285000D02*
X152939000Y-85915000D01*
X152939000Y-90615000D02*
X152939000Y-89245000D01*
X152979000Y-87285000D02*
X152979000Y-85899000D01*
X152979000Y-90631000D02*
X152979000Y-89245000D01*
X153019000Y-87285000D02*
X153019000Y-85883000D01*
X153019000Y-90647000D02*
X153019000Y-89245000D01*
X153059000Y-87285000D02*
X153059000Y-85869000D01*
X153059000Y-90661000D02*
X153059000Y-89245000D01*
X153099000Y-87285000D02*
X153099000Y-85855000D01*
X153099000Y-90675000D02*
X153099000Y-89245000D01*
X153139000Y-87285000D02*
X153139000Y-85841000D01*
X153139000Y-90689000D02*
X153139000Y-89245000D01*
X153179000Y-87285000D02*
X153179000Y-85829000D01*
X153179000Y-90701000D02*
X153179000Y-89245000D01*
X153219000Y-87285000D02*
X153219000Y-85817000D01*
X153219000Y-90713000D02*
X153219000Y-89245000D01*
X153260000Y-87285000D02*
X153260000Y-85805000D01*
X153260000Y-90725000D02*
X153260000Y-89245000D01*
X153300000Y-87285000D02*
X153300000Y-85795000D01*
X153300000Y-90735000D02*
X153300000Y-89245000D01*
X153340000Y-87285000D02*
X153340000Y-85785000D01*
X153340000Y-90745000D02*
X153340000Y-89245000D01*
X153380000Y-87285000D02*
X153380000Y-85776000D01*
X153380000Y-90754000D02*
X153380000Y-89245000D01*
X153420000Y-87285000D02*
X153420000Y-85767000D01*
X153420000Y-90763000D02*
X153420000Y-89245000D01*
X153460000Y-87285000D02*
X153460000Y-85759000D01*
X153460000Y-90771000D02*
X153460000Y-89245000D01*
X153500000Y-87285000D02*
X153500000Y-85752000D01*
X153500000Y-90778000D02*
X153500000Y-89245000D01*
X153540000Y-87285000D02*
X153540000Y-85746000D01*
X153540000Y-90784000D02*
X153540000Y-89245000D01*
X153580000Y-87285000D02*
X153580000Y-85740000D01*
X153580000Y-90790000D02*
X153580000Y-89245000D01*
X153620000Y-87285000D02*
X153620000Y-85734000D01*
X153620000Y-90796000D02*
X153620000Y-89245000D01*
X153660000Y-87285000D02*
X153660000Y-85730000D01*
X153660000Y-90800000D02*
X153660000Y-89245000D01*
X153700000Y-87285000D02*
X153700000Y-85726000D01*
X153700000Y-90804000D02*
X153700000Y-89245000D01*
X153740000Y-87285000D02*
X153740000Y-85722000D01*
X153740000Y-90808000D02*
X153740000Y-89245000D01*
X153780000Y-87285000D02*
X153780000Y-85719000D01*
X153780000Y-90811000D02*
X153780000Y-89245000D01*
X153820000Y-87285000D02*
X153820000Y-85717000D01*
X153820000Y-90813000D02*
X153820000Y-89245000D01*
X153860000Y-87285000D02*
X153860000Y-85716000D01*
X153860000Y-90814000D02*
X153860000Y-89245000D01*
X153900000Y-87285000D02*
X153900000Y-85715000D01*
X153900000Y-90815000D02*
X153900000Y-89245000D01*
X153940000Y-90815000D02*
X153940000Y-85715000D01*
X151634278Y-87085277D02*
G75*
G03X151634420Y-89445000I2305722J-1179723D01*
G01*
X151634278Y-87085277D02*
G75*
G02X156245580Y-87085000I2305722J-1179723D01*
G01*
X151634278Y-89444723D02*
G75*
G03X156245580Y-89445000I2305722J1179723D01*
G01*
X112360000Y-106565000D02*
X112360000Y-105955000D01*
X112360000Y-108675000D02*
X112360000Y-108065000D01*
X116280000Y-106565000D02*
X116280000Y-105955000D01*
X116280000Y-108675000D02*
X116280000Y-108065000D01*
X116280000Y-105955000D02*
X112360000Y-105955000D01*
X116280000Y-108675000D02*
X112360000Y-108675000D01*
D11*
X152423904Y-92615380D02*
X152423904Y-91615380D01*
X152662000Y-91615380D01*
X152804857Y-91663000D01*
X152900095Y-91758238D01*
X152947714Y-91853476D01*
X152995333Y-92043952D01*
X152995333Y-92186809D01*
X152947714Y-92377285D01*
X152900095Y-92472523D01*
X152804857Y-92567761D01*
X152662000Y-92615380D01*
X152423904Y-92615380D01*
X153328666Y-91615380D02*
X153947714Y-91615380D01*
X153614380Y-91996333D01*
X153757238Y-91996333D01*
X153852476Y-92043952D01*
X153900095Y-92091571D01*
X153947714Y-92186809D01*
X153947714Y-92424904D01*
X153900095Y-92520142D01*
X153852476Y-92567761D01*
X153757238Y-92615380D01*
X153471523Y-92615380D01*
X153376285Y-92567761D01*
X153328666Y-92520142D01*
X182482142Y-91862857D02*
X182529761Y-91910476D01*
X182577380Y-92053333D01*
X182577380Y-92148571D01*
X182529761Y-92291428D01*
X182434523Y-92386666D01*
X182339285Y-92434285D01*
X182148809Y-92481904D01*
X182005952Y-92481904D01*
X181815476Y-92434285D01*
X181720238Y-92386666D01*
X181625000Y-92291428D01*
X181577380Y-92148571D01*
X181577380Y-92053333D01*
X181625000Y-91910476D01*
X181672619Y-91862857D01*
X182577380Y-90910476D02*
X182577380Y-91481904D01*
X182577380Y-91196190D02*
X181577380Y-91196190D01*
X181720238Y-91291428D01*
X181815476Y-91386666D01*
X181863095Y-91481904D01*
X181577380Y-90053333D02*
X181577380Y-90243809D01*
X181625000Y-90339047D01*
X181672619Y-90386666D01*
X181815476Y-90481904D01*
X182005952Y-90529523D01*
X182386904Y-90529523D01*
X182482142Y-90481904D01*
X182529761Y-90434285D01*
X182577380Y-90339047D01*
X182577380Y-90148571D01*
X182529761Y-90053333D01*
X182482142Y-90005714D01*
X182386904Y-89958095D01*
X182148809Y-89958095D01*
X182053571Y-90005714D01*
X182005952Y-90053333D01*
X181958333Y-90148571D01*
X181958333Y-90339047D01*
X182005952Y-90434285D01*
X182053571Y-90481904D01*
X182148809Y-90529523D01*
X137013333Y-103297142D02*
X136965714Y-103344761D01*
X136822857Y-103392380D01*
X136727619Y-103392380D01*
X136584761Y-103344761D01*
X136489523Y-103249523D01*
X136441904Y-103154285D01*
X136394285Y-102963809D01*
X136394285Y-102820952D01*
X136441904Y-102630476D01*
X136489523Y-102535238D01*
X136584761Y-102440000D01*
X136727619Y-102392380D01*
X136822857Y-102392380D01*
X136965714Y-102440000D01*
X137013333Y-102487619D01*
X137965714Y-103392380D02*
X137394285Y-103392380D01*
X137680000Y-103392380D02*
X137680000Y-102392380D01*
X137584761Y-102535238D01*
X137489523Y-102630476D01*
X137394285Y-102678095D01*
X152213333Y-103157142D02*
X152165714Y-103204761D01*
X152022857Y-103252380D01*
X151927619Y-103252380D01*
X151784761Y-103204761D01*
X151689523Y-103109523D01*
X151641904Y-103014285D01*
X151594285Y-102823809D01*
X151594285Y-102680952D01*
X151641904Y-102490476D01*
X151689523Y-102395238D01*
X151784761Y-102300000D01*
X151927619Y-102252380D01*
X152022857Y-102252380D01*
X152165714Y-102300000D01*
X152213333Y-102347619D01*
X152594285Y-102347619D02*
X152641904Y-102300000D01*
X152737142Y-102252380D01*
X152975238Y-102252380D01*
X153070476Y-102300000D01*
X153118095Y-102347619D01*
X153165714Y-102442857D01*
X153165714Y-102538095D01*
X153118095Y-102680952D01*
X152546666Y-103252380D01*
X153165714Y-103252380D01*
X134413333Y-68707142D02*
X134365714Y-68754761D01*
X134222857Y-68802380D01*
X134127619Y-68802380D01*
X133984761Y-68754761D01*
X133889523Y-68659523D01*
X133841904Y-68564285D01*
X133794285Y-68373809D01*
X133794285Y-68230952D01*
X133841904Y-68040476D01*
X133889523Y-67945238D01*
X133984761Y-67850000D01*
X134127619Y-67802380D01*
X134222857Y-67802380D01*
X134365714Y-67850000D01*
X134413333Y-67897619D01*
X134746666Y-67802380D02*
X135365714Y-67802380D01*
X135032380Y-68183333D01*
X135175238Y-68183333D01*
X135270476Y-68230952D01*
X135318095Y-68278571D01*
X135365714Y-68373809D01*
X135365714Y-68611904D01*
X135318095Y-68707142D01*
X135270476Y-68754761D01*
X135175238Y-68802380D01*
X134889523Y-68802380D01*
X134794285Y-68754761D01*
X134746666Y-68707142D01*
X156698333Y-114727142D02*
X156650714Y-114774761D01*
X156507857Y-114822380D01*
X156412619Y-114822380D01*
X156269761Y-114774761D01*
X156174523Y-114679523D01*
X156126904Y-114584285D01*
X156079285Y-114393809D01*
X156079285Y-114250952D01*
X156126904Y-114060476D01*
X156174523Y-113965238D01*
X156269761Y-113870000D01*
X156412619Y-113822380D01*
X156507857Y-113822380D01*
X156650714Y-113870000D01*
X156698333Y-113917619D01*
X157555476Y-114155714D02*
X157555476Y-114822380D01*
X157317380Y-113774761D02*
X157079285Y-114489047D01*
X157698333Y-114489047D01*
X136378333Y-96877142D02*
X136330714Y-96924761D01*
X136187857Y-96972380D01*
X136092619Y-96972380D01*
X135949761Y-96924761D01*
X135854523Y-96829523D01*
X135806904Y-96734285D01*
X135759285Y-96543809D01*
X135759285Y-96400952D01*
X135806904Y-96210476D01*
X135854523Y-96115238D01*
X135949761Y-96020000D01*
X136092619Y-95972380D01*
X136187857Y-95972380D01*
X136330714Y-96020000D01*
X136378333Y-96067619D01*
X137283095Y-95972380D02*
X136806904Y-95972380D01*
X136759285Y-96448571D01*
X136806904Y-96400952D01*
X136902142Y-96353333D01*
X137140238Y-96353333D01*
X137235476Y-96400952D01*
X137283095Y-96448571D01*
X137330714Y-96543809D01*
X137330714Y-96781904D01*
X137283095Y-96877142D01*
X137235476Y-96924761D01*
X137140238Y-96972380D01*
X136902142Y-96972380D01*
X136806904Y-96924761D01*
X136759285Y-96877142D01*
X124747142Y-94166666D02*
X124794761Y-94214285D01*
X124842380Y-94357142D01*
X124842380Y-94452380D01*
X124794761Y-94595238D01*
X124699523Y-94690476D01*
X124604285Y-94738095D01*
X124413809Y-94785714D01*
X124270952Y-94785714D01*
X124080476Y-94738095D01*
X123985238Y-94690476D01*
X123890000Y-94595238D01*
X123842380Y-94452380D01*
X123842380Y-94357142D01*
X123890000Y-94214285D01*
X123937619Y-94166666D01*
X123842380Y-93309523D02*
X123842380Y-93500000D01*
X123890000Y-93595238D01*
X123937619Y-93642857D01*
X124080476Y-93738095D01*
X124270952Y-93785714D01*
X124651904Y-93785714D01*
X124747142Y-93738095D01*
X124794761Y-93690476D01*
X124842380Y-93595238D01*
X124842380Y-93404761D01*
X124794761Y-93309523D01*
X124747142Y-93261904D01*
X124651904Y-93214285D01*
X124413809Y-93214285D01*
X124318571Y-93261904D01*
X124270952Y-93309523D01*
X124223333Y-93404761D01*
X124223333Y-93595238D01*
X124270952Y-93690476D01*
X124318571Y-93738095D01*
X124413809Y-93785714D01*
X124747142Y-85276666D02*
X124794761Y-85324285D01*
X124842380Y-85467142D01*
X124842380Y-85562380D01*
X124794761Y-85705238D01*
X124699523Y-85800476D01*
X124604285Y-85848095D01*
X124413809Y-85895714D01*
X124270952Y-85895714D01*
X124080476Y-85848095D01*
X123985238Y-85800476D01*
X123890000Y-85705238D01*
X123842380Y-85562380D01*
X123842380Y-85467142D01*
X123890000Y-85324285D01*
X123937619Y-85276666D01*
X124270952Y-84705238D02*
X124223333Y-84800476D01*
X124175714Y-84848095D01*
X124080476Y-84895714D01*
X124032857Y-84895714D01*
X123937619Y-84848095D01*
X123890000Y-84800476D01*
X123842380Y-84705238D01*
X123842380Y-84514761D01*
X123890000Y-84419523D01*
X123937619Y-84371904D01*
X124032857Y-84324285D01*
X124080476Y-84324285D01*
X124175714Y-84371904D01*
X124223333Y-84419523D01*
X124270952Y-84514761D01*
X124270952Y-84705238D01*
X124318571Y-84800476D01*
X124366190Y-84848095D01*
X124461428Y-84895714D01*
X124651904Y-84895714D01*
X124747142Y-84848095D01*
X124794761Y-84800476D01*
X124842380Y-84705238D01*
X124842380Y-84514761D01*
X124794761Y-84419523D01*
X124747142Y-84371904D01*
X124651904Y-84324285D01*
X124461428Y-84324285D01*
X124366190Y-84371904D01*
X124318571Y-84419523D01*
X124270952Y-84514761D01*
X137013333Y-107107142D02*
X136965714Y-107154761D01*
X136822857Y-107202380D01*
X136727619Y-107202380D01*
X136584761Y-107154761D01*
X136489523Y-107059523D01*
X136441904Y-106964285D01*
X136394285Y-106773809D01*
X136394285Y-106630952D01*
X136441904Y-106440476D01*
X136489523Y-106345238D01*
X136584761Y-106250000D01*
X136727619Y-106202380D01*
X136822857Y-106202380D01*
X136965714Y-106250000D01*
X137013333Y-106297619D01*
X137489523Y-107202380D02*
X137680000Y-107202380D01*
X137775238Y-107154761D01*
X137822857Y-107107142D01*
X137918095Y-106964285D01*
X137965714Y-106773809D01*
X137965714Y-106392857D01*
X137918095Y-106297619D01*
X137870476Y-106250000D01*
X137775238Y-106202380D01*
X137584761Y-106202380D01*
X137489523Y-106250000D01*
X137441904Y-106297619D01*
X137394285Y-106392857D01*
X137394285Y-106630952D01*
X137441904Y-106726190D01*
X137489523Y-106773809D01*
X137584761Y-106821428D01*
X137775238Y-106821428D01*
X137870476Y-106773809D01*
X137918095Y-106726190D01*
X137965714Y-106630952D01*
X135923142Y-120296857D02*
X135970761Y-120344476D01*
X136018380Y-120487333D01*
X136018380Y-120582571D01*
X135970761Y-120725428D01*
X135875523Y-120820666D01*
X135780285Y-120868285D01*
X135589809Y-120915904D01*
X135446952Y-120915904D01*
X135256476Y-120868285D01*
X135161238Y-120820666D01*
X135066000Y-120725428D01*
X135018380Y-120582571D01*
X135018380Y-120487333D01*
X135066000Y-120344476D01*
X135113619Y-120296857D01*
X136018380Y-119344476D02*
X136018380Y-119915904D01*
X136018380Y-119630190D02*
X135018380Y-119630190D01*
X135161238Y-119725428D01*
X135256476Y-119820666D01*
X135304095Y-119915904D01*
X135018380Y-118725428D02*
X135018380Y-118630190D01*
X135066000Y-118534952D01*
X135113619Y-118487333D01*
X135208857Y-118439714D01*
X135399333Y-118392095D01*
X135637428Y-118392095D01*
X135827904Y-118439714D01*
X135923142Y-118487333D01*
X135970761Y-118534952D01*
X136018380Y-118630190D01*
X136018380Y-118725428D01*
X135970761Y-118820666D01*
X135923142Y-118868285D01*
X135827904Y-118915904D01*
X135637428Y-118963523D01*
X135399333Y-118963523D01*
X135208857Y-118915904D01*
X135113619Y-118868285D01*
X135066000Y-118820666D01*
X135018380Y-118725428D01*
X124620142Y-104802857D02*
X124667761Y-104850476D01*
X124715380Y-104993333D01*
X124715380Y-105088571D01*
X124667761Y-105231428D01*
X124572523Y-105326666D01*
X124477285Y-105374285D01*
X124286809Y-105421904D01*
X124143952Y-105421904D01*
X123953476Y-105374285D01*
X123858238Y-105326666D01*
X123763000Y-105231428D01*
X123715380Y-105088571D01*
X123715380Y-104993333D01*
X123763000Y-104850476D01*
X123810619Y-104802857D01*
X124715380Y-103850476D02*
X124715380Y-104421904D01*
X124715380Y-104136190D02*
X123715380Y-104136190D01*
X123858238Y-104231428D01*
X123953476Y-104326666D01*
X124001095Y-104421904D01*
X123810619Y-103469523D02*
X123763000Y-103421904D01*
X123715380Y-103326666D01*
X123715380Y-103088571D01*
X123763000Y-102993333D01*
X123810619Y-102945714D01*
X123905857Y-102898095D01*
X124001095Y-102898095D01*
X124143952Y-102945714D01*
X124715380Y-103517142D01*
X124715380Y-102898095D01*
X135862142Y-82837142D02*
X135814523Y-82884761D01*
X135671666Y-82932380D01*
X135576428Y-82932380D01*
X135433571Y-82884761D01*
X135338333Y-82789523D01*
X135290714Y-82694285D01*
X135243095Y-82503809D01*
X135243095Y-82360952D01*
X135290714Y-82170476D01*
X135338333Y-82075238D01*
X135433571Y-81980000D01*
X135576428Y-81932380D01*
X135671666Y-81932380D01*
X135814523Y-81980000D01*
X135862142Y-82027619D01*
X136814523Y-82932380D02*
X136243095Y-82932380D01*
X136528809Y-82932380D02*
X136528809Y-81932380D01*
X136433571Y-82075238D01*
X136338333Y-82170476D01*
X136243095Y-82218095D01*
X137147857Y-81932380D02*
X137766904Y-81932380D01*
X137433571Y-82313333D01*
X137576428Y-82313333D01*
X137671666Y-82360952D01*
X137719285Y-82408571D01*
X137766904Y-82503809D01*
X137766904Y-82741904D01*
X137719285Y-82837142D01*
X137671666Y-82884761D01*
X137576428Y-82932380D01*
X137290714Y-82932380D01*
X137195476Y-82884761D01*
X137147857Y-82837142D01*
X156002142Y-83172857D02*
X156049761Y-83220476D01*
X156097380Y-83363333D01*
X156097380Y-83458571D01*
X156049761Y-83601428D01*
X155954523Y-83696666D01*
X155859285Y-83744285D01*
X155668809Y-83791904D01*
X155525952Y-83791904D01*
X155335476Y-83744285D01*
X155240238Y-83696666D01*
X155145000Y-83601428D01*
X155097380Y-83458571D01*
X155097380Y-83363333D01*
X155145000Y-83220476D01*
X155192619Y-83172857D01*
X156097380Y-82220476D02*
X156097380Y-82791904D01*
X156097380Y-82506190D02*
X155097380Y-82506190D01*
X155240238Y-82601428D01*
X155335476Y-82696666D01*
X155383095Y-82791904D01*
X155430714Y-81363333D02*
X156097380Y-81363333D01*
X155049761Y-81601428D02*
X155764047Y-81839523D01*
X155764047Y-81220476D01*
X140267142Y-124404285D02*
X140314761Y-124451904D01*
X140362380Y-124594761D01*
X140362380Y-124690000D01*
X140314761Y-124832857D01*
X140219523Y-124928095D01*
X140124285Y-124975714D01*
X139933809Y-125023333D01*
X139790952Y-125023333D01*
X139600476Y-124975714D01*
X139505238Y-124928095D01*
X139410000Y-124832857D01*
X139362380Y-124690000D01*
X139362380Y-124594761D01*
X139410000Y-124451904D01*
X139457619Y-124404285D01*
X139362380Y-123785238D02*
X139362380Y-123594761D01*
X139410000Y-123499523D01*
X139505238Y-123404285D01*
X139695714Y-123356666D01*
X140029047Y-123356666D01*
X140219523Y-123404285D01*
X140314761Y-123499523D01*
X140362380Y-123594761D01*
X140362380Y-123785238D01*
X140314761Y-123880476D01*
X140219523Y-123975714D01*
X140029047Y-124023333D01*
X139695714Y-124023333D01*
X139505238Y-123975714D01*
X139410000Y-123880476D01*
X139362380Y-123785238D01*
X140362380Y-122928095D02*
X139362380Y-122928095D01*
X140362380Y-122356666D01*
X139362380Y-122356666D01*
X140362380Y-121356666D02*
X140362380Y-121928095D01*
X140362380Y-121642380D02*
X139362380Y-121642380D01*
X139505238Y-121737619D01*
X139600476Y-121832857D01*
X139648095Y-121928095D01*
X158697380Y-120753095D02*
X157697380Y-120753095D01*
X157697380Y-120515000D01*
X157745000Y-120372142D01*
X157840238Y-120276904D01*
X157935476Y-120229285D01*
X158125952Y-120181666D01*
X158268809Y-120181666D01*
X158459285Y-120229285D01*
X158554523Y-120276904D01*
X158649761Y-120372142D01*
X158697380Y-120515000D01*
X158697380Y-120753095D01*
X158697380Y-119229285D02*
X158697380Y-119800714D01*
X158697380Y-119515000D02*
X157697380Y-119515000D01*
X157840238Y-119610238D01*
X157935476Y-119705476D01*
X157983095Y-119800714D01*
X158437380Y-120753095D02*
X157437380Y-120753095D01*
X157437380Y-120515000D01*
X157485000Y-120372142D01*
X157580238Y-120276904D01*
X157675476Y-120229285D01*
X157865952Y-120181666D01*
X158008809Y-120181666D01*
X158199285Y-120229285D01*
X158294523Y-120276904D01*
X158389761Y-120372142D01*
X158437380Y-120515000D01*
X158437380Y-120753095D01*
X157532619Y-119800714D02*
X157485000Y-119753095D01*
X157437380Y-119657857D01*
X157437380Y-119419761D01*
X157485000Y-119324523D01*
X157532619Y-119276904D01*
X157627857Y-119229285D01*
X157723095Y-119229285D01*
X157865952Y-119276904D01*
X158437380Y-119848333D01*
X158437380Y-119229285D01*
X118006904Y-90752380D02*
X118006904Y-89752380D01*
X118245000Y-89752380D01*
X118387857Y-89800000D01*
X118483095Y-89895238D01*
X118530714Y-89990476D01*
X118578333Y-90180952D01*
X118578333Y-90323809D01*
X118530714Y-90514285D01*
X118483095Y-90609523D01*
X118387857Y-90704761D01*
X118245000Y-90752380D01*
X118006904Y-90752380D01*
X119435476Y-90085714D02*
X119435476Y-90752380D01*
X119197380Y-89704761D02*
X118959285Y-90419047D01*
X119578333Y-90419047D01*
X118006904Y-100652380D02*
X118006904Y-99652380D01*
X118245000Y-99652380D01*
X118387857Y-99700000D01*
X118483095Y-99795238D01*
X118530714Y-99890476D01*
X118578333Y-100080952D01*
X118578333Y-100223809D01*
X118530714Y-100414285D01*
X118483095Y-100509523D01*
X118387857Y-100604761D01*
X118245000Y-100652380D01*
X118006904Y-100652380D01*
X119483095Y-99652380D02*
X119006904Y-99652380D01*
X118959285Y-100128571D01*
X119006904Y-100080952D01*
X119102142Y-100033333D01*
X119340238Y-100033333D01*
X119435476Y-100080952D01*
X119483095Y-100128571D01*
X119530714Y-100223809D01*
X119530714Y-100461904D01*
X119483095Y-100557142D01*
X119435476Y-100604761D01*
X119340238Y-100652380D01*
X119102142Y-100652380D01*
X119006904Y-100604761D01*
X118959285Y-100557142D01*
X118006904Y-81862380D02*
X118006904Y-80862380D01*
X118245000Y-80862380D01*
X118387857Y-80910000D01*
X118483095Y-81005238D01*
X118530714Y-81100476D01*
X118578333Y-81290952D01*
X118578333Y-81433809D01*
X118530714Y-81624285D01*
X118483095Y-81719523D01*
X118387857Y-81814761D01*
X118245000Y-81862380D01*
X118006904Y-81862380D01*
X119435476Y-80862380D02*
X119245000Y-80862380D01*
X119149761Y-80910000D01*
X119102142Y-80957619D01*
X119006904Y-81100476D01*
X118959285Y-81290952D01*
X118959285Y-81671904D01*
X119006904Y-81767142D01*
X119054523Y-81814761D01*
X119149761Y-81862380D01*
X119340238Y-81862380D01*
X119435476Y-81814761D01*
X119483095Y-81767142D01*
X119530714Y-81671904D01*
X119530714Y-81433809D01*
X119483095Y-81338571D01*
X119435476Y-81290952D01*
X119340238Y-81243333D01*
X119149761Y-81243333D01*
X119054523Y-81290952D01*
X119006904Y-81338571D01*
X118959285Y-81433809D01*
X118006904Y-91762380D02*
X118006904Y-90762380D01*
X118245000Y-90762380D01*
X118387857Y-90810000D01*
X118483095Y-90905238D01*
X118530714Y-91000476D01*
X118578333Y-91190952D01*
X118578333Y-91333809D01*
X118530714Y-91524285D01*
X118483095Y-91619523D01*
X118387857Y-91714761D01*
X118245000Y-91762380D01*
X118006904Y-91762380D01*
X118911666Y-90762380D02*
X119578333Y-90762380D01*
X119149761Y-91762380D01*
X140282380Y-77573095D02*
X139282380Y-77573095D01*
X139282380Y-77335000D01*
X139330000Y-77192142D01*
X139425238Y-77096904D01*
X139520476Y-77049285D01*
X139710952Y-77001666D01*
X139853809Y-77001666D01*
X140044285Y-77049285D01*
X140139523Y-77096904D01*
X140234761Y-77192142D01*
X140282380Y-77335000D01*
X140282380Y-77573095D01*
X139710952Y-76430238D02*
X139663333Y-76525476D01*
X139615714Y-76573095D01*
X139520476Y-76620714D01*
X139472857Y-76620714D01*
X139377619Y-76573095D01*
X139330000Y-76525476D01*
X139282380Y-76430238D01*
X139282380Y-76239761D01*
X139330000Y-76144523D01*
X139377619Y-76096904D01*
X139472857Y-76049285D01*
X139520476Y-76049285D01*
X139615714Y-76096904D01*
X139663333Y-76144523D01*
X139710952Y-76239761D01*
X139710952Y-76430238D01*
X139758571Y-76525476D01*
X139806190Y-76573095D01*
X139901428Y-76620714D01*
X140091904Y-76620714D01*
X140187142Y-76573095D01*
X140234761Y-76525476D01*
X140282380Y-76430238D01*
X140282380Y-76239761D01*
X140234761Y-76144523D01*
X140187142Y-76096904D01*
X140091904Y-76049285D01*
X139901428Y-76049285D01*
X139806190Y-76096904D01*
X139758571Y-76144523D01*
X139710952Y-76239761D01*
X118006904Y-72972380D02*
X118006904Y-71972380D01*
X118245000Y-71972380D01*
X118387857Y-72020000D01*
X118483095Y-72115238D01*
X118530714Y-72210476D01*
X118578333Y-72400952D01*
X118578333Y-72543809D01*
X118530714Y-72734285D01*
X118483095Y-72829523D01*
X118387857Y-72924761D01*
X118245000Y-72972380D01*
X118006904Y-72972380D01*
X119054523Y-72972380D02*
X119245000Y-72972380D01*
X119340238Y-72924761D01*
X119387857Y-72877142D01*
X119483095Y-72734285D01*
X119530714Y-72543809D01*
X119530714Y-72162857D01*
X119483095Y-72067619D01*
X119435476Y-72020000D01*
X119340238Y-71972380D01*
X119149761Y-71972380D01*
X119054523Y-72020000D01*
X119006904Y-72067619D01*
X118959285Y-72162857D01*
X118959285Y-72400952D01*
X119006904Y-72496190D01*
X119054523Y-72543809D01*
X119149761Y-72591428D01*
X119340238Y-72591428D01*
X119435476Y-72543809D01*
X119483095Y-72496190D01*
X119530714Y-72400952D01*
X117530714Y-82872380D02*
X117530714Y-81872380D01*
X117768809Y-81872380D01*
X117911666Y-81920000D01*
X118006904Y-82015238D01*
X118054523Y-82110476D01*
X118102142Y-82300952D01*
X118102142Y-82443809D01*
X118054523Y-82634285D01*
X118006904Y-82729523D01*
X117911666Y-82824761D01*
X117768809Y-82872380D01*
X117530714Y-82872380D01*
X119054523Y-82872380D02*
X118483095Y-82872380D01*
X118768809Y-82872380D02*
X118768809Y-81872380D01*
X118673571Y-82015238D01*
X118578333Y-82110476D01*
X118483095Y-82158095D01*
X119673571Y-81872380D02*
X119768809Y-81872380D01*
X119864047Y-81920000D01*
X119911666Y-81967619D01*
X119959285Y-82062857D01*
X120006904Y-82253333D01*
X120006904Y-82491428D01*
X119959285Y-82681904D01*
X119911666Y-82777142D01*
X119864047Y-82824761D01*
X119768809Y-82872380D01*
X119673571Y-82872380D01*
X119578333Y-82824761D01*
X119530714Y-82777142D01*
X119483095Y-82681904D01*
X119435476Y-82491428D01*
X119435476Y-82253333D01*
X119483095Y-82062857D01*
X119530714Y-81967619D01*
X119578333Y-81920000D01*
X119673571Y-81872380D01*
X180982380Y-80589285D02*
X179982380Y-80589285D01*
X179982380Y-80351190D01*
X180030000Y-80208333D01*
X180125238Y-80113095D01*
X180220476Y-80065476D01*
X180410952Y-80017857D01*
X180553809Y-80017857D01*
X180744285Y-80065476D01*
X180839523Y-80113095D01*
X180934761Y-80208333D01*
X180982380Y-80351190D01*
X180982380Y-80589285D01*
X180982380Y-79065476D02*
X180982380Y-79636904D01*
X180982380Y-79351190D02*
X179982380Y-79351190D01*
X180125238Y-79446428D01*
X180220476Y-79541666D01*
X180268095Y-79636904D01*
X180982380Y-78113095D02*
X180982380Y-78684523D01*
X180982380Y-78398809D02*
X179982380Y-78398809D01*
X180125238Y-78494047D01*
X180220476Y-78589285D01*
X180268095Y-78684523D01*
X112692380Y-71453333D02*
X113406666Y-71453333D01*
X113549523Y-71500952D01*
X113644761Y-71596190D01*
X113692380Y-71739047D01*
X113692380Y-71834285D01*
X113692380Y-70453333D02*
X113692380Y-71024761D01*
X113692380Y-70739047D02*
X112692380Y-70739047D01*
X112835238Y-70834285D01*
X112930476Y-70929523D01*
X112978095Y-71024761D01*
X110156666Y-88562380D02*
X110156666Y-89276666D01*
X110109047Y-89419523D01*
X110013809Y-89514761D01*
X109870952Y-89562380D01*
X109775714Y-89562380D01*
X110585238Y-88657619D02*
X110632857Y-88610000D01*
X110728095Y-88562380D01*
X110966190Y-88562380D01*
X111061428Y-88610000D01*
X111109047Y-88657619D01*
X111156666Y-88752857D01*
X111156666Y-88848095D01*
X111109047Y-88990952D01*
X110537619Y-89562380D01*
X111156666Y-89562380D01*
X110156666Y-78402380D02*
X110156666Y-79116666D01*
X110109047Y-79259523D01*
X110013809Y-79354761D01*
X109870952Y-79402380D01*
X109775714Y-79402380D01*
X110537619Y-78402380D02*
X111156666Y-78402380D01*
X110823333Y-78783333D01*
X110966190Y-78783333D01*
X111061428Y-78830952D01*
X111109047Y-78878571D01*
X111156666Y-78973809D01*
X111156666Y-79211904D01*
X111109047Y-79307142D01*
X111061428Y-79354761D01*
X110966190Y-79402380D01*
X110680476Y-79402380D01*
X110585238Y-79354761D01*
X110537619Y-79307142D01*
X110156666Y-68242380D02*
X110156666Y-68956666D01*
X110109047Y-69099523D01*
X110013809Y-69194761D01*
X109870952Y-69242380D01*
X109775714Y-69242380D01*
X111061428Y-68575714D02*
X111061428Y-69242380D01*
X110823333Y-68194761D02*
X110585238Y-68909047D01*
X111204285Y-68909047D01*
X110156666Y-99992380D02*
X110156666Y-100706666D01*
X110109047Y-100849523D01*
X110013809Y-100944761D01*
X109870952Y-100992380D01*
X109775714Y-100992380D01*
X111109047Y-99992380D02*
X110632857Y-99992380D01*
X110585238Y-100468571D01*
X110632857Y-100420952D01*
X110728095Y-100373333D01*
X110966190Y-100373333D01*
X111061428Y-100420952D01*
X111109047Y-100468571D01*
X111156666Y-100563809D01*
X111156666Y-100801904D01*
X111109047Y-100897142D01*
X111061428Y-100944761D01*
X110966190Y-100992380D01*
X110728095Y-100992380D01*
X110632857Y-100944761D01*
X110585238Y-100897142D01*
X121582380Y-71453333D02*
X122296666Y-71453333D01*
X122439523Y-71500952D01*
X122534761Y-71596190D01*
X122582380Y-71739047D01*
X122582380Y-71834285D01*
X121582380Y-70548571D02*
X121582380Y-70739047D01*
X121630000Y-70834285D01*
X121677619Y-70881904D01*
X121820476Y-70977142D01*
X122010952Y-71024761D01*
X122391904Y-71024761D01*
X122487142Y-70977142D01*
X122534761Y-70929523D01*
X122582380Y-70834285D01*
X122582380Y-70643809D01*
X122534761Y-70548571D01*
X122487142Y-70500952D01*
X122391904Y-70453333D01*
X122153809Y-70453333D01*
X122058571Y-70500952D01*
X122010952Y-70548571D01*
X121963333Y-70643809D01*
X121963333Y-70834285D01*
X122010952Y-70929523D01*
X122058571Y-70977142D01*
X122153809Y-71024761D01*
X183181666Y-67397380D02*
X183181666Y-68111666D01*
X183134047Y-68254523D01*
X183038809Y-68349761D01*
X182895952Y-68397380D01*
X182800714Y-68397380D01*
X183562619Y-67397380D02*
X184229285Y-67397380D01*
X183800714Y-68397380D01*
X190587380Y-77168333D02*
X191301666Y-77168333D01*
X191444523Y-77215952D01*
X191539761Y-77311190D01*
X191587380Y-77454047D01*
X191587380Y-77549285D01*
X191015952Y-76549285D02*
X190968333Y-76644523D01*
X190920714Y-76692142D01*
X190825476Y-76739761D01*
X190777857Y-76739761D01*
X190682619Y-76692142D01*
X190635000Y-76644523D01*
X190587380Y-76549285D01*
X190587380Y-76358809D01*
X190635000Y-76263571D01*
X190682619Y-76215952D01*
X190777857Y-76168333D01*
X190825476Y-76168333D01*
X190920714Y-76215952D01*
X190968333Y-76263571D01*
X191015952Y-76358809D01*
X191015952Y-76549285D01*
X191063571Y-76644523D01*
X191111190Y-76692142D01*
X191206428Y-76739761D01*
X191396904Y-76739761D01*
X191492142Y-76692142D01*
X191539761Y-76644523D01*
X191587380Y-76549285D01*
X191587380Y-76358809D01*
X191539761Y-76263571D01*
X191492142Y-76215952D01*
X191396904Y-76168333D01*
X191206428Y-76168333D01*
X191111190Y-76215952D01*
X191063571Y-76263571D01*
X191015952Y-76358809D01*
X189531666Y-119467380D02*
X189531666Y-120181666D01*
X189484047Y-120324523D01*
X189388809Y-120419761D01*
X189245952Y-120467380D01*
X189150714Y-120467380D01*
X190055476Y-120467380D02*
X190245952Y-120467380D01*
X190341190Y-120419761D01*
X190388809Y-120372142D01*
X190484047Y-120229285D01*
X190531666Y-120038809D01*
X190531666Y-119657857D01*
X190484047Y-119562619D01*
X190436428Y-119515000D01*
X190341190Y-119467380D01*
X190150714Y-119467380D01*
X190055476Y-119515000D01*
X190007857Y-119562619D01*
X189960238Y-119657857D01*
X189960238Y-119895952D01*
X190007857Y-119991190D01*
X190055476Y-120038809D01*
X190150714Y-120086428D01*
X190341190Y-120086428D01*
X190436428Y-120038809D01*
X190484047Y-119991190D01*
X190531666Y-119895952D01*
X115720476Y-107542380D02*
X115720476Y-108256666D01*
X115672857Y-108399523D01*
X115577619Y-108494761D01*
X115434761Y-108542380D01*
X115339523Y-108542380D01*
X116720476Y-108542380D02*
X116149047Y-108542380D01*
X116434761Y-108542380D02*
X116434761Y-107542380D01*
X116339523Y-107685238D01*
X116244285Y-107780476D01*
X116149047Y-107828095D01*
X117339523Y-107542380D02*
X117434761Y-107542380D01*
X117530000Y-107590000D01*
X117577619Y-107637619D01*
X117625238Y-107732857D01*
X117672857Y-107923333D01*
X117672857Y-108161428D01*
X117625238Y-108351904D01*
X117577619Y-108447142D01*
X117530000Y-108494761D01*
X117434761Y-108542380D01*
X117339523Y-108542380D01*
X117244285Y-108494761D01*
X117196666Y-108447142D01*
X117149047Y-108351904D01*
X117101428Y-108161428D01*
X117101428Y-107923333D01*
X117149047Y-107732857D01*
X117196666Y-107637619D01*
X117244285Y-107590000D01*
X117339523Y-107542380D01*
X168787380Y-71929523D02*
X169501666Y-71929523D01*
X169644523Y-71977142D01*
X169739761Y-72072380D01*
X169787380Y-72215238D01*
X169787380Y-72310476D01*
X169787380Y-70929523D02*
X169787380Y-71500952D01*
X169787380Y-71215238D02*
X168787380Y-71215238D01*
X168930238Y-71310476D01*
X169025476Y-71405714D01*
X169073095Y-71500952D01*
X169787380Y-69977142D02*
X169787380Y-70548571D01*
X169787380Y-70262857D02*
X168787380Y-70262857D01*
X168930238Y-70358095D01*
X169025476Y-70453333D01*
X169073095Y-70548571D01*
X198207380Y-94154523D02*
X198921666Y-94154523D01*
X199064523Y-94202142D01*
X199159761Y-94297380D01*
X199207380Y-94440238D01*
X199207380Y-94535476D01*
X199207380Y-93154523D02*
X199207380Y-93725952D01*
X199207380Y-93440238D02*
X198207380Y-93440238D01*
X198350238Y-93535476D01*
X198445476Y-93630714D01*
X198493095Y-93725952D01*
X198302619Y-92773571D02*
X198255000Y-92725952D01*
X198207380Y-92630714D01*
X198207380Y-92392619D01*
X198255000Y-92297380D01*
X198302619Y-92249761D01*
X198397857Y-92202142D01*
X198493095Y-92202142D01*
X198635952Y-92249761D01*
X199207380Y-92821190D01*
X199207380Y-92202142D01*
X189504761Y-113683619D02*
X189409523Y-113636000D01*
X189314285Y-113540761D01*
X189171428Y-113397904D01*
X189076190Y-113350285D01*
X188980952Y-113350285D01*
X189028571Y-113588380D02*
X188933333Y-113540761D01*
X188838095Y-113445523D01*
X188790476Y-113255047D01*
X188790476Y-112921714D01*
X188838095Y-112731238D01*
X188933333Y-112636000D01*
X189028571Y-112588380D01*
X189219047Y-112588380D01*
X189314285Y-112636000D01*
X189409523Y-112731238D01*
X189457142Y-112921714D01*
X189457142Y-113255047D01*
X189409523Y-113445523D01*
X189314285Y-113540761D01*
X189219047Y-113588380D01*
X189028571Y-113588380D01*
X190409523Y-113588380D02*
X189838095Y-113588380D01*
X190123809Y-113588380D02*
X190123809Y-112588380D01*
X190028571Y-112731238D01*
X189933333Y-112826476D01*
X189838095Y-112874095D01*
X189504761Y-104412619D02*
X189409523Y-104365000D01*
X189314285Y-104269761D01*
X189171428Y-104126904D01*
X189076190Y-104079285D01*
X188980952Y-104079285D01*
X189028571Y-104317380D02*
X188933333Y-104269761D01*
X188838095Y-104174523D01*
X188790476Y-103984047D01*
X188790476Y-103650714D01*
X188838095Y-103460238D01*
X188933333Y-103365000D01*
X189028571Y-103317380D01*
X189219047Y-103317380D01*
X189314285Y-103365000D01*
X189409523Y-103460238D01*
X189457142Y-103650714D01*
X189457142Y-103984047D01*
X189409523Y-104174523D01*
X189314285Y-104269761D01*
X189219047Y-104317380D01*
X189028571Y-104317380D01*
X189838095Y-103412619D02*
X189885714Y-103365000D01*
X189980952Y-103317380D01*
X190219047Y-103317380D01*
X190314285Y-103365000D01*
X190361904Y-103412619D01*
X190409523Y-103507857D01*
X190409523Y-103603095D01*
X190361904Y-103745952D01*
X189790476Y-104317380D01*
X190409523Y-104317380D01*
X160427380Y-120181666D02*
X159951190Y-120515000D01*
X160427380Y-120753095D02*
X159427380Y-120753095D01*
X159427380Y-120372142D01*
X159475000Y-120276904D01*
X159522619Y-120229285D01*
X159617857Y-120181666D01*
X159760714Y-120181666D01*
X159855952Y-120229285D01*
X159903571Y-120276904D01*
X159951190Y-120372142D01*
X159951190Y-120753095D01*
X160427380Y-119229285D02*
X160427380Y-119800714D01*
X160427380Y-119515000D02*
X159427380Y-119515000D01*
X159570238Y-119610238D01*
X159665476Y-119705476D01*
X159713095Y-119800714D01*
X154885780Y-100471266D02*
X154409590Y-100804600D01*
X154885780Y-101042695D02*
X153885780Y-101042695D01*
X153885780Y-100661742D01*
X153933400Y-100566504D01*
X153981019Y-100518885D01*
X154076257Y-100471266D01*
X154219114Y-100471266D01*
X154314352Y-100518885D01*
X154361971Y-100566504D01*
X154409590Y-100661742D01*
X154409590Y-101042695D01*
X153981019Y-100090314D02*
X153933400Y-100042695D01*
X153885780Y-99947457D01*
X153885780Y-99709361D01*
X153933400Y-99614123D01*
X153981019Y-99566504D01*
X154076257Y-99518885D01*
X154171495Y-99518885D01*
X154314352Y-99566504D01*
X154885780Y-100137933D01*
X154885780Y-99518885D01*
X118578333Y-97562380D02*
X118245000Y-97086190D01*
X118006904Y-97562380D02*
X118006904Y-96562380D01*
X118387857Y-96562380D01*
X118483095Y-96610000D01*
X118530714Y-96657619D01*
X118578333Y-96752857D01*
X118578333Y-96895714D01*
X118530714Y-96990952D01*
X118483095Y-97038571D01*
X118387857Y-97086190D01*
X118006904Y-97086190D01*
X118911666Y-96562380D02*
X119530714Y-96562380D01*
X119197380Y-96943333D01*
X119340238Y-96943333D01*
X119435476Y-96990952D01*
X119483095Y-97038571D01*
X119530714Y-97133809D01*
X119530714Y-97371904D01*
X119483095Y-97467142D01*
X119435476Y-97514761D01*
X119340238Y-97562380D01*
X119054523Y-97562380D01*
X118959285Y-97514761D01*
X118911666Y-97467142D01*
X118578333Y-88672380D02*
X118245000Y-88196190D01*
X118006904Y-88672380D02*
X118006904Y-87672380D01*
X118387857Y-87672380D01*
X118483095Y-87720000D01*
X118530714Y-87767619D01*
X118578333Y-87862857D01*
X118578333Y-88005714D01*
X118530714Y-88100952D01*
X118483095Y-88148571D01*
X118387857Y-88196190D01*
X118006904Y-88196190D01*
X119435476Y-88005714D02*
X119435476Y-88672380D01*
X119197380Y-87624761D02*
X118959285Y-88339047D01*
X119578333Y-88339047D01*
X129587380Y-90082666D02*
X129111190Y-90416000D01*
X129587380Y-90654095D02*
X128587380Y-90654095D01*
X128587380Y-90273142D01*
X128635000Y-90177904D01*
X128682619Y-90130285D01*
X128777857Y-90082666D01*
X128920714Y-90082666D01*
X129015952Y-90130285D01*
X129063571Y-90177904D01*
X129111190Y-90273142D01*
X129111190Y-90654095D01*
X128587380Y-89177904D02*
X128587380Y-89654095D01*
X129063571Y-89701714D01*
X129015952Y-89654095D01*
X128968333Y-89558857D01*
X128968333Y-89320761D01*
X129015952Y-89225523D01*
X129063571Y-89177904D01*
X129158809Y-89130285D01*
X129396904Y-89130285D01*
X129492142Y-89177904D01*
X129539761Y-89225523D01*
X129587380Y-89320761D01*
X129587380Y-89558857D01*
X129539761Y-89654095D01*
X129492142Y-89701714D01*
X144192380Y-77001666D02*
X143716190Y-77335000D01*
X144192380Y-77573095D02*
X143192380Y-77573095D01*
X143192380Y-77192142D01*
X143240000Y-77096904D01*
X143287619Y-77049285D01*
X143382857Y-77001666D01*
X143525714Y-77001666D01*
X143620952Y-77049285D01*
X143668571Y-77096904D01*
X143716190Y-77192142D01*
X143716190Y-77573095D01*
X143192380Y-76144523D02*
X143192380Y-76335000D01*
X143240000Y-76430238D01*
X143287619Y-76477857D01*
X143430476Y-76573095D01*
X143620952Y-76620714D01*
X144001904Y-76620714D01*
X144097142Y-76573095D01*
X144144761Y-76525476D01*
X144192380Y-76430238D01*
X144192380Y-76239761D01*
X144144761Y-76144523D01*
X144097142Y-76096904D01*
X144001904Y-76049285D01*
X143763809Y-76049285D01*
X143668571Y-76096904D01*
X143620952Y-76144523D01*
X143573333Y-76239761D01*
X143573333Y-76430238D01*
X143620952Y-76525476D01*
X143668571Y-76573095D01*
X143763809Y-76620714D01*
X118578333Y-79782380D02*
X118245000Y-79306190D01*
X118006904Y-79782380D02*
X118006904Y-78782380D01*
X118387857Y-78782380D01*
X118483095Y-78830000D01*
X118530714Y-78877619D01*
X118578333Y-78972857D01*
X118578333Y-79115714D01*
X118530714Y-79210952D01*
X118483095Y-79258571D01*
X118387857Y-79306190D01*
X118006904Y-79306190D01*
X118911666Y-78782380D02*
X119578333Y-78782380D01*
X119149761Y-79782380D01*
X174458333Y-118332380D02*
X174125000Y-117856190D01*
X173886904Y-118332380D02*
X173886904Y-117332380D01*
X174267857Y-117332380D01*
X174363095Y-117380000D01*
X174410714Y-117427619D01*
X174458333Y-117522857D01*
X174458333Y-117665714D01*
X174410714Y-117760952D01*
X174363095Y-117808571D01*
X174267857Y-117856190D01*
X173886904Y-117856190D01*
X175029761Y-117760952D02*
X174934523Y-117713333D01*
X174886904Y-117665714D01*
X174839285Y-117570476D01*
X174839285Y-117522857D01*
X174886904Y-117427619D01*
X174934523Y-117380000D01*
X175029761Y-117332380D01*
X175220238Y-117332380D01*
X175315476Y-117380000D01*
X175363095Y-117427619D01*
X175410714Y-117522857D01*
X175410714Y-117570476D01*
X175363095Y-117665714D01*
X175315476Y-117713333D01*
X175220238Y-117760952D01*
X175029761Y-117760952D01*
X174934523Y-117808571D01*
X174886904Y-117856190D01*
X174839285Y-117951428D01*
X174839285Y-118141904D01*
X174886904Y-118237142D01*
X174934523Y-118284761D01*
X175029761Y-118332380D01*
X175220238Y-118332380D01*
X175315476Y-118284761D01*
X175363095Y-118237142D01*
X175410714Y-118141904D01*
X175410714Y-117951428D01*
X175363095Y-117856190D01*
X175315476Y-117808571D01*
X175220238Y-117760952D01*
X163242380Y-115736666D02*
X162766190Y-116070000D01*
X163242380Y-116308095D02*
X162242380Y-116308095D01*
X162242380Y-115927142D01*
X162290000Y-115831904D01*
X162337619Y-115784285D01*
X162432857Y-115736666D01*
X162575714Y-115736666D01*
X162670952Y-115784285D01*
X162718571Y-115831904D01*
X162766190Y-115927142D01*
X162766190Y-116308095D01*
X163242380Y-115260476D02*
X163242380Y-115070000D01*
X163194761Y-114974761D01*
X163147142Y-114927142D01*
X163004285Y-114831904D01*
X162813809Y-114784285D01*
X162432857Y-114784285D01*
X162337619Y-114831904D01*
X162290000Y-114879523D01*
X162242380Y-114974761D01*
X162242380Y-115165238D01*
X162290000Y-115260476D01*
X162337619Y-115308095D01*
X162432857Y-115355714D01*
X162670952Y-115355714D01*
X162766190Y-115308095D01*
X162813809Y-115260476D01*
X162861428Y-115165238D01*
X162861428Y-114974761D01*
X162813809Y-114879523D01*
X162766190Y-114831904D01*
X162670952Y-114784285D01*
X173982142Y-113252380D02*
X173648809Y-112776190D01*
X173410714Y-113252380D02*
X173410714Y-112252380D01*
X173791666Y-112252380D01*
X173886904Y-112300000D01*
X173934523Y-112347619D01*
X173982142Y-112442857D01*
X173982142Y-112585714D01*
X173934523Y-112680952D01*
X173886904Y-112728571D01*
X173791666Y-112776190D01*
X173410714Y-112776190D01*
X174934523Y-113252380D02*
X174363095Y-113252380D01*
X174648809Y-113252380D02*
X174648809Y-112252380D01*
X174553571Y-112395238D01*
X174458333Y-112490476D01*
X174363095Y-112538095D01*
X175553571Y-112252380D02*
X175648809Y-112252380D01*
X175744047Y-112300000D01*
X175791666Y-112347619D01*
X175839285Y-112442857D01*
X175886904Y-112633333D01*
X175886904Y-112871428D01*
X175839285Y-113061904D01*
X175791666Y-113157142D01*
X175744047Y-113204761D01*
X175648809Y-113252380D01*
X175553571Y-113252380D01*
X175458333Y-113204761D01*
X175410714Y-113157142D01*
X175363095Y-113061904D01*
X175315476Y-112871428D01*
X175315476Y-112633333D01*
X175363095Y-112442857D01*
X175410714Y-112347619D01*
X175458333Y-112300000D01*
X175553571Y-112252380D01*
X172077142Y-127137380D02*
X171743809Y-126661190D01*
X171505714Y-127137380D02*
X171505714Y-126137380D01*
X171886666Y-126137380D01*
X171981904Y-126185000D01*
X172029523Y-126232619D01*
X172077142Y-126327857D01*
X172077142Y-126470714D01*
X172029523Y-126565952D01*
X171981904Y-126613571D01*
X171886666Y-126661190D01*
X171505714Y-126661190D01*
X173029523Y-127137380D02*
X172458095Y-127137380D01*
X172743809Y-127137380D02*
X172743809Y-126137380D01*
X172648571Y-126280238D01*
X172553333Y-126375476D01*
X172458095Y-126423095D01*
X173981904Y-127137380D02*
X173410476Y-127137380D01*
X173696190Y-127137380D02*
X173696190Y-126137380D01*
X173600952Y-126280238D01*
X173505714Y-126375476D01*
X173410476Y-126423095D01*
X128258666Y-127372761D02*
X128401523Y-127420380D01*
X128639619Y-127420380D01*
X128734857Y-127372761D01*
X128782476Y-127325142D01*
X128830095Y-127229904D01*
X128830095Y-127134666D01*
X128782476Y-127039428D01*
X128734857Y-126991809D01*
X128639619Y-126944190D01*
X128449142Y-126896571D01*
X128353904Y-126848952D01*
X128306285Y-126801333D01*
X128258666Y-126706095D01*
X128258666Y-126610857D01*
X128306285Y-126515619D01*
X128353904Y-126468000D01*
X128449142Y-126420380D01*
X128687238Y-126420380D01*
X128830095Y-126468000D01*
X129163428Y-126420380D02*
X129401523Y-127420380D01*
X129592000Y-126706095D01*
X129782476Y-127420380D01*
X130020571Y-126420380D01*
X130925333Y-127420380D02*
X130353904Y-127420380D01*
X130639619Y-127420380D02*
X130639619Y-126420380D01*
X130544380Y-126563238D01*
X130449142Y-126658476D01*
X130353904Y-126706095D01*
X134493095Y-76477380D02*
X134493095Y-77286904D01*
X134540714Y-77382142D01*
X134588333Y-77429761D01*
X134683571Y-77477380D01*
X134874047Y-77477380D01*
X134969285Y-77429761D01*
X135016904Y-77382142D01*
X135064523Y-77286904D01*
X135064523Y-76477380D01*
X136064523Y-77477380D02*
X135493095Y-77477380D01*
X135778809Y-77477380D02*
X135778809Y-76477380D01*
X135683571Y-76620238D01*
X135588333Y-76715476D01*
X135493095Y-76763095D01*
X144018095Y-82212380D02*
X144018095Y-83021904D01*
X144065714Y-83117142D01*
X144113333Y-83164761D01*
X144208571Y-83212380D01*
X144399047Y-83212380D01*
X144494285Y-83164761D01*
X144541904Y-83117142D01*
X144589523Y-83021904D01*
X144589523Y-82212380D01*
X145018095Y-82307619D02*
X145065714Y-82260000D01*
X145160952Y-82212380D01*
X145399047Y-82212380D01*
X145494285Y-82260000D01*
X145541904Y-82307619D01*
X145589523Y-82402857D01*
X145589523Y-82498095D01*
X145541904Y-82640952D01*
X144970476Y-83212380D01*
X145589523Y-83212380D01*
X120142095Y-107457380D02*
X120142095Y-108266904D01*
X120189714Y-108362142D01*
X120237333Y-108409761D01*
X120332571Y-108457380D01*
X120523047Y-108457380D01*
X120618285Y-108409761D01*
X120665904Y-108362142D01*
X120713523Y-108266904D01*
X120713523Y-107457380D01*
X121094476Y-107457380D02*
X121713523Y-107457380D01*
X121380190Y-107838333D01*
X121523047Y-107838333D01*
X121618285Y-107885952D01*
X121665904Y-107933571D01*
X121713523Y-108028809D01*
X121713523Y-108266904D01*
X121665904Y-108362142D01*
X121618285Y-108409761D01*
X121523047Y-108457380D01*
X121237333Y-108457380D01*
X121142095Y-108409761D01*
X121094476Y-108362142D01*
X159897380Y-75691904D02*
X160706904Y-75691904D01*
X160802142Y-75644285D01*
X160849761Y-75596666D01*
X160897380Y-75501428D01*
X160897380Y-75310952D01*
X160849761Y-75215714D01*
X160802142Y-75168095D01*
X160706904Y-75120476D01*
X159897380Y-75120476D01*
X160230714Y-74215714D02*
X160897380Y-74215714D01*
X159849761Y-74453809D02*
X160564047Y-74691904D01*
X160564047Y-74072857D01*
X128524095Y-104958380D02*
X128524095Y-105767904D01*
X128571714Y-105863142D01*
X128619333Y-105910761D01*
X128714571Y-105958380D01*
X128905047Y-105958380D01*
X129000285Y-105910761D01*
X129047904Y-105863142D01*
X129095523Y-105767904D01*
X129095523Y-104958380D01*
X130047904Y-104958380D02*
X129571714Y-104958380D01*
X129524095Y-105434571D01*
X129571714Y-105386952D01*
X129666952Y-105339333D01*
X129905047Y-105339333D01*
X130000285Y-105386952D01*
X130047904Y-105434571D01*
X130095523Y-105529809D01*
X130095523Y-105767904D01*
X130047904Y-105863142D01*
X130000285Y-105910761D01*
X129905047Y-105958380D01*
X129666952Y-105958380D01*
X129571714Y-105910761D01*
X129524095Y-105863142D01*
X140026190Y-112136190D02*
X140502380Y-112136190D01*
X139502380Y-112469523D02*
X140026190Y-112136190D01*
X139502380Y-111802857D01*
X140502380Y-110945714D02*
X140502380Y-111517142D01*
X140502380Y-111231428D02*
X139502380Y-111231428D01*
X139645238Y-111326666D01*
X139740476Y-111421904D01*
X139788095Y-111517142D01*
X129967142Y-79362857D02*
X130014761Y-79410476D01*
X130062380Y-79553333D01*
X130062380Y-79648571D01*
X130014761Y-79791428D01*
X129919523Y-79886666D01*
X129824285Y-79934285D01*
X129633809Y-79981904D01*
X129490952Y-79981904D01*
X129300476Y-79934285D01*
X129205238Y-79886666D01*
X129110000Y-79791428D01*
X129062380Y-79648571D01*
X129062380Y-79553333D01*
X129110000Y-79410476D01*
X129157619Y-79362857D01*
X130062380Y-78410476D02*
X130062380Y-78981904D01*
X130062380Y-78696190D02*
X129062380Y-78696190D01*
X129205238Y-78791428D01*
X129300476Y-78886666D01*
X129348095Y-78981904D01*
X130062380Y-77458095D02*
X130062380Y-78029523D01*
X130062380Y-77743809D02*
X129062380Y-77743809D01*
X129205238Y-77839047D01*
X129300476Y-77934285D01*
X129348095Y-78029523D01*
X128087333Y-95734142D02*
X128039714Y-95781761D01*
X127896857Y-95829380D01*
X127801619Y-95829380D01*
X127658761Y-95781761D01*
X127563523Y-95686523D01*
X127515904Y-95591285D01*
X127468285Y-95400809D01*
X127468285Y-95257952D01*
X127515904Y-95067476D01*
X127563523Y-94972238D01*
X127658761Y-94877000D01*
X127801619Y-94829380D01*
X127896857Y-94829380D01*
X128039714Y-94877000D01*
X128087333Y-94924619D01*
X128420666Y-94829380D02*
X129087333Y-94829380D01*
X128658761Y-95829380D01*
X153297142Y-92432142D02*
X153249523Y-92479761D01*
X153106666Y-92527380D01*
X153011428Y-92527380D01*
X152868571Y-92479761D01*
X152773333Y-92384523D01*
X152725714Y-92289285D01*
X152678095Y-92098809D01*
X152678095Y-91955952D01*
X152725714Y-91765476D01*
X152773333Y-91670238D01*
X152868571Y-91575000D01*
X153011428Y-91527380D01*
X153106666Y-91527380D01*
X153249523Y-91575000D01*
X153297142Y-91622619D01*
X154249523Y-92527380D02*
X153678095Y-92527380D01*
X153963809Y-92527380D02*
X153963809Y-91527380D01*
X153868571Y-91670238D01*
X153773333Y-91765476D01*
X153678095Y-91813095D01*
X155154285Y-91527380D02*
X154678095Y-91527380D01*
X154630476Y-92003571D01*
X154678095Y-91955952D01*
X154773333Y-91908333D01*
X155011428Y-91908333D01*
X155106666Y-91955952D01*
X155154285Y-92003571D01*
X155201904Y-92098809D01*
X155201904Y-92336904D01*
X155154285Y-92432142D01*
X155106666Y-92479761D01*
X155011428Y-92527380D01*
X154773333Y-92527380D01*
X154678095Y-92479761D01*
X154630476Y-92432142D01*
X113677142Y-110282142D02*
X113629523Y-110329761D01*
X113486666Y-110377380D01*
X113391428Y-110377380D01*
X113248571Y-110329761D01*
X113153333Y-110234523D01*
X113105714Y-110139285D01*
X113058095Y-109948809D01*
X113058095Y-109805952D01*
X113105714Y-109615476D01*
X113153333Y-109520238D01*
X113248571Y-109425000D01*
X113391428Y-109377380D01*
X113486666Y-109377380D01*
X113629523Y-109425000D01*
X113677142Y-109472619D01*
X114629523Y-110377380D02*
X114058095Y-110377380D01*
X114343809Y-110377380D02*
X114343809Y-109377380D01*
X114248571Y-109520238D01*
X114153333Y-109615476D01*
X114058095Y-109663095D01*
X114962857Y-109377380D02*
X115629523Y-109377380D01*
X115200952Y-110377380D01*
M02*
