G04 #@! TF.GenerationSoftware,KiCad,Pcbnew,(2017-12-14 revision b47a06e)-master*
G04 #@! TF.CreationDate,2017-12-14T18:09:36-08:00*
G04 #@! TF.ProjectId,Elephant-3,456C657068616E742D332E6B69636164,1*
G04 #@! TF.SameCoordinates,Original*
G04 #@! TF.FileFunction,Copper,L1,Top,Signal*
G04 #@! TF.FilePolarity,Positive*
%FSLAX46Y46*%
G04 Gerber Fmt 4.6, Leading zero omitted, Abs format (unit mm)*
G04 Created by KiCad (PCBNEW (2017-12-14 revision b47a06e)-master) date Thursday, December 14, 2017 'PMt' 06:09:36 PM*
%MOMM*%
%LPD*%
G01*
G04 APERTURE LIST*
%ADD10C,1.800000*%
%ADD11R,1.800000X1.800000*%
%ADD12C,2.400000*%
%ADD13C,1.600000*%
%ADD14R,1.600000X1.600000*%
%ADD15R,1.700000X1.700000*%
%ADD16O,1.700000X1.700000*%
%ADD17R,2.200000X2.200000*%
%ADD18O,2.200000X2.200000*%
%ADD19O,1.800000X1.800000*%
%ADD20C,5.000000*%
%ADD21R,0.700000X1.200000*%
%ADD22R,1.000000X1.200000*%
%ADD23R,1.000000X0.800000*%
%ADD24R,1.000000X2.800000*%
%ADD25R,1.300000X1.900000*%
%ADD26R,2.500000X4.500000*%
%ADD27O,2.500000X4.500000*%
%ADD28C,1.400000*%
%ADD29O,1.400000X1.400000*%
%ADD30O,1.600000X1.600000*%
%ADD31O,2.400000X2.400000*%
%ADD32C,2.000000*%
%ADD33R,2.400000X1.600000*%
%ADD34O,2.400000X1.600000*%
%ADD35R,2.000000X3.800000*%
%ADD36R,2.000000X1.500000*%
%ADD37R,1.600000X2.400000*%
%ADD38O,1.600000X2.400000*%
%ADD39R,1.500000X0.600000*%
%ADD40C,1.500000*%
%ADD41C,0.800000*%
%ADD42C,0.500000*%
%ADD43C,0.250000*%
%ADD44C,2.000000*%
%ADD45C,3.000000*%
G04 APERTURE END LIST*
D10*
X154432000Y-95123000D03*
D11*
X151892000Y-95123000D03*
D12*
X170815000Y-104970000D03*
X170815000Y-77470000D03*
D13*
X138430000Y-100330000D03*
X135930000Y-100330000D03*
X151130000Y-105410000D03*
X153630000Y-105410000D03*
D14*
X132080000Y-73660000D03*
D13*
X137080000Y-73660000D03*
X156845000Y-111760000D03*
X154345000Y-111760000D03*
D14*
X137795000Y-92710000D03*
D13*
X135295000Y-92710000D03*
X127000000Y-95250000D03*
X127000000Y-92750000D03*
X127000000Y-86360000D03*
X127000000Y-83860000D03*
X138430000Y-104140000D03*
X135930000Y-104140000D03*
X138176000Y-120904000D03*
X138176000Y-118404000D03*
X126873000Y-105410000D03*
X126873000Y-102910000D03*
X135255000Y-85090000D03*
X137755000Y-85090000D03*
X153035000Y-81280000D03*
X153035000Y-83780000D03*
D15*
X142240000Y-124460000D03*
D16*
X142240000Y-121920000D03*
X144780000Y-124460000D03*
X144780000Y-121920000D03*
X147320000Y-124460000D03*
X147320000Y-121920000D03*
D17*
X159385000Y-125095000D03*
D18*
X159385000Y-114935000D03*
D17*
X154305000Y-114935000D03*
D18*
X154305000Y-125095000D03*
D17*
X113665000Y-92710000D03*
D18*
X123825000Y-92710000D03*
D17*
X123825000Y-97790000D03*
D18*
X113665000Y-97790000D03*
D17*
X113665000Y-83820000D03*
D18*
X123825000Y-83820000D03*
D17*
X123825000Y-88900000D03*
D18*
X113665000Y-88900000D03*
D17*
X142240000Y-81915000D03*
D18*
X142240000Y-71755000D03*
D17*
X113665000Y-74930000D03*
D18*
X123825000Y-74930000D03*
D17*
X123825000Y-80010000D03*
D18*
X113665000Y-80010000D03*
D11*
X184150000Y-81915000D03*
D19*
X184150000Y-76835000D03*
D15*
X115570000Y-71120000D03*
D16*
X118110000Y-71120000D03*
D15*
X110490000Y-91440000D03*
D16*
X110490000Y-93980000D03*
X110490000Y-96520000D03*
D15*
X110490000Y-81280000D03*
D16*
X110490000Y-83820000D03*
X110490000Y-86360000D03*
D15*
X110490000Y-71120000D03*
D16*
X110490000Y-73660000D03*
X110490000Y-76200000D03*
D15*
X110490000Y-102870000D03*
D16*
X110490000Y-105410000D03*
D15*
X124460000Y-71120000D03*
D16*
X127000000Y-71120000D03*
D20*
X178435000Y-71755000D03*
X188595000Y-71755000D03*
X194945000Y-81915000D03*
X194945000Y-71755000D03*
X184785000Y-123825000D03*
X194945000Y-123825000D03*
D21*
X110730000Y-109890000D03*
X111680000Y-109890000D03*
X119380000Y-109890000D03*
X118280000Y-109890000D03*
X117180000Y-109890000D03*
X116080000Y-109890000D03*
X114980000Y-109890000D03*
X113880000Y-109890000D03*
X112780000Y-109890000D03*
D22*
X120930000Y-109890000D03*
X109780000Y-114190000D03*
D23*
X109780000Y-120390000D03*
D24*
X109780000Y-124540000D03*
D25*
X123280000Y-124990000D03*
D15*
X167005000Y-71120000D03*
D16*
X164465000Y-71120000D03*
D20*
X194945000Y-88265000D03*
X194945000Y-98425000D03*
D26*
X184150000Y-116586000D03*
D27*
X189600000Y-116586000D03*
X195050000Y-116586000D03*
D26*
X184150000Y-107315000D03*
D27*
X189600000Y-107315000D03*
X195050000Y-107315000D03*
D28*
X156845000Y-116205000D03*
D29*
X156845000Y-123825000D03*
D13*
X156743400Y-105384600D03*
D30*
X156743400Y-95224600D03*
D28*
X122555000Y-95250000D03*
D29*
X114935000Y-95250000D03*
D28*
X122555000Y-86360000D03*
D29*
X114935000Y-86360000D03*
D13*
X131445000Y-94996000D03*
D30*
X131445000Y-84836000D03*
D13*
X146050000Y-81915000D03*
D30*
X146050000Y-71755000D03*
D28*
X122555000Y-77470000D03*
D29*
X114935000Y-77470000D03*
D13*
X179705000Y-115570000D03*
D30*
X169545000Y-115570000D03*
D13*
X165100000Y-120650000D03*
D30*
X165100000Y-110490000D03*
D13*
X179705000Y-110490000D03*
D30*
X169545000Y-110490000D03*
D12*
X180340000Y-123825000D03*
D31*
X165100000Y-123825000D03*
D32*
X132842000Y-120468000D03*
X132842000Y-124968000D03*
X126342000Y-120468000D03*
X126342000Y-124968000D03*
D11*
X132715000Y-80645000D03*
D19*
X135255000Y-80645000D03*
X137795000Y-80645000D03*
D33*
X140970000Y-85090000D03*
D34*
X148590000Y-118110000D03*
X140970000Y-87630000D03*
X148590000Y-115570000D03*
X140970000Y-90170000D03*
X148590000Y-113030000D03*
X140970000Y-92710000D03*
X148590000Y-110490000D03*
X140970000Y-95250000D03*
X148590000Y-107950000D03*
X140970000Y-97790000D03*
X148590000Y-105410000D03*
X140970000Y-100330000D03*
X148590000Y-102870000D03*
X140970000Y-102870000D03*
X148590000Y-100330000D03*
X140970000Y-105410000D03*
X148590000Y-97790000D03*
X140970000Y-107950000D03*
X148590000Y-95250000D03*
X140970000Y-110490000D03*
X148590000Y-92710000D03*
X140970000Y-113030000D03*
X148590000Y-90170000D03*
X140970000Y-115570000D03*
X148590000Y-87630000D03*
X140970000Y-118110000D03*
X148590000Y-85090000D03*
D35*
X117754000Y-103505000D03*
D36*
X124054000Y-103505000D03*
X124054000Y-101205000D03*
X124054000Y-105805000D03*
D37*
X158115000Y-71120000D03*
D38*
X150495000Y-78740000D03*
X155575000Y-71120000D03*
X153035000Y-78740000D03*
X153035000Y-71120000D03*
X155575000Y-78740000D03*
X150495000Y-71120000D03*
X158115000Y-78740000D03*
D39*
X126586000Y-107061000D03*
X126586000Y-108331000D03*
X126586000Y-109601000D03*
X126586000Y-110871000D03*
X126586000Y-112141000D03*
X126586000Y-113411000D03*
X126586000Y-114681000D03*
X126586000Y-115951000D03*
X131986000Y-115951000D03*
X131986000Y-114681000D03*
X131986000Y-113411000D03*
X131986000Y-112141000D03*
X131986000Y-110871000D03*
X131986000Y-109601000D03*
X131986000Y-108331000D03*
X131986000Y-107061000D03*
D40*
X136525000Y-109220000D03*
X136525000Y-114100000D03*
D13*
X127000000Y-79970000D03*
X127000000Y-77470000D03*
D14*
X127254000Y-99187000D03*
D13*
X129254000Y-99187000D03*
X152940000Y-88265000D03*
D14*
X154940000Y-88265000D03*
D13*
X113070000Y-107315000D03*
X115570000Y-107315000D03*
D41*
X166751000Y-92583000D03*
X166751000Y-97408994D03*
X134302500Y-115570000D03*
X134266097Y-118781403D03*
X124714000Y-123952000D03*
X123190000Y-123190000D03*
X110998000Y-114300000D03*
X110998000Y-113411000D03*
X122174000Y-105791000D03*
X124079000Y-107315000D03*
X125094992Y-115951000D03*
X126618996Y-117094000D03*
X110998000Y-124460000D03*
X110998000Y-125476000D03*
X113919000Y-111251982D03*
X122174000Y-110363000D03*
X122174000Y-109093000D03*
X109347000Y-122174000D03*
X114173000Y-108585000D03*
X136854824Y-86710214D03*
X132878844Y-88172741D03*
X135797015Y-86677710D03*
X132881000Y-87169503D03*
X131445000Y-88265000D03*
X173990000Y-96393000D03*
X168415000Y-94630997D03*
X173215000Y-95631000D03*
X168415000Y-95631000D03*
X143797959Y-102201041D03*
X144619041Y-100617959D03*
X154935347Y-92841653D03*
X158500653Y-90927347D03*
X143072959Y-103124000D03*
X145344041Y-101325067D03*
X155642455Y-93548760D03*
X159262653Y-91689347D03*
X134581000Y-86487000D03*
X132881000Y-86169500D03*
D42*
X152336500Y-106616500D02*
X152336500Y-108394500D01*
X152336500Y-108394500D02*
X153035000Y-109093000D01*
X154305000Y-114935000D02*
X153035000Y-113665000D01*
X153035000Y-113665000D02*
X153035000Y-109093000D01*
X153035000Y-109093000D02*
X155943401Y-106184599D01*
X155943401Y-106184599D02*
X156743400Y-105384600D01*
D43*
X156845000Y-116205000D02*
X156845000Y-111760000D01*
X158623000Y-95504000D02*
X155194000Y-92075000D01*
X156845000Y-111760000D02*
X158623000Y-109982000D01*
X158623000Y-109982000D02*
X158623000Y-95504000D01*
D42*
X159385000Y-125095000D02*
X158115000Y-125095000D01*
X158115000Y-125095000D02*
X156845000Y-123825000D01*
X154305000Y-125095000D02*
X155575000Y-125095000D01*
X155575000Y-125095000D02*
X156845000Y-123825000D01*
X163830000Y-125095000D02*
X159385000Y-125095000D01*
X158432500Y-124142500D02*
X159385000Y-125095000D01*
X164465000Y-71120000D02*
X164465000Y-90297000D01*
X166351001Y-92183001D02*
X166751000Y-92583000D01*
X164465000Y-90297000D02*
X166351001Y-92183001D01*
X163049999Y-101109995D02*
X166351001Y-97808993D01*
X163049999Y-118599999D02*
X163049999Y-101109995D01*
X166351001Y-97808993D02*
X166751000Y-97408994D01*
X165100000Y-120650000D02*
X163049999Y-118599999D01*
X166751000Y-97409000D02*
X166751000Y-97408994D01*
X138430000Y-100330000D02*
X138430000Y-96647000D01*
X138430000Y-96647000D02*
X137795000Y-96012000D01*
X123825000Y-97790000D02*
X124523500Y-97091500D01*
X134713500Y-97091500D02*
X135602500Y-96202500D01*
X124523500Y-97091500D02*
X134713500Y-97091500D01*
X135602500Y-96202500D02*
X137604500Y-96202500D01*
X134302500Y-99504500D02*
X137604500Y-96202500D01*
X137604500Y-96202500D02*
X137795000Y-96012000D01*
X122225000Y-80010000D02*
X120674999Y-81560001D01*
X112548001Y-81560001D02*
X111950500Y-80962500D01*
X123825000Y-80010000D02*
X122225000Y-80010000D01*
X120674999Y-81560001D02*
X112548001Y-81560001D01*
X111950500Y-80962500D02*
X111950500Y-80230498D01*
X111950500Y-80230498D02*
X109571002Y-77851000D01*
X109571002Y-77851000D02*
X108966000Y-77851000D01*
X123825000Y-88900000D02*
X122225000Y-88900000D01*
X110426500Y-88074500D02*
X108966000Y-88074500D01*
X122225000Y-88900000D02*
X120574000Y-90551000D01*
X112903000Y-90551000D02*
X110426500Y-88074500D01*
X120574000Y-90551000D02*
X112903000Y-90551000D01*
X137795000Y-96012000D02*
X137795000Y-92710000D01*
X134302500Y-115570000D02*
X134302500Y-99504500D01*
X135124492Y-119693992D02*
X134266097Y-118835597D01*
X134266097Y-118835597D02*
X134266097Y-118781403D01*
X135124492Y-121904178D02*
X135124492Y-119693992D01*
X142240000Y-121920000D02*
X140775990Y-123384010D01*
X140775990Y-123384010D02*
X136604324Y-123384010D01*
X136604324Y-123384010D02*
X135124492Y-121904178D01*
X142240000Y-121920000D02*
X141732000Y-121920000D01*
X140970000Y-100330000D02*
X143129000Y-100330000D01*
X145796000Y-105410000D02*
X148590000Y-105410000D01*
X144843500Y-104457500D02*
X145796000Y-105410000D01*
X144843500Y-102044500D02*
X144843500Y-104457500D01*
X143129000Y-100330000D02*
X144843500Y-102044500D01*
X151130000Y-105410000D02*
X152336500Y-106616500D01*
X110490000Y-86360000D02*
X108966000Y-87884000D01*
X108902500Y-88074500D02*
X108966000Y-88074500D01*
X108966000Y-88011000D02*
X108902500Y-88074500D01*
X108966000Y-87884000D02*
X108966000Y-88011000D01*
X110490000Y-96520000D02*
X110490000Y-97028000D01*
X110490000Y-97028000D02*
X108966000Y-98552000D01*
X124054000Y-101205000D02*
X124054000Y-98019000D01*
X124054000Y-98019000D02*
X123825000Y-97790000D01*
X110490000Y-105410000D02*
X114681000Y-105410000D01*
X116840000Y-100584000D02*
X123433000Y-100584000D01*
X115824000Y-101600000D02*
X116840000Y-100584000D01*
X115824000Y-104267000D02*
X115824000Y-101600000D01*
X114681000Y-105410000D02*
X115824000Y-104267000D01*
X123433000Y-100584000D02*
X124054000Y-101205000D01*
X110490000Y-76200000D02*
X110490000Y-76327000D01*
X110490000Y-76327000D02*
X108966000Y-77851000D01*
X108966000Y-77851000D02*
X108966000Y-88074500D01*
X108966000Y-88074500D02*
X108966000Y-98552000D01*
X108966000Y-98552000D02*
X108966000Y-103886000D01*
X108966000Y-103886000D02*
X110490000Y-105410000D01*
X137795000Y-80645000D02*
X136017000Y-82423000D01*
X133731000Y-88646000D02*
X137795000Y-92710000D01*
X133731000Y-83185000D02*
X133731000Y-88646000D01*
X134493000Y-82423000D02*
X133731000Y-83185000D01*
X136017000Y-82423000D02*
X134493000Y-82423000D01*
X138430000Y-93345000D02*
X137795000Y-92710000D01*
X142240000Y-81915000D02*
X146050000Y-81915000D01*
X137795000Y-80645000D02*
X140970000Y-80645000D01*
X140970000Y-80645000D02*
X142240000Y-81915000D01*
X138430000Y-100330000D02*
X140970000Y-100330000D01*
X148590000Y-105410000D02*
X151130000Y-105410000D01*
D43*
X123280000Y-124990000D02*
X123676000Y-124990000D01*
X123676000Y-124990000D02*
X124714000Y-123952000D01*
X123280000Y-124990000D02*
X123280000Y-123280000D01*
X123280000Y-123280000D02*
X123190000Y-123190000D01*
X110888000Y-114190000D02*
X110998000Y-114300000D01*
X109780000Y-114190000D02*
X110888000Y-114190000D01*
X110530000Y-114190000D02*
X110998000Y-113722000D01*
X110998000Y-113722000D02*
X110998000Y-113411000D01*
X109780000Y-114190000D02*
X110530000Y-114190000D01*
X122188000Y-105805000D02*
X122174000Y-105791000D01*
X124054000Y-105805000D02*
X122188000Y-105805000D01*
X124054000Y-107290000D02*
X124079000Y-107315000D01*
X124054000Y-105805000D02*
X124054000Y-107290000D01*
X126586000Y-115951000D02*
X125094992Y-115951000D01*
X126586000Y-115951000D02*
X126586000Y-117061004D01*
X126586000Y-117061004D02*
X126618996Y-117094000D01*
X109780000Y-124540000D02*
X110918000Y-124540000D01*
X110918000Y-124540000D02*
X110998000Y-124460000D01*
X109780000Y-124540000D02*
X110062000Y-124540000D01*
X110062000Y-124540000D02*
X110998000Y-125476000D01*
X113880000Y-111212982D02*
X113919000Y-111251982D01*
X113880000Y-109890000D02*
X113880000Y-111212982D01*
X120930000Y-109890000D02*
X121701000Y-109890000D01*
X121701000Y-109890000D02*
X122174000Y-110363000D01*
X120930000Y-109890000D02*
X121377000Y-109890000D01*
X121377000Y-109890000D02*
X122174000Y-109093000D01*
X109780000Y-124540000D02*
X109780000Y-122607000D01*
X109780000Y-122607000D02*
X109347000Y-122174000D01*
X113880000Y-109890000D02*
X113880000Y-108878000D01*
X113880000Y-108878000D02*
X114173000Y-108585000D01*
D42*
X132080000Y-73660000D02*
X132080000Y-80010000D01*
X132080000Y-80010000D02*
X132715000Y-80645000D01*
X118110000Y-71120000D02*
X118745000Y-71120000D01*
X118745000Y-71120000D02*
X120650000Y-73025000D01*
X120650000Y-73025000D02*
X131445000Y-73025000D01*
X131445000Y-73025000D02*
X132080000Y-73660000D01*
D43*
X150495000Y-89535000D02*
X150495000Y-86595000D01*
X150495000Y-86595000D02*
X148990000Y-85090000D01*
X148990000Y-85090000D02*
X148590000Y-85090000D01*
X153035000Y-92075000D02*
X150495000Y-89535000D01*
X155208002Y-92075000D02*
X155194000Y-92075000D01*
X155194000Y-92075000D02*
X153035000Y-92075000D01*
X136854824Y-86710214D02*
X137254823Y-86310215D01*
X141790215Y-86310215D02*
X148190000Y-92710000D01*
X137254823Y-86310215D02*
X141790215Y-86310215D01*
X148190000Y-92710000D02*
X148590000Y-92710000D01*
X127000000Y-95250000D02*
X132878844Y-89371156D01*
X132878844Y-89371156D02*
X132878844Y-88172741D01*
X122555000Y-95250000D02*
X127000000Y-95250000D01*
X135797015Y-86677710D02*
X138164295Y-89044990D01*
X138164295Y-89044990D02*
X141984990Y-89044990D01*
X141984990Y-89044990D02*
X148190000Y-95250000D01*
X148190000Y-95250000D02*
X148590000Y-95250000D01*
X127000000Y-86360000D02*
X127809503Y-87169503D01*
X127809503Y-87169503D02*
X132881000Y-87169503D01*
X122555000Y-86360000D02*
X127000000Y-86360000D01*
X136525000Y-109220000D02*
X137160000Y-109220000D01*
X137160000Y-109220000D02*
X140970000Y-105410000D01*
X136525000Y-109220000D02*
X136525000Y-104735000D01*
X136525000Y-104735000D02*
X135930000Y-104140000D01*
X136525000Y-114100000D02*
X136525000Y-116753000D01*
X136525000Y-116753000D02*
X138176000Y-118404000D01*
X136525000Y-114100000D02*
X136525000Y-112395000D01*
X136525000Y-112395000D02*
X140970000Y-107950000D01*
D42*
X115570000Y-107315000D02*
X115570000Y-105689000D01*
X115570000Y-105689000D02*
X117754000Y-103505000D01*
X124054000Y-103505000D02*
X124752500Y-104203500D01*
X124752500Y-104203500D02*
X125666500Y-104203500D01*
X125666500Y-104203500D02*
X126873000Y-105410000D01*
X126873000Y-105410000D02*
X126586000Y-105697000D01*
X126586000Y-105697000D02*
X126586000Y-107061000D01*
X127254000Y-99187000D02*
X127254000Y-100584000D01*
X125285500Y-102552500D02*
X125006500Y-102552500D01*
X125006500Y-102552500D02*
X124054000Y-103505000D01*
X125285500Y-102552500D02*
X127254000Y-100584000D01*
X117754000Y-103505000D02*
X124054000Y-103505000D01*
X124054000Y-103505000D02*
X124714000Y-103505000D01*
X126873000Y-105410000D02*
X126873000Y-105156000D01*
X126713000Y-105570000D02*
X126873000Y-105410000D01*
X117754000Y-103505000D02*
X118237000Y-103505000D01*
X115570000Y-107315000D02*
X116080000Y-107825000D01*
X116080000Y-107825000D02*
X116080000Y-109890000D01*
D44*
X170815000Y-77470000D02*
X170815000Y-100233998D01*
X170815000Y-100233998D02*
X174371000Y-103789998D01*
X174371000Y-103789998D02*
X174371000Y-117856000D01*
X174371000Y-117856000D02*
X179140001Y-122625001D01*
X179140001Y-122625001D02*
X180340000Y-123825000D01*
X180340000Y-123825000D02*
X184785000Y-123825000D01*
X170815000Y-77470000D02*
X175260000Y-81915000D01*
X175260000Y-81915000D02*
X184150000Y-81915000D01*
D43*
X145986500Y-119888000D02*
X150622000Y-119888000D01*
X150622000Y-119888000D02*
X150622000Y-119888000D01*
X150622000Y-119888000D02*
X150622000Y-113855500D01*
X150622000Y-113855500D02*
X149796500Y-113030000D01*
X148590000Y-113030000D02*
X149796500Y-113030000D01*
X145986500Y-119888000D02*
X144780000Y-121094500D01*
X144780000Y-121920000D02*
X144780000Y-121094500D01*
X126586000Y-112141000D02*
X129222500Y-112141000D01*
X143033750Y-120173750D02*
X144780000Y-121920000D01*
X141319250Y-120173750D02*
X143033750Y-120173750D01*
X139255500Y-122237500D02*
X141319250Y-120173750D01*
X137096500Y-122237500D02*
X139255500Y-122237500D01*
X136334500Y-121475500D02*
X137096500Y-122237500D01*
X136334500Y-118935500D02*
X136334500Y-121475500D01*
X134683500Y-117284500D02*
X136334500Y-118935500D01*
X130619500Y-117284500D02*
X134683500Y-117284500D01*
X129921000Y-116586000D02*
X130619500Y-117284500D01*
X129921000Y-112839500D02*
X129921000Y-116586000D01*
X129222500Y-112141000D02*
X129921000Y-112839500D01*
X144780000Y-121920000D02*
X145351500Y-121920000D01*
X143510000Y-123190000D02*
X143510000Y-121475500D01*
X128333500Y-114681000D02*
X129349500Y-115697000D01*
X129349500Y-115697000D02*
X129349500Y-116903500D01*
X129349500Y-116903500D02*
X130302000Y-117856000D01*
X130302000Y-117856000D02*
X134366000Y-117856000D01*
X134366000Y-117856000D02*
X135699500Y-119189500D01*
X135699500Y-119189500D02*
X135699500Y-121666000D01*
X135699500Y-121666000D02*
X136842500Y-122809000D01*
X144780000Y-124460000D02*
X143510000Y-123190000D01*
X128333500Y-114681000D02*
X126586000Y-114681000D01*
X139509500Y-122809000D02*
X136842500Y-122809000D01*
X141605000Y-120713500D02*
X139509500Y-122809000D01*
X142748000Y-120713500D02*
X141605000Y-120713500D01*
X143510000Y-121475500D02*
X142748000Y-120713500D01*
X151511000Y-119951500D02*
X151511000Y-113157000D01*
X146113500Y-121412000D02*
X146939000Y-120586500D01*
X146939000Y-120586500D02*
X150876000Y-120586500D01*
X150876000Y-120586500D02*
X151511000Y-119951500D01*
X144780000Y-124460000D02*
X146113500Y-123126500D01*
X146113500Y-123126500D02*
X146113500Y-121412000D01*
X146621500Y-109918500D02*
X148590000Y-107950000D01*
X146621500Y-110871000D02*
X146621500Y-109918500D01*
X147574000Y-111823500D02*
X146621500Y-110871000D01*
X150177500Y-111823500D02*
X147574000Y-111823500D01*
X151511000Y-113157000D02*
X150177500Y-111823500D01*
X142240000Y-124460000D02*
X142557500Y-124460000D01*
X142557500Y-124460000D02*
X143885498Y-125787998D01*
X150685500Y-110490000D02*
X148590000Y-110490000D01*
X152336500Y-112141000D02*
X150685500Y-110490000D01*
X152336500Y-120142000D02*
X152336500Y-112141000D01*
X149288500Y-123190000D02*
X152336500Y-120142000D01*
X146748500Y-123190000D02*
X149288500Y-123190000D01*
X146050000Y-123888500D02*
X146748500Y-123190000D01*
X146050000Y-125031500D02*
X146050000Y-123888500D01*
X145293502Y-125787998D02*
X146050000Y-125031500D01*
X143885498Y-125787998D02*
X145293502Y-125787998D01*
X120650000Y-114300000D02*
X120650000Y-115570000D01*
X112780000Y-112907000D02*
X114173000Y-114300000D01*
X114173000Y-114300000D02*
X120650000Y-114300000D01*
X112780000Y-109890000D02*
X112780000Y-112907000D01*
X141224000Y-125476000D02*
X142240000Y-124460000D01*
X135763000Y-125476000D02*
X141224000Y-125476000D01*
X134366000Y-124079000D02*
X135763000Y-125476000D01*
X134366000Y-120015000D02*
X134366000Y-124079000D01*
X133477000Y-119126000D02*
X134366000Y-120015000D01*
X124206000Y-119126000D02*
X133477000Y-119126000D01*
X120650000Y-115570000D02*
X124206000Y-119126000D01*
D42*
X163830000Y-125095000D02*
X165100000Y-123825000D01*
X165100000Y-123825000D02*
X165100000Y-120650000D01*
D43*
X154432000Y-95123000D02*
X156641800Y-95123000D01*
X156641800Y-95123000D02*
X156743400Y-95224600D01*
X113665000Y-97790000D02*
X113665000Y-96520000D01*
X113665000Y-96520000D02*
X113792000Y-96393000D01*
X113792000Y-96393000D02*
X114935000Y-95250000D01*
X113665000Y-92710000D02*
X113665000Y-94060000D01*
X113665000Y-94060000D02*
X114855000Y-95250000D01*
X114855000Y-95250000D02*
X114935000Y-95250000D01*
X111760000Y-92710000D02*
X113665000Y-92710000D01*
X110490000Y-93980000D02*
X111760000Y-92710000D01*
X113665000Y-83820000D02*
X113665000Y-85170000D01*
X113665000Y-85170000D02*
X114855000Y-86360000D01*
X114855000Y-86360000D02*
X114935000Y-86360000D01*
X113665000Y-88900000D02*
X113665000Y-87630000D01*
X114235001Y-87059999D02*
X114935000Y-86360000D01*
X113665000Y-87630000D02*
X114235001Y-87059999D01*
X110490000Y-83820000D02*
X113665000Y-83820000D01*
X113665000Y-80010000D02*
X113665000Y-78740000D01*
X113665000Y-78740000D02*
X114935000Y-77470000D01*
X113665000Y-74930000D02*
X113665000Y-76280000D01*
X113665000Y-76280000D02*
X114855000Y-77470000D01*
X114855000Y-77470000D02*
X114935000Y-77470000D01*
X110490000Y-73660000D02*
X111760000Y-74930000D01*
X111760000Y-74930000D02*
X113665000Y-74930000D01*
D44*
X178435000Y-71755000D02*
X179070000Y-71755000D01*
X179070000Y-71755000D02*
X184150000Y-76835000D01*
D43*
X110490000Y-102870000D02*
X110998000Y-102870000D01*
X122936000Y-90932000D02*
X128778000Y-90932000D01*
X110998000Y-102870000D02*
X122936000Y-90932000D01*
X128778000Y-90932000D02*
X131445000Y-88265000D01*
D42*
X154533996Y-85953996D02*
X154940000Y-86360000D01*
X154533996Y-82778996D02*
X154533996Y-85953996D01*
X153035000Y-81280000D02*
X154533996Y-82778996D01*
X127000000Y-71120000D02*
X139065000Y-71120000D01*
X148590000Y-81153000D02*
X153162000Y-85725000D01*
X154305000Y-85725000D02*
X154940000Y-86360000D01*
X153162000Y-85725000D02*
X154305000Y-85725000D01*
X148590000Y-71755000D02*
X148590000Y-81153000D01*
X146685000Y-69850000D02*
X148590000Y-71755000D01*
X140335000Y-69850000D02*
X146685000Y-69850000D01*
X139065000Y-71120000D02*
X140335000Y-69850000D01*
X153035000Y-81280000D02*
X153035000Y-78740000D01*
X154940000Y-88265000D02*
X154940000Y-86360000D01*
D45*
X194945000Y-88265000D02*
X194945000Y-81915000D01*
D44*
X189600000Y-116586000D02*
X189600000Y-118480000D01*
X189600000Y-118480000D02*
X194945000Y-123825000D01*
D43*
X114980000Y-109890000D02*
X114980000Y-112440000D01*
X115951000Y-113411000D02*
X126586000Y-113411000D01*
X114980000Y-112440000D02*
X115951000Y-113411000D01*
X124460000Y-111125000D02*
X124714000Y-110871000D01*
X117475000Y-111125000D02*
X124460000Y-111125000D01*
X117180000Y-109890000D02*
X117180000Y-110830000D01*
X117180000Y-110830000D02*
X117475000Y-111125000D01*
X124714000Y-110871000D02*
X126586000Y-110871000D01*
X126586000Y-108331000D02*
X119126000Y-108331000D01*
X118280000Y-109177000D02*
X119126000Y-108331000D01*
X118280000Y-109177000D02*
X118280000Y-109890000D01*
D45*
X189600000Y-99325000D02*
X190500000Y-98425000D01*
X190500000Y-98425000D02*
X194945000Y-98425000D01*
X189600000Y-107315000D02*
X189600000Y-99325000D01*
D43*
X155575000Y-78740000D02*
X155575000Y-79140000D01*
X155575000Y-79140000D02*
X157543500Y-81108500D01*
X157543500Y-81108500D02*
X157543500Y-90995500D01*
X161178997Y-94630997D02*
X168415000Y-94630997D01*
X157543500Y-90995500D02*
X161178997Y-94630997D01*
X173990000Y-96393000D02*
X177101500Y-99504500D01*
X177101500Y-99504500D02*
X177101500Y-112966500D01*
X179705000Y-115570000D02*
X177101500Y-112966500D01*
X179705000Y-115570000D02*
X180721000Y-116586000D01*
X180721000Y-116586000D02*
X184150000Y-116586000D01*
X154449990Y-78163986D02*
X154449990Y-79605994D01*
X167849315Y-95631000D02*
X168415000Y-95631000D01*
X156781500Y-81937504D02*
X156781500Y-91249500D01*
X167594313Y-95375998D02*
X167849315Y-95631000D01*
X154449990Y-79605994D02*
X156781500Y-81937504D01*
X150495000Y-78340000D02*
X151620010Y-77214990D01*
X153500994Y-77214990D02*
X154449990Y-78163986D01*
X160907998Y-95375998D02*
X167594313Y-95375998D01*
X150495000Y-78740000D02*
X150495000Y-78340000D01*
X156781500Y-91249500D02*
X160907998Y-95375998D01*
X151620010Y-77214990D02*
X153500994Y-77214990D01*
X173215000Y-95631000D02*
X177609500Y-95631000D01*
X177609500Y-95631000D02*
X184150000Y-102171500D01*
X184150000Y-107315000D02*
X184150000Y-102171500D01*
X179705000Y-110490000D02*
X181975000Y-110490000D01*
X181975000Y-110490000D02*
X184150000Y-108315000D01*
X184150000Y-108315000D02*
X184150000Y-107315000D01*
X150195012Y-99204990D02*
X150195012Y-94434986D01*
X150195012Y-94434986D02*
X151788345Y-92841653D01*
X151788345Y-92841653D02*
X154369662Y-92841653D01*
X154369662Y-92841653D02*
X154935347Y-92841653D01*
X146032010Y-99204990D02*
X144619041Y-100617959D01*
X150195012Y-99204990D02*
X146032010Y-99204990D01*
X143797959Y-102201041D02*
X143797959Y-113142041D01*
X143797959Y-113142041D02*
X141370000Y-115570000D01*
X141370000Y-115570000D02*
X140970000Y-115570000D01*
X150495000Y-71120000D02*
X150495000Y-71520000D01*
X150495000Y-71520000D02*
X156700010Y-77725010D01*
X158500653Y-81406637D02*
X158500653Y-90927347D01*
X156700010Y-77725010D02*
X156700010Y-79605994D01*
X156700010Y-79605994D02*
X158500653Y-81406637D01*
X143072959Y-103124000D02*
X143072959Y-108787041D01*
X143072959Y-108787041D02*
X141370000Y-110490000D01*
X141370000Y-110490000D02*
X140970000Y-110490000D01*
X155642455Y-93548760D02*
X155293216Y-93897999D01*
X153843999Y-93897999D02*
X153206999Y-94534999D01*
X153206999Y-94534999D02*
X153206999Y-97704005D01*
X153206999Y-97704005D02*
X149455994Y-101455010D01*
X155293216Y-93897999D02*
X153843999Y-93897999D01*
X149455994Y-101455010D02*
X145473984Y-101455010D01*
X145473984Y-101455010D02*
X145344041Y-101325067D01*
X155575000Y-71120000D02*
X155575000Y-74208996D01*
X155575000Y-74208996D02*
X159262653Y-77896649D01*
X159262653Y-77896649D02*
X159262653Y-91689347D01*
X126586000Y-109601000D02*
X128270000Y-109601000D01*
X144399000Y-119634000D02*
X148463000Y-115570000D01*
X137096500Y-119634000D02*
X144399000Y-119634000D01*
X136906000Y-119443500D02*
X137096500Y-119634000D01*
X136906000Y-118681500D02*
X136906000Y-119443500D01*
X135001000Y-116776500D02*
X136906000Y-118681500D01*
X130873500Y-116776500D02*
X135001000Y-116776500D01*
X130429000Y-116332000D02*
X130873500Y-116776500D01*
X130429000Y-111760000D02*
X130429000Y-116332000D01*
X128270000Y-109601000D02*
X130429000Y-111760000D01*
X148463000Y-115570000D02*
X148590000Y-115570000D01*
X134581000Y-86487000D02*
X139192000Y-91098000D01*
X139192000Y-91098000D02*
X139192000Y-93091000D01*
X144380000Y-93980000D02*
X148190000Y-97790000D01*
X148190000Y-97790000D02*
X148590000Y-97790000D01*
X139192000Y-93091000D02*
X140081000Y-93980000D01*
X140081000Y-93980000D02*
X144380000Y-93980000D01*
X127000000Y-77470000D02*
X132881000Y-83351000D01*
X132881000Y-83351000D02*
X132881000Y-86169500D01*
X122555000Y-77470000D02*
X127000000Y-77470000D01*
X147574000Y-82804000D02*
X148717000Y-82804000D01*
X153289000Y-91440000D02*
X155702000Y-91440000D01*
X151257000Y-85344000D02*
X151257000Y-89408000D01*
X148717000Y-82804000D02*
X151257000Y-85344000D01*
X161290000Y-116205000D02*
X156845000Y-120650000D01*
X155702000Y-91440000D02*
X160655000Y-96393000D01*
X160655000Y-113030000D02*
X161290000Y-113665000D01*
X160655000Y-96393000D02*
X160655000Y-113030000D01*
X161290000Y-113665000D02*
X161290000Y-116205000D01*
X151257000Y-89408000D02*
X153289000Y-91440000D01*
X156845000Y-120650000D02*
X153352500Y-120650000D01*
X153352500Y-120650000D02*
X149542500Y-124460000D01*
X149542500Y-124460000D02*
X147320000Y-124460000D01*
X126342000Y-124968000D02*
X132842000Y-124968000D01*
X147320000Y-124460000D02*
X147320000Y-125603000D01*
X134620000Y-126238000D02*
X145542000Y-126238000D01*
X134620000Y-126238000D02*
X133350000Y-124968000D01*
X146685000Y-126238000D02*
X145542000Y-126238000D01*
X147320000Y-125603000D02*
X146685000Y-126238000D01*
X132842000Y-124968000D02*
X133350000Y-124968000D01*
X140970000Y-85090000D02*
X137755000Y-85090000D01*
X146050000Y-71755000D02*
X146050000Y-79375000D01*
X146050000Y-79375000D02*
X147574000Y-80899000D01*
X147574000Y-80899000D02*
X147574000Y-82804000D01*
X145288000Y-85090000D02*
X140970000Y-85090000D01*
X147574000Y-82804000D02*
X145288000Y-85090000D01*
X147574000Y-82804000D02*
X147574000Y-82804000D01*
X142240000Y-71755000D02*
X146050000Y-71755000D01*
M02*
