G04 #@! TF.GenerationSoftware,KiCad,Pcbnew,(2017-12-14 revision b47a06e)-master*
G04 #@! TF.CreationDate,2017-12-14T16:02:14-08:00*
G04 #@! TF.ProjectId,Elephant-3,456C657068616E742D332E6B69636164,1*
G04 #@! TF.SameCoordinates,Original*
G04 #@! TF.FileFunction,Soldermask,Top*
G04 #@! TF.FilePolarity,Negative*
%FSLAX46Y46*%
G04 Gerber Fmt 4.6, Leading zero omitted, Abs format (unit mm)*
G04 Created by KiCad (PCBNEW (2017-12-14 revision b47a06e)-master) date Thursday, December 14, 2017 'PMt' 04:02:14 PM*
%MOMM*%
%LPD*%
G01*
G04 APERTURE LIST*
%ADD10C,2.200000*%
%ADD11R,2.200000X2.200000*%
%ADD12C,2.800000*%
%ADD13C,2.000000*%
%ADD14R,2.000000X2.000000*%
%ADD15R,2.100000X2.100000*%
%ADD16O,2.100000X2.100000*%
%ADD17R,2.600000X2.600000*%
%ADD18O,2.600000X2.600000*%
%ADD19O,2.200000X2.200000*%
%ADD20C,5.400000*%
%ADD21R,1.100000X1.600000*%
%ADD22R,1.400000X1.600000*%
%ADD23R,1.400000X1.200000*%
%ADD24R,1.400000X3.200000*%
%ADD25R,1.700000X2.300000*%
%ADD26R,2.900000X4.900000*%
%ADD27O,2.900000X4.900000*%
%ADD28C,1.800000*%
%ADD29O,1.800000X1.800000*%
%ADD30O,2.000000X2.000000*%
%ADD31O,2.800000X2.800000*%
%ADD32C,2.400000*%
%ADD33R,2.800000X2.000000*%
%ADD34O,2.800000X2.000000*%
%ADD35R,2.400000X4.200000*%
%ADD36R,2.400000X1.900000*%
%ADD37R,2.000000X2.800000*%
%ADD38O,2.000000X2.800000*%
%ADD39R,1.900000X1.000000*%
%ADD40C,1.900000*%
G04 APERTURE END LIST*
D10*
X154432000Y-95123000D03*
D11*
X151892000Y-95123000D03*
D12*
X170815000Y-104970000D03*
X170815000Y-77470000D03*
D13*
X138430000Y-100330000D03*
X135930000Y-100330000D03*
X151130000Y-105410000D03*
X153630000Y-105410000D03*
D14*
X132080000Y-73660000D03*
D13*
X137080000Y-73660000D03*
X158115000Y-111760000D03*
X155615000Y-111760000D03*
D14*
X137795000Y-92710000D03*
D13*
X135295000Y-92710000D03*
X127000000Y-95250000D03*
X127000000Y-92750000D03*
X127000000Y-86360000D03*
X127000000Y-83860000D03*
X138430000Y-104140000D03*
X135930000Y-104140000D03*
X138176000Y-120904000D03*
X138176000Y-118404000D03*
X126873000Y-105410000D03*
X126873000Y-102910000D03*
X135255000Y-85090000D03*
X137755000Y-85090000D03*
X153035000Y-81280000D03*
X153035000Y-83780000D03*
D15*
X142240000Y-124460000D03*
D16*
X142240000Y-121920000D03*
X144780000Y-124460000D03*
X144780000Y-121920000D03*
X147320000Y-124460000D03*
X147320000Y-121920000D03*
D17*
X160655000Y-125095000D03*
D18*
X160655000Y-114935000D03*
D17*
X155575000Y-114935000D03*
D18*
X155575000Y-125095000D03*
D17*
X113665000Y-92710000D03*
D18*
X123825000Y-92710000D03*
D17*
X123825000Y-97790000D03*
D18*
X113665000Y-97790000D03*
D17*
X113665000Y-83820000D03*
D18*
X123825000Y-83820000D03*
D17*
X123825000Y-88900000D03*
D18*
X113665000Y-88900000D03*
D17*
X142240000Y-81915000D03*
D18*
X142240000Y-71755000D03*
D17*
X113665000Y-74930000D03*
D18*
X123825000Y-74930000D03*
D17*
X123825000Y-80010000D03*
D18*
X113665000Y-80010000D03*
D11*
X184150000Y-81915000D03*
D19*
X184150000Y-76835000D03*
D15*
X115570000Y-71120000D03*
D16*
X118110000Y-71120000D03*
D15*
X110490000Y-91440000D03*
D16*
X110490000Y-93980000D03*
X110490000Y-96520000D03*
D15*
X110490000Y-81280000D03*
D16*
X110490000Y-83820000D03*
X110490000Y-86360000D03*
D15*
X110490000Y-71120000D03*
D16*
X110490000Y-73660000D03*
X110490000Y-76200000D03*
D15*
X110490000Y-102870000D03*
D16*
X110490000Y-105410000D03*
D15*
X124460000Y-71120000D03*
D16*
X127000000Y-71120000D03*
D20*
X178435000Y-71755000D03*
X188595000Y-71755000D03*
X194945000Y-81915000D03*
X194945000Y-71755000D03*
X184785000Y-123825000D03*
X194945000Y-123825000D03*
D21*
X110730000Y-109890000D03*
X111680000Y-109890000D03*
X119380000Y-109890000D03*
X118280000Y-109890000D03*
X117180000Y-109890000D03*
X116080000Y-109890000D03*
X114980000Y-109890000D03*
X113880000Y-109890000D03*
X112780000Y-109890000D03*
D22*
X120930000Y-109890000D03*
X109780000Y-114190000D03*
D23*
X109780000Y-120390000D03*
D24*
X109780000Y-124540000D03*
D25*
X123280000Y-124990000D03*
D15*
X167005000Y-71120000D03*
D16*
X164465000Y-71120000D03*
D20*
X194945000Y-88265000D03*
X194945000Y-98425000D03*
D26*
X184150000Y-116586000D03*
D27*
X189600000Y-116586000D03*
X195050000Y-116586000D03*
D26*
X184150000Y-107315000D03*
D27*
X189600000Y-107315000D03*
X195050000Y-107315000D03*
D28*
X158115000Y-116205000D03*
D29*
X158115000Y-123825000D03*
D13*
X156743400Y-105384600D03*
D30*
X156743400Y-95224600D03*
D28*
X122555000Y-95250000D03*
D29*
X114935000Y-95250000D03*
D28*
X122555000Y-86360000D03*
D29*
X114935000Y-86360000D03*
D13*
X131445000Y-94996000D03*
D30*
X131445000Y-84836000D03*
D13*
X146050000Y-81915000D03*
D30*
X146050000Y-71755000D03*
D28*
X122555000Y-77470000D03*
D29*
X114935000Y-77470000D03*
D13*
X179705000Y-115570000D03*
D30*
X169545000Y-115570000D03*
D13*
X165100000Y-120650000D03*
D30*
X165100000Y-110490000D03*
D13*
X179705000Y-110490000D03*
D30*
X169545000Y-110490000D03*
D12*
X180340000Y-123825000D03*
D31*
X165100000Y-123825000D03*
D32*
X132842000Y-120468000D03*
X132842000Y-124968000D03*
X126342000Y-120468000D03*
X126342000Y-124968000D03*
D11*
X132715000Y-80645000D03*
D19*
X135255000Y-80645000D03*
X137795000Y-80645000D03*
D33*
X140970000Y-85090000D03*
D34*
X148590000Y-118110000D03*
X140970000Y-87630000D03*
X148590000Y-115570000D03*
X140970000Y-90170000D03*
X148590000Y-113030000D03*
X140970000Y-92710000D03*
X148590000Y-110490000D03*
X140970000Y-95250000D03*
X148590000Y-107950000D03*
X140970000Y-97790000D03*
X148590000Y-105410000D03*
X140970000Y-100330000D03*
X148590000Y-102870000D03*
X140970000Y-102870000D03*
X148590000Y-100330000D03*
X140970000Y-105410000D03*
X148590000Y-97790000D03*
X140970000Y-107950000D03*
X148590000Y-95250000D03*
X140970000Y-110490000D03*
X148590000Y-92710000D03*
X140970000Y-113030000D03*
X148590000Y-90170000D03*
X140970000Y-115570000D03*
X148590000Y-87630000D03*
X140970000Y-118110000D03*
X148590000Y-85090000D03*
D35*
X117754000Y-103505000D03*
D36*
X124054000Y-103505000D03*
X124054000Y-101205000D03*
X124054000Y-105805000D03*
D37*
X158115000Y-71120000D03*
D38*
X150495000Y-78740000D03*
X155575000Y-71120000D03*
X153035000Y-78740000D03*
X153035000Y-71120000D03*
X155575000Y-78740000D03*
X150495000Y-71120000D03*
X158115000Y-78740000D03*
D39*
X126586000Y-107061000D03*
X126586000Y-108331000D03*
X126586000Y-109601000D03*
X126586000Y-110871000D03*
X126586000Y-112141000D03*
X126586000Y-113411000D03*
X126586000Y-114681000D03*
X126586000Y-115951000D03*
X131986000Y-115951000D03*
X131986000Y-114681000D03*
X131986000Y-113411000D03*
X131986000Y-112141000D03*
X131986000Y-110871000D03*
X131986000Y-109601000D03*
X131986000Y-108331000D03*
X131986000Y-107061000D03*
D40*
X136525000Y-109220000D03*
X136525000Y-114100000D03*
D13*
X127000000Y-79970000D03*
X127000000Y-77470000D03*
D14*
X127254000Y-99187000D03*
D13*
X129254000Y-99187000D03*
X152940000Y-88265000D03*
D14*
X154940000Y-88265000D03*
D13*
X113070000Y-107315000D03*
X115570000Y-107315000D03*
M02*
