G04 #@! TF.GenerationSoftware,KiCad,Pcbnew,(2017-12-14 revision b47a06e)-master*
G04 #@! TF.CreationDate,2018-01-03T11:39:18-08:00*
G04 #@! TF.ProjectId,Elephant-3,456C657068616E742D332E6B69636164,1*
G04 #@! TF.SameCoordinates,Original*
G04 #@! TF.FileFunction,Legend,Bot*
G04 #@! TF.FilePolarity,Positive*
%FSLAX46Y46*%
G04 Gerber Fmt 4.6, Leading zero omitted, Abs format (unit mm)*
G04 Created by KiCad (PCBNEW (2017-12-14 revision b47a06e)-master) date Wednesday, January 03, 2018 'AMt' 11:39:18 AM*
%MOMM*%
%LPD*%
G01*
G04 APERTURE LIST*
%ADD10C,0.250000*%
G04 APERTURE END LIST*
D10*
X187140190Y-86558380D02*
X187140190Y-85558380D01*
X186902095Y-85558380D01*
X186759238Y-85606000D01*
X186664000Y-85701238D01*
X186616380Y-85796476D01*
X186568761Y-85986952D01*
X186568761Y-86129809D01*
X186616380Y-86320285D01*
X186664000Y-86415523D01*
X186759238Y-86510761D01*
X186902095Y-86558380D01*
X187140190Y-86558380D01*
X185759238Y-86510761D02*
X185854476Y-86558380D01*
X186044952Y-86558380D01*
X186140190Y-86510761D01*
X186187809Y-86415523D01*
X186187809Y-86034571D01*
X186140190Y-85939333D01*
X186044952Y-85891714D01*
X185854476Y-85891714D01*
X185759238Y-85939333D01*
X185711619Y-86034571D01*
X185711619Y-86129809D01*
X186187809Y-86225047D01*
X185330666Y-86510761D02*
X185235428Y-86558380D01*
X185044952Y-86558380D01*
X184949714Y-86510761D01*
X184902095Y-86415523D01*
X184902095Y-86367904D01*
X184949714Y-86272666D01*
X185044952Y-86225047D01*
X185187809Y-86225047D01*
X185283047Y-86177428D01*
X185330666Y-86082190D01*
X185330666Y-86034571D01*
X185283047Y-85939333D01*
X185187809Y-85891714D01*
X185044952Y-85891714D01*
X184949714Y-85939333D01*
X184473523Y-86558380D02*
X184473523Y-85891714D01*
X184473523Y-85558380D02*
X184521142Y-85606000D01*
X184473523Y-85653619D01*
X184425904Y-85606000D01*
X184473523Y-85558380D01*
X184473523Y-85653619D01*
X183568761Y-85891714D02*
X183568761Y-86701238D01*
X183616380Y-86796476D01*
X183664000Y-86844095D01*
X183759238Y-86891714D01*
X183902095Y-86891714D01*
X183997333Y-86844095D01*
X183568761Y-86510761D02*
X183664000Y-86558380D01*
X183854476Y-86558380D01*
X183949714Y-86510761D01*
X183997333Y-86463142D01*
X184044952Y-86367904D01*
X184044952Y-86082190D01*
X183997333Y-85986952D01*
X183949714Y-85939333D01*
X183854476Y-85891714D01*
X183664000Y-85891714D01*
X183568761Y-85939333D01*
X183092571Y-85891714D02*
X183092571Y-86558380D01*
X183092571Y-85986952D02*
X183044952Y-85939333D01*
X182949714Y-85891714D01*
X182806857Y-85891714D01*
X182711619Y-85939333D01*
X182664000Y-86034571D01*
X182664000Y-86558380D01*
X181806857Y-86510761D02*
X181902095Y-86558380D01*
X182092571Y-86558380D01*
X182187809Y-86510761D01*
X182235428Y-86415523D01*
X182235428Y-86034571D01*
X182187809Y-85939333D01*
X182092571Y-85891714D01*
X181902095Y-85891714D01*
X181806857Y-85939333D01*
X181759238Y-86034571D01*
X181759238Y-86129809D01*
X182235428Y-86225047D01*
X180902095Y-86558380D02*
X180902095Y-85558380D01*
X180902095Y-86510761D02*
X180997333Y-86558380D01*
X181187809Y-86558380D01*
X181283047Y-86510761D01*
X181330666Y-86463142D01*
X181378285Y-86367904D01*
X181378285Y-86082190D01*
X181330666Y-85986952D01*
X181283047Y-85939333D01*
X181187809Y-85891714D01*
X180997333Y-85891714D01*
X180902095Y-85939333D01*
X179664000Y-86558380D02*
X179664000Y-85558380D01*
X179664000Y-85939333D02*
X179568761Y-85891714D01*
X179378285Y-85891714D01*
X179283047Y-85939333D01*
X179235428Y-85986952D01*
X179187809Y-86082190D01*
X179187809Y-86367904D01*
X179235428Y-86463142D01*
X179283047Y-86510761D01*
X179378285Y-86558380D01*
X179568761Y-86558380D01*
X179664000Y-86510761D01*
X178854476Y-85891714D02*
X178616380Y-86558380D01*
X178378285Y-85891714D02*
X178616380Y-86558380D01*
X178711619Y-86796476D01*
X178759238Y-86844095D01*
X178854476Y-86891714D01*
X176664000Y-86463142D02*
X176711619Y-86510761D01*
X176854476Y-86558380D01*
X176949714Y-86558380D01*
X177092571Y-86510761D01*
X177187809Y-86415523D01*
X177235428Y-86320285D01*
X177283047Y-86129809D01*
X177283047Y-85986952D01*
X177235428Y-85796476D01*
X177187809Y-85701238D01*
X177092571Y-85606000D01*
X176949714Y-85558380D01*
X176854476Y-85558380D01*
X176711619Y-85606000D01*
X176664000Y-85653619D01*
X176092571Y-86558380D02*
X176187809Y-86510761D01*
X176235428Y-86463142D01*
X176283047Y-86367904D01*
X176283047Y-86082190D01*
X176235428Y-85986952D01*
X176187809Y-85939333D01*
X176092571Y-85891714D01*
X175949714Y-85891714D01*
X175854476Y-85939333D01*
X175806857Y-85986952D01*
X175759238Y-86082190D01*
X175759238Y-86367904D01*
X175806857Y-86463142D01*
X175854476Y-86510761D01*
X175949714Y-86558380D01*
X176092571Y-86558380D01*
X175330666Y-86558380D02*
X175330666Y-85891714D01*
X175330666Y-86082190D02*
X175283047Y-85986952D01*
X175235428Y-85939333D01*
X175140190Y-85891714D01*
X175044952Y-85891714D01*
X174806857Y-85891714D02*
X174616380Y-86558380D01*
X174425904Y-86082190D01*
X174235428Y-86558380D01*
X174044952Y-85891714D01*
X173664000Y-86558380D02*
X173664000Y-85891714D01*
X173664000Y-85558380D02*
X173711619Y-85606000D01*
X173664000Y-85653619D01*
X173616380Y-85606000D01*
X173664000Y-85558380D01*
X173664000Y-85653619D01*
X173187809Y-85891714D02*
X173187809Y-86558380D01*
X173187809Y-85986952D02*
X173140190Y-85939333D01*
X173044952Y-85891714D01*
X172902095Y-85891714D01*
X172806857Y-85939333D01*
X172759238Y-86034571D01*
X172759238Y-86558380D01*
X171521142Y-86558380D02*
X171521142Y-85558380D01*
X171521142Y-86034571D02*
X170949714Y-86034571D01*
X170949714Y-86558380D02*
X170949714Y-85558380D01*
X170044952Y-86558380D02*
X170044952Y-86034571D01*
X170092571Y-85939333D01*
X170187809Y-85891714D01*
X170378285Y-85891714D01*
X170473523Y-85939333D01*
X170044952Y-86510761D02*
X170140190Y-86558380D01*
X170378285Y-86558380D01*
X170473523Y-86510761D01*
X170521142Y-86415523D01*
X170521142Y-86320285D01*
X170473523Y-86225047D01*
X170378285Y-86177428D01*
X170140190Y-86177428D01*
X170044952Y-86129809D01*
X169568761Y-85891714D02*
X169568761Y-86558380D01*
X169568761Y-85986952D02*
X169521142Y-85939333D01*
X169425904Y-85891714D01*
X169283047Y-85891714D01*
X169187809Y-85939333D01*
X169140190Y-86034571D01*
X169140190Y-86558380D01*
X168711619Y-86510761D02*
X168616380Y-86558380D01*
X168425904Y-86558380D01*
X168330666Y-86510761D01*
X168283047Y-86415523D01*
X168283047Y-86367904D01*
X168330666Y-86272666D01*
X168425904Y-86225047D01*
X168568761Y-86225047D01*
X168664000Y-86177428D01*
X168711619Y-86082190D01*
X168711619Y-86034571D01*
X168664000Y-85939333D01*
X168568761Y-85891714D01*
X168425904Y-85891714D01*
X168330666Y-85939333D01*
X167473523Y-86510761D02*
X167568761Y-86558380D01*
X167759238Y-86558380D01*
X167854476Y-86510761D01*
X167902095Y-86415523D01*
X167902095Y-86034571D01*
X167854476Y-85939333D01*
X167759238Y-85891714D01*
X167568761Y-85891714D01*
X167473523Y-85939333D01*
X167425904Y-86034571D01*
X167425904Y-86129809D01*
X167902095Y-86225047D01*
X166997333Y-85891714D02*
X166997333Y-86558380D01*
X166997333Y-85986952D02*
X166949714Y-85939333D01*
X166854476Y-85891714D01*
X166711619Y-85891714D01*
X166616380Y-85939333D01*
X166568761Y-86034571D01*
X166568761Y-86558380D01*
X163806857Y-85558380D02*
X163806857Y-86367904D01*
X163759238Y-86463142D01*
X163711619Y-86510761D01*
X163616380Y-86558380D01*
X163425904Y-86558380D01*
X163330666Y-86510761D01*
X163283047Y-86463142D01*
X163235428Y-86367904D01*
X163235428Y-85558380D01*
X162854476Y-85558380D02*
X162616380Y-86558380D01*
X162425904Y-85844095D01*
X162235428Y-86558380D01*
X161997333Y-85558380D01*
X160902095Y-86272666D02*
X160425904Y-86272666D01*
X160997333Y-86558380D02*
X160664000Y-85558380D01*
X160330666Y-86558380D01*
X159997333Y-86558380D02*
X159997333Y-85558380D01*
X159616380Y-85558380D01*
X159521142Y-85606000D01*
X159473523Y-85653619D01*
X159425904Y-85748857D01*
X159425904Y-85891714D01*
X159473523Y-85986952D01*
X159521142Y-86034571D01*
X159616380Y-86082190D01*
X159997333Y-86082190D01*
X158521142Y-86558380D02*
X158997333Y-86558380D01*
X158997333Y-85558380D01*
X156806857Y-85558380D02*
X156473523Y-86558380D01*
X156140190Y-85558380D01*
X155425904Y-86510761D02*
X155521142Y-86558380D01*
X155711619Y-86558380D01*
X155806857Y-86510761D01*
X155854476Y-86415523D01*
X155854476Y-86034571D01*
X155806857Y-85939333D01*
X155711619Y-85891714D01*
X155521142Y-85891714D01*
X155425904Y-85939333D01*
X155378285Y-86034571D01*
X155378285Y-86129809D01*
X155854476Y-86225047D01*
X154949714Y-86558380D02*
X154949714Y-85891714D01*
X154949714Y-86082190D02*
X154902095Y-85986952D01*
X154854476Y-85939333D01*
X154759238Y-85891714D01*
X154664000Y-85891714D01*
X154330666Y-86463142D02*
X154283047Y-86510761D01*
X154330666Y-86558380D01*
X154378285Y-86510761D01*
X154330666Y-86463142D01*
X154330666Y-86558380D01*
X152568761Y-86558380D02*
X153140190Y-86558380D01*
X152854476Y-86558380D02*
X152854476Y-85558380D01*
X152949714Y-85701238D01*
X153044952Y-85796476D01*
X153140190Y-85844095D01*
X152140190Y-86463142D02*
X152092571Y-86510761D01*
X152140190Y-86558380D01*
X152187809Y-86510761D01*
X152140190Y-86463142D01*
X152140190Y-86558380D01*
X151473523Y-85558380D02*
X151378285Y-85558380D01*
X151283047Y-85606000D01*
X151235428Y-85653619D01*
X151187809Y-85748857D01*
X151140190Y-85939333D01*
X151140190Y-86177428D01*
X151187809Y-86367904D01*
X151235428Y-86463142D01*
X151283047Y-86510761D01*
X151378285Y-86558380D01*
X151473523Y-86558380D01*
X151568761Y-86510761D01*
X151616380Y-86463142D01*
X151664000Y-86367904D01*
X151711619Y-86177428D01*
X151711619Y-85939333D01*
X151664000Y-85748857D01*
X151616380Y-85653619D01*
X151568761Y-85606000D01*
X151473523Y-85558380D01*
M02*
