G04 #@! TF.GenerationSoftware,KiCad,Pcbnew,(2017-12-14 revision b47a06e)-master*
G04 #@! TF.CreationDate,2017-12-28T19:17:59-08:00*
G04 #@! TF.ProjectId,Elephant-3,456C657068616E742D332E6B69636164,1*
G04 #@! TF.SameCoordinates,Original*
G04 #@! TF.FileFunction,Legend,Top*
G04 #@! TF.FilePolarity,Positive*
%FSLAX46Y46*%
G04 Gerber Fmt 4.6, Leading zero omitted, Abs format (unit mm)*
G04 Created by KiCad (PCBNEW (2017-12-14 revision b47a06e)-master) date Thursday, December 28, 2017 'PMt' 07:17:59 PM*
%MOMM*%
%LPD*%
G01*
G04 APERTURE LIST*
%ADD10C,0.300000*%
%ADD11C,0.150000*%
%ADD12C,0.120000*%
%ADD13C,0.100000*%
G04 APERTURE END LIST*
D10*
X197675428Y-126257857D02*
X196532571Y-126257857D01*
X181038571Y-125837142D02*
X182181428Y-125837142D01*
X181610000Y-126408571D02*
X181610000Y-125265714D01*
X196957142Y-102298428D02*
X196957142Y-101155571D01*
X196532571Y-85070142D02*
X197675428Y-85070142D01*
X197104000Y-85641571D02*
X197104000Y-84498714D01*
D11*
X192341428Y-69717000D02*
X192412857Y-69752714D01*
X192520000Y-69752714D01*
X192627142Y-69717000D01*
X192698571Y-69645571D01*
X192734285Y-69574142D01*
X192770000Y-69431285D01*
X192770000Y-69324142D01*
X192734285Y-69181285D01*
X192698571Y-69109857D01*
X192627142Y-69038428D01*
X192520000Y-69002714D01*
X192448571Y-69002714D01*
X192341428Y-69038428D01*
X192305714Y-69074142D01*
X192305714Y-69324142D01*
X192448571Y-69324142D01*
X191984285Y-69002714D02*
X191984285Y-69752714D01*
X191555714Y-69002714D01*
X191555714Y-69752714D01*
X191198571Y-69002714D02*
X191198571Y-69752714D01*
X191020000Y-69752714D01*
X190912857Y-69717000D01*
X190841428Y-69645571D01*
X190805714Y-69574142D01*
X190770000Y-69431285D01*
X190770000Y-69324142D01*
X190805714Y-69181285D01*
X190841428Y-69109857D01*
X190912857Y-69038428D01*
X191020000Y-69002714D01*
X191198571Y-69002714D01*
D10*
X174434571Y-69830142D02*
X175577428Y-69830142D01*
X175006000Y-70401571D02*
X175006000Y-69258714D01*
D11*
X168719428Y-69590000D02*
X168790857Y-69625714D01*
X168898000Y-69625714D01*
X169005142Y-69590000D01*
X169076571Y-69518571D01*
X169112285Y-69447142D01*
X169148000Y-69304285D01*
X169148000Y-69197142D01*
X169112285Y-69054285D01*
X169076571Y-68982857D01*
X169005142Y-68911428D01*
X168898000Y-68875714D01*
X168826571Y-68875714D01*
X168719428Y-68911428D01*
X168683714Y-68947142D01*
X168683714Y-69197142D01*
X168826571Y-69197142D01*
X168362285Y-68875714D02*
X168362285Y-69625714D01*
X167933714Y-68875714D01*
X167933714Y-69625714D01*
X167576571Y-68875714D02*
X167576571Y-69625714D01*
X167398000Y-69625714D01*
X167290857Y-69590000D01*
X167219428Y-69518571D01*
X167183714Y-69447142D01*
X167148000Y-69304285D01*
X167148000Y-69197142D01*
X167183714Y-69054285D01*
X167219428Y-68982857D01*
X167290857Y-68911428D01*
X167398000Y-68875714D01*
X167576571Y-68875714D01*
X124015428Y-69590000D02*
X124086857Y-69625714D01*
X124194000Y-69625714D01*
X124301142Y-69590000D01*
X124372571Y-69518571D01*
X124408285Y-69447142D01*
X124444000Y-69304285D01*
X124444000Y-69197142D01*
X124408285Y-69054285D01*
X124372571Y-68982857D01*
X124301142Y-68911428D01*
X124194000Y-68875714D01*
X124122571Y-68875714D01*
X124015428Y-68911428D01*
X123979714Y-68947142D01*
X123979714Y-69197142D01*
X124122571Y-69197142D01*
X123658285Y-68875714D02*
X123658285Y-69625714D01*
X123229714Y-68875714D01*
X123229714Y-69625714D01*
X122872571Y-68875714D02*
X122872571Y-69625714D01*
X122694000Y-69625714D01*
X122586857Y-69590000D01*
X122515428Y-69518571D01*
X122479714Y-69447142D01*
X122444000Y-69304285D01*
X122444000Y-69197142D01*
X122479714Y-69054285D01*
X122515428Y-68982857D01*
X122586857Y-68911428D01*
X122694000Y-68875714D01*
X122872571Y-68875714D01*
X115125428Y-69590000D02*
X115196857Y-69625714D01*
X115304000Y-69625714D01*
X115411142Y-69590000D01*
X115482571Y-69518571D01*
X115518285Y-69447142D01*
X115554000Y-69304285D01*
X115554000Y-69197142D01*
X115518285Y-69054285D01*
X115482571Y-68982857D01*
X115411142Y-68911428D01*
X115304000Y-68875714D01*
X115232571Y-68875714D01*
X115125428Y-68911428D01*
X115089714Y-68947142D01*
X115089714Y-69197142D01*
X115232571Y-69197142D01*
X114768285Y-68875714D02*
X114768285Y-69625714D01*
X114339714Y-68875714D01*
X114339714Y-69625714D01*
X113982571Y-68875714D02*
X113982571Y-69625714D01*
X113804000Y-69625714D01*
X113696857Y-69590000D01*
X113625428Y-69518571D01*
X113589714Y-69447142D01*
X113554000Y-69304285D01*
X113554000Y-69197142D01*
X113589714Y-69054285D01*
X113625428Y-68982857D01*
X113696857Y-68911428D01*
X113804000Y-68875714D01*
X113982571Y-68875714D01*
X108960000Y-69278571D02*
X108995714Y-69207142D01*
X108995714Y-69100000D01*
X108960000Y-68992857D01*
X108888571Y-68921428D01*
X108817142Y-68885714D01*
X108674285Y-68850000D01*
X108567142Y-68850000D01*
X108424285Y-68885714D01*
X108352857Y-68921428D01*
X108281428Y-68992857D01*
X108245714Y-69100000D01*
X108245714Y-69171428D01*
X108281428Y-69278571D01*
X108317142Y-69314285D01*
X108567142Y-69314285D01*
X108567142Y-69171428D01*
X108245714Y-69635714D02*
X108995714Y-69635714D01*
X108245714Y-70064285D01*
X108995714Y-70064285D01*
X108245714Y-70421428D02*
X108995714Y-70421428D01*
X108995714Y-70600000D01*
X108960000Y-70707142D01*
X108888571Y-70778571D01*
X108817142Y-70814285D01*
X108674285Y-70850000D01*
X108567142Y-70850000D01*
X108424285Y-70814285D01*
X108352857Y-70778571D01*
X108281428Y-70707142D01*
X108245714Y-70600000D01*
X108245714Y-70421428D01*
X108960000Y-89598571D02*
X108995714Y-89527142D01*
X108995714Y-89420000D01*
X108960000Y-89312857D01*
X108888571Y-89241428D01*
X108817142Y-89205714D01*
X108674285Y-89170000D01*
X108567142Y-89170000D01*
X108424285Y-89205714D01*
X108352857Y-89241428D01*
X108281428Y-89312857D01*
X108245714Y-89420000D01*
X108245714Y-89491428D01*
X108281428Y-89598571D01*
X108317142Y-89634285D01*
X108567142Y-89634285D01*
X108567142Y-89491428D01*
X108245714Y-89955714D02*
X108995714Y-89955714D01*
X108245714Y-90384285D01*
X108995714Y-90384285D01*
X108245714Y-90741428D02*
X108995714Y-90741428D01*
X108995714Y-90920000D01*
X108960000Y-91027142D01*
X108888571Y-91098571D01*
X108817142Y-91134285D01*
X108674285Y-91170000D01*
X108567142Y-91170000D01*
X108424285Y-91134285D01*
X108352857Y-91098571D01*
X108281428Y-91027142D01*
X108245714Y-90920000D01*
X108245714Y-90741428D01*
X108960000Y-79438571D02*
X108995714Y-79367142D01*
X108995714Y-79260000D01*
X108960000Y-79152857D01*
X108888571Y-79081428D01*
X108817142Y-79045714D01*
X108674285Y-79010000D01*
X108567142Y-79010000D01*
X108424285Y-79045714D01*
X108352857Y-79081428D01*
X108281428Y-79152857D01*
X108245714Y-79260000D01*
X108245714Y-79331428D01*
X108281428Y-79438571D01*
X108317142Y-79474285D01*
X108567142Y-79474285D01*
X108567142Y-79331428D01*
X108245714Y-79795714D02*
X108995714Y-79795714D01*
X108245714Y-80224285D01*
X108995714Y-80224285D01*
X108245714Y-80581428D02*
X108995714Y-80581428D01*
X108995714Y-80760000D01*
X108960000Y-80867142D01*
X108888571Y-80938571D01*
X108817142Y-80974285D01*
X108674285Y-81010000D01*
X108567142Y-81010000D01*
X108424285Y-80974285D01*
X108352857Y-80938571D01*
X108281428Y-80867142D01*
X108245714Y-80760000D01*
X108245714Y-80581428D01*
X108531428Y-76251714D02*
X108531428Y-76823142D01*
X108245714Y-76537428D02*
X108817142Y-76537428D01*
X108995714Y-77537428D02*
X108995714Y-77180285D01*
X108638571Y-77144571D01*
X108674285Y-77180285D01*
X108710000Y-77251714D01*
X108710000Y-77430285D01*
X108674285Y-77501714D01*
X108638571Y-77537428D01*
X108567142Y-77573142D01*
X108388571Y-77573142D01*
X108317142Y-77537428D01*
X108281428Y-77501714D01*
X108245714Y-77430285D01*
X108245714Y-77251714D01*
X108281428Y-77180285D01*
X108317142Y-77144571D01*
X108995714Y-77787428D02*
X108245714Y-78037428D01*
X108995714Y-78287428D01*
X108531428Y-86411714D02*
X108531428Y-86983142D01*
X108245714Y-86697428D02*
X108817142Y-86697428D01*
X108995714Y-87697428D02*
X108995714Y-87340285D01*
X108638571Y-87304571D01*
X108674285Y-87340285D01*
X108710000Y-87411714D01*
X108710000Y-87590285D01*
X108674285Y-87661714D01*
X108638571Y-87697428D01*
X108567142Y-87733142D01*
X108388571Y-87733142D01*
X108317142Y-87697428D01*
X108281428Y-87661714D01*
X108245714Y-87590285D01*
X108245714Y-87411714D01*
X108281428Y-87340285D01*
X108317142Y-87304571D01*
X108995714Y-87947428D02*
X108245714Y-88197428D01*
X108995714Y-88447428D01*
X108531428Y-96571714D02*
X108531428Y-97143142D01*
X108245714Y-96857428D02*
X108817142Y-96857428D01*
X108995714Y-97857428D02*
X108995714Y-97500285D01*
X108638571Y-97464571D01*
X108674285Y-97500285D01*
X108710000Y-97571714D01*
X108710000Y-97750285D01*
X108674285Y-97821714D01*
X108638571Y-97857428D01*
X108567142Y-97893142D01*
X108388571Y-97893142D01*
X108317142Y-97857428D01*
X108281428Y-97821714D01*
X108245714Y-97750285D01*
X108245714Y-97571714D01*
X108281428Y-97500285D01*
X108317142Y-97464571D01*
X108995714Y-98107428D02*
X108245714Y-98357428D01*
X108995714Y-98607428D01*
D12*
X151602000Y-96203000D02*
X151602000Y-96359000D01*
X151602000Y-93887000D02*
X151602000Y-94043000D01*
X154203130Y-96202837D02*
G75*
G02X152121039Y-96203000I-1041130J1079837D01*
G01*
X154203130Y-94043163D02*
G75*
G03X152121039Y-94043000I-1041130J-1079837D01*
G01*
X154834335Y-96201608D02*
G75*
G02X151602000Y-96358516I-1672335J1078608D01*
G01*
X154834335Y-94044392D02*
G75*
G03X151602000Y-93887484I-1672335J-1078608D01*
G01*
X180875000Y-107030000D02*
X160755000Y-107030000D01*
X180875000Y-75410000D02*
X160755000Y-75410000D01*
X160755000Y-75410000D02*
X160755000Y-107030000D01*
X180875000Y-75410000D02*
X180875000Y-107030000D01*
X139140000Y-101690000D02*
X135220000Y-101690000D01*
X139140000Y-98970000D02*
X135220000Y-98970000D01*
X139140000Y-101690000D02*
X139140000Y-101080000D01*
X139140000Y-99580000D02*
X139140000Y-98970000D01*
X135220000Y-101690000D02*
X135220000Y-101080000D01*
X135220000Y-99580000D02*
X135220000Y-98970000D01*
X150420000Y-104050000D02*
X154340000Y-104050000D01*
X150420000Y-106770000D02*
X154340000Y-106770000D01*
X150420000Y-104050000D02*
X150420000Y-104660000D01*
X150420000Y-106160000D02*
X150420000Y-106770000D01*
X154340000Y-104050000D02*
X154340000Y-104660000D01*
X154340000Y-106160000D02*
X154340000Y-106770000D01*
X138496851Y-72482555D02*
G75*
G03X130663918Y-72480000I-3916851J-1177445D01*
G01*
X138496851Y-74837445D02*
G75*
G02X130663918Y-74840000I-3916851J1177445D01*
G01*
X138496851Y-74837445D02*
G75*
G03X138496082Y-72480000I-3916851J1177445D01*
G01*
X134580000Y-69610000D02*
X134580000Y-77710000D01*
X134620000Y-69610000D02*
X134620000Y-77710000D01*
X134660000Y-69610000D02*
X134660000Y-77710000D01*
X134700000Y-69611000D02*
X134700000Y-77709000D01*
X134740000Y-69613000D02*
X134740000Y-77707000D01*
X134780000Y-69614000D02*
X134780000Y-77706000D01*
X134820000Y-69617000D02*
X134820000Y-77703000D01*
X134860000Y-69619000D02*
X134860000Y-77701000D01*
X134900000Y-69622000D02*
X134900000Y-77698000D01*
X134940000Y-69625000D02*
X134940000Y-77695000D01*
X134980000Y-69629000D02*
X134980000Y-77691000D01*
X135020000Y-69633000D02*
X135020000Y-77687000D01*
X135060000Y-69638000D02*
X135060000Y-77682000D01*
X135100000Y-69643000D02*
X135100000Y-77677000D01*
X135140000Y-69648000D02*
X135140000Y-77672000D01*
X135180000Y-69654000D02*
X135180000Y-77666000D01*
X135220000Y-69660000D02*
X135220000Y-77660000D01*
X135260000Y-69666000D02*
X135260000Y-77654000D01*
X135301000Y-69673000D02*
X135301000Y-77647000D01*
X135341000Y-69681000D02*
X135341000Y-77639000D01*
X135381000Y-69689000D02*
X135381000Y-77631000D01*
X135421000Y-69697000D02*
X135421000Y-77623000D01*
X135461000Y-69705000D02*
X135461000Y-77615000D01*
X135501000Y-69714000D02*
X135501000Y-77606000D01*
X135541000Y-69724000D02*
X135541000Y-77596000D01*
X135581000Y-69734000D02*
X135581000Y-77586000D01*
X135621000Y-69744000D02*
X135621000Y-77576000D01*
X135661000Y-69755000D02*
X135661000Y-77565000D01*
X135701000Y-69766000D02*
X135701000Y-77554000D01*
X135741000Y-69777000D02*
X135741000Y-77543000D01*
X135781000Y-69790000D02*
X135781000Y-77530000D01*
X135821000Y-69802000D02*
X135821000Y-77518000D01*
X135861000Y-69815000D02*
X135861000Y-77505000D01*
X135901000Y-69828000D02*
X135901000Y-77492000D01*
X135941000Y-69842000D02*
X135941000Y-77478000D01*
X135981000Y-69857000D02*
X135981000Y-77463000D01*
X136021000Y-69871000D02*
X136021000Y-77449000D01*
X136061000Y-69887000D02*
X136061000Y-77433000D01*
X136101000Y-69902000D02*
X136101000Y-72680000D01*
X136101000Y-74640000D02*
X136101000Y-77418000D01*
X136141000Y-69919000D02*
X136141000Y-72680000D01*
X136141000Y-74640000D02*
X136141000Y-77401000D01*
X136181000Y-69935000D02*
X136181000Y-72680000D01*
X136181000Y-74640000D02*
X136181000Y-77385000D01*
X136221000Y-69953000D02*
X136221000Y-72680000D01*
X136221000Y-74640000D02*
X136221000Y-77367000D01*
X136261000Y-69970000D02*
X136261000Y-72680000D01*
X136261000Y-74640000D02*
X136261000Y-77350000D01*
X136301000Y-69989000D02*
X136301000Y-72680000D01*
X136301000Y-74640000D02*
X136301000Y-77331000D01*
X136341000Y-70008000D02*
X136341000Y-72680000D01*
X136341000Y-74640000D02*
X136341000Y-77312000D01*
X136381000Y-70027000D02*
X136381000Y-72680000D01*
X136381000Y-74640000D02*
X136381000Y-77293000D01*
X136421000Y-70047000D02*
X136421000Y-72680000D01*
X136421000Y-74640000D02*
X136421000Y-77273000D01*
X136461000Y-70067000D02*
X136461000Y-72680000D01*
X136461000Y-74640000D02*
X136461000Y-77253000D01*
X136501000Y-70088000D02*
X136501000Y-72680000D01*
X136501000Y-74640000D02*
X136501000Y-77232000D01*
X136541000Y-70110000D02*
X136541000Y-72680000D01*
X136541000Y-74640000D02*
X136541000Y-77210000D01*
X136581000Y-70132000D02*
X136581000Y-72680000D01*
X136581000Y-74640000D02*
X136581000Y-77188000D01*
X136621000Y-70155000D02*
X136621000Y-72680000D01*
X136621000Y-74640000D02*
X136621000Y-77165000D01*
X136661000Y-70178000D02*
X136661000Y-72680000D01*
X136661000Y-74640000D02*
X136661000Y-77142000D01*
X136701000Y-70202000D02*
X136701000Y-72680000D01*
X136701000Y-74640000D02*
X136701000Y-77118000D01*
X136741000Y-70226000D02*
X136741000Y-72680000D01*
X136741000Y-74640000D02*
X136741000Y-77094000D01*
X136781000Y-70252000D02*
X136781000Y-72680000D01*
X136781000Y-74640000D02*
X136781000Y-77068000D01*
X136821000Y-70277000D02*
X136821000Y-72680000D01*
X136821000Y-74640000D02*
X136821000Y-77043000D01*
X136861000Y-70304000D02*
X136861000Y-72680000D01*
X136861000Y-74640000D02*
X136861000Y-77016000D01*
X136901000Y-70331000D02*
X136901000Y-72680000D01*
X136901000Y-74640000D02*
X136901000Y-76989000D01*
X136941000Y-70359000D02*
X136941000Y-72680000D01*
X136941000Y-74640000D02*
X136941000Y-76961000D01*
X136981000Y-70388000D02*
X136981000Y-72680000D01*
X136981000Y-74640000D02*
X136981000Y-76932000D01*
X137021000Y-70417000D02*
X137021000Y-72680000D01*
X137021000Y-74640000D02*
X137021000Y-76903000D01*
X137061000Y-70447000D02*
X137061000Y-72680000D01*
X137061000Y-74640000D02*
X137061000Y-76873000D01*
X137101000Y-70478000D02*
X137101000Y-72680000D01*
X137101000Y-74640000D02*
X137101000Y-76842000D01*
X137141000Y-70510000D02*
X137141000Y-72680000D01*
X137141000Y-74640000D02*
X137141000Y-76810000D01*
X137181000Y-70542000D02*
X137181000Y-72680000D01*
X137181000Y-74640000D02*
X137181000Y-76778000D01*
X137221000Y-70576000D02*
X137221000Y-72680000D01*
X137221000Y-74640000D02*
X137221000Y-76744000D01*
X137261000Y-70610000D02*
X137261000Y-72680000D01*
X137261000Y-74640000D02*
X137261000Y-76710000D01*
X137301000Y-70645000D02*
X137301000Y-72680000D01*
X137301000Y-74640000D02*
X137301000Y-76675000D01*
X137341000Y-70681000D02*
X137341000Y-72680000D01*
X137341000Y-74640000D02*
X137341000Y-76639000D01*
X137381000Y-70718000D02*
X137381000Y-72680000D01*
X137381000Y-74640000D02*
X137381000Y-76602000D01*
X137421000Y-70756000D02*
X137421000Y-72680000D01*
X137421000Y-74640000D02*
X137421000Y-76564000D01*
X137461000Y-70795000D02*
X137461000Y-72680000D01*
X137461000Y-74640000D02*
X137461000Y-76525000D01*
X137501000Y-70836000D02*
X137501000Y-72680000D01*
X137501000Y-74640000D02*
X137501000Y-76484000D01*
X137541000Y-70877000D02*
X137541000Y-72680000D01*
X137541000Y-74640000D02*
X137541000Y-76443000D01*
X137581000Y-70920000D02*
X137581000Y-72680000D01*
X137581000Y-74640000D02*
X137581000Y-76400000D01*
X137621000Y-70963000D02*
X137621000Y-72680000D01*
X137621000Y-74640000D02*
X137621000Y-76357000D01*
X137661000Y-71008000D02*
X137661000Y-72680000D01*
X137661000Y-74640000D02*
X137661000Y-76312000D01*
X137701000Y-71055000D02*
X137701000Y-72680000D01*
X137701000Y-74640000D02*
X137701000Y-76265000D01*
X137741000Y-71103000D02*
X137741000Y-72680000D01*
X137741000Y-74640000D02*
X137741000Y-76217000D01*
X137781000Y-71152000D02*
X137781000Y-72680000D01*
X137781000Y-74640000D02*
X137781000Y-76168000D01*
X137821000Y-71203000D02*
X137821000Y-72680000D01*
X137821000Y-74640000D02*
X137821000Y-76117000D01*
X137861000Y-71256000D02*
X137861000Y-72680000D01*
X137861000Y-74640000D02*
X137861000Y-76064000D01*
X137901000Y-71311000D02*
X137901000Y-72680000D01*
X137901000Y-74640000D02*
X137901000Y-76009000D01*
X137941000Y-71367000D02*
X137941000Y-72680000D01*
X137941000Y-74640000D02*
X137941000Y-75953000D01*
X137981000Y-71426000D02*
X137981000Y-72680000D01*
X137981000Y-74640000D02*
X137981000Y-75894000D01*
X138021000Y-71487000D02*
X138021000Y-72680000D01*
X138021000Y-74640000D02*
X138021000Y-75833000D01*
X138061000Y-71551000D02*
X138061000Y-75769000D01*
X138101000Y-71617000D02*
X138101000Y-75703000D01*
X138141000Y-71686000D02*
X138141000Y-75634000D01*
X138181000Y-71758000D02*
X138181000Y-75562000D01*
X138221000Y-71834000D02*
X138221000Y-75486000D01*
X138261000Y-71915000D02*
X138261000Y-75405000D01*
X138301000Y-72000000D02*
X138301000Y-75320000D01*
X138341000Y-72090000D02*
X138341000Y-75230000D01*
X138381000Y-72187000D02*
X138381000Y-75133000D01*
X138421000Y-72291000D02*
X138421000Y-75029000D01*
X138461000Y-72406000D02*
X138461000Y-74914000D01*
X138501000Y-72533000D02*
X138501000Y-74787000D01*
X138541000Y-72677000D02*
X138541000Y-74643000D01*
X138581000Y-72846000D02*
X138581000Y-74474000D01*
X138621000Y-73062000D02*
X138621000Y-74258000D01*
X138661000Y-73414000D02*
X138661000Y-73906000D01*
X129880000Y-73660000D02*
X131080000Y-73660000D01*
X130480000Y-73010000D02*
X130480000Y-74310000D01*
X157555000Y-113120000D02*
X153635000Y-113120000D01*
X157555000Y-110400000D02*
X153635000Y-110400000D01*
X157555000Y-113120000D02*
X157555000Y-112510000D01*
X157555000Y-111010000D02*
X157555000Y-110400000D01*
X153635000Y-113120000D02*
X153635000Y-112510000D01*
X153635000Y-111010000D02*
X153635000Y-110400000D01*
X134239278Y-93889723D02*
G75*
G03X138850580Y-93890000I2305722J1179723D01*
G01*
X134239278Y-91530277D02*
G75*
G02X138850580Y-91530000I2305722J-1179723D01*
G01*
X134239278Y-91530277D02*
G75*
G03X134239420Y-93890000I2305722J-1179723D01*
G01*
X136545000Y-95260000D02*
X136545000Y-90160000D01*
X136505000Y-95260000D02*
X136505000Y-90160000D01*
X136465000Y-95259000D02*
X136465000Y-90161000D01*
X136425000Y-95258000D02*
X136425000Y-90162000D01*
X136385000Y-95256000D02*
X136385000Y-90164000D01*
X136345000Y-95253000D02*
X136345000Y-90167000D01*
X136305000Y-95249000D02*
X136305000Y-90171000D01*
X136265000Y-95245000D02*
X136265000Y-93690000D01*
X136265000Y-91730000D02*
X136265000Y-90175000D01*
X136225000Y-95241000D02*
X136225000Y-93690000D01*
X136225000Y-91730000D02*
X136225000Y-90179000D01*
X136185000Y-95235000D02*
X136185000Y-93690000D01*
X136185000Y-91730000D02*
X136185000Y-90185000D01*
X136145000Y-95229000D02*
X136145000Y-93690000D01*
X136145000Y-91730000D02*
X136145000Y-90191000D01*
X136105000Y-95223000D02*
X136105000Y-93690000D01*
X136105000Y-91730000D02*
X136105000Y-90197000D01*
X136065000Y-95216000D02*
X136065000Y-93690000D01*
X136065000Y-91730000D02*
X136065000Y-90204000D01*
X136025000Y-95208000D02*
X136025000Y-93690000D01*
X136025000Y-91730000D02*
X136025000Y-90212000D01*
X135985000Y-95199000D02*
X135985000Y-93690000D01*
X135985000Y-91730000D02*
X135985000Y-90221000D01*
X135945000Y-95190000D02*
X135945000Y-93690000D01*
X135945000Y-91730000D02*
X135945000Y-90230000D01*
X135905000Y-95180000D02*
X135905000Y-93690000D01*
X135905000Y-91730000D02*
X135905000Y-90240000D01*
X135865000Y-95170000D02*
X135865000Y-93690000D01*
X135865000Y-91730000D02*
X135865000Y-90250000D01*
X135824000Y-95158000D02*
X135824000Y-93690000D01*
X135824000Y-91730000D02*
X135824000Y-90262000D01*
X135784000Y-95146000D02*
X135784000Y-93690000D01*
X135784000Y-91730000D02*
X135784000Y-90274000D01*
X135744000Y-95134000D02*
X135744000Y-93690000D01*
X135744000Y-91730000D02*
X135744000Y-90286000D01*
X135704000Y-95120000D02*
X135704000Y-93690000D01*
X135704000Y-91730000D02*
X135704000Y-90300000D01*
X135664000Y-95106000D02*
X135664000Y-93690000D01*
X135664000Y-91730000D02*
X135664000Y-90314000D01*
X135624000Y-95092000D02*
X135624000Y-93690000D01*
X135624000Y-91730000D02*
X135624000Y-90328000D01*
X135584000Y-95076000D02*
X135584000Y-93690000D01*
X135584000Y-91730000D02*
X135584000Y-90344000D01*
X135544000Y-95060000D02*
X135544000Y-93690000D01*
X135544000Y-91730000D02*
X135544000Y-90360000D01*
X135504000Y-95043000D02*
X135504000Y-93690000D01*
X135504000Y-91730000D02*
X135504000Y-90377000D01*
X135464000Y-95025000D02*
X135464000Y-93690000D01*
X135464000Y-91730000D02*
X135464000Y-90395000D01*
X135424000Y-95006000D02*
X135424000Y-93690000D01*
X135424000Y-91730000D02*
X135424000Y-90414000D01*
X135384000Y-94986000D02*
X135384000Y-93690000D01*
X135384000Y-91730000D02*
X135384000Y-90434000D01*
X135344000Y-94966000D02*
X135344000Y-93690000D01*
X135344000Y-91730000D02*
X135344000Y-90454000D01*
X135304000Y-94944000D02*
X135304000Y-93690000D01*
X135304000Y-91730000D02*
X135304000Y-90476000D01*
X135264000Y-94922000D02*
X135264000Y-93690000D01*
X135264000Y-91730000D02*
X135264000Y-90498000D01*
X135224000Y-94899000D02*
X135224000Y-93690000D01*
X135224000Y-91730000D02*
X135224000Y-90521000D01*
X135184000Y-94875000D02*
X135184000Y-93690000D01*
X135184000Y-91730000D02*
X135184000Y-90545000D01*
X135144000Y-94850000D02*
X135144000Y-93690000D01*
X135144000Y-91730000D02*
X135144000Y-90570000D01*
X135104000Y-94823000D02*
X135104000Y-93690000D01*
X135104000Y-91730000D02*
X135104000Y-90597000D01*
X135064000Y-94796000D02*
X135064000Y-93690000D01*
X135064000Y-91730000D02*
X135064000Y-90624000D01*
X135024000Y-94768000D02*
X135024000Y-93690000D01*
X135024000Y-91730000D02*
X135024000Y-90652000D01*
X134984000Y-94738000D02*
X134984000Y-93690000D01*
X134984000Y-91730000D02*
X134984000Y-90682000D01*
X134944000Y-94707000D02*
X134944000Y-93690000D01*
X134944000Y-91730000D02*
X134944000Y-90713000D01*
X134904000Y-94675000D02*
X134904000Y-93690000D01*
X134904000Y-91730000D02*
X134904000Y-90745000D01*
X134864000Y-94642000D02*
X134864000Y-93690000D01*
X134864000Y-91730000D02*
X134864000Y-90778000D01*
X134824000Y-94607000D02*
X134824000Y-93690000D01*
X134824000Y-91730000D02*
X134824000Y-90813000D01*
X134784000Y-94571000D02*
X134784000Y-93690000D01*
X134784000Y-91730000D02*
X134784000Y-90849000D01*
X134744000Y-94533000D02*
X134744000Y-93690000D01*
X134744000Y-91730000D02*
X134744000Y-90887000D01*
X134704000Y-94493000D02*
X134704000Y-93690000D01*
X134704000Y-91730000D02*
X134704000Y-90927000D01*
X134664000Y-94452000D02*
X134664000Y-93690000D01*
X134664000Y-91730000D02*
X134664000Y-90968000D01*
X134624000Y-94409000D02*
X134624000Y-93690000D01*
X134624000Y-91730000D02*
X134624000Y-91011000D01*
X134584000Y-94364000D02*
X134584000Y-93690000D01*
X134584000Y-91730000D02*
X134584000Y-91056000D01*
X134544000Y-94316000D02*
X134544000Y-93690000D01*
X134544000Y-91730000D02*
X134544000Y-91104000D01*
X134504000Y-94266000D02*
X134504000Y-93690000D01*
X134504000Y-91730000D02*
X134504000Y-91154000D01*
X134464000Y-94214000D02*
X134464000Y-93690000D01*
X134464000Y-91730000D02*
X134464000Y-91206000D01*
X134424000Y-94158000D02*
X134424000Y-93690000D01*
X134424000Y-91730000D02*
X134424000Y-91262000D01*
X134384000Y-94100000D02*
X134384000Y-93690000D01*
X134384000Y-91730000D02*
X134384000Y-91320000D01*
X134344000Y-94037000D02*
X134344000Y-93690000D01*
X134344000Y-91730000D02*
X134344000Y-91383000D01*
X134304000Y-93971000D02*
X134304000Y-91449000D01*
X134264000Y-93899000D02*
X134264000Y-91521000D01*
X134224000Y-93822000D02*
X134224000Y-91598000D01*
X134184000Y-93738000D02*
X134184000Y-91682000D01*
X134144000Y-93644000D02*
X134144000Y-91776000D01*
X134104000Y-93539000D02*
X134104000Y-91881000D01*
X134064000Y-93417000D02*
X134064000Y-92003000D01*
X134024000Y-93269000D02*
X134024000Y-92151000D01*
X133984000Y-93064000D02*
X133984000Y-92356000D01*
X139995000Y-92710000D02*
X138795000Y-92710000D01*
X139395000Y-93360000D02*
X139395000Y-92060000D01*
X125640000Y-95960000D02*
X125640000Y-92040000D01*
X128360000Y-95960000D02*
X128360000Y-92040000D01*
X125640000Y-95960000D02*
X126250000Y-95960000D01*
X127750000Y-95960000D02*
X128360000Y-95960000D01*
X125640000Y-92040000D02*
X126250000Y-92040000D01*
X127750000Y-92040000D02*
X128360000Y-92040000D01*
X125640000Y-87070000D02*
X125640000Y-83150000D01*
X128360000Y-87070000D02*
X128360000Y-83150000D01*
X125640000Y-87070000D02*
X126250000Y-87070000D01*
X127750000Y-87070000D02*
X128360000Y-87070000D01*
X125640000Y-83150000D02*
X126250000Y-83150000D01*
X127750000Y-83150000D02*
X128360000Y-83150000D01*
X139140000Y-105500000D02*
X135220000Y-105500000D01*
X139140000Y-102780000D02*
X135220000Y-102780000D01*
X139140000Y-105500000D02*
X139140000Y-104890000D01*
X139140000Y-103390000D02*
X139140000Y-102780000D01*
X135220000Y-105500000D02*
X135220000Y-104890000D01*
X135220000Y-103390000D02*
X135220000Y-102780000D01*
X136816000Y-121614000D02*
X136816000Y-117694000D01*
X139536000Y-121614000D02*
X139536000Y-117694000D01*
X136816000Y-121614000D02*
X137426000Y-121614000D01*
X138926000Y-121614000D02*
X139536000Y-121614000D01*
X136816000Y-117694000D02*
X137426000Y-117694000D01*
X138926000Y-117694000D02*
X139536000Y-117694000D01*
X125513000Y-106120000D02*
X125513000Y-102200000D01*
X128233000Y-106120000D02*
X128233000Y-102200000D01*
X125513000Y-106120000D02*
X126123000Y-106120000D01*
X127623000Y-106120000D02*
X128233000Y-106120000D01*
X125513000Y-102200000D02*
X126123000Y-102200000D01*
X127623000Y-102200000D02*
X128233000Y-102200000D01*
X134545000Y-83730000D02*
X138465000Y-83730000D01*
X134545000Y-86450000D02*
X138465000Y-86450000D01*
X134545000Y-83730000D02*
X134545000Y-84340000D01*
X134545000Y-85840000D02*
X134545000Y-86450000D01*
X138465000Y-83730000D02*
X138465000Y-84340000D01*
X138465000Y-85840000D02*
X138465000Y-86450000D01*
X154395000Y-80570000D02*
X154395000Y-84490000D01*
X151675000Y-80570000D02*
X151675000Y-84490000D01*
X154395000Y-80570000D02*
X153785000Y-80570000D01*
X152285000Y-80570000D02*
X151675000Y-80570000D01*
X154395000Y-84490000D02*
X153785000Y-84490000D01*
X152285000Y-84490000D02*
X151675000Y-84490000D01*
X148650000Y-125790000D02*
X148650000Y-120590000D01*
X143510000Y-125790000D02*
X148650000Y-125790000D01*
X140910000Y-120590000D02*
X148650000Y-120590000D01*
X143510000Y-125790000D02*
X143510000Y-123190000D01*
X143510000Y-123190000D02*
X140910000Y-123190000D01*
X140910000Y-123190000D02*
X140910000Y-120590000D01*
X142240000Y-125790000D02*
X140910000Y-125790000D01*
X140910000Y-125790000D02*
X140910000Y-124460000D01*
X157975000Y-122675000D02*
X160795000Y-122675000D01*
X160795000Y-122675000D02*
X160795000Y-117355000D01*
X160795000Y-117355000D02*
X157975000Y-117355000D01*
X157975000Y-117355000D02*
X157975000Y-122675000D01*
X159385000Y-123815000D02*
X159385000Y-122675000D01*
X159385000Y-116215000D02*
X159385000Y-117355000D01*
X157975000Y-121835000D02*
X160795000Y-121835000D01*
X155715000Y-117355000D02*
X152895000Y-117355000D01*
X152895000Y-117355000D02*
X152895000Y-122675000D01*
X152895000Y-122675000D02*
X155715000Y-122675000D01*
X155715000Y-122675000D02*
X155715000Y-117355000D01*
X154305000Y-116215000D02*
X154305000Y-117355000D01*
X154305000Y-123815000D02*
X154305000Y-122675000D01*
X155715000Y-118195000D02*
X152895000Y-118195000D01*
X116085000Y-91300000D02*
X116085000Y-94120000D01*
X116085000Y-94120000D02*
X121405000Y-94120000D01*
X121405000Y-94120000D02*
X121405000Y-91300000D01*
X121405000Y-91300000D02*
X116085000Y-91300000D01*
X114945000Y-92710000D02*
X116085000Y-92710000D01*
X122545000Y-92710000D02*
X121405000Y-92710000D01*
X116925000Y-91300000D02*
X116925000Y-94120000D01*
X121405000Y-99200000D02*
X121405000Y-96380000D01*
X121405000Y-96380000D02*
X116085000Y-96380000D01*
X116085000Y-96380000D02*
X116085000Y-99200000D01*
X116085000Y-99200000D02*
X121405000Y-99200000D01*
X122545000Y-97790000D02*
X121405000Y-97790000D01*
X114945000Y-97790000D02*
X116085000Y-97790000D01*
X120565000Y-99200000D02*
X120565000Y-96380000D01*
X116085000Y-82410000D02*
X116085000Y-85230000D01*
X116085000Y-85230000D02*
X121405000Y-85230000D01*
X121405000Y-85230000D02*
X121405000Y-82410000D01*
X121405000Y-82410000D02*
X116085000Y-82410000D01*
X114945000Y-83820000D02*
X116085000Y-83820000D01*
X122545000Y-83820000D02*
X121405000Y-83820000D01*
X116925000Y-82410000D02*
X116925000Y-85230000D01*
X121405000Y-90310000D02*
X121405000Y-87490000D01*
X121405000Y-87490000D02*
X116085000Y-87490000D01*
X116085000Y-87490000D02*
X116085000Y-90310000D01*
X116085000Y-90310000D02*
X121405000Y-90310000D01*
X122545000Y-88900000D02*
X121405000Y-88900000D01*
X114945000Y-88900000D02*
X116085000Y-88900000D01*
X120565000Y-90310000D02*
X120565000Y-87490000D01*
X140830000Y-79495000D02*
X143650000Y-79495000D01*
X143650000Y-79495000D02*
X143650000Y-74175000D01*
X143650000Y-74175000D02*
X140830000Y-74175000D01*
X140830000Y-74175000D02*
X140830000Y-79495000D01*
X142240000Y-80635000D02*
X142240000Y-79495000D01*
X142240000Y-73035000D02*
X142240000Y-74175000D01*
X140830000Y-78655000D02*
X143650000Y-78655000D01*
X116085000Y-73520000D02*
X116085000Y-76340000D01*
X116085000Y-76340000D02*
X121405000Y-76340000D01*
X121405000Y-76340000D02*
X121405000Y-73520000D01*
X121405000Y-73520000D02*
X116085000Y-73520000D01*
X114945000Y-74930000D02*
X116085000Y-74930000D01*
X122545000Y-74930000D02*
X121405000Y-74930000D01*
X116925000Y-73520000D02*
X116925000Y-76340000D01*
X121405000Y-81420000D02*
X121405000Y-78600000D01*
X121405000Y-78600000D02*
X116085000Y-78600000D01*
X116085000Y-78600000D02*
X116085000Y-81420000D01*
X116085000Y-81420000D02*
X121405000Y-81420000D01*
X122545000Y-80010000D02*
X121405000Y-80010000D01*
X114945000Y-80010000D02*
X116085000Y-80010000D01*
X120565000Y-81420000D02*
X120565000Y-78600000D01*
X181530000Y-84495000D02*
X181530000Y-74255000D01*
X186171000Y-84495000D02*
X186171000Y-74255000D01*
X181530000Y-84495000D02*
X186171000Y-84495000D01*
X181530000Y-74255000D02*
X186171000Y-74255000D01*
X183040000Y-84495000D02*
X183040000Y-74255000D01*
X181530000Y-81225000D02*
X183040000Y-81225000D01*
X181530000Y-77524000D02*
X183040000Y-77524000D01*
X119440000Y-72450000D02*
X119440000Y-69790000D01*
X116840000Y-72450000D02*
X119440000Y-72450000D01*
X116840000Y-69790000D02*
X119440000Y-69790000D01*
X116840000Y-72450000D02*
X116840000Y-69790000D01*
X115570000Y-72450000D02*
X114240000Y-72450000D01*
X114240000Y-72450000D02*
X114240000Y-71120000D01*
X109160000Y-97850000D02*
X111820000Y-97850000D01*
X109160000Y-92710000D02*
X109160000Y-97850000D01*
X111820000Y-92710000D02*
X111820000Y-97850000D01*
X109160000Y-92710000D02*
X111820000Y-92710000D01*
X109160000Y-91440000D02*
X109160000Y-90110000D01*
X109160000Y-90110000D02*
X110490000Y-90110000D01*
X109160000Y-87690000D02*
X111820000Y-87690000D01*
X109160000Y-82550000D02*
X109160000Y-87690000D01*
X111820000Y-82550000D02*
X111820000Y-87690000D01*
X109160000Y-82550000D02*
X111820000Y-82550000D01*
X109160000Y-81280000D02*
X109160000Y-79950000D01*
X109160000Y-79950000D02*
X110490000Y-79950000D01*
X109160000Y-77530000D02*
X111820000Y-77530000D01*
X109160000Y-72390000D02*
X109160000Y-77530000D01*
X111820000Y-72390000D02*
X111820000Y-77530000D01*
X109160000Y-72390000D02*
X111820000Y-72390000D01*
X109160000Y-71120000D02*
X109160000Y-69790000D01*
X109160000Y-69790000D02*
X110490000Y-69790000D01*
X109160000Y-106740000D02*
X111820000Y-106740000D01*
X109160000Y-104140000D02*
X109160000Y-106740000D01*
X111820000Y-104140000D02*
X111820000Y-106740000D01*
X109160000Y-104140000D02*
X111820000Y-104140000D01*
X109160000Y-102870000D02*
X109160000Y-101540000D01*
X109160000Y-101540000D02*
X110490000Y-101540000D01*
X128330000Y-72450000D02*
X128330000Y-69790000D01*
X125730000Y-72450000D02*
X128330000Y-72450000D01*
X125730000Y-69790000D02*
X128330000Y-69790000D01*
X125730000Y-72450000D02*
X125730000Y-69790000D01*
X124460000Y-72450000D02*
X123130000Y-72450000D01*
X123130000Y-72450000D02*
X123130000Y-71120000D01*
X119610000Y-126000000D02*
X119100000Y-125650000D01*
X122120000Y-125800000D02*
X122380000Y-125800000D01*
X121920000Y-126000000D02*
X122120000Y-125800000D01*
X112520000Y-126000000D02*
X112730000Y-125800000D01*
X112730000Y-125650000D02*
X112730000Y-125800000D01*
X112730000Y-125650000D02*
X119100000Y-125650000D01*
X109630000Y-121040000D02*
X109630000Y-122840000D01*
X109630000Y-115040000D02*
X109630000Y-119740000D01*
X110660000Y-126000000D02*
X110460000Y-125800000D01*
X110660000Y-126000000D02*
X112520000Y-126000000D01*
X121920000Y-126000000D02*
X119610000Y-126000000D01*
X109630000Y-109730000D02*
X109630000Y-113340000D01*
X110080000Y-109730000D02*
X109630000Y-109730000D01*
X123600000Y-109730000D02*
X123600000Y-123740000D01*
X121680000Y-109730000D02*
X123600000Y-109730000D01*
X163135000Y-69790000D02*
X163135000Y-72450000D01*
X165735000Y-69790000D02*
X163135000Y-69790000D01*
X165735000Y-72450000D02*
X163135000Y-72450000D01*
X165735000Y-69790000D02*
X165735000Y-72450000D01*
X167005000Y-69790000D02*
X168335000Y-69790000D01*
X168335000Y-69790000D02*
X168335000Y-71120000D01*
X181530000Y-114135000D02*
X197670000Y-114135000D01*
X181530000Y-119406000D02*
X197670000Y-119406000D01*
X181530000Y-114135000D02*
X181530000Y-119406000D01*
X197670000Y-114135000D02*
X197670000Y-119406000D01*
X187796000Y-114135000D02*
X187796000Y-119406000D01*
X191405000Y-114135000D02*
X191405000Y-119406000D01*
X181530000Y-104864000D02*
X197670000Y-104864000D01*
X181530000Y-110135000D02*
X197670000Y-110135000D01*
X181530000Y-104864000D02*
X181530000Y-110135000D01*
X197670000Y-104864000D02*
X197670000Y-110135000D01*
X187796000Y-104864000D02*
X187796000Y-110135000D01*
X191405000Y-104864000D02*
X191405000Y-110135000D01*
X157705000Y-118155000D02*
X155985000Y-118155000D01*
X155985000Y-118155000D02*
X155985000Y-121875000D01*
X155985000Y-121875000D02*
X157705000Y-121875000D01*
X157705000Y-121875000D02*
X157705000Y-118155000D01*
X156845000Y-117085000D02*
X156845000Y-118155000D01*
X156845000Y-122945000D02*
X156845000Y-121875000D01*
X155433400Y-103514600D02*
X158053400Y-103514600D01*
X158053400Y-103514600D02*
X158053400Y-97094600D01*
X158053400Y-97094600D02*
X155433400Y-97094600D01*
X155433400Y-97094600D02*
X155433400Y-103514600D01*
X156743400Y-104404600D02*
X156743400Y-103514600D01*
X156743400Y-96204600D02*
X156743400Y-97094600D01*
X120605000Y-96110000D02*
X120605000Y-94390000D01*
X120605000Y-94390000D02*
X116885000Y-94390000D01*
X116885000Y-94390000D02*
X116885000Y-96110000D01*
X116885000Y-96110000D02*
X120605000Y-96110000D01*
X121675000Y-95250000D02*
X120605000Y-95250000D01*
X115815000Y-95250000D02*
X116885000Y-95250000D01*
X120605000Y-87220000D02*
X120605000Y-85500000D01*
X120605000Y-85500000D02*
X116885000Y-85500000D01*
X116885000Y-85500000D02*
X116885000Y-87220000D01*
X116885000Y-87220000D02*
X120605000Y-87220000D01*
X121675000Y-86360000D02*
X120605000Y-86360000D01*
X115815000Y-86360000D02*
X116885000Y-86360000D01*
X130135000Y-93126000D02*
X132755000Y-93126000D01*
X132755000Y-93126000D02*
X132755000Y-86706000D01*
X132755000Y-86706000D02*
X130135000Y-86706000D01*
X130135000Y-86706000D02*
X130135000Y-93126000D01*
X131445000Y-94016000D02*
X131445000Y-93126000D01*
X131445000Y-85816000D02*
X131445000Y-86706000D01*
X144740000Y-80045000D02*
X147360000Y-80045000D01*
X147360000Y-80045000D02*
X147360000Y-73625000D01*
X147360000Y-73625000D02*
X144740000Y-73625000D01*
X144740000Y-73625000D02*
X144740000Y-80045000D01*
X146050000Y-80935000D02*
X146050000Y-80045000D01*
X146050000Y-72735000D02*
X146050000Y-73625000D01*
X120605000Y-78330000D02*
X120605000Y-76610000D01*
X120605000Y-76610000D02*
X116885000Y-76610000D01*
X116885000Y-76610000D02*
X116885000Y-78330000D01*
X116885000Y-78330000D02*
X120605000Y-78330000D01*
X121675000Y-77470000D02*
X120605000Y-77470000D01*
X115815000Y-77470000D02*
X116885000Y-77470000D01*
X177835000Y-116880000D02*
X177835000Y-114260000D01*
X177835000Y-114260000D02*
X171415000Y-114260000D01*
X171415000Y-114260000D02*
X171415000Y-116880000D01*
X171415000Y-116880000D02*
X177835000Y-116880000D01*
X178725000Y-115570000D02*
X177835000Y-115570000D01*
X170525000Y-115570000D02*
X171415000Y-115570000D01*
X163790000Y-118780000D02*
X166410000Y-118780000D01*
X166410000Y-118780000D02*
X166410000Y-112360000D01*
X166410000Y-112360000D02*
X163790000Y-112360000D01*
X163790000Y-112360000D02*
X163790000Y-118780000D01*
X165100000Y-119670000D02*
X165100000Y-118780000D01*
X165100000Y-111470000D02*
X165100000Y-112360000D01*
X177835000Y-111800000D02*
X177835000Y-109180000D01*
X177835000Y-109180000D02*
X171415000Y-109180000D01*
X171415000Y-109180000D02*
X171415000Y-111800000D01*
X171415000Y-111800000D02*
X177835000Y-111800000D01*
X178725000Y-110490000D02*
X177835000Y-110490000D01*
X170525000Y-110490000D02*
X171415000Y-110490000D01*
X177730000Y-125685000D02*
X177730000Y-121965000D01*
X177730000Y-121965000D02*
X167710000Y-121965000D01*
X167710000Y-121965000D02*
X167710000Y-125685000D01*
X167710000Y-125685000D02*
X177730000Y-125685000D01*
X178960000Y-123825000D02*
X177730000Y-123825000D01*
X166480000Y-123825000D02*
X167710000Y-123825000D01*
X131842000Y-119468000D02*
X127342000Y-119468000D01*
X133092000Y-123468000D02*
X133092000Y-121968000D01*
X127342000Y-125968000D02*
X131842000Y-125968000D01*
X126092000Y-121968000D02*
X126092000Y-123468000D01*
X130135000Y-78025000D02*
X140375000Y-78025000D01*
X130135000Y-82666000D02*
X140375000Y-82666000D01*
X130135000Y-78025000D02*
X130135000Y-82666000D01*
X140375000Y-78025000D02*
X140375000Y-82666000D01*
X130135000Y-79535000D02*
X140375000Y-79535000D01*
X133405000Y-78025000D02*
X133405000Y-79535000D01*
X137106000Y-78025000D02*
X137106000Y-79535000D01*
X145780000Y-83760000D02*
G75*
G02X143780000Y-83760000I-1000000J0D01*
G01*
X143780000Y-83760000D02*
X142530000Y-83760000D01*
X142530000Y-83760000D02*
X142530000Y-119440000D01*
X142530000Y-119440000D02*
X147030000Y-119440000D01*
X147030000Y-119440000D02*
X147030000Y-83760000D01*
X147030000Y-83760000D02*
X145780000Y-83760000D01*
X118994000Y-100095000D02*
X118994000Y-101355000D01*
X118994000Y-106915000D02*
X118994000Y-105655000D01*
X122754000Y-100095000D02*
X118994000Y-100095000D01*
X125004000Y-106915000D02*
X118994000Y-106915000D01*
X159445000Y-75930000D02*
G75*
G02X159445000Y-73930000I0J1000000D01*
G01*
X159445000Y-73930000D02*
X159445000Y-72680000D01*
X159445000Y-72680000D02*
X149165000Y-72680000D01*
X149165000Y-72680000D02*
X149165000Y-77180000D01*
X149165000Y-77180000D02*
X159445000Y-77180000D01*
X159445000Y-77180000D02*
X159445000Y-75930000D01*
D11*
X127211000Y-106431000D02*
X127211000Y-106456000D01*
X131361000Y-106431000D02*
X131361000Y-106536000D01*
X131361000Y-116581000D02*
X131361000Y-116476000D01*
X127211000Y-116581000D02*
X127211000Y-116476000D01*
X127211000Y-106431000D02*
X131361000Y-106431000D01*
X127211000Y-116581000D02*
X131361000Y-116581000D01*
X127211000Y-106456000D02*
X125836000Y-106456000D01*
D12*
X139050000Y-108460000D02*
X139050000Y-114860000D01*
X134000000Y-108460000D02*
X134000000Y-114860000D01*
X134000000Y-108460000D02*
G75*
G02X139050000Y-108460000I2525000J0D01*
G01*
X134000000Y-114860000D02*
G75*
G03X139050000Y-114860000I2525000J0D01*
G01*
X126250000Y-80680000D02*
X125640000Y-80680000D01*
X128360000Y-80680000D02*
X127750000Y-80680000D01*
X126250000Y-76760000D02*
X125640000Y-76760000D01*
X128360000Y-76760000D02*
X127750000Y-76760000D01*
X125640000Y-76760000D02*
X125640000Y-80680000D01*
X128360000Y-76760000D02*
X128360000Y-80680000D01*
X130559722Y-98007277D02*
G75*
G03X125948420Y-98007000I-2305722J-1179723D01*
G01*
X130559722Y-100366723D02*
G75*
G02X125948420Y-100367000I-2305722J1179723D01*
G01*
X130559722Y-100366723D02*
G75*
G03X130559580Y-98007000I-2305722J1179723D01*
G01*
X128254000Y-96637000D02*
X128254000Y-101737000D01*
X128294000Y-96637000D02*
X128294000Y-98207000D01*
X128294000Y-100167000D02*
X128294000Y-101737000D01*
X128334000Y-96638000D02*
X128334000Y-98207000D01*
X128334000Y-100167000D02*
X128334000Y-101736000D01*
X128374000Y-96639000D02*
X128374000Y-98207000D01*
X128374000Y-100167000D02*
X128374000Y-101735000D01*
X128414000Y-96641000D02*
X128414000Y-98207000D01*
X128414000Y-100167000D02*
X128414000Y-101733000D01*
X128454000Y-96644000D02*
X128454000Y-98207000D01*
X128454000Y-100167000D02*
X128454000Y-101730000D01*
X128494000Y-96648000D02*
X128494000Y-98207000D01*
X128494000Y-100167000D02*
X128494000Y-101726000D01*
X128534000Y-96652000D02*
X128534000Y-98207000D01*
X128534000Y-100167000D02*
X128534000Y-101722000D01*
X128574000Y-96656000D02*
X128574000Y-98207000D01*
X128574000Y-100167000D02*
X128574000Y-101718000D01*
X128614000Y-96662000D02*
X128614000Y-98207000D01*
X128614000Y-100167000D02*
X128614000Y-101712000D01*
X128654000Y-96668000D02*
X128654000Y-98207000D01*
X128654000Y-100167000D02*
X128654000Y-101706000D01*
X128694000Y-96674000D02*
X128694000Y-98207000D01*
X128694000Y-100167000D02*
X128694000Y-101700000D01*
X128734000Y-96681000D02*
X128734000Y-98207000D01*
X128734000Y-100167000D02*
X128734000Y-101693000D01*
X128774000Y-96689000D02*
X128774000Y-98207000D01*
X128774000Y-100167000D02*
X128774000Y-101685000D01*
X128814000Y-96698000D02*
X128814000Y-98207000D01*
X128814000Y-100167000D02*
X128814000Y-101676000D01*
X128854000Y-96707000D02*
X128854000Y-98207000D01*
X128854000Y-100167000D02*
X128854000Y-101667000D01*
X128894000Y-96717000D02*
X128894000Y-98207000D01*
X128894000Y-100167000D02*
X128894000Y-101657000D01*
X128934000Y-96727000D02*
X128934000Y-98207000D01*
X128934000Y-100167000D02*
X128934000Y-101647000D01*
X128975000Y-96739000D02*
X128975000Y-98207000D01*
X128975000Y-100167000D02*
X128975000Y-101635000D01*
X129015000Y-96751000D02*
X129015000Y-98207000D01*
X129015000Y-100167000D02*
X129015000Y-101623000D01*
X129055000Y-96763000D02*
X129055000Y-98207000D01*
X129055000Y-100167000D02*
X129055000Y-101611000D01*
X129095000Y-96777000D02*
X129095000Y-98207000D01*
X129095000Y-100167000D02*
X129095000Y-101597000D01*
X129135000Y-96791000D02*
X129135000Y-98207000D01*
X129135000Y-100167000D02*
X129135000Y-101583000D01*
X129175000Y-96805000D02*
X129175000Y-98207000D01*
X129175000Y-100167000D02*
X129175000Y-101569000D01*
X129215000Y-96821000D02*
X129215000Y-98207000D01*
X129215000Y-100167000D02*
X129215000Y-101553000D01*
X129255000Y-96837000D02*
X129255000Y-98207000D01*
X129255000Y-100167000D02*
X129255000Y-101537000D01*
X129295000Y-96854000D02*
X129295000Y-98207000D01*
X129295000Y-100167000D02*
X129295000Y-101520000D01*
X129335000Y-96872000D02*
X129335000Y-98207000D01*
X129335000Y-100167000D02*
X129335000Y-101502000D01*
X129375000Y-96891000D02*
X129375000Y-98207000D01*
X129375000Y-100167000D02*
X129375000Y-101483000D01*
X129415000Y-96911000D02*
X129415000Y-98207000D01*
X129415000Y-100167000D02*
X129415000Y-101463000D01*
X129455000Y-96931000D02*
X129455000Y-98207000D01*
X129455000Y-100167000D02*
X129455000Y-101443000D01*
X129495000Y-96953000D02*
X129495000Y-98207000D01*
X129495000Y-100167000D02*
X129495000Y-101421000D01*
X129535000Y-96975000D02*
X129535000Y-98207000D01*
X129535000Y-100167000D02*
X129535000Y-101399000D01*
X129575000Y-96998000D02*
X129575000Y-98207000D01*
X129575000Y-100167000D02*
X129575000Y-101376000D01*
X129615000Y-97022000D02*
X129615000Y-98207000D01*
X129615000Y-100167000D02*
X129615000Y-101352000D01*
X129655000Y-97047000D02*
X129655000Y-98207000D01*
X129655000Y-100167000D02*
X129655000Y-101327000D01*
X129695000Y-97074000D02*
X129695000Y-98207000D01*
X129695000Y-100167000D02*
X129695000Y-101300000D01*
X129735000Y-97101000D02*
X129735000Y-98207000D01*
X129735000Y-100167000D02*
X129735000Y-101273000D01*
X129775000Y-97129000D02*
X129775000Y-98207000D01*
X129775000Y-100167000D02*
X129775000Y-101245000D01*
X129815000Y-97159000D02*
X129815000Y-98207000D01*
X129815000Y-100167000D02*
X129815000Y-101215000D01*
X129855000Y-97190000D02*
X129855000Y-98207000D01*
X129855000Y-100167000D02*
X129855000Y-101184000D01*
X129895000Y-97222000D02*
X129895000Y-98207000D01*
X129895000Y-100167000D02*
X129895000Y-101152000D01*
X129935000Y-97255000D02*
X129935000Y-98207000D01*
X129935000Y-100167000D02*
X129935000Y-101119000D01*
X129975000Y-97290000D02*
X129975000Y-98207000D01*
X129975000Y-100167000D02*
X129975000Y-101084000D01*
X130015000Y-97326000D02*
X130015000Y-98207000D01*
X130015000Y-100167000D02*
X130015000Y-101048000D01*
X130055000Y-97364000D02*
X130055000Y-98207000D01*
X130055000Y-100167000D02*
X130055000Y-101010000D01*
X130095000Y-97404000D02*
X130095000Y-98207000D01*
X130095000Y-100167000D02*
X130095000Y-100970000D01*
X130135000Y-97445000D02*
X130135000Y-98207000D01*
X130135000Y-100167000D02*
X130135000Y-100929000D01*
X130175000Y-97488000D02*
X130175000Y-98207000D01*
X130175000Y-100167000D02*
X130175000Y-100886000D01*
X130215000Y-97533000D02*
X130215000Y-98207000D01*
X130215000Y-100167000D02*
X130215000Y-100841000D01*
X130255000Y-97581000D02*
X130255000Y-100793000D01*
X130295000Y-97631000D02*
X130295000Y-100743000D01*
X130335000Y-97683000D02*
X130335000Y-100691000D01*
X130375000Y-97739000D02*
X130375000Y-100635000D01*
X130415000Y-97797000D02*
X130415000Y-100577000D01*
X130455000Y-97860000D02*
X130455000Y-100514000D01*
X130495000Y-97926000D02*
X130495000Y-100448000D01*
X130535000Y-97998000D02*
X130535000Y-100376000D01*
X130575000Y-98075000D02*
X130575000Y-100299000D01*
X130615000Y-98159000D02*
X130615000Y-100215000D01*
X130655000Y-98253000D02*
X130655000Y-100121000D01*
X130695000Y-98358000D02*
X130695000Y-100016000D01*
X130735000Y-98480000D02*
X130735000Y-99894000D01*
X130775000Y-98628000D02*
X130775000Y-99746000D01*
X130815000Y-98833000D02*
X130815000Y-99541000D01*
X125054000Y-99187000D02*
X126254000Y-99187000D01*
X125654000Y-98537000D02*
X125654000Y-99837000D01*
X156540000Y-88915000D02*
X156540000Y-87615000D01*
X157140000Y-88265000D02*
X155940000Y-88265000D01*
X151379000Y-88619000D02*
X151379000Y-87911000D01*
X151419000Y-88824000D02*
X151419000Y-87706000D01*
X151459000Y-88972000D02*
X151459000Y-87558000D01*
X151499000Y-89094000D02*
X151499000Y-87436000D01*
X151539000Y-89199000D02*
X151539000Y-87331000D01*
X151579000Y-89293000D02*
X151579000Y-87237000D01*
X151619000Y-89377000D02*
X151619000Y-87153000D01*
X151659000Y-89454000D02*
X151659000Y-87076000D01*
X151699000Y-89526000D02*
X151699000Y-87004000D01*
X151739000Y-89592000D02*
X151739000Y-86938000D01*
X151779000Y-89655000D02*
X151779000Y-86875000D01*
X151819000Y-89713000D02*
X151819000Y-86817000D01*
X151859000Y-89769000D02*
X151859000Y-86761000D01*
X151899000Y-89821000D02*
X151899000Y-86709000D01*
X151939000Y-89871000D02*
X151939000Y-86659000D01*
X151979000Y-87285000D02*
X151979000Y-86611000D01*
X151979000Y-89919000D02*
X151979000Y-89245000D01*
X152019000Y-87285000D02*
X152019000Y-86566000D01*
X152019000Y-89964000D02*
X152019000Y-89245000D01*
X152059000Y-87285000D02*
X152059000Y-86523000D01*
X152059000Y-90007000D02*
X152059000Y-89245000D01*
X152099000Y-87285000D02*
X152099000Y-86482000D01*
X152099000Y-90048000D02*
X152099000Y-89245000D01*
X152139000Y-87285000D02*
X152139000Y-86442000D01*
X152139000Y-90088000D02*
X152139000Y-89245000D01*
X152179000Y-87285000D02*
X152179000Y-86404000D01*
X152179000Y-90126000D02*
X152179000Y-89245000D01*
X152219000Y-87285000D02*
X152219000Y-86368000D01*
X152219000Y-90162000D02*
X152219000Y-89245000D01*
X152259000Y-87285000D02*
X152259000Y-86333000D01*
X152259000Y-90197000D02*
X152259000Y-89245000D01*
X152299000Y-87285000D02*
X152299000Y-86300000D01*
X152299000Y-90230000D02*
X152299000Y-89245000D01*
X152339000Y-87285000D02*
X152339000Y-86268000D01*
X152339000Y-90262000D02*
X152339000Y-89245000D01*
X152379000Y-87285000D02*
X152379000Y-86237000D01*
X152379000Y-90293000D02*
X152379000Y-89245000D01*
X152419000Y-87285000D02*
X152419000Y-86207000D01*
X152419000Y-90323000D02*
X152419000Y-89245000D01*
X152459000Y-87285000D02*
X152459000Y-86179000D01*
X152459000Y-90351000D02*
X152459000Y-89245000D01*
X152499000Y-87285000D02*
X152499000Y-86152000D01*
X152499000Y-90378000D02*
X152499000Y-89245000D01*
X152539000Y-87285000D02*
X152539000Y-86125000D01*
X152539000Y-90405000D02*
X152539000Y-89245000D01*
X152579000Y-87285000D02*
X152579000Y-86100000D01*
X152579000Y-90430000D02*
X152579000Y-89245000D01*
X152619000Y-87285000D02*
X152619000Y-86076000D01*
X152619000Y-90454000D02*
X152619000Y-89245000D01*
X152659000Y-87285000D02*
X152659000Y-86053000D01*
X152659000Y-90477000D02*
X152659000Y-89245000D01*
X152699000Y-87285000D02*
X152699000Y-86031000D01*
X152699000Y-90499000D02*
X152699000Y-89245000D01*
X152739000Y-87285000D02*
X152739000Y-86009000D01*
X152739000Y-90521000D02*
X152739000Y-89245000D01*
X152779000Y-87285000D02*
X152779000Y-85989000D01*
X152779000Y-90541000D02*
X152779000Y-89245000D01*
X152819000Y-87285000D02*
X152819000Y-85969000D01*
X152819000Y-90561000D02*
X152819000Y-89245000D01*
X152859000Y-87285000D02*
X152859000Y-85950000D01*
X152859000Y-90580000D02*
X152859000Y-89245000D01*
X152899000Y-87285000D02*
X152899000Y-85932000D01*
X152899000Y-90598000D02*
X152899000Y-89245000D01*
X152939000Y-87285000D02*
X152939000Y-85915000D01*
X152939000Y-90615000D02*
X152939000Y-89245000D01*
X152979000Y-87285000D02*
X152979000Y-85899000D01*
X152979000Y-90631000D02*
X152979000Y-89245000D01*
X153019000Y-87285000D02*
X153019000Y-85883000D01*
X153019000Y-90647000D02*
X153019000Y-89245000D01*
X153059000Y-87285000D02*
X153059000Y-85869000D01*
X153059000Y-90661000D02*
X153059000Y-89245000D01*
X153099000Y-87285000D02*
X153099000Y-85855000D01*
X153099000Y-90675000D02*
X153099000Y-89245000D01*
X153139000Y-87285000D02*
X153139000Y-85841000D01*
X153139000Y-90689000D02*
X153139000Y-89245000D01*
X153179000Y-87285000D02*
X153179000Y-85829000D01*
X153179000Y-90701000D02*
X153179000Y-89245000D01*
X153219000Y-87285000D02*
X153219000Y-85817000D01*
X153219000Y-90713000D02*
X153219000Y-89245000D01*
X153260000Y-87285000D02*
X153260000Y-85805000D01*
X153260000Y-90725000D02*
X153260000Y-89245000D01*
X153300000Y-87285000D02*
X153300000Y-85795000D01*
X153300000Y-90735000D02*
X153300000Y-89245000D01*
X153340000Y-87285000D02*
X153340000Y-85785000D01*
X153340000Y-90745000D02*
X153340000Y-89245000D01*
X153380000Y-87285000D02*
X153380000Y-85776000D01*
X153380000Y-90754000D02*
X153380000Y-89245000D01*
X153420000Y-87285000D02*
X153420000Y-85767000D01*
X153420000Y-90763000D02*
X153420000Y-89245000D01*
X153460000Y-87285000D02*
X153460000Y-85759000D01*
X153460000Y-90771000D02*
X153460000Y-89245000D01*
X153500000Y-87285000D02*
X153500000Y-85752000D01*
X153500000Y-90778000D02*
X153500000Y-89245000D01*
X153540000Y-87285000D02*
X153540000Y-85746000D01*
X153540000Y-90784000D02*
X153540000Y-89245000D01*
X153580000Y-87285000D02*
X153580000Y-85740000D01*
X153580000Y-90790000D02*
X153580000Y-89245000D01*
X153620000Y-87285000D02*
X153620000Y-85734000D01*
X153620000Y-90796000D02*
X153620000Y-89245000D01*
X153660000Y-87285000D02*
X153660000Y-85730000D01*
X153660000Y-90800000D02*
X153660000Y-89245000D01*
X153700000Y-87285000D02*
X153700000Y-85726000D01*
X153700000Y-90804000D02*
X153700000Y-89245000D01*
X153740000Y-87285000D02*
X153740000Y-85722000D01*
X153740000Y-90808000D02*
X153740000Y-89245000D01*
X153780000Y-87285000D02*
X153780000Y-85719000D01*
X153780000Y-90811000D02*
X153780000Y-89245000D01*
X153820000Y-87285000D02*
X153820000Y-85717000D01*
X153820000Y-90813000D02*
X153820000Y-89245000D01*
X153860000Y-87285000D02*
X153860000Y-85716000D01*
X153860000Y-90814000D02*
X153860000Y-89245000D01*
X153900000Y-87285000D02*
X153900000Y-85715000D01*
X153900000Y-90815000D02*
X153900000Y-89245000D01*
X153940000Y-90815000D02*
X153940000Y-85715000D01*
X151634278Y-87085277D02*
G75*
G03X151634420Y-89445000I2305722J-1179723D01*
G01*
X151634278Y-87085277D02*
G75*
G02X156245580Y-87085000I2305722J-1179723D01*
G01*
X151634278Y-89444723D02*
G75*
G03X156245580Y-89445000I2305722J1179723D01*
G01*
X112360000Y-106565000D02*
X112360000Y-105955000D01*
X112360000Y-108675000D02*
X112360000Y-108065000D01*
X116280000Y-106565000D02*
X116280000Y-105955000D01*
X116280000Y-108675000D02*
X116280000Y-108065000D01*
X116280000Y-105955000D02*
X112360000Y-105955000D01*
X116280000Y-108675000D02*
X112360000Y-108675000D01*
D11*
X152519142Y-98535380D02*
X152042952Y-98535380D01*
X152042952Y-97535380D01*
X152852476Y-98011571D02*
X153185809Y-98011571D01*
X153328666Y-98535380D02*
X152852476Y-98535380D01*
X152852476Y-97535380D01*
X153328666Y-97535380D01*
X153757238Y-98535380D02*
X153757238Y-97535380D01*
X153995333Y-97535380D01*
X154138190Y-97583000D01*
X154233428Y-97678238D01*
X154281047Y-97773476D01*
X154328666Y-97963952D01*
X154328666Y-98106809D01*
X154281047Y-98297285D01*
X154233428Y-98392523D01*
X154138190Y-98487761D01*
X153995333Y-98535380D01*
X153757238Y-98535380D01*
X170267380Y-91862857D02*
X170267380Y-92339047D01*
X170743571Y-92386666D01*
X170695952Y-92339047D01*
X170648333Y-92243809D01*
X170648333Y-92005714D01*
X170695952Y-91910476D01*
X170743571Y-91862857D01*
X170838809Y-91815238D01*
X171076904Y-91815238D01*
X171172142Y-91862857D01*
X171219761Y-91910476D01*
X171267380Y-92005714D01*
X171267380Y-92243809D01*
X171219761Y-92339047D01*
X171172142Y-92386666D01*
X170600714Y-90958095D02*
X171267380Y-90958095D01*
X170600714Y-91386666D02*
X171124523Y-91386666D01*
X171219761Y-91339047D01*
X171267380Y-91243809D01*
X171267380Y-91100952D01*
X171219761Y-91005714D01*
X171172142Y-90958095D01*
X170743571Y-90148571D02*
X170743571Y-90481904D01*
X171267380Y-90481904D02*
X170267380Y-90481904D01*
X170267380Y-90005714D01*
X136126285Y-98637285D02*
X135697714Y-98637285D01*
X135912000Y-98637285D02*
X135912000Y-97887285D01*
X135840571Y-97994428D01*
X135769142Y-98065857D01*
X135697714Y-98101571D01*
X136590571Y-97887285D02*
X136662000Y-97887285D01*
X136733428Y-97923000D01*
X136769142Y-97958714D01*
X136804857Y-98030142D01*
X136840571Y-98173000D01*
X136840571Y-98351571D01*
X136804857Y-98494428D01*
X136769142Y-98565857D01*
X136733428Y-98601571D01*
X136662000Y-98637285D01*
X136590571Y-98637285D01*
X136519142Y-98601571D01*
X136483428Y-98565857D01*
X136447714Y-98494428D01*
X136412000Y-98351571D01*
X136412000Y-98173000D01*
X136447714Y-98030142D01*
X136483428Y-97958714D01*
X136519142Y-97923000D01*
X136590571Y-97887285D01*
X137304857Y-97887285D02*
X137376285Y-97887285D01*
X137447714Y-97923000D01*
X137483428Y-97958714D01*
X137519142Y-98030142D01*
X137554857Y-98173000D01*
X137554857Y-98351571D01*
X137519142Y-98494428D01*
X137483428Y-98565857D01*
X137447714Y-98601571D01*
X137376285Y-98637285D01*
X137304857Y-98637285D01*
X137233428Y-98601571D01*
X137197714Y-98565857D01*
X137162000Y-98494428D01*
X137126285Y-98351571D01*
X137126285Y-98173000D01*
X137162000Y-98030142D01*
X137197714Y-97958714D01*
X137233428Y-97923000D01*
X137304857Y-97887285D01*
X137876285Y-98137285D02*
X137876285Y-98637285D01*
X137876285Y-98208714D02*
X137912000Y-98173000D01*
X137983428Y-98137285D01*
X138090571Y-98137285D01*
X138162000Y-98173000D01*
X138197714Y-98244428D01*
X138197714Y-98637285D01*
X138804857Y-98244428D02*
X138554857Y-98244428D01*
X138554857Y-98637285D02*
X138554857Y-97887285D01*
X138912000Y-97887285D01*
X151219285Y-103717285D02*
X150790714Y-103717285D01*
X151005000Y-103717285D02*
X151005000Y-102967285D01*
X150933571Y-103074428D01*
X150862142Y-103145857D01*
X150790714Y-103181571D01*
X151683571Y-102967285D02*
X151755000Y-102967285D01*
X151826428Y-103003000D01*
X151862142Y-103038714D01*
X151897857Y-103110142D01*
X151933571Y-103253000D01*
X151933571Y-103431571D01*
X151897857Y-103574428D01*
X151862142Y-103645857D01*
X151826428Y-103681571D01*
X151755000Y-103717285D01*
X151683571Y-103717285D01*
X151612142Y-103681571D01*
X151576428Y-103645857D01*
X151540714Y-103574428D01*
X151505000Y-103431571D01*
X151505000Y-103253000D01*
X151540714Y-103110142D01*
X151576428Y-103038714D01*
X151612142Y-103003000D01*
X151683571Y-102967285D01*
X152397857Y-102967285D02*
X152469285Y-102967285D01*
X152540714Y-103003000D01*
X152576428Y-103038714D01*
X152612142Y-103110142D01*
X152647857Y-103253000D01*
X152647857Y-103431571D01*
X152612142Y-103574428D01*
X152576428Y-103645857D01*
X152540714Y-103681571D01*
X152469285Y-103717285D01*
X152397857Y-103717285D01*
X152326428Y-103681571D01*
X152290714Y-103645857D01*
X152255000Y-103574428D01*
X152219285Y-103431571D01*
X152219285Y-103253000D01*
X152255000Y-103110142D01*
X152290714Y-103038714D01*
X152326428Y-103003000D01*
X152397857Y-102967285D01*
X152969285Y-103217285D02*
X152969285Y-103717285D01*
X152969285Y-103288714D02*
X153005000Y-103253000D01*
X153076428Y-103217285D01*
X153183571Y-103217285D01*
X153255000Y-103253000D01*
X153290714Y-103324428D01*
X153290714Y-103717285D01*
X153897857Y-103324428D02*
X153647857Y-103324428D01*
X153647857Y-103717285D02*
X153647857Y-102967285D01*
X154005000Y-102967285D01*
X137777285Y-77555285D02*
X137348714Y-77555285D01*
X137563000Y-77555285D02*
X137563000Y-76805285D01*
X137491571Y-76912428D01*
X137420142Y-76983857D01*
X137348714Y-77019571D01*
X138241571Y-76805285D02*
X138313000Y-76805285D01*
X138384428Y-76841000D01*
X138420142Y-76876714D01*
X138455857Y-76948142D01*
X138491571Y-77091000D01*
X138491571Y-77269571D01*
X138455857Y-77412428D01*
X138420142Y-77483857D01*
X138384428Y-77519571D01*
X138313000Y-77555285D01*
X138241571Y-77555285D01*
X138170142Y-77519571D01*
X138134428Y-77483857D01*
X138098714Y-77412428D01*
X138063000Y-77269571D01*
X138063000Y-77091000D01*
X138098714Y-76948142D01*
X138134428Y-76876714D01*
X138170142Y-76841000D01*
X138241571Y-76805285D01*
X138955857Y-76805285D02*
X139027285Y-76805285D01*
X139098714Y-76841000D01*
X139134428Y-76876714D01*
X139170142Y-76948142D01*
X139205857Y-77091000D01*
X139205857Y-77269571D01*
X139170142Y-77412428D01*
X139134428Y-77483857D01*
X139098714Y-77519571D01*
X139027285Y-77555285D01*
X138955857Y-77555285D01*
X138884428Y-77519571D01*
X138848714Y-77483857D01*
X138813000Y-77412428D01*
X138777285Y-77269571D01*
X138777285Y-77091000D01*
X138813000Y-76948142D01*
X138848714Y-76876714D01*
X138884428Y-76841000D01*
X138955857Y-76805285D01*
X139848714Y-77055285D02*
X139848714Y-77555285D01*
X139527285Y-77055285D02*
X139527285Y-77448142D01*
X139563000Y-77519571D01*
X139634428Y-77555285D01*
X139741571Y-77555285D01*
X139813000Y-77519571D01*
X139848714Y-77483857D01*
X140455857Y-77162428D02*
X140205857Y-77162428D01*
X140205857Y-77555285D02*
X140205857Y-76805285D01*
X140563000Y-76805285D01*
X154771428Y-110067285D02*
X154342857Y-110067285D01*
X154557142Y-110067285D02*
X154557142Y-109317285D01*
X154485714Y-109424428D01*
X154414285Y-109495857D01*
X154342857Y-109531571D01*
X155235714Y-109317285D02*
X155307142Y-109317285D01*
X155378571Y-109353000D01*
X155414285Y-109388714D01*
X155450000Y-109460142D01*
X155485714Y-109603000D01*
X155485714Y-109781571D01*
X155450000Y-109924428D01*
X155414285Y-109995857D01*
X155378571Y-110031571D01*
X155307142Y-110067285D01*
X155235714Y-110067285D01*
X155164285Y-110031571D01*
X155128571Y-109995857D01*
X155092857Y-109924428D01*
X155057142Y-109781571D01*
X155057142Y-109603000D01*
X155092857Y-109460142D01*
X155128571Y-109388714D01*
X155164285Y-109353000D01*
X155235714Y-109317285D01*
X155807142Y-109567285D02*
X155807142Y-110067285D01*
X155807142Y-109638714D02*
X155842857Y-109603000D01*
X155914285Y-109567285D01*
X156021428Y-109567285D01*
X156092857Y-109603000D01*
X156128571Y-109674428D01*
X156128571Y-110067285D01*
X156735714Y-109674428D02*
X156485714Y-109674428D01*
X156485714Y-110067285D02*
X156485714Y-109317285D01*
X156842857Y-109317285D01*
X135721428Y-89747285D02*
X135292857Y-89747285D01*
X135507142Y-89747285D02*
X135507142Y-88997285D01*
X135435714Y-89104428D01*
X135364285Y-89175857D01*
X135292857Y-89211571D01*
X136185714Y-88997285D02*
X136257142Y-88997285D01*
X136328571Y-89033000D01*
X136364285Y-89068714D01*
X136400000Y-89140142D01*
X136435714Y-89283000D01*
X136435714Y-89461571D01*
X136400000Y-89604428D01*
X136364285Y-89675857D01*
X136328571Y-89711571D01*
X136257142Y-89747285D01*
X136185714Y-89747285D01*
X136114285Y-89711571D01*
X136078571Y-89675857D01*
X136042857Y-89604428D01*
X136007142Y-89461571D01*
X136007142Y-89283000D01*
X136042857Y-89140142D01*
X136078571Y-89068714D01*
X136114285Y-89033000D01*
X136185714Y-88997285D01*
X137078571Y-89247285D02*
X137078571Y-89747285D01*
X136757142Y-89247285D02*
X136757142Y-89640142D01*
X136792857Y-89711571D01*
X136864285Y-89747285D01*
X136971428Y-89747285D01*
X137042857Y-89711571D01*
X137078571Y-89675857D01*
X137685714Y-89354428D02*
X137435714Y-89354428D01*
X137435714Y-89747285D02*
X137435714Y-88997285D01*
X137792857Y-88997285D01*
X129371285Y-94803571D02*
X129371285Y-95232142D01*
X129371285Y-95017857D02*
X128621285Y-95017857D01*
X128728428Y-95089285D01*
X128799857Y-95160714D01*
X128835571Y-95232142D01*
X128621285Y-94339285D02*
X128621285Y-94267857D01*
X128657000Y-94196428D01*
X128692714Y-94160714D01*
X128764142Y-94125000D01*
X128907000Y-94089285D01*
X129085571Y-94089285D01*
X129228428Y-94125000D01*
X129299857Y-94160714D01*
X129335571Y-94196428D01*
X129371285Y-94267857D01*
X129371285Y-94339285D01*
X129335571Y-94410714D01*
X129299857Y-94446428D01*
X129228428Y-94482142D01*
X129085571Y-94517857D01*
X128907000Y-94517857D01*
X128764142Y-94482142D01*
X128692714Y-94446428D01*
X128657000Y-94410714D01*
X128621285Y-94339285D01*
X128871285Y-93767857D02*
X129371285Y-93767857D01*
X128942714Y-93767857D02*
X128907000Y-93732142D01*
X128871285Y-93660714D01*
X128871285Y-93553571D01*
X128907000Y-93482142D01*
X128978428Y-93446428D01*
X129371285Y-93446428D01*
X128978428Y-92839285D02*
X128978428Y-93089285D01*
X129371285Y-93089285D02*
X128621285Y-93089285D01*
X128621285Y-92732142D01*
X129371285Y-85913571D02*
X129371285Y-86342142D01*
X129371285Y-86127857D02*
X128621285Y-86127857D01*
X128728428Y-86199285D01*
X128799857Y-86270714D01*
X128835571Y-86342142D01*
X128621285Y-85449285D02*
X128621285Y-85377857D01*
X128657000Y-85306428D01*
X128692714Y-85270714D01*
X128764142Y-85235000D01*
X128907000Y-85199285D01*
X129085571Y-85199285D01*
X129228428Y-85235000D01*
X129299857Y-85270714D01*
X129335571Y-85306428D01*
X129371285Y-85377857D01*
X129371285Y-85449285D01*
X129335571Y-85520714D01*
X129299857Y-85556428D01*
X129228428Y-85592142D01*
X129085571Y-85627857D01*
X128907000Y-85627857D01*
X128764142Y-85592142D01*
X128692714Y-85556428D01*
X128657000Y-85520714D01*
X128621285Y-85449285D01*
X128871285Y-84877857D02*
X129371285Y-84877857D01*
X128942714Y-84877857D02*
X128907000Y-84842142D01*
X128871285Y-84770714D01*
X128871285Y-84663571D01*
X128907000Y-84592142D01*
X128978428Y-84556428D01*
X129371285Y-84556428D01*
X128978428Y-83949285D02*
X128978428Y-84199285D01*
X129371285Y-84199285D02*
X128621285Y-84199285D01*
X128621285Y-83842142D01*
X133772714Y-105245142D02*
X133737000Y-105209428D01*
X133701285Y-105138000D01*
X133701285Y-104959428D01*
X133737000Y-104888000D01*
X133772714Y-104852285D01*
X133844142Y-104816571D01*
X133915571Y-104816571D01*
X134022714Y-104852285D01*
X134451285Y-105280857D01*
X134451285Y-104816571D01*
X133772714Y-104530857D02*
X133737000Y-104495142D01*
X133701285Y-104423714D01*
X133701285Y-104245142D01*
X133737000Y-104173714D01*
X133772714Y-104138000D01*
X133844142Y-104102285D01*
X133915571Y-104102285D01*
X134022714Y-104138000D01*
X134451285Y-104566571D01*
X134451285Y-104102285D01*
X133951285Y-103780857D02*
X134701285Y-103780857D01*
X133987000Y-103780857D02*
X133951285Y-103709428D01*
X133951285Y-103566571D01*
X133987000Y-103495142D01*
X134022714Y-103459428D01*
X134094142Y-103423714D01*
X134308428Y-103423714D01*
X134379857Y-103459428D01*
X134415571Y-103495142D01*
X134451285Y-103566571D01*
X134451285Y-103709428D01*
X134415571Y-103780857D01*
X134058428Y-102852285D02*
X134058428Y-103102285D01*
X134451285Y-103102285D02*
X133701285Y-103102285D01*
X133701285Y-102745142D01*
X135550714Y-120886142D02*
X135515000Y-120850428D01*
X135479285Y-120779000D01*
X135479285Y-120600428D01*
X135515000Y-120529000D01*
X135550714Y-120493285D01*
X135622142Y-120457571D01*
X135693571Y-120457571D01*
X135800714Y-120493285D01*
X136229285Y-120921857D01*
X136229285Y-120457571D01*
X135550714Y-120171857D02*
X135515000Y-120136142D01*
X135479285Y-120064714D01*
X135479285Y-119886142D01*
X135515000Y-119814714D01*
X135550714Y-119779000D01*
X135622142Y-119743285D01*
X135693571Y-119743285D01*
X135800714Y-119779000D01*
X136229285Y-120207571D01*
X136229285Y-119743285D01*
X135729285Y-119421857D02*
X136479285Y-119421857D01*
X135765000Y-119421857D02*
X135729285Y-119350428D01*
X135729285Y-119207571D01*
X135765000Y-119136142D01*
X135800714Y-119100428D01*
X135872142Y-119064714D01*
X136086428Y-119064714D01*
X136157857Y-119100428D01*
X136193571Y-119136142D01*
X136229285Y-119207571D01*
X136229285Y-119350428D01*
X136193571Y-119421857D01*
X135836428Y-118493285D02*
X135836428Y-118743285D01*
X136229285Y-118743285D02*
X135479285Y-118743285D01*
X135479285Y-118386142D01*
X124620142Y-104802857D02*
X124667761Y-104850476D01*
X124715380Y-104993333D01*
X124715380Y-105088571D01*
X124667761Y-105231428D01*
X124572523Y-105326666D01*
X124477285Y-105374285D01*
X124286809Y-105421904D01*
X124143952Y-105421904D01*
X123953476Y-105374285D01*
X123858238Y-105326666D01*
X123763000Y-105231428D01*
X123715380Y-105088571D01*
X123715380Y-104993333D01*
X123763000Y-104850476D01*
X123810619Y-104802857D01*
X124715380Y-103850476D02*
X124715380Y-104421904D01*
X124715380Y-104136190D02*
X123715380Y-104136190D01*
X123858238Y-104231428D01*
X123953476Y-104326666D01*
X124001095Y-104421904D01*
X123810619Y-103469523D02*
X123763000Y-103421904D01*
X123715380Y-103326666D01*
X123715380Y-103088571D01*
X123763000Y-102993333D01*
X123810619Y-102945714D01*
X123905857Y-102898095D01*
X124001095Y-102898095D01*
X124143952Y-102945714D01*
X124715380Y-103517142D01*
X124715380Y-102898095D01*
X129244285Y-105300714D02*
X129244285Y-105729285D01*
X129244285Y-105515000D02*
X128494285Y-105515000D01*
X128601428Y-105586428D01*
X128672857Y-105657857D01*
X128708571Y-105729285D01*
X128494285Y-104836428D02*
X128494285Y-104765000D01*
X128530000Y-104693571D01*
X128565714Y-104657857D01*
X128637142Y-104622142D01*
X128780000Y-104586428D01*
X128958571Y-104586428D01*
X129101428Y-104622142D01*
X129172857Y-104657857D01*
X129208571Y-104693571D01*
X129244285Y-104765000D01*
X129244285Y-104836428D01*
X129208571Y-104907857D01*
X129172857Y-104943571D01*
X129101428Y-104979285D01*
X128958571Y-105015000D01*
X128780000Y-105015000D01*
X128637142Y-104979285D01*
X128565714Y-104943571D01*
X128530000Y-104907857D01*
X128494285Y-104836428D01*
X128494285Y-104122142D02*
X128494285Y-104050714D01*
X128530000Y-103979285D01*
X128565714Y-103943571D01*
X128637142Y-103907857D01*
X128780000Y-103872142D01*
X128958571Y-103872142D01*
X129101428Y-103907857D01*
X129172857Y-103943571D01*
X129208571Y-103979285D01*
X129244285Y-104050714D01*
X129244285Y-104122142D01*
X129208571Y-104193571D01*
X129172857Y-104229285D01*
X129101428Y-104265000D01*
X128958571Y-104300714D01*
X128780000Y-104300714D01*
X128637142Y-104265000D01*
X128565714Y-104229285D01*
X128530000Y-104193571D01*
X128494285Y-104122142D01*
X128744285Y-103550714D02*
X129244285Y-103550714D01*
X128815714Y-103550714D02*
X128780000Y-103515000D01*
X128744285Y-103443571D01*
X128744285Y-103336428D01*
X128780000Y-103265000D01*
X128851428Y-103229285D01*
X129244285Y-103229285D01*
X128851428Y-102622142D02*
X128851428Y-102872142D01*
X129244285Y-102872142D02*
X128494285Y-102872142D01*
X128494285Y-102515000D01*
X135344285Y-87461285D02*
X134915714Y-87461285D01*
X135130000Y-87461285D02*
X135130000Y-86711285D01*
X135058571Y-86818428D01*
X134987142Y-86889857D01*
X134915714Y-86925571D01*
X135808571Y-86711285D02*
X135880000Y-86711285D01*
X135951428Y-86747000D01*
X135987142Y-86782714D01*
X136022857Y-86854142D01*
X136058571Y-86997000D01*
X136058571Y-87175571D01*
X136022857Y-87318428D01*
X135987142Y-87389857D01*
X135951428Y-87425571D01*
X135880000Y-87461285D01*
X135808571Y-87461285D01*
X135737142Y-87425571D01*
X135701428Y-87389857D01*
X135665714Y-87318428D01*
X135630000Y-87175571D01*
X135630000Y-86997000D01*
X135665714Y-86854142D01*
X135701428Y-86782714D01*
X135737142Y-86747000D01*
X135808571Y-86711285D01*
X136522857Y-86711285D02*
X136594285Y-86711285D01*
X136665714Y-86747000D01*
X136701428Y-86782714D01*
X136737142Y-86854142D01*
X136772857Y-86997000D01*
X136772857Y-87175571D01*
X136737142Y-87318428D01*
X136701428Y-87389857D01*
X136665714Y-87425571D01*
X136594285Y-87461285D01*
X136522857Y-87461285D01*
X136451428Y-87425571D01*
X136415714Y-87389857D01*
X136380000Y-87318428D01*
X136344285Y-87175571D01*
X136344285Y-86997000D01*
X136380000Y-86854142D01*
X136415714Y-86782714D01*
X136451428Y-86747000D01*
X136522857Y-86711285D01*
X137094285Y-86961285D02*
X137094285Y-87461285D01*
X137094285Y-87032714D02*
X137130000Y-86997000D01*
X137201428Y-86961285D01*
X137308571Y-86961285D01*
X137380000Y-86997000D01*
X137415714Y-87068428D01*
X137415714Y-87461285D01*
X138022857Y-87068428D02*
X137772857Y-87068428D01*
X137772857Y-87461285D02*
X137772857Y-86711285D01*
X138130000Y-86711285D01*
X155406285Y-83690714D02*
X155406285Y-84119285D01*
X155406285Y-83905000D02*
X154656285Y-83905000D01*
X154763428Y-83976428D01*
X154834857Y-84047857D01*
X154870571Y-84119285D01*
X154656285Y-83226428D02*
X154656285Y-83155000D01*
X154692000Y-83083571D01*
X154727714Y-83047857D01*
X154799142Y-83012142D01*
X154942000Y-82976428D01*
X155120571Y-82976428D01*
X155263428Y-83012142D01*
X155334857Y-83047857D01*
X155370571Y-83083571D01*
X155406285Y-83155000D01*
X155406285Y-83226428D01*
X155370571Y-83297857D01*
X155334857Y-83333571D01*
X155263428Y-83369285D01*
X155120571Y-83405000D01*
X154942000Y-83405000D01*
X154799142Y-83369285D01*
X154727714Y-83333571D01*
X154692000Y-83297857D01*
X154656285Y-83226428D01*
X154656285Y-82512142D02*
X154656285Y-82440714D01*
X154692000Y-82369285D01*
X154727714Y-82333571D01*
X154799142Y-82297857D01*
X154942000Y-82262142D01*
X155120571Y-82262142D01*
X155263428Y-82297857D01*
X155334857Y-82333571D01*
X155370571Y-82369285D01*
X155406285Y-82440714D01*
X155406285Y-82512142D01*
X155370571Y-82583571D01*
X155334857Y-82619285D01*
X155263428Y-82655000D01*
X155120571Y-82690714D01*
X154942000Y-82690714D01*
X154799142Y-82655000D01*
X154727714Y-82619285D01*
X154692000Y-82583571D01*
X154656285Y-82512142D01*
X154906285Y-81940714D02*
X155406285Y-81940714D01*
X154977714Y-81940714D02*
X154942000Y-81905000D01*
X154906285Y-81833571D01*
X154906285Y-81726428D01*
X154942000Y-81655000D01*
X155013428Y-81619285D01*
X155406285Y-81619285D01*
X155013428Y-81012142D02*
X155013428Y-81262142D01*
X155406285Y-81262142D02*
X154656285Y-81262142D01*
X154656285Y-80905000D01*
X150439380Y-124166190D02*
X149439380Y-124166190D01*
X150391761Y-123737619D02*
X150439380Y-123594761D01*
X150439380Y-123356666D01*
X150391761Y-123261428D01*
X150344142Y-123213809D01*
X150248904Y-123166190D01*
X150153666Y-123166190D01*
X150058428Y-123213809D01*
X150010809Y-123261428D01*
X149963190Y-123356666D01*
X149915571Y-123547142D01*
X149867952Y-123642380D01*
X149820333Y-123690000D01*
X149725095Y-123737619D01*
X149629857Y-123737619D01*
X149534619Y-123690000D01*
X149487000Y-123642380D01*
X149439380Y-123547142D01*
X149439380Y-123309047D01*
X149487000Y-123166190D01*
X150439380Y-122737619D02*
X149439380Y-122737619D01*
X149439380Y-122356666D01*
X149487000Y-122261428D01*
X149534619Y-122213809D01*
X149629857Y-122166190D01*
X149772714Y-122166190D01*
X149867952Y-122213809D01*
X149915571Y-122261428D01*
X149963190Y-122356666D01*
X149963190Y-122737619D01*
X159837380Y-120753095D02*
X158837380Y-120753095D01*
X158837380Y-120515000D01*
X158885000Y-120372142D01*
X158980238Y-120276904D01*
X159075476Y-120229285D01*
X159265952Y-120181666D01*
X159408809Y-120181666D01*
X159599285Y-120229285D01*
X159694523Y-120276904D01*
X159789761Y-120372142D01*
X159837380Y-120515000D01*
X159837380Y-120753095D01*
X159837380Y-119229285D02*
X159837380Y-119800714D01*
X159837380Y-119515000D02*
X158837380Y-119515000D01*
X158980238Y-119610238D01*
X159075476Y-119705476D01*
X159123095Y-119800714D01*
X154757380Y-120753095D02*
X153757380Y-120753095D01*
X153757380Y-120515000D01*
X153805000Y-120372142D01*
X153900238Y-120276904D01*
X153995476Y-120229285D01*
X154185952Y-120181666D01*
X154328809Y-120181666D01*
X154519285Y-120229285D01*
X154614523Y-120276904D01*
X154709761Y-120372142D01*
X154757380Y-120515000D01*
X154757380Y-120753095D01*
X153852619Y-119800714D02*
X153805000Y-119753095D01*
X153757380Y-119657857D01*
X153757380Y-119419761D01*
X153805000Y-119324523D01*
X153852619Y-119276904D01*
X153947857Y-119229285D01*
X154043095Y-119229285D01*
X154185952Y-119276904D01*
X154757380Y-119848333D01*
X154757380Y-119229285D01*
X118006904Y-93162380D02*
X118006904Y-92162380D01*
X118245000Y-92162380D01*
X118387857Y-92210000D01*
X118483095Y-92305238D01*
X118530714Y-92400476D01*
X118578333Y-92590952D01*
X118578333Y-92733809D01*
X118530714Y-92924285D01*
X118483095Y-93019523D01*
X118387857Y-93114761D01*
X118245000Y-93162380D01*
X118006904Y-93162380D01*
X119435476Y-92495714D02*
X119435476Y-93162380D01*
X119197380Y-92114761D02*
X118959285Y-92829047D01*
X119578333Y-92829047D01*
X118006904Y-98242380D02*
X118006904Y-97242380D01*
X118245000Y-97242380D01*
X118387857Y-97290000D01*
X118483095Y-97385238D01*
X118530714Y-97480476D01*
X118578333Y-97670952D01*
X118578333Y-97813809D01*
X118530714Y-98004285D01*
X118483095Y-98099523D01*
X118387857Y-98194761D01*
X118245000Y-98242380D01*
X118006904Y-98242380D01*
X119483095Y-97242380D02*
X119006904Y-97242380D01*
X118959285Y-97718571D01*
X119006904Y-97670952D01*
X119102142Y-97623333D01*
X119340238Y-97623333D01*
X119435476Y-97670952D01*
X119483095Y-97718571D01*
X119530714Y-97813809D01*
X119530714Y-98051904D01*
X119483095Y-98147142D01*
X119435476Y-98194761D01*
X119340238Y-98242380D01*
X119102142Y-98242380D01*
X119006904Y-98194761D01*
X118959285Y-98147142D01*
X118006904Y-84272380D02*
X118006904Y-83272380D01*
X118245000Y-83272380D01*
X118387857Y-83320000D01*
X118483095Y-83415238D01*
X118530714Y-83510476D01*
X118578333Y-83700952D01*
X118578333Y-83843809D01*
X118530714Y-84034285D01*
X118483095Y-84129523D01*
X118387857Y-84224761D01*
X118245000Y-84272380D01*
X118006904Y-84272380D01*
X119435476Y-83272380D02*
X119245000Y-83272380D01*
X119149761Y-83320000D01*
X119102142Y-83367619D01*
X119006904Y-83510476D01*
X118959285Y-83700952D01*
X118959285Y-84081904D01*
X119006904Y-84177142D01*
X119054523Y-84224761D01*
X119149761Y-84272380D01*
X119340238Y-84272380D01*
X119435476Y-84224761D01*
X119483095Y-84177142D01*
X119530714Y-84081904D01*
X119530714Y-83843809D01*
X119483095Y-83748571D01*
X119435476Y-83700952D01*
X119340238Y-83653333D01*
X119149761Y-83653333D01*
X119054523Y-83700952D01*
X119006904Y-83748571D01*
X118959285Y-83843809D01*
X118006904Y-89352380D02*
X118006904Y-88352380D01*
X118245000Y-88352380D01*
X118387857Y-88400000D01*
X118483095Y-88495238D01*
X118530714Y-88590476D01*
X118578333Y-88780952D01*
X118578333Y-88923809D01*
X118530714Y-89114285D01*
X118483095Y-89209523D01*
X118387857Y-89304761D01*
X118245000Y-89352380D01*
X118006904Y-89352380D01*
X118911666Y-88352380D02*
X119578333Y-88352380D01*
X119149761Y-89352380D01*
X142692380Y-77573095D02*
X141692380Y-77573095D01*
X141692380Y-77335000D01*
X141740000Y-77192142D01*
X141835238Y-77096904D01*
X141930476Y-77049285D01*
X142120952Y-77001666D01*
X142263809Y-77001666D01*
X142454285Y-77049285D01*
X142549523Y-77096904D01*
X142644761Y-77192142D01*
X142692380Y-77335000D01*
X142692380Y-77573095D01*
X142120952Y-76430238D02*
X142073333Y-76525476D01*
X142025714Y-76573095D01*
X141930476Y-76620714D01*
X141882857Y-76620714D01*
X141787619Y-76573095D01*
X141740000Y-76525476D01*
X141692380Y-76430238D01*
X141692380Y-76239761D01*
X141740000Y-76144523D01*
X141787619Y-76096904D01*
X141882857Y-76049285D01*
X141930476Y-76049285D01*
X142025714Y-76096904D01*
X142073333Y-76144523D01*
X142120952Y-76239761D01*
X142120952Y-76430238D01*
X142168571Y-76525476D01*
X142216190Y-76573095D01*
X142311428Y-76620714D01*
X142501904Y-76620714D01*
X142597142Y-76573095D01*
X142644761Y-76525476D01*
X142692380Y-76430238D01*
X142692380Y-76239761D01*
X142644761Y-76144523D01*
X142597142Y-76096904D01*
X142501904Y-76049285D01*
X142311428Y-76049285D01*
X142216190Y-76096904D01*
X142168571Y-76144523D01*
X142120952Y-76239761D01*
X118006904Y-75382380D02*
X118006904Y-74382380D01*
X118245000Y-74382380D01*
X118387857Y-74430000D01*
X118483095Y-74525238D01*
X118530714Y-74620476D01*
X118578333Y-74810952D01*
X118578333Y-74953809D01*
X118530714Y-75144285D01*
X118483095Y-75239523D01*
X118387857Y-75334761D01*
X118245000Y-75382380D01*
X118006904Y-75382380D01*
X119054523Y-75382380D02*
X119245000Y-75382380D01*
X119340238Y-75334761D01*
X119387857Y-75287142D01*
X119483095Y-75144285D01*
X119530714Y-74953809D01*
X119530714Y-74572857D01*
X119483095Y-74477619D01*
X119435476Y-74430000D01*
X119340238Y-74382380D01*
X119149761Y-74382380D01*
X119054523Y-74430000D01*
X119006904Y-74477619D01*
X118959285Y-74572857D01*
X118959285Y-74810952D01*
X119006904Y-74906190D01*
X119054523Y-74953809D01*
X119149761Y-75001428D01*
X119340238Y-75001428D01*
X119435476Y-74953809D01*
X119483095Y-74906190D01*
X119530714Y-74810952D01*
X117530714Y-80462380D02*
X117530714Y-79462380D01*
X117768809Y-79462380D01*
X117911666Y-79510000D01*
X118006904Y-79605238D01*
X118054523Y-79700476D01*
X118102142Y-79890952D01*
X118102142Y-80033809D01*
X118054523Y-80224285D01*
X118006904Y-80319523D01*
X117911666Y-80414761D01*
X117768809Y-80462380D01*
X117530714Y-80462380D01*
X119054523Y-80462380D02*
X118483095Y-80462380D01*
X118768809Y-80462380D02*
X118768809Y-79462380D01*
X118673571Y-79605238D01*
X118578333Y-79700476D01*
X118483095Y-79748095D01*
X119673571Y-79462380D02*
X119768809Y-79462380D01*
X119864047Y-79510000D01*
X119911666Y-79557619D01*
X119959285Y-79652857D01*
X120006904Y-79843333D01*
X120006904Y-80081428D01*
X119959285Y-80271904D01*
X119911666Y-80367142D01*
X119864047Y-80414761D01*
X119768809Y-80462380D01*
X119673571Y-80462380D01*
X119578333Y-80414761D01*
X119530714Y-80367142D01*
X119483095Y-80271904D01*
X119435476Y-80081428D01*
X119435476Y-79843333D01*
X119483095Y-79652857D01*
X119530714Y-79557619D01*
X119578333Y-79510000D01*
X119673571Y-79462380D01*
X187777380Y-80589285D02*
X186777380Y-80589285D01*
X186777380Y-80351190D01*
X186825000Y-80208333D01*
X186920238Y-80113095D01*
X187015476Y-80065476D01*
X187205952Y-80017857D01*
X187348809Y-80017857D01*
X187539285Y-80065476D01*
X187634523Y-80113095D01*
X187729761Y-80208333D01*
X187777380Y-80351190D01*
X187777380Y-80589285D01*
X187777380Y-79065476D02*
X187777380Y-79636904D01*
X187777380Y-79351190D02*
X186777380Y-79351190D01*
X186920238Y-79446428D01*
X187015476Y-79541666D01*
X187063095Y-79636904D01*
X187777380Y-78113095D02*
X187777380Y-78684523D01*
X187777380Y-78398809D02*
X186777380Y-78398809D01*
X186920238Y-78494047D01*
X187015476Y-78589285D01*
X187063095Y-78684523D01*
X121384000Y-69625714D02*
X120884000Y-69625714D01*
X121205428Y-68875714D01*
X120598285Y-69161428D02*
X120026857Y-69161428D01*
X119705428Y-69554285D02*
X119669714Y-69590000D01*
X119598285Y-69625714D01*
X119419714Y-69625714D01*
X119348285Y-69590000D01*
X119312571Y-69554285D01*
X119276857Y-69482857D01*
X119276857Y-69411428D01*
X119312571Y-69304285D01*
X119741142Y-68875714D01*
X119276857Y-68875714D01*
X118598285Y-69625714D02*
X118955428Y-69625714D01*
X118991142Y-69268571D01*
X118955428Y-69304285D01*
X118884000Y-69340000D01*
X118705428Y-69340000D01*
X118634000Y-69304285D01*
X118598285Y-69268571D01*
X118562571Y-69197142D01*
X118562571Y-69018571D01*
X118598285Y-68947142D01*
X118634000Y-68911428D01*
X118705428Y-68875714D01*
X118884000Y-68875714D01*
X118955428Y-68911428D01*
X118991142Y-68947142D01*
X118348285Y-69625714D02*
X118098285Y-68875714D01*
X117848285Y-69625714D01*
X108460000Y-92694285D02*
X108460000Y-93051428D01*
X108245714Y-92622857D02*
X108995714Y-92872857D01*
X108245714Y-93122857D01*
X108245714Y-93372857D02*
X108995714Y-93372857D01*
X108995714Y-93551428D01*
X108960000Y-93658571D01*
X108888571Y-93730000D01*
X108817142Y-93765714D01*
X108674285Y-93801428D01*
X108567142Y-93801428D01*
X108424285Y-93765714D01*
X108352857Y-93730000D01*
X108281428Y-93658571D01*
X108245714Y-93551428D01*
X108245714Y-93372857D01*
X108317142Y-94551428D02*
X108281428Y-94515714D01*
X108245714Y-94408571D01*
X108245714Y-94337142D01*
X108281428Y-94230000D01*
X108352857Y-94158571D01*
X108424285Y-94122857D01*
X108567142Y-94087142D01*
X108674285Y-94087142D01*
X108817142Y-94122857D01*
X108888571Y-94158571D01*
X108960000Y-94230000D01*
X108995714Y-94337142D01*
X108995714Y-94408571D01*
X108960000Y-94515714D01*
X108924285Y-94551428D01*
X108924285Y-94837142D02*
X108960000Y-94872857D01*
X108995714Y-94944285D01*
X108995714Y-95122857D01*
X108960000Y-95194285D01*
X108924285Y-95230000D01*
X108852857Y-95265714D01*
X108781428Y-95265714D01*
X108674285Y-95230000D01*
X108245714Y-94801428D01*
X108245714Y-95265714D01*
X108460000Y-82534285D02*
X108460000Y-82891428D01*
X108245714Y-82462857D02*
X108995714Y-82712857D01*
X108245714Y-82962857D01*
X108245714Y-83212857D02*
X108995714Y-83212857D01*
X108995714Y-83391428D01*
X108960000Y-83498571D01*
X108888571Y-83570000D01*
X108817142Y-83605714D01*
X108674285Y-83641428D01*
X108567142Y-83641428D01*
X108424285Y-83605714D01*
X108352857Y-83570000D01*
X108281428Y-83498571D01*
X108245714Y-83391428D01*
X108245714Y-83212857D01*
X108317142Y-84391428D02*
X108281428Y-84355714D01*
X108245714Y-84248571D01*
X108245714Y-84177142D01*
X108281428Y-84070000D01*
X108352857Y-83998571D01*
X108424285Y-83962857D01*
X108567142Y-83927142D01*
X108674285Y-83927142D01*
X108817142Y-83962857D01*
X108888571Y-83998571D01*
X108960000Y-84070000D01*
X108995714Y-84177142D01*
X108995714Y-84248571D01*
X108960000Y-84355714D01*
X108924285Y-84391428D01*
X108245714Y-85105714D02*
X108245714Y-84677142D01*
X108245714Y-84891428D02*
X108995714Y-84891428D01*
X108888571Y-84820000D01*
X108817142Y-84748571D01*
X108781428Y-84677142D01*
X108460000Y-72374285D02*
X108460000Y-72731428D01*
X108245714Y-72302857D02*
X108995714Y-72552857D01*
X108245714Y-72802857D01*
X108245714Y-73052857D02*
X108995714Y-73052857D01*
X108995714Y-73231428D01*
X108960000Y-73338571D01*
X108888571Y-73410000D01*
X108817142Y-73445714D01*
X108674285Y-73481428D01*
X108567142Y-73481428D01*
X108424285Y-73445714D01*
X108352857Y-73410000D01*
X108281428Y-73338571D01*
X108245714Y-73231428D01*
X108245714Y-73052857D01*
X108317142Y-74231428D02*
X108281428Y-74195714D01*
X108245714Y-74088571D01*
X108245714Y-74017142D01*
X108281428Y-73910000D01*
X108352857Y-73838571D01*
X108424285Y-73802857D01*
X108567142Y-73767142D01*
X108674285Y-73767142D01*
X108817142Y-73802857D01*
X108888571Y-73838571D01*
X108960000Y-73910000D01*
X108995714Y-74017142D01*
X108995714Y-74088571D01*
X108960000Y-74195714D01*
X108924285Y-74231428D01*
X108995714Y-74695714D02*
X108995714Y-74767142D01*
X108960000Y-74838571D01*
X108924285Y-74874285D01*
X108852857Y-74910000D01*
X108710000Y-74945714D01*
X108531428Y-74945714D01*
X108388571Y-74910000D01*
X108317142Y-74874285D01*
X108281428Y-74838571D01*
X108245714Y-74767142D01*
X108245714Y-74695714D01*
X108281428Y-74624285D01*
X108317142Y-74588571D01*
X108388571Y-74552857D01*
X108531428Y-74517142D01*
X108710000Y-74517142D01*
X108852857Y-74552857D01*
X108924285Y-74588571D01*
X108960000Y-74624285D01*
X108995714Y-74695714D01*
X108281428Y-102479285D02*
X108245714Y-102586428D01*
X108245714Y-102765000D01*
X108281428Y-102836428D01*
X108317142Y-102872142D01*
X108388571Y-102907857D01*
X108460000Y-102907857D01*
X108531428Y-102872142D01*
X108567142Y-102836428D01*
X108602857Y-102765000D01*
X108638571Y-102622142D01*
X108674285Y-102550714D01*
X108710000Y-102515000D01*
X108781428Y-102479285D01*
X108852857Y-102479285D01*
X108924285Y-102515000D01*
X108960000Y-102550714D01*
X108995714Y-102622142D01*
X108995714Y-102800714D01*
X108960000Y-102907857D01*
X108745714Y-103157857D02*
X108245714Y-103300714D01*
X108602857Y-103443571D01*
X108245714Y-103586428D01*
X108745714Y-103729285D01*
X108245714Y-104015000D02*
X108745714Y-104015000D01*
X108995714Y-104015000D02*
X108960000Y-103979285D01*
X108924285Y-104015000D01*
X108960000Y-104050714D01*
X108995714Y-104015000D01*
X108924285Y-104015000D01*
X108745714Y-104265000D02*
X108745714Y-104550714D01*
X108995714Y-104372142D02*
X108352857Y-104372142D01*
X108281428Y-104407857D01*
X108245714Y-104479285D01*
X108245714Y-104550714D01*
X108281428Y-105122142D02*
X108245714Y-105050714D01*
X108245714Y-104907857D01*
X108281428Y-104836428D01*
X108317142Y-104800714D01*
X108388571Y-104765000D01*
X108602857Y-104765000D01*
X108674285Y-104800714D01*
X108710000Y-104836428D01*
X108745714Y-104907857D01*
X108745714Y-105050714D01*
X108710000Y-105122142D01*
X108245714Y-105443571D02*
X108995714Y-105443571D01*
X108245714Y-105765000D02*
X108638571Y-105765000D01*
X108710000Y-105729285D01*
X108745714Y-105657857D01*
X108745714Y-105550714D01*
X108710000Y-105479285D01*
X108674285Y-105443571D01*
X128480285Y-68875714D02*
X128908857Y-68875714D01*
X128694571Y-68875714D02*
X128694571Y-69625714D01*
X128766000Y-69518571D01*
X128837428Y-69447142D01*
X128908857Y-69411428D01*
X128051714Y-69304285D02*
X128123142Y-69340000D01*
X128158857Y-69375714D01*
X128194571Y-69447142D01*
X128194571Y-69482857D01*
X128158857Y-69554285D01*
X128123142Y-69590000D01*
X128051714Y-69625714D01*
X127908857Y-69625714D01*
X127837428Y-69590000D01*
X127801714Y-69554285D01*
X127766000Y-69482857D01*
X127766000Y-69447142D01*
X127801714Y-69375714D01*
X127837428Y-69340000D01*
X127908857Y-69304285D01*
X128051714Y-69304285D01*
X128123142Y-69268571D01*
X128158857Y-69232857D01*
X128194571Y-69161428D01*
X128194571Y-69018571D01*
X128158857Y-68947142D01*
X128123142Y-68911428D01*
X128051714Y-68875714D01*
X127908857Y-68875714D01*
X127837428Y-68911428D01*
X127801714Y-68947142D01*
X127766000Y-69018571D01*
X127766000Y-69161428D01*
X127801714Y-69232857D01*
X127837428Y-69268571D01*
X127908857Y-69304285D01*
X127551714Y-69625714D02*
X127301714Y-68875714D01*
X127051714Y-69625714D01*
X185483285Y-70143619D02*
X184864238Y-70143619D01*
X185197571Y-69762666D01*
X185054714Y-69762666D01*
X184959476Y-69715047D01*
X184911857Y-69667428D01*
X184864238Y-69572190D01*
X184864238Y-69334095D01*
X184911857Y-69238857D01*
X184959476Y-69191238D01*
X185054714Y-69143619D01*
X185340428Y-69143619D01*
X185435666Y-69191238D01*
X185483285Y-69238857D01*
X184245190Y-70143619D02*
X184149952Y-70143619D01*
X184054714Y-70096000D01*
X184007095Y-70048380D01*
X183959476Y-69953142D01*
X183911857Y-69762666D01*
X183911857Y-69524571D01*
X183959476Y-69334095D01*
X184007095Y-69238857D01*
X184054714Y-69191238D01*
X184149952Y-69143619D01*
X184245190Y-69143619D01*
X184340428Y-69191238D01*
X184388047Y-69238857D01*
X184435666Y-69334095D01*
X184483285Y-69524571D01*
X184483285Y-69762666D01*
X184435666Y-69953142D01*
X184388047Y-70048380D01*
X184340428Y-70096000D01*
X184245190Y-70143619D01*
X183292809Y-70143619D02*
X183197571Y-70143619D01*
X183102333Y-70096000D01*
X183054714Y-70048380D01*
X183007095Y-69953142D01*
X182959476Y-69762666D01*
X182959476Y-69524571D01*
X183007095Y-69334095D01*
X183054714Y-69238857D01*
X183102333Y-69191238D01*
X183197571Y-69143619D01*
X183292809Y-69143619D01*
X183388047Y-69191238D01*
X183435666Y-69238857D01*
X183483285Y-69334095D01*
X183530904Y-69524571D01*
X183530904Y-69762666D01*
X183483285Y-69953142D01*
X183435666Y-70048380D01*
X183388047Y-70096000D01*
X183292809Y-70143619D01*
X182673761Y-70143619D02*
X182340428Y-69143619D01*
X182007095Y-70143619D01*
X197683380Y-78533428D02*
X197683380Y-79104857D01*
X197683380Y-78819142D02*
X196683380Y-78819142D01*
X196826238Y-78914380D01*
X196921476Y-79009619D01*
X196969095Y-79104857D01*
X196778619Y-78152476D02*
X196731000Y-78104857D01*
X196683380Y-78009619D01*
X196683380Y-77771523D01*
X196731000Y-77676285D01*
X196778619Y-77628666D01*
X196873857Y-77581047D01*
X196969095Y-77581047D01*
X197111952Y-77628666D01*
X197683380Y-78200095D01*
X197683380Y-77581047D01*
X196683380Y-76962000D02*
X196683380Y-76866761D01*
X196731000Y-76771523D01*
X196778619Y-76723904D01*
X196873857Y-76676285D01*
X197064333Y-76628666D01*
X197302428Y-76628666D01*
X197492904Y-76676285D01*
X197588142Y-76723904D01*
X197635761Y-76771523D01*
X197683380Y-76866761D01*
X197683380Y-76962000D01*
X197635761Y-77057238D01*
X197588142Y-77104857D01*
X197492904Y-77152476D01*
X197302428Y-77200095D01*
X197064333Y-77200095D01*
X196873857Y-77152476D01*
X196778619Y-77104857D01*
X196731000Y-77057238D01*
X196683380Y-76962000D01*
X196683380Y-76009619D02*
X196683380Y-75914380D01*
X196731000Y-75819142D01*
X196778619Y-75771523D01*
X196873857Y-75723904D01*
X197064333Y-75676285D01*
X197302428Y-75676285D01*
X197492904Y-75723904D01*
X197588142Y-75771523D01*
X197635761Y-75819142D01*
X197683380Y-75914380D01*
X197683380Y-76009619D01*
X197635761Y-76104857D01*
X197588142Y-76152476D01*
X197492904Y-76200095D01*
X197302428Y-76247714D01*
X197064333Y-76247714D01*
X196873857Y-76200095D01*
X196778619Y-76152476D01*
X196731000Y-76104857D01*
X196683380Y-76009619D01*
X196683380Y-75390571D02*
X197683380Y-75057238D01*
X196683380Y-74723904D01*
X187674523Y-126055380D02*
X187674523Y-125055380D01*
X188579285Y-125388714D02*
X188579285Y-126198238D01*
X188531666Y-126293476D01*
X188484047Y-126341095D01*
X188388809Y-126388714D01*
X188245952Y-126388714D01*
X188150714Y-126341095D01*
X188579285Y-126007761D02*
X188484047Y-126055380D01*
X188293571Y-126055380D01*
X188198333Y-126007761D01*
X188150714Y-125960142D01*
X188103095Y-125864904D01*
X188103095Y-125579190D01*
X188150714Y-125483952D01*
X188198333Y-125436333D01*
X188293571Y-125388714D01*
X188484047Y-125388714D01*
X188579285Y-125436333D01*
X189055476Y-125388714D02*
X189055476Y-126055380D01*
X189055476Y-125483952D02*
X189103095Y-125436333D01*
X189198333Y-125388714D01*
X189341190Y-125388714D01*
X189436428Y-125436333D01*
X189484047Y-125531571D01*
X189484047Y-126055380D01*
X189960238Y-126055380D02*
X189960238Y-125388714D01*
X189960238Y-125055380D02*
X189912619Y-125103000D01*
X189960238Y-125150619D01*
X190007857Y-125103000D01*
X189960238Y-125055380D01*
X189960238Y-125150619D01*
X190293571Y-125388714D02*
X190674523Y-125388714D01*
X190436428Y-125055380D02*
X190436428Y-125912523D01*
X190484047Y-126007761D01*
X190579285Y-126055380D01*
X190674523Y-126055380D01*
X191150714Y-126055380D02*
X191055476Y-126007761D01*
X191007857Y-125960142D01*
X190960238Y-125864904D01*
X190960238Y-125579190D01*
X191007857Y-125483952D01*
X191055476Y-125436333D01*
X191150714Y-125388714D01*
X191293571Y-125388714D01*
X191388809Y-125436333D01*
X191436428Y-125483952D01*
X191484047Y-125579190D01*
X191484047Y-125864904D01*
X191436428Y-125960142D01*
X191388809Y-126007761D01*
X191293571Y-126055380D01*
X191150714Y-126055380D01*
X191912619Y-126055380D02*
X191912619Y-125388714D01*
X191912619Y-125579190D02*
X191960238Y-125483952D01*
X192007857Y-125436333D01*
X192103095Y-125388714D01*
X192198333Y-125388714D01*
X111752714Y-118943380D02*
X111752714Y-117943380D01*
X112086047Y-118657666D01*
X112419380Y-117943380D01*
X112419380Y-118943380D01*
X112895571Y-118943380D02*
X112895571Y-118276714D01*
X112895571Y-117943380D02*
X112847952Y-117991000D01*
X112895571Y-118038619D01*
X112943190Y-117991000D01*
X112895571Y-117943380D01*
X112895571Y-118038619D01*
X113800333Y-118895761D02*
X113705095Y-118943380D01*
X113514619Y-118943380D01*
X113419380Y-118895761D01*
X113371761Y-118848142D01*
X113324142Y-118752904D01*
X113324142Y-118467190D01*
X113371761Y-118371952D01*
X113419380Y-118324333D01*
X113514619Y-118276714D01*
X113705095Y-118276714D01*
X113800333Y-118324333D01*
X114228904Y-118943380D02*
X114228904Y-118276714D01*
X114228904Y-118467190D02*
X114276523Y-118371952D01*
X114324142Y-118324333D01*
X114419380Y-118276714D01*
X114514619Y-118276714D01*
X114990809Y-118943380D02*
X114895571Y-118895761D01*
X114847952Y-118848142D01*
X114800333Y-118752904D01*
X114800333Y-118467190D01*
X114847952Y-118371952D01*
X114895571Y-118324333D01*
X114990809Y-118276714D01*
X115133666Y-118276714D01*
X115228904Y-118324333D01*
X115276523Y-118371952D01*
X115324142Y-118467190D01*
X115324142Y-118752904D01*
X115276523Y-118848142D01*
X115228904Y-118895761D01*
X115133666Y-118943380D01*
X114990809Y-118943380D01*
X115514619Y-119038619D02*
X116276523Y-119038619D01*
X116467000Y-118895761D02*
X116609857Y-118943380D01*
X116847952Y-118943380D01*
X116943190Y-118895761D01*
X116990809Y-118848142D01*
X117038428Y-118752904D01*
X117038428Y-118657666D01*
X116990809Y-118562428D01*
X116943190Y-118514809D01*
X116847952Y-118467190D01*
X116657476Y-118419571D01*
X116562238Y-118371952D01*
X116514619Y-118324333D01*
X116467000Y-118229095D01*
X116467000Y-118133857D01*
X116514619Y-118038619D01*
X116562238Y-117991000D01*
X116657476Y-117943380D01*
X116895571Y-117943380D01*
X117038428Y-117991000D01*
X117467000Y-118943380D02*
X117467000Y-117943380D01*
X117705095Y-117943380D01*
X117847952Y-117991000D01*
X117943190Y-118086238D01*
X117990809Y-118181476D01*
X118038428Y-118371952D01*
X118038428Y-118514809D01*
X117990809Y-118705285D01*
X117943190Y-118800523D01*
X117847952Y-118895761D01*
X117705095Y-118943380D01*
X117467000Y-118943380D01*
X118228904Y-119038619D02*
X118990809Y-119038619D01*
X119800333Y-118848142D02*
X119752714Y-118895761D01*
X119609857Y-118943380D01*
X119514619Y-118943380D01*
X119371761Y-118895761D01*
X119276523Y-118800523D01*
X119228904Y-118705285D01*
X119181285Y-118514809D01*
X119181285Y-118371952D01*
X119228904Y-118181476D01*
X119276523Y-118086238D01*
X119371761Y-117991000D01*
X119514619Y-117943380D01*
X119609857Y-117943380D01*
X119752714Y-117991000D01*
X119800333Y-118038619D01*
X120657476Y-118943380D02*
X120657476Y-118419571D01*
X120609857Y-118324333D01*
X120514619Y-118276714D01*
X120324142Y-118276714D01*
X120228904Y-118324333D01*
X120657476Y-118895761D02*
X120562238Y-118943380D01*
X120324142Y-118943380D01*
X120228904Y-118895761D01*
X120181285Y-118800523D01*
X120181285Y-118705285D01*
X120228904Y-118610047D01*
X120324142Y-118562428D01*
X120562238Y-118562428D01*
X120657476Y-118514809D01*
X121133666Y-118943380D02*
X121133666Y-118276714D01*
X121133666Y-118467190D02*
X121181285Y-118371952D01*
X121228904Y-118324333D01*
X121324142Y-118276714D01*
X121419380Y-118276714D01*
X122181285Y-118943380D02*
X122181285Y-117943380D01*
X122181285Y-118895761D02*
X122086047Y-118943380D01*
X121895571Y-118943380D01*
X121800333Y-118895761D01*
X121752714Y-118848142D01*
X121705095Y-118752904D01*
X121705095Y-118467190D01*
X121752714Y-118371952D01*
X121800333Y-118324333D01*
X121895571Y-118276714D01*
X122086047Y-118276714D01*
X122181285Y-118324333D01*
D13*
X164326714Y-69007071D02*
X164326714Y-69607071D01*
X163783857Y-69407071D02*
X163783857Y-68921357D01*
X163812428Y-68864214D01*
X163841000Y-68835642D01*
X163898142Y-68807071D01*
X163983857Y-68807071D01*
X164041000Y-68835642D01*
X163783857Y-69035642D02*
X163841000Y-69007071D01*
X163955285Y-69007071D01*
X164012428Y-69035642D01*
X164041000Y-69064214D01*
X164069571Y-69121357D01*
X164069571Y-69292785D01*
X164041000Y-69349928D01*
X164012428Y-69378500D01*
X163955285Y-69407071D01*
X163841000Y-69407071D01*
X163783857Y-69378500D01*
X163498142Y-69407071D02*
X163498142Y-69007071D01*
X163498142Y-69349928D02*
X163469571Y-69378500D01*
X163412428Y-69407071D01*
X163326714Y-69407071D01*
X163269571Y-69378500D01*
X163241000Y-69321357D01*
X163241000Y-69007071D01*
X162612428Y-69064214D02*
X162641000Y-69035642D01*
X162726714Y-69007071D01*
X162783857Y-69007071D01*
X162869571Y-69035642D01*
X162926714Y-69092785D01*
X162955285Y-69149928D01*
X162983857Y-69264214D01*
X162983857Y-69349928D01*
X162955285Y-69464214D01*
X162926714Y-69521357D01*
X162869571Y-69578500D01*
X162783857Y-69607071D01*
X162726714Y-69607071D01*
X162641000Y-69578500D01*
X162612428Y-69549928D01*
X162098142Y-69007071D02*
X162098142Y-69321357D01*
X162126714Y-69378500D01*
X162183857Y-69407071D01*
X162298142Y-69407071D01*
X162355285Y-69378500D01*
X162098142Y-69035642D02*
X162155285Y-69007071D01*
X162298142Y-69007071D01*
X162355285Y-69035642D01*
X162383857Y-69092785D01*
X162383857Y-69149928D01*
X162355285Y-69207071D01*
X162298142Y-69235642D01*
X162155285Y-69235642D01*
X162098142Y-69264214D01*
X161812428Y-69407071D02*
X161812428Y-68807071D01*
X161812428Y-69378500D02*
X161755285Y-69407071D01*
X161641000Y-69407071D01*
X161583857Y-69378500D01*
X161555285Y-69349928D01*
X161526714Y-69292785D01*
X161526714Y-69121357D01*
X161555285Y-69064214D01*
X161583857Y-69035642D01*
X161641000Y-69007071D01*
X161755285Y-69007071D01*
X161812428Y-69035642D01*
D11*
X197683380Y-94694190D02*
X196683380Y-94694190D01*
X197397666Y-94360857D01*
X196683380Y-94027523D01*
X197683380Y-94027523D01*
X197683380Y-93122761D02*
X197159571Y-93122761D01*
X197064333Y-93170380D01*
X197016714Y-93265619D01*
X197016714Y-93456095D01*
X197064333Y-93551333D01*
X197635761Y-93122761D02*
X197683380Y-93218000D01*
X197683380Y-93456095D01*
X197635761Y-93551333D01*
X197540523Y-93598952D01*
X197445285Y-93598952D01*
X197350047Y-93551333D01*
X197302428Y-93456095D01*
X197302428Y-93218000D01*
X197254809Y-93122761D01*
X197683380Y-92646571D02*
X197016714Y-92646571D01*
X196683380Y-92646571D02*
X196731000Y-92694190D01*
X196778619Y-92646571D01*
X196731000Y-92598952D01*
X196683380Y-92646571D01*
X196778619Y-92646571D01*
X197016714Y-92170380D02*
X197683380Y-92170380D01*
X197111952Y-92170380D02*
X197064333Y-92122761D01*
X197016714Y-92027523D01*
X197016714Y-91884666D01*
X197064333Y-91789428D01*
X197159571Y-91741809D01*
X197683380Y-91741809D01*
X184230047Y-120721380D02*
X184230047Y-119721380D01*
X185277666Y-120721380D02*
X184944333Y-120245190D01*
X184706238Y-120721380D02*
X184706238Y-119721380D01*
X185087190Y-119721380D01*
X185182428Y-119769000D01*
X185230047Y-119816619D01*
X185277666Y-119911857D01*
X185277666Y-120054714D01*
X185230047Y-120149952D01*
X185182428Y-120197571D01*
X185087190Y-120245190D01*
X184706238Y-120245190D01*
X186230047Y-119769000D02*
X186134809Y-119721380D01*
X185991952Y-119721380D01*
X185849095Y-119769000D01*
X185753857Y-119864238D01*
X185706238Y-119959476D01*
X185658619Y-120149952D01*
X185658619Y-120292809D01*
X185706238Y-120483285D01*
X185753857Y-120578523D01*
X185849095Y-120673761D01*
X185991952Y-120721380D01*
X186087190Y-120721380D01*
X186230047Y-120673761D01*
X186277666Y-120626142D01*
X186277666Y-120292809D01*
X186087190Y-120292809D01*
X186706238Y-120721380D02*
X186706238Y-119721380D01*
X187087190Y-119721380D01*
X187182428Y-119769000D01*
X187230047Y-119816619D01*
X187277666Y-119911857D01*
X187277666Y-120054714D01*
X187230047Y-120149952D01*
X187182428Y-120197571D01*
X187087190Y-120245190D01*
X186706238Y-120245190D01*
X187658619Y-120673761D02*
X187801476Y-120721380D01*
X188039571Y-120721380D01*
X188134809Y-120673761D01*
X188182428Y-120626142D01*
X188230047Y-120530904D01*
X188230047Y-120435666D01*
X188182428Y-120340428D01*
X188134809Y-120292809D01*
X188039571Y-120245190D01*
X187849095Y-120197571D01*
X187753857Y-120149952D01*
X187706238Y-120102333D01*
X187658619Y-120007095D01*
X187658619Y-119911857D01*
X187706238Y-119816619D01*
X187753857Y-119769000D01*
X187849095Y-119721380D01*
X188087190Y-119721380D01*
X188230047Y-119769000D01*
X189087190Y-120054714D02*
X189087190Y-120721380D01*
X188849095Y-119673761D02*
X188611000Y-120388047D01*
X189230047Y-120388047D01*
X189801476Y-119721380D02*
X189896714Y-119721380D01*
X189991952Y-119769000D01*
X190039571Y-119816619D01*
X190087190Y-119911857D01*
X190134809Y-120102333D01*
X190134809Y-120340428D01*
X190087190Y-120530904D01*
X190039571Y-120626142D01*
X189991952Y-120673761D01*
X189896714Y-120721380D01*
X189801476Y-120721380D01*
X189706238Y-120673761D01*
X189658619Y-120626142D01*
X189611000Y-120530904D01*
X189563380Y-120340428D01*
X189563380Y-120102333D01*
X189611000Y-119911857D01*
X189658619Y-119816619D01*
X189706238Y-119769000D01*
X189801476Y-119721380D01*
X190896714Y-120197571D02*
X191039571Y-120245190D01*
X191087190Y-120292809D01*
X191134809Y-120388047D01*
X191134809Y-120530904D01*
X191087190Y-120626142D01*
X191039571Y-120673761D01*
X190944333Y-120721380D01*
X190563380Y-120721380D01*
X190563380Y-119721380D01*
X190896714Y-119721380D01*
X190991952Y-119769000D01*
X191039571Y-119816619D01*
X191087190Y-119911857D01*
X191087190Y-120007095D01*
X191039571Y-120102333D01*
X190991952Y-120149952D01*
X190896714Y-120197571D01*
X190563380Y-120197571D01*
X192087190Y-120721380D02*
X191515761Y-120721380D01*
X191801476Y-120721380D02*
X191801476Y-119721380D01*
X191706238Y-119864238D01*
X191611000Y-119959476D01*
X191515761Y-120007095D01*
X192468142Y-119816619D02*
X192515761Y-119769000D01*
X192611000Y-119721380D01*
X192849095Y-119721380D01*
X192944333Y-119769000D01*
X192991952Y-119816619D01*
X193039571Y-119911857D01*
X193039571Y-120007095D01*
X192991952Y-120149952D01*
X192420523Y-120721380D01*
X193039571Y-120721380D01*
X193658619Y-119721380D02*
X193753857Y-119721380D01*
X193849095Y-119769000D01*
X193896714Y-119816619D01*
X193944333Y-119911857D01*
X193991952Y-120102333D01*
X193991952Y-120340428D01*
X193944333Y-120530904D01*
X193896714Y-120626142D01*
X193849095Y-120673761D01*
X193753857Y-120721380D01*
X193658619Y-120721380D01*
X193563380Y-120673761D01*
X193515761Y-120626142D01*
X193468142Y-120530904D01*
X193420523Y-120340428D01*
X193420523Y-120102333D01*
X193468142Y-119911857D01*
X193515761Y-119816619D01*
X193563380Y-119769000D01*
X193658619Y-119721380D01*
X194420523Y-119721380D02*
X194420523Y-120530904D01*
X194468142Y-120626142D01*
X194515761Y-120673761D01*
X194611000Y-120721380D01*
X194801476Y-120721380D01*
X194896714Y-120673761D01*
X194944333Y-120626142D01*
X194991952Y-120530904D01*
X194991952Y-119721380D01*
X184480952Y-111402761D02*
X184623809Y-111450380D01*
X184861904Y-111450380D01*
X184957142Y-111402761D01*
X185004761Y-111355142D01*
X185052380Y-111259904D01*
X185052380Y-111164666D01*
X185004761Y-111069428D01*
X184957142Y-111021809D01*
X184861904Y-110974190D01*
X184671428Y-110926571D01*
X184576190Y-110878952D01*
X184528571Y-110831333D01*
X184480952Y-110736095D01*
X184480952Y-110640857D01*
X184528571Y-110545619D01*
X184576190Y-110498000D01*
X184671428Y-110450380D01*
X184909523Y-110450380D01*
X185052380Y-110498000D01*
X185338095Y-110450380D02*
X185909523Y-110450380D01*
X185623809Y-111450380D02*
X185623809Y-110450380D01*
X186147619Y-110450380D02*
X186385714Y-111450380D01*
X186576190Y-110736095D01*
X186766666Y-111450380D01*
X187004761Y-110450380D01*
X187338095Y-110545619D02*
X187385714Y-110498000D01*
X187480952Y-110450380D01*
X187719047Y-110450380D01*
X187814285Y-110498000D01*
X187861904Y-110545619D01*
X187909523Y-110640857D01*
X187909523Y-110736095D01*
X187861904Y-110878952D01*
X187290476Y-111450380D01*
X187909523Y-111450380D01*
X188861904Y-111450380D02*
X188290476Y-111450380D01*
X188576190Y-111450380D02*
X188576190Y-110450380D01*
X188480952Y-110593238D01*
X188385714Y-110688476D01*
X188290476Y-110736095D01*
X189290476Y-111450380D02*
X189290476Y-110450380D01*
X189861904Y-111450380D01*
X189861904Y-110450380D01*
X190861904Y-111450380D02*
X190290476Y-111450380D01*
X190576190Y-111450380D02*
X190576190Y-110450380D01*
X190480952Y-110593238D01*
X190385714Y-110688476D01*
X190290476Y-110736095D01*
X191766666Y-110450380D02*
X191290476Y-110450380D01*
X191242857Y-110926571D01*
X191290476Y-110878952D01*
X191385714Y-110831333D01*
X191623809Y-110831333D01*
X191719047Y-110878952D01*
X191766666Y-110926571D01*
X191814285Y-111021809D01*
X191814285Y-111259904D01*
X191766666Y-111355142D01*
X191719047Y-111402761D01*
X191623809Y-111450380D01*
X191385714Y-111450380D01*
X191290476Y-111402761D01*
X191242857Y-111355142D01*
X192433333Y-110450380D02*
X192528571Y-110450380D01*
X192623809Y-110498000D01*
X192671428Y-110545619D01*
X192719047Y-110640857D01*
X192766666Y-110831333D01*
X192766666Y-111069428D01*
X192719047Y-111259904D01*
X192671428Y-111355142D01*
X192623809Y-111402761D01*
X192528571Y-111450380D01*
X192433333Y-111450380D01*
X192338095Y-111402761D01*
X192290476Y-111355142D01*
X192242857Y-111259904D01*
X192195238Y-111069428D01*
X192195238Y-110831333D01*
X192242857Y-110640857D01*
X192290476Y-110545619D01*
X192338095Y-110498000D01*
X192433333Y-110450380D01*
X193195238Y-111450380D02*
X193195238Y-110450380D01*
X193766666Y-111450380D02*
X193338095Y-110878952D01*
X193766666Y-110450380D02*
X193195238Y-111021809D01*
X194671428Y-110450380D02*
X194195238Y-110450380D01*
X194147619Y-110926571D01*
X194195238Y-110878952D01*
X194290476Y-110831333D01*
X194528571Y-110831333D01*
X194623809Y-110878952D01*
X194671428Y-110926571D01*
X194719047Y-111021809D01*
X194719047Y-111259904D01*
X194671428Y-111355142D01*
X194623809Y-111402761D01*
X194528571Y-111450380D01*
X194290476Y-111450380D01*
X194195238Y-111402761D01*
X194147619Y-111355142D01*
X156297380Y-120776904D02*
X156297380Y-120967380D01*
X156345000Y-121062619D01*
X156392619Y-121110238D01*
X156535476Y-121205476D01*
X156725952Y-121253095D01*
X157106904Y-121253095D01*
X157202142Y-121205476D01*
X157249761Y-121157857D01*
X157297380Y-121062619D01*
X157297380Y-120872142D01*
X157249761Y-120776904D01*
X157202142Y-120729285D01*
X157106904Y-120681666D01*
X156868809Y-120681666D01*
X156773571Y-120729285D01*
X156725952Y-120776904D01*
X156678333Y-120872142D01*
X156678333Y-121062619D01*
X156725952Y-121157857D01*
X156773571Y-121205476D01*
X156868809Y-121253095D01*
X156725952Y-120110238D02*
X156678333Y-120205476D01*
X156630714Y-120253095D01*
X156535476Y-120300714D01*
X156487857Y-120300714D01*
X156392619Y-120253095D01*
X156345000Y-120205476D01*
X156297380Y-120110238D01*
X156297380Y-119919761D01*
X156345000Y-119824523D01*
X156392619Y-119776904D01*
X156487857Y-119729285D01*
X156535476Y-119729285D01*
X156630714Y-119776904D01*
X156678333Y-119824523D01*
X156725952Y-119919761D01*
X156725952Y-120110238D01*
X156773571Y-120205476D01*
X156821190Y-120253095D01*
X156916428Y-120300714D01*
X157106904Y-120300714D01*
X157202142Y-120253095D01*
X157249761Y-120205476D01*
X157297380Y-120110238D01*
X157297380Y-119919761D01*
X157249761Y-119824523D01*
X157202142Y-119776904D01*
X157106904Y-119729285D01*
X156916428Y-119729285D01*
X156821190Y-119776904D01*
X156773571Y-119824523D01*
X156725952Y-119919761D01*
X156297380Y-119110238D02*
X156297380Y-119015000D01*
X156345000Y-118919761D01*
X156392619Y-118872142D01*
X156487857Y-118824523D01*
X156678333Y-118776904D01*
X156916428Y-118776904D01*
X157106904Y-118824523D01*
X157202142Y-118872142D01*
X157249761Y-118919761D01*
X157297380Y-119015000D01*
X157297380Y-119110238D01*
X157249761Y-119205476D01*
X157202142Y-119253095D01*
X157106904Y-119300714D01*
X156916428Y-119348333D01*
X156678333Y-119348333D01*
X156487857Y-119300714D01*
X156392619Y-119253095D01*
X156345000Y-119205476D01*
X156297380Y-119110238D01*
X157170380Y-100996666D02*
X157170380Y-101568095D01*
X157170380Y-101282380D02*
X156170380Y-101282380D01*
X156313238Y-101377619D01*
X156408476Y-101472857D01*
X156456095Y-101568095D01*
X156170380Y-100091904D02*
X156170380Y-100568095D01*
X156646571Y-100615714D01*
X156598952Y-100568095D01*
X156551333Y-100472857D01*
X156551333Y-100234761D01*
X156598952Y-100139523D01*
X156646571Y-100091904D01*
X156741809Y-100044285D01*
X156979904Y-100044285D01*
X157075142Y-100091904D01*
X157122761Y-100139523D01*
X157170380Y-100234761D01*
X157170380Y-100472857D01*
X157122761Y-100568095D01*
X157075142Y-100615714D01*
X156170380Y-99425238D02*
X156170380Y-99330000D01*
X156218000Y-99234761D01*
X156265619Y-99187142D01*
X156360857Y-99139523D01*
X156551333Y-99091904D01*
X156789428Y-99091904D01*
X156979904Y-99139523D01*
X157075142Y-99187142D01*
X157122761Y-99234761D01*
X157170380Y-99330000D01*
X157170380Y-99425238D01*
X157122761Y-99520476D01*
X157075142Y-99568095D01*
X156979904Y-99615714D01*
X156789428Y-99663333D01*
X156551333Y-99663333D01*
X156360857Y-99615714D01*
X156265619Y-99568095D01*
X156218000Y-99520476D01*
X156170380Y-99425238D01*
X117983095Y-94702380D02*
X117792619Y-94702380D01*
X117697380Y-94750000D01*
X117649761Y-94797619D01*
X117554523Y-94940476D01*
X117506904Y-95130952D01*
X117506904Y-95511904D01*
X117554523Y-95607142D01*
X117602142Y-95654761D01*
X117697380Y-95702380D01*
X117887857Y-95702380D01*
X117983095Y-95654761D01*
X118030714Y-95607142D01*
X118078333Y-95511904D01*
X118078333Y-95273809D01*
X118030714Y-95178571D01*
X117983095Y-95130952D01*
X117887857Y-95083333D01*
X117697380Y-95083333D01*
X117602142Y-95130952D01*
X117554523Y-95178571D01*
X117506904Y-95273809D01*
X118649761Y-95130952D02*
X118554523Y-95083333D01*
X118506904Y-95035714D01*
X118459285Y-94940476D01*
X118459285Y-94892857D01*
X118506904Y-94797619D01*
X118554523Y-94750000D01*
X118649761Y-94702380D01*
X118840238Y-94702380D01*
X118935476Y-94750000D01*
X118983095Y-94797619D01*
X119030714Y-94892857D01*
X119030714Y-94940476D01*
X118983095Y-95035714D01*
X118935476Y-95083333D01*
X118840238Y-95130952D01*
X118649761Y-95130952D01*
X118554523Y-95178571D01*
X118506904Y-95226190D01*
X118459285Y-95321428D01*
X118459285Y-95511904D01*
X118506904Y-95607142D01*
X118554523Y-95654761D01*
X118649761Y-95702380D01*
X118840238Y-95702380D01*
X118935476Y-95654761D01*
X118983095Y-95607142D01*
X119030714Y-95511904D01*
X119030714Y-95321428D01*
X118983095Y-95226190D01*
X118935476Y-95178571D01*
X118840238Y-95130952D01*
X119649761Y-94702380D02*
X119745000Y-94702380D01*
X119840238Y-94750000D01*
X119887857Y-94797619D01*
X119935476Y-94892857D01*
X119983095Y-95083333D01*
X119983095Y-95321428D01*
X119935476Y-95511904D01*
X119887857Y-95607142D01*
X119840238Y-95654761D01*
X119745000Y-95702380D01*
X119649761Y-95702380D01*
X119554523Y-95654761D01*
X119506904Y-95607142D01*
X119459285Y-95511904D01*
X119411666Y-95321428D01*
X119411666Y-95083333D01*
X119459285Y-94892857D01*
X119506904Y-94797619D01*
X119554523Y-94750000D01*
X119649761Y-94702380D01*
X117983095Y-85812380D02*
X117792619Y-85812380D01*
X117697380Y-85860000D01*
X117649761Y-85907619D01*
X117554523Y-86050476D01*
X117506904Y-86240952D01*
X117506904Y-86621904D01*
X117554523Y-86717142D01*
X117602142Y-86764761D01*
X117697380Y-86812380D01*
X117887857Y-86812380D01*
X117983095Y-86764761D01*
X118030714Y-86717142D01*
X118078333Y-86621904D01*
X118078333Y-86383809D01*
X118030714Y-86288571D01*
X117983095Y-86240952D01*
X117887857Y-86193333D01*
X117697380Y-86193333D01*
X117602142Y-86240952D01*
X117554523Y-86288571D01*
X117506904Y-86383809D01*
X118649761Y-86240952D02*
X118554523Y-86193333D01*
X118506904Y-86145714D01*
X118459285Y-86050476D01*
X118459285Y-86002857D01*
X118506904Y-85907619D01*
X118554523Y-85860000D01*
X118649761Y-85812380D01*
X118840238Y-85812380D01*
X118935476Y-85860000D01*
X118983095Y-85907619D01*
X119030714Y-86002857D01*
X119030714Y-86050476D01*
X118983095Y-86145714D01*
X118935476Y-86193333D01*
X118840238Y-86240952D01*
X118649761Y-86240952D01*
X118554523Y-86288571D01*
X118506904Y-86336190D01*
X118459285Y-86431428D01*
X118459285Y-86621904D01*
X118506904Y-86717142D01*
X118554523Y-86764761D01*
X118649761Y-86812380D01*
X118840238Y-86812380D01*
X118935476Y-86764761D01*
X118983095Y-86717142D01*
X119030714Y-86621904D01*
X119030714Y-86431428D01*
X118983095Y-86336190D01*
X118935476Y-86288571D01*
X118840238Y-86240952D01*
X119649761Y-85812380D02*
X119745000Y-85812380D01*
X119840238Y-85860000D01*
X119887857Y-85907619D01*
X119935476Y-86002857D01*
X119983095Y-86193333D01*
X119983095Y-86431428D01*
X119935476Y-86621904D01*
X119887857Y-86717142D01*
X119840238Y-86764761D01*
X119745000Y-86812380D01*
X119649761Y-86812380D01*
X119554523Y-86764761D01*
X119506904Y-86717142D01*
X119459285Y-86621904D01*
X119411666Y-86431428D01*
X119411666Y-86193333D01*
X119459285Y-86002857D01*
X119506904Y-85907619D01*
X119554523Y-85860000D01*
X119649761Y-85812380D01*
X131897380Y-90511238D02*
X131897380Y-91082666D01*
X131897380Y-90796952D02*
X130897380Y-90796952D01*
X131040238Y-90892190D01*
X131135476Y-90987428D01*
X131183095Y-91082666D01*
X130897380Y-89892190D02*
X130897380Y-89796952D01*
X130945000Y-89701714D01*
X130992619Y-89654095D01*
X131087857Y-89606476D01*
X131278333Y-89558857D01*
X131516428Y-89558857D01*
X131706904Y-89606476D01*
X131802142Y-89654095D01*
X131849761Y-89701714D01*
X131897380Y-89796952D01*
X131897380Y-89892190D01*
X131849761Y-89987428D01*
X131802142Y-90035047D01*
X131706904Y-90082666D01*
X131516428Y-90130285D01*
X131278333Y-90130285D01*
X131087857Y-90082666D01*
X130992619Y-90035047D01*
X130945000Y-89987428D01*
X130897380Y-89892190D01*
X131897380Y-89130285D02*
X130897380Y-89130285D01*
X131516428Y-89035047D02*
X131897380Y-88749333D01*
X131230714Y-88749333D02*
X131611666Y-89130285D01*
X146502380Y-77430238D02*
X146502380Y-78001666D01*
X146502380Y-77715952D02*
X145502380Y-77715952D01*
X145645238Y-77811190D01*
X145740476Y-77906428D01*
X145788095Y-78001666D01*
X145502380Y-76811190D02*
X145502380Y-76715952D01*
X145550000Y-76620714D01*
X145597619Y-76573095D01*
X145692857Y-76525476D01*
X145883333Y-76477857D01*
X146121428Y-76477857D01*
X146311904Y-76525476D01*
X146407142Y-76573095D01*
X146454761Y-76620714D01*
X146502380Y-76715952D01*
X146502380Y-76811190D01*
X146454761Y-76906428D01*
X146407142Y-76954047D01*
X146311904Y-77001666D01*
X146121428Y-77049285D01*
X145883333Y-77049285D01*
X145692857Y-77001666D01*
X145597619Y-76954047D01*
X145550000Y-76906428D01*
X145502380Y-76811190D01*
X146502380Y-76049285D02*
X145502380Y-76049285D01*
X146121428Y-75954047D02*
X146502380Y-75668333D01*
X145835714Y-75668333D02*
X146216666Y-76049285D01*
X117983095Y-76922380D02*
X117792619Y-76922380D01*
X117697380Y-76970000D01*
X117649761Y-77017619D01*
X117554523Y-77160476D01*
X117506904Y-77350952D01*
X117506904Y-77731904D01*
X117554523Y-77827142D01*
X117602142Y-77874761D01*
X117697380Y-77922380D01*
X117887857Y-77922380D01*
X117983095Y-77874761D01*
X118030714Y-77827142D01*
X118078333Y-77731904D01*
X118078333Y-77493809D01*
X118030714Y-77398571D01*
X117983095Y-77350952D01*
X117887857Y-77303333D01*
X117697380Y-77303333D01*
X117602142Y-77350952D01*
X117554523Y-77398571D01*
X117506904Y-77493809D01*
X118649761Y-77350952D02*
X118554523Y-77303333D01*
X118506904Y-77255714D01*
X118459285Y-77160476D01*
X118459285Y-77112857D01*
X118506904Y-77017619D01*
X118554523Y-76970000D01*
X118649761Y-76922380D01*
X118840238Y-76922380D01*
X118935476Y-76970000D01*
X118983095Y-77017619D01*
X119030714Y-77112857D01*
X119030714Y-77160476D01*
X118983095Y-77255714D01*
X118935476Y-77303333D01*
X118840238Y-77350952D01*
X118649761Y-77350952D01*
X118554523Y-77398571D01*
X118506904Y-77446190D01*
X118459285Y-77541428D01*
X118459285Y-77731904D01*
X118506904Y-77827142D01*
X118554523Y-77874761D01*
X118649761Y-77922380D01*
X118840238Y-77922380D01*
X118935476Y-77874761D01*
X118983095Y-77827142D01*
X119030714Y-77731904D01*
X119030714Y-77541428D01*
X118983095Y-77446190D01*
X118935476Y-77398571D01*
X118840238Y-77350952D01*
X119649761Y-76922380D02*
X119745000Y-76922380D01*
X119840238Y-76970000D01*
X119887857Y-77017619D01*
X119935476Y-77112857D01*
X119983095Y-77303333D01*
X119983095Y-77541428D01*
X119935476Y-77731904D01*
X119887857Y-77827142D01*
X119840238Y-77874761D01*
X119745000Y-77922380D01*
X119649761Y-77922380D01*
X119554523Y-77874761D01*
X119506904Y-77827142D01*
X119459285Y-77731904D01*
X119411666Y-77541428D01*
X119411666Y-77303333D01*
X119459285Y-77112857D01*
X119506904Y-77017619D01*
X119554523Y-76970000D01*
X119649761Y-76922380D01*
X172934523Y-115022380D02*
X173553571Y-115022380D01*
X173220238Y-115403333D01*
X173363095Y-115403333D01*
X173458333Y-115450952D01*
X173505952Y-115498571D01*
X173553571Y-115593809D01*
X173553571Y-115831904D01*
X173505952Y-115927142D01*
X173458333Y-115974761D01*
X173363095Y-116022380D01*
X173077380Y-116022380D01*
X172982142Y-115974761D01*
X172934523Y-115927142D01*
X174410714Y-115355714D02*
X174410714Y-116022380D01*
X174172619Y-114974761D02*
X173934523Y-115689047D01*
X174553571Y-115689047D01*
X175125000Y-115022380D02*
X175220238Y-115022380D01*
X175315476Y-115070000D01*
X175363095Y-115117619D01*
X175410714Y-115212857D01*
X175458333Y-115403333D01*
X175458333Y-115641428D01*
X175410714Y-115831904D01*
X175363095Y-115927142D01*
X175315476Y-115974761D01*
X175220238Y-116022380D01*
X175125000Y-116022380D01*
X175029761Y-115974761D01*
X174982142Y-115927142D01*
X174934523Y-115831904D01*
X174886904Y-115641428D01*
X174886904Y-115403333D01*
X174934523Y-115212857D01*
X174982142Y-115117619D01*
X175029761Y-115070000D01*
X175125000Y-115022380D01*
X175886904Y-116022380D02*
X175886904Y-115022380D01*
X175982142Y-115641428D02*
X176267857Y-116022380D01*
X176267857Y-115355714D02*
X175886904Y-115736666D01*
X165552380Y-116165238D02*
X165552380Y-116736666D01*
X165552380Y-116450952D02*
X164552380Y-116450952D01*
X164695238Y-116546190D01*
X164790476Y-116641428D01*
X164838095Y-116736666D01*
X164552380Y-115546190D02*
X164552380Y-115450952D01*
X164600000Y-115355714D01*
X164647619Y-115308095D01*
X164742857Y-115260476D01*
X164933333Y-115212857D01*
X165171428Y-115212857D01*
X165361904Y-115260476D01*
X165457142Y-115308095D01*
X165504761Y-115355714D01*
X165552380Y-115450952D01*
X165552380Y-115546190D01*
X165504761Y-115641428D01*
X165457142Y-115689047D01*
X165361904Y-115736666D01*
X165171428Y-115784285D01*
X164933333Y-115784285D01*
X164742857Y-115736666D01*
X164647619Y-115689047D01*
X164600000Y-115641428D01*
X164552380Y-115546190D01*
X165552380Y-114784285D02*
X164552380Y-114784285D01*
X165171428Y-114689047D02*
X165552380Y-114403333D01*
X164885714Y-114403333D02*
X165266666Y-114784285D01*
X172934523Y-109942380D02*
X173553571Y-109942380D01*
X173220238Y-110323333D01*
X173363095Y-110323333D01*
X173458333Y-110370952D01*
X173505952Y-110418571D01*
X173553571Y-110513809D01*
X173553571Y-110751904D01*
X173505952Y-110847142D01*
X173458333Y-110894761D01*
X173363095Y-110942380D01*
X173077380Y-110942380D01*
X172982142Y-110894761D01*
X172934523Y-110847142D01*
X174410714Y-110275714D02*
X174410714Y-110942380D01*
X174172619Y-109894761D02*
X173934523Y-110609047D01*
X174553571Y-110609047D01*
X175125000Y-109942380D02*
X175220238Y-109942380D01*
X175315476Y-109990000D01*
X175363095Y-110037619D01*
X175410714Y-110132857D01*
X175458333Y-110323333D01*
X175458333Y-110561428D01*
X175410714Y-110751904D01*
X175363095Y-110847142D01*
X175315476Y-110894761D01*
X175220238Y-110942380D01*
X175125000Y-110942380D01*
X175029761Y-110894761D01*
X174982142Y-110847142D01*
X174934523Y-110751904D01*
X174886904Y-110561428D01*
X174886904Y-110323333D01*
X174934523Y-110132857D01*
X174982142Y-110037619D01*
X175029761Y-109990000D01*
X175125000Y-109942380D01*
X175886904Y-110942380D02*
X175886904Y-109942380D01*
X175982142Y-110561428D02*
X176267857Y-110942380D01*
X176267857Y-110275714D02*
X175886904Y-110656666D01*
X171553333Y-123277380D02*
X171362857Y-123277380D01*
X171267619Y-123325000D01*
X171220000Y-123372619D01*
X171124761Y-123515476D01*
X171077142Y-123705952D01*
X171077142Y-124086904D01*
X171124761Y-124182142D01*
X171172380Y-124229761D01*
X171267619Y-124277380D01*
X171458095Y-124277380D01*
X171553333Y-124229761D01*
X171600952Y-124182142D01*
X171648571Y-124086904D01*
X171648571Y-123848809D01*
X171600952Y-123753571D01*
X171553333Y-123705952D01*
X171458095Y-123658333D01*
X171267619Y-123658333D01*
X171172380Y-123705952D01*
X171124761Y-123753571D01*
X171077142Y-123848809D01*
X172220000Y-123705952D02*
X172124761Y-123658333D01*
X172077142Y-123610714D01*
X172029523Y-123515476D01*
X172029523Y-123467857D01*
X172077142Y-123372619D01*
X172124761Y-123325000D01*
X172220000Y-123277380D01*
X172410476Y-123277380D01*
X172505714Y-123325000D01*
X172553333Y-123372619D01*
X172600952Y-123467857D01*
X172600952Y-123515476D01*
X172553333Y-123610714D01*
X172505714Y-123658333D01*
X172410476Y-123705952D01*
X172220000Y-123705952D01*
X172124761Y-123753571D01*
X172077142Y-123801190D01*
X172029523Y-123896428D01*
X172029523Y-124086904D01*
X172077142Y-124182142D01*
X172124761Y-124229761D01*
X172220000Y-124277380D01*
X172410476Y-124277380D01*
X172505714Y-124229761D01*
X172553333Y-124182142D01*
X172600952Y-124086904D01*
X172600952Y-123896428D01*
X172553333Y-123801190D01*
X172505714Y-123753571D01*
X172410476Y-123705952D01*
X173220000Y-123277380D02*
X173315238Y-123277380D01*
X173410476Y-123325000D01*
X173458095Y-123372619D01*
X173505714Y-123467857D01*
X173553333Y-123658333D01*
X173553333Y-123896428D01*
X173505714Y-124086904D01*
X173458095Y-124182142D01*
X173410476Y-124229761D01*
X173315238Y-124277380D01*
X173220000Y-124277380D01*
X173124761Y-124229761D01*
X173077142Y-124182142D01*
X173029523Y-124086904D01*
X172981904Y-123896428D01*
X172981904Y-123658333D01*
X173029523Y-123467857D01*
X173077142Y-123372619D01*
X173124761Y-123325000D01*
X173220000Y-123277380D01*
X173981904Y-124277380D02*
X173981904Y-123277380D01*
X174077142Y-123896428D02*
X174362857Y-124277380D01*
X174362857Y-123610714D02*
X173981904Y-123991666D01*
X135413904Y-126436380D02*
X135080571Y-125960190D01*
X134842476Y-126436380D02*
X134842476Y-125436380D01*
X135223428Y-125436380D01*
X135318666Y-125484000D01*
X135366285Y-125531619D01*
X135413904Y-125626857D01*
X135413904Y-125769714D01*
X135366285Y-125864952D01*
X135318666Y-125912571D01*
X135223428Y-125960190D01*
X134842476Y-125960190D01*
X136223428Y-126388761D02*
X136128190Y-126436380D01*
X135937714Y-126436380D01*
X135842476Y-126388761D01*
X135794857Y-126293523D01*
X135794857Y-125912571D01*
X135842476Y-125817333D01*
X135937714Y-125769714D01*
X136128190Y-125769714D01*
X136223428Y-125817333D01*
X136271047Y-125912571D01*
X136271047Y-126007809D01*
X135794857Y-126103047D01*
X136652000Y-126388761D02*
X136747238Y-126436380D01*
X136937714Y-126436380D01*
X137032952Y-126388761D01*
X137080571Y-126293523D01*
X137080571Y-126245904D01*
X137032952Y-126150666D01*
X136937714Y-126103047D01*
X136794857Y-126103047D01*
X136699619Y-126055428D01*
X136652000Y-125960190D01*
X136652000Y-125912571D01*
X136699619Y-125817333D01*
X136794857Y-125769714D01*
X136937714Y-125769714D01*
X137032952Y-125817333D01*
X137890095Y-126388761D02*
X137794857Y-126436380D01*
X137604380Y-126436380D01*
X137509142Y-126388761D01*
X137461523Y-126293523D01*
X137461523Y-125912571D01*
X137509142Y-125817333D01*
X137604380Y-125769714D01*
X137794857Y-125769714D01*
X137890095Y-125817333D01*
X137937714Y-125912571D01*
X137937714Y-126007809D01*
X137461523Y-126103047D01*
X138223428Y-125769714D02*
X138604380Y-125769714D01*
X138366285Y-125436380D02*
X138366285Y-126293523D01*
X138413904Y-126388761D01*
X138509142Y-126436380D01*
X138604380Y-126436380D01*
X130582000Y-83651285D02*
X130224857Y-83651285D01*
X130224857Y-82901285D01*
X130832000Y-83651285D02*
X130832000Y-82901285D01*
X131082000Y-83437000D01*
X131332000Y-82901285D01*
X131332000Y-83651285D01*
X131617714Y-82901285D02*
X132117714Y-82901285D01*
X131796285Y-83651285D01*
X132510571Y-83222714D02*
X132439142Y-83187000D01*
X132403428Y-83151285D01*
X132367714Y-83079857D01*
X132367714Y-83044142D01*
X132403428Y-82972714D01*
X132439142Y-82937000D01*
X132510571Y-82901285D01*
X132653428Y-82901285D01*
X132724857Y-82937000D01*
X132760571Y-82972714D01*
X132796285Y-83044142D01*
X132796285Y-83079857D01*
X132760571Y-83151285D01*
X132724857Y-83187000D01*
X132653428Y-83222714D01*
X132510571Y-83222714D01*
X132439142Y-83258428D01*
X132403428Y-83294142D01*
X132367714Y-83365571D01*
X132367714Y-83508428D01*
X132403428Y-83579857D01*
X132439142Y-83615571D01*
X132510571Y-83651285D01*
X132653428Y-83651285D01*
X132724857Y-83615571D01*
X132760571Y-83579857D01*
X132796285Y-83508428D01*
X132796285Y-83365571D01*
X132760571Y-83294142D01*
X132724857Y-83258428D01*
X132653428Y-83222714D01*
X133260571Y-82901285D02*
X133332000Y-82901285D01*
X133403428Y-82937000D01*
X133439142Y-82972714D01*
X133474857Y-83044142D01*
X133510571Y-83187000D01*
X133510571Y-83365571D01*
X133474857Y-83508428D01*
X133439142Y-83579857D01*
X133403428Y-83615571D01*
X133332000Y-83651285D01*
X133260571Y-83651285D01*
X133189142Y-83615571D01*
X133153428Y-83579857D01*
X133117714Y-83508428D01*
X133082000Y-83365571D01*
X133082000Y-83187000D01*
X133117714Y-83044142D01*
X133153428Y-82972714D01*
X133189142Y-82937000D01*
X133260571Y-82901285D01*
X134189142Y-82901285D02*
X133832000Y-82901285D01*
X133796285Y-83258428D01*
X133832000Y-83222714D01*
X133903428Y-83187000D01*
X134082000Y-83187000D01*
X134153428Y-83222714D01*
X134189142Y-83258428D01*
X134224857Y-83329857D01*
X134224857Y-83508428D01*
X134189142Y-83579857D01*
X134153428Y-83615571D01*
X134082000Y-83651285D01*
X133903428Y-83651285D01*
X133832000Y-83615571D01*
X133796285Y-83579857D01*
X144946666Y-105600000D02*
X144946666Y-105123809D01*
X145232380Y-105695238D02*
X144232380Y-105361904D01*
X145232380Y-105028571D01*
X144232380Y-104838095D02*
X144232380Y-104266666D01*
X145232380Y-104552380D02*
X144232380Y-104552380D01*
X145232380Y-103933333D02*
X144232380Y-103933333D01*
X144946666Y-103600000D01*
X144232380Y-103266666D01*
X145232380Y-103266666D01*
X144708571Y-102790476D02*
X144708571Y-102457142D01*
X145232380Y-102314285D02*
X145232380Y-102790476D01*
X144232380Y-102790476D01*
X144232380Y-102314285D01*
X144280000Y-101361904D02*
X144232380Y-101457142D01*
X144232380Y-101600000D01*
X144280000Y-101742857D01*
X144375238Y-101838095D01*
X144470476Y-101885714D01*
X144660952Y-101933333D01*
X144803809Y-101933333D01*
X144994285Y-101885714D01*
X145089523Y-101838095D01*
X145184761Y-101742857D01*
X145232380Y-101600000D01*
X145232380Y-101504761D01*
X145184761Y-101361904D01*
X145137142Y-101314285D01*
X144803809Y-101314285D01*
X144803809Y-101504761D01*
X144946666Y-100933333D02*
X144946666Y-100457142D01*
X145232380Y-101028571D02*
X144232380Y-100695238D01*
X145232380Y-100361904D01*
X144232380Y-100123809D02*
X144232380Y-99504761D01*
X144613333Y-99838095D01*
X144613333Y-99695238D01*
X144660952Y-99600000D01*
X144708571Y-99552380D01*
X144803809Y-99504761D01*
X145041904Y-99504761D01*
X145137142Y-99552380D01*
X145184761Y-99600000D01*
X145232380Y-99695238D01*
X145232380Y-99980952D01*
X145184761Y-100076190D01*
X145137142Y-100123809D01*
X144327619Y-99123809D02*
X144280000Y-99076190D01*
X144232380Y-98980952D01*
X144232380Y-98742857D01*
X144280000Y-98647619D01*
X144327619Y-98600000D01*
X144422857Y-98552380D01*
X144518095Y-98552380D01*
X144660952Y-98600000D01*
X145232380Y-99171428D01*
X145232380Y-98552380D01*
X144660952Y-97980952D02*
X144613333Y-98076190D01*
X144565714Y-98123809D01*
X144470476Y-98171428D01*
X144422857Y-98171428D01*
X144327619Y-98123809D01*
X144280000Y-98076190D01*
X144232380Y-97980952D01*
X144232380Y-97790476D01*
X144280000Y-97695238D01*
X144327619Y-97647619D01*
X144422857Y-97600000D01*
X144470476Y-97600000D01*
X144565714Y-97647619D01*
X144613333Y-97695238D01*
X144660952Y-97790476D01*
X144660952Y-97980952D01*
X144708571Y-98076190D01*
X144756190Y-98123809D01*
X144851428Y-98171428D01*
X145041904Y-98171428D01*
X145137142Y-98123809D01*
X145184761Y-98076190D01*
X145232380Y-97980952D01*
X145232380Y-97790476D01*
X145184761Y-97695238D01*
X145137142Y-97647619D01*
X145041904Y-97600000D01*
X144851428Y-97600000D01*
X144756190Y-97647619D01*
X144708571Y-97695238D01*
X144660952Y-97790476D01*
X121356380Y-105481190D02*
X121356380Y-105957380D01*
X120356380Y-105957380D01*
X120356380Y-105290714D02*
X120356380Y-104719285D01*
X121356380Y-105005000D02*
X120356380Y-105005000D01*
X121356380Y-103862142D02*
X121356380Y-104433571D01*
X121356380Y-104147857D02*
X120356380Y-104147857D01*
X120499238Y-104243095D01*
X120594476Y-104338333D01*
X120642095Y-104433571D01*
X121356380Y-102909761D02*
X121356380Y-103481190D01*
X121356380Y-103195476D02*
X120356380Y-103195476D01*
X120499238Y-103290714D01*
X120594476Y-103385952D01*
X120642095Y-103481190D01*
X121356380Y-101957380D02*
X121356380Y-102528809D01*
X121356380Y-102243095D02*
X120356380Y-102243095D01*
X120499238Y-102338333D01*
X120594476Y-102433571D01*
X120642095Y-102528809D01*
X120356380Y-101624047D02*
X120356380Y-100957380D01*
X121356380Y-101385952D01*
X151090714Y-75382380D02*
X151090714Y-74382380D01*
X151424047Y-75096666D01*
X151757380Y-74382380D01*
X151757380Y-75382380D01*
X152805000Y-75287142D02*
X152757380Y-75334761D01*
X152614523Y-75382380D01*
X152519285Y-75382380D01*
X152376428Y-75334761D01*
X152281190Y-75239523D01*
X152233571Y-75144285D01*
X152185952Y-74953809D01*
X152185952Y-74810952D01*
X152233571Y-74620476D01*
X152281190Y-74525238D01*
X152376428Y-74430000D01*
X152519285Y-74382380D01*
X152614523Y-74382380D01*
X152757380Y-74430000D01*
X152805000Y-74477619D01*
X153138333Y-74382380D02*
X153757380Y-74382380D01*
X153424047Y-74763333D01*
X153566904Y-74763333D01*
X153662142Y-74810952D01*
X153709761Y-74858571D01*
X153757380Y-74953809D01*
X153757380Y-75191904D01*
X153709761Y-75287142D01*
X153662142Y-75334761D01*
X153566904Y-75382380D01*
X153281190Y-75382380D01*
X153185952Y-75334761D01*
X153138333Y-75287142D01*
X154614523Y-74715714D02*
X154614523Y-75382380D01*
X154376428Y-74334761D02*
X154138333Y-75049047D01*
X154757380Y-75049047D01*
X155662142Y-75382380D02*
X155090714Y-75382380D01*
X155376428Y-75382380D02*
X155376428Y-74382380D01*
X155281190Y-74525238D01*
X155185952Y-74620476D01*
X155090714Y-74668095D01*
X156566904Y-74382380D02*
X156090714Y-74382380D01*
X156043095Y-74858571D01*
X156090714Y-74810952D01*
X156185952Y-74763333D01*
X156424047Y-74763333D01*
X156519285Y-74810952D01*
X156566904Y-74858571D01*
X156614523Y-74953809D01*
X156614523Y-75191904D01*
X156566904Y-75287142D01*
X156519285Y-75334761D01*
X156424047Y-75382380D01*
X156185952Y-75382380D01*
X156090714Y-75334761D01*
X156043095Y-75287142D01*
X157566904Y-75382380D02*
X156995476Y-75382380D01*
X157281190Y-75382380D02*
X157281190Y-74382380D01*
X157185952Y-74525238D01*
X157090714Y-74620476D01*
X156995476Y-74668095D01*
X129071714Y-112744095D02*
X129738380Y-112744095D01*
X128690761Y-112982190D02*
X129405047Y-113220285D01*
X129405047Y-112601238D01*
X128738380Y-112029809D02*
X128738380Y-111934571D01*
X128786000Y-111839333D01*
X128833619Y-111791714D01*
X128928857Y-111744095D01*
X129119333Y-111696476D01*
X129357428Y-111696476D01*
X129547904Y-111744095D01*
X129643142Y-111791714D01*
X129690761Y-111839333D01*
X129738380Y-111934571D01*
X129738380Y-112029809D01*
X129690761Y-112125047D01*
X129643142Y-112172666D01*
X129547904Y-112220285D01*
X129357428Y-112267904D01*
X129119333Y-112267904D01*
X128928857Y-112220285D01*
X128833619Y-112172666D01*
X128786000Y-112125047D01*
X128738380Y-112029809D01*
X128738380Y-110791714D02*
X128738380Y-111267904D01*
X129214571Y-111315523D01*
X129166952Y-111267904D01*
X129119333Y-111172666D01*
X129119333Y-110934571D01*
X129166952Y-110839333D01*
X129214571Y-110791714D01*
X129309809Y-110744095D01*
X129547904Y-110744095D01*
X129643142Y-110791714D01*
X129690761Y-110839333D01*
X129738380Y-110934571D01*
X129738380Y-111172666D01*
X129690761Y-111267904D01*
X129643142Y-111315523D01*
X128738380Y-110125047D02*
X128738380Y-110029809D01*
X128786000Y-109934571D01*
X128833619Y-109886952D01*
X128928857Y-109839333D01*
X129119333Y-109791714D01*
X129357428Y-109791714D01*
X129547904Y-109839333D01*
X129643142Y-109886952D01*
X129690761Y-109934571D01*
X129738380Y-110029809D01*
X129738380Y-110125047D01*
X129690761Y-110220285D01*
X129643142Y-110267904D01*
X129547904Y-110315523D01*
X129357428Y-110363142D01*
X129119333Y-110363142D01*
X128928857Y-110315523D01*
X128833619Y-110267904D01*
X128786000Y-110220285D01*
X128738380Y-110125047D01*
X135326380Y-113350476D02*
X135326380Y-113921904D01*
X135326380Y-113636190D02*
X134326380Y-113636190D01*
X134469238Y-113731428D01*
X134564476Y-113826666D01*
X134612095Y-113921904D01*
X134326380Y-112493333D02*
X134326380Y-112683809D01*
X134374000Y-112779047D01*
X134421619Y-112826666D01*
X134564476Y-112921904D01*
X134754952Y-112969523D01*
X135135904Y-112969523D01*
X135231142Y-112921904D01*
X135278761Y-112874285D01*
X135326380Y-112779047D01*
X135326380Y-112588571D01*
X135278761Y-112493333D01*
X135231142Y-112445714D01*
X135135904Y-112398095D01*
X134897809Y-112398095D01*
X134802571Y-112445714D01*
X134754952Y-112493333D01*
X134707333Y-112588571D01*
X134707333Y-112779047D01*
X134754952Y-112874285D01*
X134802571Y-112921904D01*
X134897809Y-112969523D01*
X135326380Y-111969523D02*
X134326380Y-111969523D01*
X135040666Y-111636190D01*
X134326380Y-111302857D01*
X135326380Y-111302857D01*
X135326380Y-110826666D02*
X134326380Y-110826666D01*
X134802571Y-110826666D02*
X134802571Y-110255238D01*
X135326380Y-110255238D02*
X134326380Y-110255238D01*
X134659714Y-109874285D02*
X134659714Y-109350476D01*
X135326380Y-109874285D01*
X135326380Y-109350476D01*
X129371285Y-79670571D02*
X129371285Y-80099142D01*
X129371285Y-79884857D02*
X128621285Y-79884857D01*
X128728428Y-79956285D01*
X128799857Y-80027714D01*
X128835571Y-80099142D01*
X128621285Y-79206285D02*
X128621285Y-79134857D01*
X128657000Y-79063428D01*
X128692714Y-79027714D01*
X128764142Y-78992000D01*
X128907000Y-78956285D01*
X129085571Y-78956285D01*
X129228428Y-78992000D01*
X129299857Y-79027714D01*
X129335571Y-79063428D01*
X129371285Y-79134857D01*
X129371285Y-79206285D01*
X129335571Y-79277714D01*
X129299857Y-79313428D01*
X129228428Y-79349142D01*
X129085571Y-79384857D01*
X128907000Y-79384857D01*
X128764142Y-79349142D01*
X128692714Y-79313428D01*
X128657000Y-79277714D01*
X128621285Y-79206285D01*
X128871285Y-78634857D02*
X129371285Y-78634857D01*
X128942714Y-78634857D02*
X128907000Y-78599142D01*
X128871285Y-78527714D01*
X128871285Y-78420571D01*
X128907000Y-78349142D01*
X128978428Y-78313428D01*
X129371285Y-78313428D01*
X128978428Y-77706285D02*
X128978428Y-77956285D01*
X129371285Y-77956285D02*
X128621285Y-77956285D01*
X128621285Y-77599142D01*
X131411285Y-100113571D02*
X131911285Y-100113571D01*
X131125571Y-100292142D02*
X131661285Y-100470714D01*
X131661285Y-100006428D01*
X131839857Y-99720714D02*
X131875571Y-99685000D01*
X131911285Y-99720714D01*
X131875571Y-99756428D01*
X131839857Y-99720714D01*
X131911285Y-99720714D01*
X131161285Y-99435000D02*
X131161285Y-98935000D01*
X131911285Y-99256428D01*
X131411285Y-98327857D02*
X131911285Y-98327857D01*
X131411285Y-98649285D02*
X131804142Y-98649285D01*
X131875571Y-98613571D01*
X131911285Y-98542142D01*
X131911285Y-98435000D01*
X131875571Y-98363571D01*
X131839857Y-98327857D01*
X131518428Y-97720714D02*
X131518428Y-97970714D01*
X131911285Y-97970714D02*
X131161285Y-97970714D01*
X131161285Y-97613571D01*
X152886428Y-91406285D02*
X152886428Y-91906285D01*
X152707857Y-91120571D02*
X152529285Y-91656285D01*
X152993571Y-91656285D01*
X153279285Y-91834857D02*
X153315000Y-91870571D01*
X153279285Y-91906285D01*
X153243571Y-91870571D01*
X153279285Y-91834857D01*
X153279285Y-91906285D01*
X153565000Y-91156285D02*
X154065000Y-91156285D01*
X153743571Y-91906285D01*
X154672142Y-91406285D02*
X154672142Y-91906285D01*
X154350714Y-91406285D02*
X154350714Y-91799142D01*
X154386428Y-91870571D01*
X154457857Y-91906285D01*
X154565000Y-91906285D01*
X154636428Y-91870571D01*
X154672142Y-91834857D01*
X155279285Y-91513428D02*
X155029285Y-91513428D01*
X155029285Y-91906285D02*
X155029285Y-91156285D01*
X155386428Y-91156285D01*
X113677142Y-110282142D02*
X113629523Y-110329761D01*
X113486666Y-110377380D01*
X113391428Y-110377380D01*
X113248571Y-110329761D01*
X113153333Y-110234523D01*
X113105714Y-110139285D01*
X113058095Y-109948809D01*
X113058095Y-109805952D01*
X113105714Y-109615476D01*
X113153333Y-109520238D01*
X113248571Y-109425000D01*
X113391428Y-109377380D01*
X113486666Y-109377380D01*
X113629523Y-109425000D01*
X113677142Y-109472619D01*
X114629523Y-110377380D02*
X114058095Y-110377380D01*
X114343809Y-110377380D02*
X114343809Y-109377380D01*
X114248571Y-109520238D01*
X114153333Y-109615476D01*
X114058095Y-109663095D01*
X114962857Y-109377380D02*
X115629523Y-109377380D01*
X115200952Y-110377380D01*
X113159285Y-105749285D02*
X112730714Y-105749285D01*
X112945000Y-105749285D02*
X112945000Y-104999285D01*
X112873571Y-105106428D01*
X112802142Y-105177857D01*
X112730714Y-105213571D01*
X113623571Y-104999285D02*
X113695000Y-104999285D01*
X113766428Y-105035000D01*
X113802142Y-105070714D01*
X113837857Y-105142142D01*
X113873571Y-105285000D01*
X113873571Y-105463571D01*
X113837857Y-105606428D01*
X113802142Y-105677857D01*
X113766428Y-105713571D01*
X113695000Y-105749285D01*
X113623571Y-105749285D01*
X113552142Y-105713571D01*
X113516428Y-105677857D01*
X113480714Y-105606428D01*
X113445000Y-105463571D01*
X113445000Y-105285000D01*
X113480714Y-105142142D01*
X113516428Y-105070714D01*
X113552142Y-105035000D01*
X113623571Y-104999285D01*
X114337857Y-104999285D02*
X114409285Y-104999285D01*
X114480714Y-105035000D01*
X114516428Y-105070714D01*
X114552142Y-105142142D01*
X114587857Y-105285000D01*
X114587857Y-105463571D01*
X114552142Y-105606428D01*
X114516428Y-105677857D01*
X114480714Y-105713571D01*
X114409285Y-105749285D01*
X114337857Y-105749285D01*
X114266428Y-105713571D01*
X114230714Y-105677857D01*
X114195000Y-105606428D01*
X114159285Y-105463571D01*
X114159285Y-105285000D01*
X114195000Y-105142142D01*
X114230714Y-105070714D01*
X114266428Y-105035000D01*
X114337857Y-104999285D01*
X114909285Y-105249285D02*
X114909285Y-105749285D01*
X114909285Y-105320714D02*
X114945000Y-105285000D01*
X115016428Y-105249285D01*
X115123571Y-105249285D01*
X115195000Y-105285000D01*
X115230714Y-105356428D01*
X115230714Y-105749285D01*
X115837857Y-105356428D02*
X115587857Y-105356428D01*
X115587857Y-105749285D02*
X115587857Y-104999285D01*
X115945000Y-104999285D01*
M02*
